<?xml version="1.0" encoding="UTF-8" standalone="no"?>
<!DOCTYPE svg PUBLIC "-//W3C//DTD SVG 1.1//EN" "http://www.w3.org/Graphics/SVG/1.1/DTD/svg11.dtd">
<!-- Created with Vectornator (http://vectornator.io/) -->
<svg height="100%" stroke-miterlimit="10" style="fill-rule:nonzero;clip-rule:evenodd;stroke-linecap:round;stroke-linejoin:round;" version="1.1" viewBox="0 0 252.767 244.111" width="100%" xml:space="preserve" xmlns="http://www.w3.org/2000/svg" xmlnsVectornator="http://vectornator.io" xmlnsXlink="http://www.w3.org/1999/xlink">
<defs/>
<clipPath id="ArtboardFrame">
<rect height="244.111" width="252.767" x="0" y="0"/>
</clipPath>
<g clip-path="url(#ArtboardFrame)" id="Untitled" vectornatorLayerName="Untitled">
<path d="M167.148 138.004C169.842 125.262 162.57 118.784 153.45 112.95C130.189 98.0683 104.831 87.878 78.5419 80.1836C58.3794 74.2825 37.7742 69.8659 17.3002 65.0696C8.61301 63.0345 8.32022 63.0339 10.1495 54.0384C10.8054 50.8128 11.8196 47.6089 11.9901 44.3594C12.0638 42.9543 10.6761 41.1582 9.46299 40.1011C8.52392 39.2827 6.83598 39.1212 5.4599 39.0443C1.09171 38.8002-0.568469 36.4585 0.169015 32.3592C1.78461 23.379 3.24403 14.3552 5.34191 5.48515C6.11919 2.19873 8.91273-0.164528 12.8567 0.008965C27.746 0.663933 42.6692 0.91428 57.5126 2.13341C70.2052 3.17589 82.8847 4.89014 95.4312 7.09644C122.417 11.842 149.11 17.6163 174.483 28.6278C189.151 34.9933 202.973 42.5229 214.714 53.2715C225.046 62.7304 231.424 74.6643 234.327 88.6142C235.594 94.7021 238.841 100.373 241.142 106.252C244.708 115.367 243.094 124.646 241.741 133.849C240.804 140.219 239.075 146.482 238.335 152.866C238.13 154.633 239.879 156.941 241.276 158.519C245.103 162.842 245.285 163.207 240.395 166.182C235.719 169.027 231.903 172.495 230.178 177.808C229.423 180.133 228.891 182.363 232.911 182.074C237.221 181.764 241.574 182.102 245.903 181.973C249.326 181.872 252.296 183.07 252.753 186.402C252.962 187.922 250.764 190.412 249.047 191.454C236.422 199.114 223.604 206.455 210.921 214.02C194.742 223.672 178.609 233.401 162.515 243.192C159.393 245.09 156.083 244.023 155.185 240.229C154.031 235.347 153.164 230.397 152.136 225.485C151.882 224.273 151.86 222.695 151.089 221.959C143.498 214.719 144.175 204.373 141.417 195.457C137.46 182.665 135.13 169.367 132.156 156.274C129.878 146.241 133.797 142.827 143.872 145.069C149.796 146.387 156.003 146.649 162.098 146.809C163.415 146.843 165.087 144.581 166.056 143.038C166.84 141.791 166.814 140.035 167.148 138.004M203.648 74.0043C203.058 73.4142 202.561 72.6624 201.864 72.2576C182.464 61.0001 161.693 52.9987 139.892 48.1676C121.286 44.0442 102.436 40.8361 83.5604 38.1635C68.5611 36.0398 53.3599 35.3447 38.2507 33.9894C37.1617 33.8917 36.07 33.6575 35.0164 33.3576C25.2957 30.5908 21.3953 33.1179 20.1548 43.0342C20.0934 43.5245 20.231 44.0518 20.1132 44.521C17.3592 55.4951 17.4119 55.2702 28.3804 58.057C44.6336 62.1865 60.8665 66.4275 76.9829 71.0569C107.012 79.6825 136.16 90.3442 161.764 108.968C170.531 115.345 178.902 121.915 181.724 133.098C185.203 146.885 185.376 160.655 181.141 174.342C180.18 177.448 178.272 179.232 174.758 179.027C167.735 178.617 160.708 178.243 153.677 178.039C149.224 177.909 148.238 179.426 149.382 183.752C151.011 189.916 152.587 196.094 154.142 202.277C156.497 211.636 158.843 220.998 161.133 230.374C161.948 233.712 163.449 233.605 165.912 231.816C168.813 229.707 171.9 227.838 174.998 226.02C185.851 219.654 196.734 213.338 207.625 207.036C216.224 202.061 224.864 197.156 233.452 192.163C234.749 191.409 235.864 190.341 237.062 189.419C235.425 188.947 233.807 188.18 232.145 188.067C228.937 187.851 225.653 188.361 222.492 187.919C217.977 187.287 217.274 185.446 219.292 181.348C221.609 176.644 224.301 172.069 226.068 167.163C231.953 150.822 234.898 133.979 234.2 116.514C233.666 103.18 226.707 93.2094 217.815 84.3383C213.893 80.4256 209.065 77.4211 203.648 74.0043M38.6478 9.00426C31.4531 8.67093 24.2594 8.17138 17.0631 8.13059C15.4293 8.12133 12.657 9.40504 12.3414 10.6029C10.9004 16.0716 9.98148 21.7005 9.26056 27.3212C9.07204 28.791 10.268 30.4384 10.8282 32.0043C12.268 31.1229 14.3598 30.5776 15.0212 29.2949C16.7616 25.9196 19.3896 24.8507 22.8405 25.0106C36.8965 25.662 50.9529 26.306 65.0055 27.0249C68.8738 27.2227 72.7621 27.4573 76.5847 28.0436C88.9373 29.9382 101.324 31.6938 113.584 34.0876C127.077 36.7222 140.618 39.3908 153.827 43.1409C176.469 49.5689 198.408 57.8038 216.866 73.1811C217.9 74.0428 219.204 74.5812 220.382 75.27C220.186 73.8964 220.496 72.0229 219.712 71.229C213.925 65.3665 208.208 59.3774 201.92 54.0803C191.099 44.9652 178.344 39.1515 165.277 33.9953C148.331 27.3079 130.888 22.3296 112.986 19.0539C102.394 17.1158 91.7392 15.4664 81.0636 14.0588C69.1489 12.4877 57.1769 11.3536 45.2346 9.98764C43.3594 9.77314 41.5094 9.33759 38.6478 9.00426M166.648 172.004C170.031 171.883 174.429 173.215 175.064 168.062C176.048 160.069 176.668 152.016 177.012 143.969C177.096 142.024 175.494 140.007 174.667 138.023C174.161 139.961 173.377 141.873 173.196 143.841C172.423 152.241 170.599 154.128 162.235 153.963C156.221 153.843 150.205 153.447 144.207 152.962C140.775 152.685 139.64 154.29 140.189 157.297C140.775 160.502 141.628 163.662 142.479 166.811C143.165 169.347 144.872 169.978 147.527 170.116C153.583 170.429 159.609 171.338 166.648 172.004Z" fill="#3328174d" fill-rule="nonzero" opacity="1" stroke="none"/>
</g>
</svg>
