<?xml version="1.0" encoding="UTF-8" standalone="no"?>
<!DOCTYPE svg PUBLIC "-//W3C//DTD SVG 1.1//EN" "http://www.w3.org/Graphics/SVG/1.1/DTD/svg11.dtd">
<!-- Created with Vectornator (http://vectornator.io/) -->
<svg height="100%" stroke-miterlimit="10" style="fill-rule:nonzero;clip-rule:evenodd;stroke-linecap:round;stroke-linejoin:round;" version="1.1" viewBox="0 0 171.138 183.159" width="100%" xmlSpace="preserve" xmlns="http://www.w3.org/2000/svg" xmlnsVectornator="http://vectornator.io" xmlnsXlink="http://www.w3.org/1999/xlink">
<defs/>
<clipPath id="ArtboardFrame">
<rect height="183.159" width="171.138" x="0" y="0"/>
</clipPath>
<g clip-path="url(#ArtboardFrame)" id="Untitled" vectornatorLayerName="Untitled">
<path d="M2.01034 101.172C2.34817 99.4179 2.88285 97.4053 4.51734 96.6857C8.42935 94.9632 13.1121 102.515 16.0729 99.4324C19.0673 96.3145 24.2582 98.5598 27.8733 100.93C40.2141 109.022 52.5549 117.113 64.8957 125.205C74.1888 131.298 87.5078 124.401 92.1472 114.303C96.7867 104.205 95.2993 92.4871 93.7178 81.4876C93.3178 78.706 90.5668 75.0522 88.6679 77.1238C85.4837 80.5978 78.4049 76.6493 79.6878 72.1147C77.5209 74.6692 75.102 77.3781 71.8186 78.0412C68.5351 78.7044 64.4953 75.9714 65.2722 72.7129C70.1746 52.1495 75.0771 31.5861 79.9795 11.0227C80.8868 7.21721 82.0375 3.04982 85.2997 0.890445C88.5618-1.26893 94.3186 0.704851 93.9258 4.59721C97.0292-1.48505 106.263 1.9863 111.676 6.14913C130.29 20.4658 148.905 34.7825 167.52 49.0992C169.924 50.9481 172.492 54.4433 170.316 56.5558C169.292 57.5499 167.693 57.5598 166.267 57.5074C158.338 57.2161 150.408 56.9248 142.479 56.6335C148.364 76.6503 151.14 97.5781 150.678 118.437C150.397 131.069 148.873 143.907 143.686 155.428C138.499 166.949 129.229 177.085 117.229 181.039C109.579 183.559 101.313 183.469 93.3035 182.626C59.7394 179.094 27.7551 162.279 5.81648 136.633C-2.19494 127.268-0.321016 113.274 2.01034 101.172M101.808 132.111C90.9864 139.148 76.5184 136.646 64.6641 131.537C49.7754 125.12 36.7291 115.171 23.8513 105.321C18.7862 112.728 19.9125 123.063 24.3996 130.834C28.8866 138.605 36.1632 144.319 43.4497 149.556C54.4564 157.467 65.9764 164.797 78.476 170.04C92.2163 175.804 108.571 178.778 121.619 171.584C136.489 163.386 142.146 144.904 143.891 128.014C146.518 102.577 143.296 76.5535 134.545 52.525C132.961 48.1754 139.697 45.4471 144.12 46.8136C148.543 48.1802 153.269 51.1446 157.398 49.0528C139.481 35.6819 121.563 22.311 103.645 8.94014C97.2855 29.1393 92.0289 49.6856 87.9064 70.4571C95.1174 64.9036 103.444 60.8047 112.243 58.4769C113.1 66.4972 113.956 74.5175 114.813 82.5378C115.771 91.5047 116.726 100.608 115.211 109.498C113.697 118.388 109.367 127.194 101.808 132.111M110.018 98.8594C110.445 89.3309 109.463 79.7405 107.116 70.4958C106.818 69.3229 106.305 67.9594 105.126 67.6885C102.212 67.9964 100.021 70.7007 99.3225 73.5458C98.6246 76.3909 99.0896 79.3743 99.495 82.2756C100.673 90.7113 101.315 99.3259 99.8845 107.722C98.4538 116.119 94.7877 124.348 88.4492 130.038C95.4059 129.772 101.62 124.977 105.102 118.949C108.584 112.921 109.706 105.814 110.018 98.8594M81.202 64.0714C83.4458 61.1194 84.3735 57.4027 85.2485 53.7996C88.012 42.4198 90.7756 31.04 93.5392 19.6602C94.2261 16.8316 94.8656 13.6539 93.3546 11.166C91.8435 8.67811 87.2122 8.38552 86.5099 11.2103C81.6953 30.5764 76.8807 49.9424 72.066 69.3084C75.6458 68.8762 79.02 66.942 81.202 64.0714M49.9536 164.118C53.156 166.114 56.6348 168.094 60.407 168.005C47.3755 159.607 34.9101 150.33 23.1236 140.259C20.2311 137.788 17.2704 135.114 15.9644 131.54C14.1461 126.566 15.9225 121.074 15.9049 115.777C15.8874 110.48 12.319 104.13 7.08808 104.962C6.69055 109.8 6.29301 114.638 5.89548 119.476C5.6681 122.243 5.45667 125.126 6.48116 127.707C7.38091 129.973 9.14412 131.771 10.8894 133.474C22.7577 145.054 35.8803 155.348 49.9536 164.118Z" fill="#3328174d" fill-rule="nonzero" opacity="1" stroke="none"/>
</g>
</svg>
