<?xml version="1.0" encoding="UTF-8" standalone="no"?>
<!DOCTYPE svg PUBLIC "-//W3C//DTD SVG 1.1//EN" "http://www.w3.org/Graphics/SVG/1.1/DTD/svg11.dtd">
<!-- Created with Vectornator (http://vectornator.io/) -->
<svg height="100%" stroke-miterlimit="10" style="fill-rule:nonzero;clip-rule:evenodd;stroke-linecap:round;stroke-linejoin:round;" version="1.1" viewBox="0 0 137.987 201.178" width="100%" xmlSpace="preserve" xmlns="http://www.w3.org/2000/svg" xmlnsVectornator="http://vectornator.io" xmlnsXlink="http://www.w3.org/1999/xlink">
<defs/>
<clipPath id="ArtboardFrame">
<rect height="201.178" width="137.987" x="0" y="0"/>
</clipPath>
<g clip-path="url(#ArtboardFrame)" id="Untitled" vectornatorLayerName="Untitled">
<path d="M137.039 149.752C137.373 154.945 138.106 159.649 137.97 164.327C137.381 184.637 125.187 199.232 103.503 200.911C83.6085 202.451 65.2725 197.122 47.1976 190.265C35.8429 185.958 24.8663 180.651 13.7433 175.739C9.69833 173.953 7.15759 171.235 8.00377 166.316C8.70955 162.214 7.24535 159.391 3.32256 157.206C1.57012 156.23 0.215694 152.976 0.179748 150.732C-0.081642 134.413-0.005993 118.088 0.084026 101.765C0.098888 99.0697 0.199714 96.1803 1.15542 93.7295C2.66528 89.8576 5.90583 90.1815 9.27262 91.4582C21.51 96.0989 33.6813 100.947 46.0821 105.107C51.1133 106.795 56.6454 107.322 61.9935 107.642C67.6749 107.982 70.3149 104.202 69.0392 98.5922C67.3259 91.0584 67.3387 91.1182 59.8345 92.7358C52.1753 94.3868 44.5131 96.0687 36.781 97.2832C35.748 97.4454 33.024 94.5984 33.2584 93.7373C34.3006 89.9101 36.1463 86.3033 37.6743 82.6056C38.0457 81.7066 38.3139 80.7649 38.6296 79.8428C37.4477 79.4794 36.2134 78.7042 35.0957 78.8462C33.292 79.0752 31.5995 80.1271 29.7939 80.4122C28.501 80.6164 26.6261 80.5959 25.8811 79.8297C25.1472 79.0747 25.0862 77.1251 25.4542 75.921C30.2406 60.2585 35.6722 44.7705 39.8144 28.9435C41.7886 21.4003 41.2511 13.218 42.127 5.35586C42.3385 3.45694 43.2168 0.738304 44.5711 0.125099C45.7987-0.430767 48.4259 0.975063 49.8652 2.19148C63.4397 13.6642 77.5537 24.3829 93.0237 33.1853C102.437 38.5415 112.054 43.538 121.52 48.804C122.563 49.384 124.091 51.1336 123.874 51.5522C123.214 52.8264 121.973 54.1356 120.653 54.6514C118.781 55.3829 116.623 55.3507 114.62 55.795C114.035 55.9248 113.563 56.5656 113.039 56.9722C113.543 57.5656 113.928 58.4084 114.569 58.7127C119.437 61.0244 124.39 63.1571 129.23 65.5252C130.341 66.0691 132.048 67.8416 131.879 68.1377C131.094 69.5175 129.945 71.2112 128.567 71.6397C123.377 73.2539 118.111 74.9668 112.751 75.5908C107.874 76.1586 109.232 77.961 110.512 80.7867C117.311 95.7892 124.334 110.707 130.529 125.959C133.543 133.381 134.921 141.467 137.039 149.752M6.03919 111.252C6.03919 122.747 6.3531 134.254 5.89123 145.729C5.69485 150.609 7.96971 153.088 11.6751 154.697C22.4023 159.353 33.1422 164.012 44.0599 168.192C62.0976 175.098 80.4948 180.107 100.154 176.768C113.072 174.575 121.6 165.559 122.906 152.569C124.136 140.338 122.324 128.295 118.392 116.534C111.89 97.0811 103.065 78.7817 92.2395 61.3942C90.3263 58.3212 90.4096 55.5983 94.8494 54.7412C99.7749 53.7903 104.693 52.7969 109.59 51.7107C110.454 51.5192 111.196 50.782 111.995 50.2968C111.405 49.782 110.89 49.1199 110.213 48.7753C103.751 45.4842 96.8973 42.8077 90.8555 38.879C77.6639 30.3011 64.8836 21.0911 51.9257 12.1533C51.1669 11.63 50.3229 11.2303 49.5186 10.773C49.0255 11.7347 48.2436 12.6521 48.088 13.6657C47.3144 18.7033 47.265 23.9191 45.9333 28.7913C42.0992 42.8184 37.7655 56.7087 33.6488 70.6588C33.3909 71.5327 33.3107 72.4591 33.1478 73.361C34.2597 73.4915 35.4617 73.9634 36.4692 73.6977C43.6631 71.8003 51.0304 70.2931 57.9161 67.5796C63.3258 65.4478 65.2475 68.6159 66.6855 72.059C69.6504 79.158 71.9959 86.517 74.5621 93.781C78.9735 106.268 72.7345 112.616 65.7122 113.495C59.93 114.218 53.5583 113.664 47.9861 111.938C35.2007 107.978 22.7217 103.017 10.1713 98.3204C7.43703 97.2972 6.11188 97.8148 6.0534 100.758C5.99054 103.922 6.03919 107.088 6.03919 111.252M123.039 169.252C119.915 174.766 115.13 178.469 109.39 180.691C97.8518 185.156 86.1122 184.88 73.9193 182.952C55.6058 180.056 38.6924 173.478 21.8795 166.215C19.5325 165.201 16.6959 161.32 14.3798 165.447C13.9049 166.294 17.3751 170.416 19.7416 171.602C27.846 175.661 36.1461 179.4 44.5947 182.688C63.2005 189.929 82.1409 195.987 102.51 194.7C109.641 194.249 116.362 192.375 121.947 187.393C131.962 178.459 131.488 166.376 131.938 154.604C131.999 153.013 130.696 151.371 130.024 149.752C129.362 151.714 128.301 153.639 128.119 155.644C127.684 160.443 126.761 164.971 123.039 169.252M44.5392 79.7524C43.7058 82.5694 43.4141 85.7259 41.9113 88.1232C39.6982 91.6537 42.3495 91.0402 43.8433 90.6793C50.0188 89.1871 56.1655 87.5378 62.2147 85.6078C63.0041 85.3559 63.5712 83.1211 63.5131 81.8378C63.4467 80.3708 62.8575 78.7181 61.9658 77.5507C60.8361 76.0716 58.7787 73.6865 57.8074 73.978C53.419 75.2951 49.2727 77.4191 44.5392 79.7524M109.039 70.2524C110.503 69.7889 111.948 69.2523 113.434 68.8793C115.544 68.3499 117.684 67.941 119.811 67.4806C117.797 66.3147 115.855 64.9938 113.753 64.0184C110.426 62.4748 107.056 60.9428 103.557 59.9057C102.672 59.6435 101.227 61.2741 100.039 62.0349C102.873 64.9408 105.706 67.8466 109.039 70.2524Z" fill="#3328174d" fill-rule="nonzero" opacity="1" stroke="none"/>
</g>
</svg>
