<?xml version="1.0" encoding="UTF-8" standalone="no"?>
<!DOCTYPE svg PUBLIC "-//W3C//DTD SVG 1.1//EN" "http://www.w3.org/Graphics/SVG/1.1/DTD/svg11.dtd">
<!-- Created with Vectornator (http://vectornator.io/) -->
<svg height="100%" stroke-miterlimit="10" style="fill-rule:nonzero;clip-rule:evenodd;stroke-linecap:round;stroke-linejoin:round;" version="1.1" viewBox="0 0 191.653 142.26" width="100%" xmlSpace="preserve" xmlns="http://www.w3.org/2000/svg" xmlnsVectornator="http://vectornator.io" xmlnsXlink="http://www.w3.org/1999/xlink">
<defs/>
<g id="Untitled" vectornatorLayerName="Untitled">
<path d="M19.0276 127.629C17.4188 126.632 16.7313 124.676 16.1984 122.86C6.94178 91.307 10.7154 56.1418 26.4561 27.2717C29.6236 21.4622 33.5182 15.6528 39.4021 12.6258C47.6612 8.37679 57.6917 10.6086 66.4523 13.6938C82.0295 19.1795 96.7461 27.1013 109.903 37.083C112.348 36.378 109.737 32.8456 109.533 30.3092C109.291 27.2796 113.67 25.7162 116.275 27.2812C118.881 28.8461 119.97 32.0056 120.866 34.9097C120.131 28.9426 119.396 22.9754 118.661 17.0083C118.396 14.8618 118.431 12.1336 120.389 11.2152C122.668 10.1462 124.944 12.62 126.257 14.7673C140.753 38.467 155.249 62.1668 169.745 85.8665C171.141 88.1501 172.544 91.1005 171.064 93.3315C168.785 96.7687 162.231 94.6389 160.163 98.2071C162.566 101.304 164.923 105.963 162.137 108.722C161.108 109.741 159.631 110.132 158.226 110.483C138.81 115.335 119.394 120.188 99.9786 125.04C97.2375 125.725 93.4307 125.873 92.5419 123.191C92.0428 121.685 92.857 120.09 93.6449 118.713C97.3239 112.284 101.003 105.855 104.682 99.4261C106.224 96.731 103.226 93.7598 100.604 92.0967C97.0247 89.8268 93.4458 87.5569 89.8669 85.287C85.6642 82.6215 81.2951 79.8927 76.3679 79.1924C71.4408 78.4921 65.7742 80.4003 63.6548 84.9031C61.8704 88.6943 62.9796 93.1632 64.2889 97.1436C65.5981 101.124 67.098 105.359 65.9997 109.403C64.9013 113.446 59.8339 116.614 56.4191 114.186C57.4758 117.138 58.549 120.237 58.1026 123.341C57.6561 126.445 55.1444 129.494 52.0102 129.395C42.3683 129.088 32.7264 128.782 23.0845 128.476C21.6869 128.431 20.2162 128.366 19.0276 127.629M59.8782 107.149C58.1117 96.8528 56.3617 86.1501 59.1736 76.0892C61.9856 66.0283 70.7689 56.8209 81.211 57.1248C86.6773 57.2839 91.7264 59.9339 96.492 62.6163C104.502 67.1247 112.358 71.907 120.041 76.952C121.085 77.6374 122.204 78.4334 122.52 79.6417C122.855 80.9245 122.174 82.2308 121.517 83.3823C117.734 90.0067 113.952 96.6311 110.169 103.256C126.428 99.2279 142.687 95.2003 158.946 91.1727C160.711 90.7353 162.778 90.0122 163.217 88.2469C163.541 86.9405 162.797 85.6315 162.083 84.4903C150.294 65.644 138.505 46.7976 126.716 27.9512C127.304 34.5061 127.891 41.0609 128.479 47.6158C128.771 50.8735 126.443 55.75 123.876 53.7236C106.237 39.8005 86.6264 28.3791 65.8127 19.9071C57.1524 16.3819 46.2419 13.7096 39.2629 19.9324C36.1289 22.7268 34.5074 26.8099 33.1795 30.7934C25.4851 53.8768 24.18 79.0542 29.4464 102.81C29.7706 104.272 30.162 105.809 31.2181 106.872C32.6555 108.318 34.9017 108.493 36.9402 108.537C44.607 108.701 52.2871 108.236 59.8782 107.149M93.6125 68.1269C88.9661 65.7236 83.9744 63.4605 78.7493 63.7118C73.5242 63.9631 68.0975 67.5449 67.5117 72.7432C81.9539 72.5776 94.8991 81.0431 106.829 89.1852C109.25 90.8378 112.111 87.8311 113.498 85.2485C114.054 84.2135 114.628 83.0762 114.422 81.9195C114.177 80.5442 112.926 79.6108 111.765 78.8353C105.919 74.9328 99.8556 71.356 93.6125 68.1269M49.5462 113.909C43.3007 113.755 37.0553 113.601 30.8098 113.447C28.9268 113.401 26.8327 113.265 25.5346 111.9C24.6557 110.976 24.3337 109.67 24.0603 108.424C20.7823 93.4816 19.7152 78.0564 20.9044 62.8053C18.3449 65.7145 17.975 69.8974 17.8347 73.7698C17.286 88.9178 18.3745 104.125 21.0749 119.04C21.3256 120.425 21.6824 121.953 22.8486 122.74C23.7278 123.334 24.8598 123.355 25.9205 123.355C33.2037 123.354 40.4868 123.354 47.7699 123.353C48.8116 123.353 50.0224 123.27 50.6176 122.415C51.023 121.832 51.005 121.063 50.9426 120.356C50.7488 118.16 50.2784 115.988 49.5462 113.909M153.919 99.2234C140.545 102.161 127.203 105.243 113.896 108.469C111.179 109.128 108.401 109.819 106.074 111.369C103.747 112.918 101.922 115.523 102.081 118.314C118.006 114.313 133.931 110.312 149.856 106.312C151.656 105.859 153.587 105.326 154.751 103.88C155.916 102.435 155.688 99.7872 153.919 99.2234Z" fill="#3328174d" fill-rule="nonzero" opacity="1" stroke="none"/>
</g>
<g id="Layer-1" vectornatorLayerName="Layer 1"/>
</svg>
