<?xml version="1.0" encoding="UTF-8" standalone="no"?>
<!DOCTYPE svg PUBLIC "-//W3C//DTD SVG 1.1//EN" "http://www.w3.org/Graphics/SVG/1.1/DTD/svg11.dtd">
<!-- Created with Vectornator (http://vectornator.io/) -->
<svg height="100%" stroke-miterlimit="10" style="fill-rule:nonzero;clip-rule:evenodd;stroke-linecap:round;stroke-linejoin:round;" version="1.1" viewBox="0 0 584.221 528.348" width="100%" xmlSpace="preserve" xmlns="http://www.w3.org/2000/svg" xmlnsVectornator="http://vectornator.io" xmlnsXlink="http://www.w3.org/1999/xlink">
<defs/>
<clipPath id="ArtboardFrame">
<rect height="528.348" width="584.221" x="0" y="0"/>
</clipPath>
<g clip-path="url(#ArtboardFrame)" id="Untitled" vectornatorLayerName="Untitled">
<path d="M584.001 104.218C582.668 118.666 581.33 132.613 580.002 146.561C578.995 157.146 578.049 167.737 576.989 178.316C575.707 191.102 574.239 203.87 573.058 216.665C572.692 220.632 573.116 224.664 572.975 228.659C572.734 235.524 572.044 242.385 572.073 249.245C572.111 258.166 573.045 267.089 572.919 276.001C572.687 292.474 561.627 306.407 544.581 311.065C538.62 312.693 532.167 312.484 525.953 313.233C515.332 314.512 504.733 315.98 494.105 317.185C486.734 318.022 479.324 318.511 471.938 319.227C458.488 320.529 445.047 321.936 431.593 323.199C423.379 323.969 415.125 324.351 406.929 325.269C396.957 326.387 387.038 327.969 377.077 329.189C370.372 330.01 363.631 330.532 356.91 331.224C350.683 331.864 344.418 332.306 338.273 333.413C336.953 333.651 335.354 336.272 335.127 337.962C334.163 345.146 333.783 352.406 332.974 359.614C331.744 370.573 330.308 381.509 329.02 392.462C328.717 395.041 328.524 397.647 328.499 400.242C328.403 410.518 327.174 420.98 328.698 431.018C330.206 440.945 338.891 446.536 347.205 451.145C363.034 459.921 378.989 468.488 395.118 476.698C403.612 481.022 412.678 484.206 421.304 488.288C427.303 491.126 432.354 494.911 431.046 502.955C429.88 510.127 428.157 516.528 420.847 520.322C412.404 524.703 403.256 526.16 394.173 527.016C381.998 528.164 369.63 528.78 357.45 527.996C341.5 526.969 325.624 524.592 310.977 517.249C297.049 510.267 282.596 504.236 269.086 496.536C251.067 486.266 233.16 475.595 216.291 463.572C202.636 453.84 197.692 439.368 200.905 422.396C202.157 415.783 202.178 408.946 203.039 402.247C204.173 393.429 205.636 384.653 206.853 375.844C207.663 369.985 208.233 364.093 209.023 358.231C209.487 354.791 210.068 351.358 210.796 347.965C211.338 345.443 210.601 344.015 207.964 344.252C202.536 344.738 197.132 345.502 191.703 345.99C186.046 346.498 180.373 346.84 174.704 347.213C164.315 347.897 153.924 348.551 143.533 349.218C133.143 349.885 122.678 349.985 112.378 351.343C94.0981 353.752 77.5456 348.732 61.3234 341.239C41.5905 332.125 25.731 318.456 12.4304 301.365C7.33916 294.823 2.38247 288.425 0.620358 280.23C-0.091739 276.919-0.0392 273.39 0.052181 269.971C0.186703 264.937 0.705078 259.915 0.991547 254.883C1.36315 248.357 1.88065 241.828 1.92923 235.298C1.96412 230.605 0.919167 225.894 1.08128 221.215C1.51095 208.817 2.19827 196.423 3.03957 184.044C3.86179 171.947 4.79229 159.849 6.04996 147.79C7.91966 129.863 9.65317 111.855 15.2106 94.5942C20.9541 76.7552 33.1697 65.1239 51.2556 60.3211C63.3401 57.112 75.6783 54.8516 87.9163 52.2287C97.4167 50.1925 106.895 48.0045 116.463 46.3458C124.477 44.9564 132.602 44.1958 140.686 43.2275C152.13 41.8569 163.575 40.4973 175.03 39.238C182.075 38.4635 189.169 38.0881 196.193 37.1707C206.896 35.7728 217.556 34.0446 228.238 32.4913C231.555 32.0091 234.878 31.525 238.215 31.2385C250.463 30.1869 262.754 29.5293 274.961 28.1375C289.505 26.4793 303.966 24.1086 318.489 22.2524C330.248 20.7495 342.037 19.465 353.83 18.2406C367.6 16.8107 381.396 15.6193 395.168 14.1975C407.125 12.9629 419.083 11.6956 431.008 10.1811C445.532 8.33643 459.992 5.95671 474.536 4.29853C486.743 2.9067 499.029 2.18746 511.285 1.23216C516.64 0.814729 522.018 0.671367 527.367 0.196649C547.533-1.59297 560.372 8.99894 570.011 25.174C577.787 38.2224 582.939 52.2433 583.854 67.3892C584.583 79.4578 584.001 91.6054 584.001 104.218M565.001 238.718C565.334 230.192 565.668 221.665 566 213.139C566.007 212.973 565.986 212.804 566.003 212.639C567.334 199.86 568.709 187.085 569.985 174.3C570.738 166.753 571.203 159.175 572.029 151.637C573.598 137.318 575.69 123.048 576.869 108.7C577.585 99.9792 577.515 91.1133 576.867 82.3816C576.102 72.0599 575.933 61.2678 572.654 51.6514C566.623 33.9616 564.277 26.5126 542.83 27.2683C532.098 27.6464 521.382 28.5223 510.663 29.2351C507.294 29.4591 503.919 29.7493 500.581 30.2429C489.763 31.8429 478.987 33.7523 468.145 35.1507C460.3 36.1624 452.354 36.3712 444.49 37.2581C430.999 38.7796 417.546 40.635 404.059 42.1902C394.158 43.332 384.218 44.1364 374.312 45.2397C363.189 46.4786 352.074 47.8043 340.974 49.2396C328.821 50.8113 316.719 52.8307 304.54 54.147C289.46 55.7769 274.32 56.8447 259.213 58.238C253.312 58.7823 247.411 59.4071 241.547 60.2526C233.248 61.4494 225.007 63.0726 216.695 64.161C209.509 65.1021 202.247 65.4598 195.037 66.2389C183.416 67.4945 171.805 68.8467 160.198 70.2312C152.278 71.176 144.327 71.9838 136.471 73.3247C126.416 75.041 116.42 77.131 106.438 79.2439C94.3547 81.8015 82.1953 84.1174 70.2808 87.3254C54.6088 91.5452 44.4396 101.392 39.8395 117.509C34.9374 134.684 33.1927 152.271 31.0859 169.829C29.6423 181.86 28.8512 193.977 28.042 206.074C27.1917 218.783 26.449 231.508 26.0678 244.239C25.7438 255.061 26.0012 265.901 26.0005 276.732C26.0004 278.064 26.2235 279.444 25.9557 280.72C23.3656 293.061 26.0631 303.9 34.5868 313.355C44.1626 323.976 56.5546 330.306 69.2921 335.825C80.9599 340.881 93.2804 343.842 106.223 343.251C110.77 343.044 115.358 343.516 119.887 343.164C135.177 341.973 150.445 340.503 165.729 339.233C178.64 338.16 191.557 337.145 204.481 336.24C215.529 335.466 226.587 334.821 237.647 334.239C246.003 333.8 254.37 333.598 262.728 333.201C267.76 332.962 272.804 332.729 277.808 332.182C288.934 330.965 300.029 329.479 311.153 328.24C321.059 327.136 331 326.345 340.899 325.182C350.864 324.011 360.783 322.45 370.746 321.253C377.781 320.407 384.862 319.955 391.909 319.202C403.861 317.926 415.796 316.496 427.75 315.238C435.128 314.462 442.534 313.957 449.915 313.202C462.367 311.928 474.803 310.502 487.256 309.237C494.802 308.47 502.383 308.036 509.918 307.181C520.381 305.994 530.8 304.417 541.265 303.253C553.568 301.884 563.937 292.053 564.762 280.866C565.768 267.218 565.001 253.44 565.001 238.718M334.501 503.218C335.168 503.218 335.853 503.117 336.499 503.233C350.859 505.81 365.096 507.661 379.926 506.571C393.214 505.594 406.151 503.905 418.887 500.216C419.597 500.01 420.296 499.766 421.001 499.54C420.606 498.871 420.34 498.056 419.787 497.566C418.853 496.74 417.828 495.872 416.683 495.45C390.598 485.84 366.77 471.725 342.704 458.146C323.949 447.564 317.646 430.663 320 409.911C321.336 398.139 322.588 386.356 324.031 374.597C324.862 367.829 326.079 361.108 326.977 354.347C327.757 348.476 328.384 342.582 328.895 336.682C328.931 336.261 327.435 335.261 326.687 335.296C323.485 335.447 320.297 335.881 317.104 336.219C304.499 337.55 291.912 339.12 279.282 340.15C267.259 341.131 255.189 341.529 243.142 342.229C238.612 342.493 234.063 342.693 229.582 343.338C228.282 343.524 226.588 344.928 226.133 346.164C225.328 348.351 225.254 350.828 225.015 353.198C223.982 363.44 223.015 373.688 221.997 383.932C220.679 397.205 219.355 410.478 217.995 423.747C216.706 436.32 223.084 445.078 232.993 451.09C249.159 460.898 265.758 470.001 282.306 479.165C289.586 483.196 297.082 486.881 304.669 490.301C314.346 494.663 324.215 498.599 334.501 503.218M79.5009 76.218C84.7517 75.218 90.0086 74.2486 95.2521 73.212C108.65 70.5633 121.974 67.4531 135.453 65.3306C151.214 62.8489 167.099 61.1368 182.949 59.2442C195.213 57.7797 207.512 56.6068 219.784 55.2015C230.739 53.9468 241.668 52.4512 252.628 51.2439C265.729 49.8009 278.852 48.5566 291.965 47.2158C298.356 46.5622 304.768 46.0542 311.129 45.1806C322.29 43.648 333.398 41.7303 344.567 40.2656C353.954 39.0343 363.395 38.2028 372.815 37.2217C385.76 35.8736 398.706 34.5326 411.656 33.2291C415.677 32.8244 419.726 32.6782 423.736 32.1948C437.052 30.5896 450.352 28.8505 463.666 27.2301C472.409 26.166 481.162 25.172 489.92 24.2289C502.695 22.8532 515.478 21.5441 528.259 20.2204C537.555 19.2576 546.873 17.5792 556.036 21.159C556.52 21.3481 557.547 20.8459 557.931 20.3583C558.214 20.0003 558.101 18.817 557.749 18.5503C551.5 13.8181 545.487 8.00581 537.052 8.33C521.119 8.94234 505.208 10.1496 489.297 11.2498C482.394 11.7271 475.498 12.4101 468.629 13.2518C458.833 14.4523 449.08 16.0109 439.28 17.1766C431.915 18.0527 424.494 18.4504 417.118 19.2412C405.495 20.4873 393.897 21.9635 382.273 23.1902C374.565 24.0036 366.803 24.3332 359.112 25.2681C346.947 26.7468 334.832 28.6248 322.678 30.1964C311.578 31.6317 300.462 32.961 289.338 34.1979C276.568 35.6179 263.781 36.8881 251.001 38.2166C244.129 38.931 237.228 39.4365 230.387 40.3829C219.872 41.8379 209.419 43.7539 198.898 45.1616C191.714 46.1229 184.446 46.4358 177.239 47.245C166.281 48.4753 155.345 49.9018 144.395 51.2125C135.814 52.2399 127.176 52.9103 118.654 54.2973C108.429 55.9616 98.2771 58.109 88.1355 60.2462C76.0494 62.7932 63.862 65.0315 51.987 68.3612C39.6009 71.8342 29.4124 78.7417 24.3922 91.3531C18.8837 105.191 16.7893 119.802 15.0187 134.461C13.9227 143.535 12.7718 152.611 12.0526 161.718C10.8625 176.787 9.91643 191.878 9.03328 206.969C8.52174 215.71 7.73106 224.498 8.13527 233.216C8.82714 248.137 5.28631 263.188 9.11842 277.944C10.577 283.561 13.2914 288.865 15.618 294.231C15.9978 295.107 17.3384 295.566 18.235 296.218C18.4903 295.209 18.9544 294.203 18.9665 293.191C19.0368 287.302 19.0009 281.411 19.0009 275.521C19.0009 268.132 18.8713 260.739 19.039 253.353C19.1925 246.597 19.5944 239.844 20.0157 233.098C20.9685 217.844 21.8512 202.583 23.0441 187.347C24.1765 172.885 25.3697 158.415 27.1107 144.018C28.1846 135.137 29.9878 126.304 32.0819 117.598C35.239 104.472 41.9797 93.2018 53.7305 86.3333C61.3537 81.8775 70.2017 79.5172 79.5009 76.218M420.501 508.218C409.801 510.551 399.196 513.67 388.372 514.981C378.953 516.121 369.279 515.461 359.734 515.133C353.329 514.913 346.654 514.855 340.625 513.01C329.157 509.501 317.595 505.701 306.917 500.338C285.487 489.573 264.657 477.615 243.513 466.273C234.11 461.228 225.539 455.182 218.435 447.158C212.622 440.592 210.903 432.374 211.224 424.247C211.683 412.599 213.696 401.014 214.99 389.397C215.719 382.847 216.15 376.259 217.047 369.734C218.189 361.428 219.706 353.173 220.883 344.87C220.939 344.473 219.276 343.833 218.414 343.305C217.609 344.639 216.358 345.889 216.091 347.322C215.474 350.631 215.424 354.04 214.984 357.388C213.698 367.175 212.278 376.943 211.021 386.733C210.205 393.092 209.432 399.463 208.907 405.85C208.145 415.137 207.517 424.438 207.028 433.743C206.387 445.919 214.267 453.127 223.073 459.133C249.032 476.837 276.735 491.508 304.763 505.651C322.46 514.581 341.259 517.975 360.652 519.16C375.329 520.057 389.953 518.841 404.384 516.118C409.975 515.063 415.372 512.942 420.818 511.181C422.328 510.693 424.599 509.961 420.501 508.218Z" fill="#E7E0D6" fill-rule="nonzero" opacity="1" stroke="none"/>
<path d="M61.0009 117.218C65.9697 111.551 70.2002 105.198 76.0994 101.527C83.0361 97.2092 91.1972 94.214 99.224 92.4275C115.825 88.7326 132.646 85.9412 149.459 83.3058C162.866 81.2042 176.388 79.8215 189.873 78.235C204.673 76.4938 219.487 74.8774 234.297 73.22C249.271 71.5442 264.247 69.8861 279.222 68.2176C291.169 66.8864 303.139 65.7322 315.056 64.1705C328.753 62.3754 342.39 60.12 356.079 58.26C362.77 57.3509 369.521 56.8899 376.243 56.2169C389.524 54.8873 402.801 53.5262 416.085 52.2279C423.469 51.5062 430.884 51.0527 438.249 50.1766C448.049 49.0109 457.811 47.5289 467.595 46.2269C472.979 45.5105 478.358 44.6526 483.768 44.262C499.343 43.1374 514.922 41.8237 530.523 41.3601C540.516 41.0631 548.329 45.5955 553.045 54.9475C557.7 64.1771 560.553 73.8183 561 84.1536C561.339 92.0147 562.433 99.9353 561.833 107.725C560.765 121.579 558.664 135.354 557.002 149.163C555.664 160.276 554.403 171.399 552.98 182.501C551.747 192.127 550.245 201.72 549.04 211.349C548.477 215.849 548.178 220.396 548.031 224.93C547.613 237.788 547.258 250.65 547.032 263.513C546.91 270.409 546.438 277.215 542.521 283.147C536.956 291.575 529.501 297.674 519.275 299.13C509.415 300.535 499.454 301.245 489.532 302.212C475.588 303.57 461.642 304.907 447.692 306.211C436.611 307.246 425.505 308.053 414.443 309.26C400.782 310.751 387.166 312.653 373.509 314.185C363.109 315.352 352.661 316.085 342.261 317.251C328.604 318.783 314.993 320.742 301.325 322.153C291.637 323.154 281.888 323.595 272.162 324.207C260.775 324.922 249.382 325.525 237.994 326.226C227.769 326.855 217.545 327.517 207.325 328.226C193.405 329.193 179.486 330.188 165.571 331.23C157.51 331.833 149.463 332.63 141.399 333.193C134.879 333.649 128.318 334.428 121.821 334.117C101.808 333.158 83.6691 326.616 67.2421 315.056C59.5185 309.62 52.5149 303.608 48.4195 294.979C46.9812 291.949 46.144 288.343 46.105 284.987C45.8881 266.325 45.7639 247.654 46.0872 228.994C46.2906 217.263 47.2736 205.543 48.0206 193.825C48.5877 184.929 48.9308 175.991 50.0889 167.166C52.1912 151.143 53.3379 134.878 59.9483 119.779C60.2571 119.073 60.6481 118.404 61.0009 117.218M263.001 84.718C263.001 83.553 262.568 82.1357 263.075 81.2665C265.328 77.4045 263.418 76.8984 260.127 77.2134C256.434 77.5669 252.715 77.7263 249.046 78.2476C237.892 79.8326 226.781 81.7451 215.607 83.1605C205.556 84.4335 195.425 85.0624 185.363 86.2573C172.701 87.761 160.022 89.2425 147.443 91.2946C130.968 93.9822 114.521 96.9218 98.1855 100.341C89.8455 102.087 81.7691 105.033 74.9882 110.689C67.2457 117.147 63.9969 126.068 62.1381 135.351C59.5894 148.079 57.4517 160.943 56.1417 173.851C54.5491 189.543 53.812 205.332 53.075 221.096C52.6629 229.91 53.0009 238.759 53.0009 247.592C53.0009 254.425 53.0009 261.258 53.0009 268.091C53.0009 274.648 52.1891 281.345 53.2895 287.712C54.0096 291.878 57.1603 295.845 59.9843 299.273C60.7045 300.147 64.3113 298.423 66.6137 298.299C67.9324 298.229 69.4404 298.752 70.5587 299.478C70.9459 299.729 70.8073 301.882 70.2411 302.339C65.6045 306.079 68.9312 308.413 71.8456 310.132C76.8917 313.108 82.1984 315.664 87.4921 318.194C97.9701 323.203 108.943 326.527 120.664 326.166C135.228 325.717 149.785 324.985 164.334 324.179C172.403 323.732 180.444 322.807 188.508 322.235C203.423 321.176 218.338 320.119 233.265 319.255C242.448 318.723 251.655 318.599 260.847 318.2C266.213 317.967 271.589 317.727 276.929 317.182C288.888 315.963 300.822 314.496 312.777 313.238C320.156 312.462 327.578 312.07 334.941 311.177C347.435 309.661 359.881 307.741 372.378 306.258C385.137 304.744 397.923 303.424 410.719 302.254C423.456 301.09 436.219 300.209 448.972 299.223C453.665 298.86 458.381 298.717 463.053 298.185C473.846 296.956 484.615 295.52 495.4 294.228C504.147 293.18 513.073 292.969 521.614 291.035C533.347 288.378 539.074 280.112 539.85 269.645C540.813 256.664 540.67 243.6 540.997 230.572C541.026 229.406 540.893 228.227 541.018 227.074C542.324 214.957 543.661 202.843 545.003 190.73C545.992 181.81 546.806 172.865 548.047 163.98C549.868 150.95 552.495 138.016 553.846 124.944C554.943 114.328 555.061 103.564 554.895 92.8769C554.713 81.1615 552.711 69.8078 547.143 59.1161C543.557 52.2308 538.51 48.9532 531.082 49.2601C518.685 49.7724 506.286 50.3632 493.914 51.2798C484.639 51.967 475.397 53.1487 466.155 54.2344C452.505 55.8378 438.883 57.6839 425.22 59.1695C416.692 60.097 408.089 60.3391 399.56 61.2665C385.898 62.7522 372.275 64.5917 358.626 66.2058C346.852 67.5981 335.068 68.9024 323.285 70.2136C308.144 71.8985 293.012 73.6668 277.852 75.1594C272.048 75.7308 270.862 76.6889 269.895 82.3929C269.578 84.2639 268.025 85.9253 267.036 87.6826C265.858 86.8611 264.679 86.0395 263.001 84.718Z" fill="#E7E0D6" fill-rule="nonzero" opacity="1" stroke="none"/>
<path d="M296.251 243.468C280.732 252.32 265.524 261.035 250.132 269.411C247.651 270.761 243.952 271.783 241.491 270.954C224.845 265.343 208.373 259.213 191.861 253.206C186.795 251.363 181.899 248.862 176.695 247.669C173.925 247.034 170.601 248.336 167.645 249.179C165.908 249.674 164.494 251.416 162.763 251.777C161.549 252.031 159.681 251.234 158.804 250.27C158.243 249.653 158.779 247.821 159.163 246.644C159.393 245.938 160.184 245.086 160.878 244.909C168.867 242.875 168.236 236.738 168.039 230.568C167.585 216.321 167.272 202.068 167.026 187.815C166.892 180.114 168.153 178.793 175.521 177.141C176.799 176.854 177.999 175.698 178.979 174.694C189.034 164.381 198.914 153.895 209.127 143.743C212.112 140.775 215.728 138.136 219.526 136.348C232.622 130.183 246.228 125.036 259.03 118.335C265.874 114.752 269.701 118.078 273.888 121.693C287.8 133.706 301.665 145.782 315.211 158.202C317.365 160.177 318.825 164.047 318.829 167.043C318.849 184.236 319.259 201.522 317.58 218.583C316.83 226.205 318.859 229.191 325.113 231.264C325.967 231.548 326.826 232.326 327.308 233.107C328.009 234.242 328.37 235.587 328.876 236.843C327.732 237.301 326.531 238.246 325.458 238.118C323.168 237.844 320.831 237.274 318.72 236.353C315.265 234.846 312.183 234.79 308.831 236.793C304.86 239.167 300.623 241.096 296.251 243.468M218.501 201.218C205.466 196.517 192.377 191.96 179.434 187.018C175.965 185.694 174.986 186.42 174.991 189.82C175.014 204.469 174.833 219.122 175.183 233.762C175.235 235.944 177.262 239.323 179.161 240.025C199.814 247.667 220.689 254.708 241.325 262.393C244.749 263.668 243.995 262.295 243.997 260.457C244.006 253.352 244.019 246.247 243.994 239.142C243.98 235.279 243.98 231.412 243.81 227.555C243.654 224.002 242.651 220.37 243.14 216.933C243.988 210.975 243.75 210.168 238.087 208.184C231.844 205.998 225.692 203.551 218.501 201.218M274.501 185.218C275.089 184.63 275.581 183.868 276.28 183.479C286.688 177.68 297.114 171.914 307.557 166.181C309.836 164.929 311.471 163.712 308.638 161.337C306.029 159.149 303.524 156.837 300.917 154.647C290.676 146.042 280.189 137.708 270.282 128.735C266.985 125.749 263.424 125.304 260.413 126.557C248.771 131.4 237.388 136.872 225.987 142.277C223.875 143.279 222.197 144.378 223.856 147.868C231.517 163.98 238.62 180.357 246.047 196.582C247.331 199.388 249.698 199.915 252.427 198.223C259.443 193.874 266.475 189.551 274.501 185.218M312.001 180.718C312.118 179.934 312.297 179.153 312.341 178.365C312.457 176.348 312.512 174.328 312.592 172.309C310.886 172.954 309.047 173.372 307.495 174.279C289.926 184.549 272.385 194.866 254.877 205.24C251.253 207.388 249.608 210.605 249.953 214.984C250.471 221.549 250.942 228.14 250.928 234.718C250.912 242.131 250.203 249.541 250.146 256.956C250.138 258.035 252.074 259.13 253.111 260.218C255.156 257.702 259.204 257.015 259.081 252.48C258.819 242.829 259.015 233.166 258.993 223.508C258.985 220.008 260.253 217.537 263.654 215.987C269.683 213.238 275.557 210.149 281.506 207.221C286.173 204.924 288.628 206.492 289.026 211.759C289.595 219.316 290.303 226.864 291.017 234.409C291.288 237.275 292.733 238.059 295.255 236.465C299.082 234.047 303.082 231.858 306.668 229.124C308.496 227.731 310.479 225.505 310.81 223.406C311.459 219.289 310.903 214.994 311.021 210.778C311.292 201.089 311.668 191.404 312.001 180.718M228.001 174.718C224.596 167.313 221.223 159.894 217.772 152.511C216.294 149.351 214.344 149.328 211.956 151.735C203.171 160.59 194.367 169.429 185.476 178.178C183.67 179.955 184.113 180.481 186.225 181.251C203.274 187.465 220.289 193.773 237.331 200.005C238.024 200.258 238.886 200.045 239.67 200.049C239.538 199.363 239.553 198.604 239.253 198.003C235.529 190.562 231.759 183.143 228.001 174.718M283.001 220.718C282.963 215.477 282.232 215.001 277.645 217.217C274.874 218.556 271.803 219.502 269.419 221.339C267.514 222.807 265.292 225.313 265.214 227.432C264.968 234.09 265.86 240.782 265.923 247.464C265.956 251.007 267.761 250.75 269.847 249.798C272.791 248.454 275.576 246.762 278.428 245.218C282.382 243.077 285.037 240.443 284.098 235.254C283.296 230.821 283.334 226.236 283.001 220.718Z" fill="#E7E0D6" fill-rule="nonzero" opacity="1" stroke="none"/>
<path d="M465.751 126.468C459.011 119.384 458.818 119.282 454.096 128.205C452.226 131.741 449.194 131.927 446.698 131.008C444.015 130.021 442.048 127.288 443.024 123.814C443.563 121.893 443.932 119.712 445.116 118.244C446.254 116.835 448.905 114.965 449.922 115.428C454.654 117.583 455.689 114.657 456.332 111.323C457.178 106.94 458.602 102.401 454.196 98.7101C453.503 98.1296 453.781 96.0128 454.105 94.7311C454.314 93.9004 455.428 93.3025 456.127 92.5899C458.245 90.4288 460.337 88.0296 463.699 90.4398C466.596 92.5178 467.308 97.9581 465.807 101.045C464.474 103.788 463.106 106.933 463.213 109.846C463.335 113.129 465.45 115.524 469.669 115.402C471.324 115.354 473.959 117.017 474.532 118.517C475.682 121.526 475.986 125.363 472.383 127.087C470.7 127.892 468.155 126.897 465.751 126.468Z" fill="#E7E0D6" fill-rule="nonzero" opacity="1" stroke="none"/>
<path d="M369.251 249.468C374.089 250.551 378.827 251.537 383.179 253.417C384.593 254.028 384.998 256.975 385.865 258.854C384.067 259.299 381.985 260.55 380.527 260.035C376.501 258.613 372.658 256.594 368.893 254.535C366.257 253.094 366.822 251.281 369.251 249.468Z" fill="#E7E0D6" fill-rule="nonzero" opacity="1" stroke="none"/>
<path d="M131.751 260.968C134.646 259.073 137.142 257.046 139.995 255.932C141.589 255.31 144.687 255.502 145.5 256.562C147.057 258.592 145.91 260.441 143.245 261.633C140.705 262.769 138.666 264.976 136.228 266.408C134.365 267.502 132.448 268.776 130.301 266.163C128.182 263.583 130.632 262.731 131.751 260.968Z" fill="#E7E0D6" fill-rule="nonzero" opacity="1" stroke="none"/>
<path d="M268.001 104.218C268.001 106.217 268.315 107.805 267.922 109.193C267.426 110.943 266.354 112.53 265.531 114.188C264.353 112.697 262.283 111.271 262.168 109.703C261.842 105.249 262.14 100.717 262.633 96.2646C262.722 95.4631 264.91 94.8942 266.129 94.218C266.753 95.386 267.728 96.4993 267.92 97.7344C268.223 99.686 268.001 101.719 268.001 104.218Z" fill="#E7E0D6" fill-rule="nonzero" opacity="1" stroke="none"/>
<path d="M114.751 270.468C117.468 272.595 117.997 274.669 115.139 276.513C112.44 278.256 109.619 279.901 106.653 281.094C105.562 281.532 103.902 280.551 102.501 280.218C102.863 278.856 102.786 276.825 103.664 276.25C107.113 273.991 110.863 272.189 114.751 270.468Z" fill="#E7E0D6" fill-rule="nonzero" opacity="1" stroke="none"/>
<path d="M348.001 240.218C349.417 240.801 350.644 241.181 351.182 242.01C352.2 243.575 352.821 245.397 353.607 247.112C351.482 247.391 349.351 247.905 347.234 247.852C346.136 247.824 344.837 247.012 344.03 246.17C342.643 244.723 340.206 242.291 340.614 241.477C342.014 238.682 344.745 238.22 348.001 240.218Z" fill="#E7E0D6" fill-rule="nonzero" opacity="1" stroke="none"/>
<path d="M88.2509 291.468C85.8289 293.218 83.8235 295.223 81.4184 296.017C80.1043 296.451 78.1136 294.836 76.4281 294.145C76.9533 293.002 77.1724 291.338 78.0622 290.815C80.5326 289.362 83.1858 287.921 85.9479 287.347C88.7438 286.767 89.6824 288.568 88.2509 291.468Z" fill="#E7E0D6" fill-rule="nonzero" opacity="1" stroke="none"/>
<path d="M279.251 229.968C279.668 230.802 280.116 231.488 279.949 231.951C279.418 233.418 278.657 234.802 277.985 236.218C276.99 235.092 275.995 233.967 275.001 232.841C276.334 231.8 277.668 230.759 279.251 229.968Z" fill="#E7E0D6" fill-rule="nonzero" opacity="1" stroke="none"/>
</g>
</svg>
