<?xml version="1.0" encoding="UTF-8" standalone="no"?>
<!DOCTYPE svg PUBLIC "-//W3C//DTD SVG 1.1//EN" "http://www.w3.org/Graphics/SVG/1.1/DTD/svg11.dtd">
<!-- Created with Vectornator (http://vectornator.io/) -->
<svg height="100%" stroke-miterlimit="10" style="fill-rule:nonzero;clip-rule:evenodd;stroke-linecap:round;stroke-linejoin:round;" version="1.1" viewBox="0 0 1138.28 667.873" width="100%" xmlSpace="preserve" xmlns="http://www.w3.org/2000/svg" xmlnsVectornator="http://vectornator.io" xmlnsXlink="http://www.w3.org/1999/xlink">
<defs/>
<clipPath id="ArtboardFrame">
<rect height="667.873" width="1138.28" x="0" y="0"/>
</clipPath>
<g clip-path="url(#ArtboardFrame)" id="Untitled" vectornatorLayerName="Untitled">
<path d="M167.551 667.873C164.175 667.206 161.079 666.215 157.919 665.928C141.684 664.452 126.586 659.437 112.222 651.889C97.2896 644.043 85.0887 632.8 75.5774 619.264C66.4002 606.203 58.3725 592.194 51.1391 577.943C41.6838 559.313 34.7542 539.542 30.4362 519.072C27.4021 504.689 25.0785 490.1 23.4658 475.489C22.0161 462.353 20.9826 449.022 21.5276 435.851C22.3824 415.195 24.4408 394.573 30.1218 374.509C33.7174 361.81 37.025 349.029 40.3921 336.267C43.0343 326.252 42.5086 316.204 41.4244 305.961C38.5951 279.233 26.9352 255.423 17.8133 230.721C12.0396 215.086 6.20527 199.294 2.59825 183.083C-2.37764 160.72-0.256675 138.454 9.39383 117.254C15.3201 104.235 23.3343 92.6973 32.6704 81.8705C49.1895 62.7139 69.4237 48.4331 91.0697 35.8789C114.532 22.2711 139.877 13.388 166.079 7.02887C176.825 4.42083 187.942 2.98037 198.977 2.01301C213.149 0.770801 227.428-0.27303 241.626 0.064049C262.792 0.566572 283.683 3.85991 304.232 9.24467C323.133 14.1979 341.099 21.4721 358.706 29.8284C370.608 35.4773 383.176 38.6679 396.45 38.9086C403.981 39.0452 411.516 39.9665 419.031 39.7802C432.761 39.44 446.478 38.5648 460.198 37.8656C472.589 37.2342 484.971 36.4311 497.366 35.8989C515.249 35.1311 533.141 34.5446 551.028 33.871C559.556 33.5499 568.08 33.0252 576.611 32.9058C606.467 32.488 636.325 32.0644 666.183 31.9113C698.901 31.7435 731.621 31.7846 764.34 31.9189C776.534 31.969 788.728 32.5121 800.92 32.882C810.448 33.171 819.977 33.4854 829.501 33.8857C844.225 34.5046 858.947 35.1602 873.666 35.8875C885.725 36.4834 897.794 36.9979 909.829 37.9271C924.125 39.0309 938.458 40.0459 952.654 41.9867C974.984 45.0395 997.123 49.1399 1018.46 56.8282C1037.8 63.7958 1055.9 72.8633 1071.91 85.9326C1091.71 102.09 1106.6 121.966 1117.28 145.062C1124.66 161.012 1130.13 177.635 1133.21 194.933C1135.05 205.289 1136.58 215.775 1137.16 226.263C1138.04 242.259 1138.58 258.325 1138.11 274.328C1137.74 286.968 1135.65 299.56 1134.3 312.17C1133.32 321.257 1132.57 330.379 1131.23 339.414C1129.51 351.124 1127.25 362.755 1125.32 374.436C1123.58 384.899 1122.17 395.42 1120.24 405.846C1118.39 415.851 1116.28 425.819 1113.9 435.711C1109.86 452.504 1105.95 469.348 1101.18 485.94C1096.28 503.004 1091.01 520.013 1084.8 536.64C1078.68 553.068 1072.1 569.455 1064.08 585.016C1053.56 605.41 1038.62 622.226 1018.36 633.931C1002.27 643.231 985.059 649.077 966.784 651.813C955.72 653.47 944.585 654.719 933.449 655.808C926.455 656.492 919.403 656.696 912.372 656.843C892.348 657.261 872.321 657.541 852.295 657.873C832.103 658.208 811.911 658.548 791.719 658.871C770.193 659.214 748.667 659.512 727.143 659.882C710.282 660.171 693.424 660.596 676.564 660.86C651.873 661.245 627.181 661.518 602.489 661.88C581.963 662.18 561.438 662.543 540.913 662.872C519.887 663.21 498.862 663.538 477.836 663.874C457.144 664.204 436.452 664.539 415.759 664.873C395.234 665.205 374.708 665.545 354.183 665.872C332.824 666.212 311.465 666.536 290.107 666.893C289.502 666.903 288.903 667.206 288.301 667.623C248.134 667.873 207.967 667.873 167.551 667.873M1096.8 171.873C1097.85 172.156 1098.9 172.438 1099.95 172.721C1100.07 171.436 1100.54 170.062 1100.25 168.879C1097.08 156.184 1092.55 144.063 1085.11 133.156C1077.89 122.566 1070.09 112.407 1059.64 104.854C1049.47 97.5059 1039.37 89.7138 1028.22 84.1452C1012.73 76.4072 996.349 70.4624 978.989 67.8429C962.24 65.3156 945.564 62.2772 928.785 59.9778C919.642 58.7247 910.357 58.45 901.127 57.895C888.576 57.1404 876.017 56.4988 863.457 55.8838C848.903 55.1711 834.346 54.4966 819.787 53.8881C809.928 53.4761 800.064 53.1868 790.202 52.8782C778.841 52.5227 767.48 52.146 756.117 51.8872C739.09 51.4995 722.06 50.884 705.033 50.939C667.504 51.0601 629.976 51.4859 592.45 51.8963C574.253 52.0953 556.059 52.4923 537.865 52.8911C527.168 53.1256 516.474 53.5237 505.78 53.8779C496.417 54.188 487.055 54.5148 477.695 54.8809C470.165 55.1755 462.637 55.52 455.11 55.8774C441.385 56.5289 427.66 57.1541 413.94 57.8897C403.045 58.4739 392.157 59.1819 381.268 59.879C366.015 60.8556 350.765 61.8947 335.511 62.8659C324.457 63.5696 313.397 64.1863 302.342 64.8828C297.814 65.1681 293.24 65.238 288.779 65.9706C278.645 67.6352 268.512 68.1759 258.554 65.4976C252.498 63.8689 247.681 60.2453 246.346 53.4977C246.251 53.021 246.712 52.0051 247.058 51.9331C257.048 49.8588 266.99 47.419 277.074 45.9757C293.692 43.5975 310.403 41.8767 327.072 39.8612C327.81 39.7719 328.527 39.5089 329.255 39.3269C328.622 38.8423 328.06 38.1332 327.346 37.9075C319.383 35.3914 311.416 32.8837 303.412 30.5015C282.857 24.3835 261.684 22.1226 240.395 20.9862C233.238 20.6042 225.988 21.2901 218.82 21.9279C206.022 23.0666 193.082 23.6495 180.512 26.0761C160.282 29.9815 140.585 36.0625 121.831 44.8402C94.6722 57.5515 69.4509 72.8616 49.5509 95.9781C34.8673 113.035 27.9069 132.888 26.4218 154.889C25.9734 161.531 26.6876 168.3 27.3763 174.958C28.1264 182.211 29.0559 189.493 30.6261 196.603C35.073 216.74 42.9036 235.774 50.3275 254.927C50.604 255.64 51.2738 256.201 51.7602 256.833C52.2738 256.072 53.0285 255.379 53.2625 254.541C55.0578 248.109 56.6156 241.608 58.5011 235.203C66.4585 208.174 74.1295 181.051 82.64 154.195C89.0639 133.924 95.2675 113.387 106.694 95.2016C112.759 85.5492 119.537 76.1353 127.284 67.8156C133.393 61.2554 140.99 55.6996 148.78 51.1649C165.693 41.3193 184.076 36.9596 203.636 40.9804C211.473 42.5914 219.288 45.0951 222.601 53.7545C222.807 54.2943 222.267 55.715 221.898 55.7841C219.234 56.2834 216.529 56.5902 213.828 56.8641C203.745 57.8866 193.611 58.5367 183.584 59.952C168.562 62.0721 155.404 68.6763 144.627 79.2068C129.472 94.0165 121.286 113.074 114.374 132.621C107.737 151.392 101.432 170.292 95.4954 189.295C91.0108 203.65 87.1498 218.209 83.352 232.765C79.3803 247.988 75.7453 263.301 72.0986 278.606C69.7082 288.639 67.3874 298.695 65.3506 308.804C63.4508 318.233 62.0248 327.757 60.2855 337.22C58.3524 347.737 55.9924 358.185 54.385 368.749C52.6772 379.973 51.4936 391.284 50.336 402.582C48.8574 417.015 46.6198 431.469 46.5585 445.922C46.4825 463.836 47.4568 481.859 49.573 499.645C51.2093 513.397 54.414 527.136 58.5632 540.366C62.3218 552.35 68.2896 563.643 73.3228 575.224C73.7122 576.12 74.4136 576.881 74.9701 577.704C75.4136 576.721 76.1711 575.763 76.2519 574.751C77.0013 565.367 77.4857 555.961 78.3366 546.587C79.5281 533.461 80.8205 520.339 82.3428 507.247C83.8155 494.582 85.5754 481.949 87.3181 469.316C88.9029 457.829 90.1757 446.272 92.4051 434.906C96.0179 416.488 100.02 398.134 104.372 379.875C109.856 356.865 115.438 333.863 121.77 311.077C126.647 293.523 132.539 276.24 138.352 258.962C145.881 236.584 153.561 214.236 165.833 193.851C175.387 177.981 187.727 165.021 204.328 156.275C220.273 147.873 237.246 144.744 255.016 145.98C262.812 146.522 270.034 149.352 273.705 157.003C274.726 159.131 274.666 162.476 273.73 164.679C272.426 167.747 268.932 166.315 266.768 165.689C250.167 160.886 234.529 164.677 219.974 172.115C209.177 177.632 199.764 185.497 192.101 195.382C183.408 206.596 176.334 218.664 171.411 231.845C165.312 248.17 159.828 264.734 154.444 281.314C150.428 293.68 146.639 306.142 143.379 318.724C137.716 340.588 132.352 362.534 127.215 384.528C122.661 404.024 118.189 423.554 114.422 443.211C111.173 460.161 108.629 477.267 106.406 494.387C104.56 508.601 103.604 522.932 102.317 537.217C101.88 542.069 101.744 546.949 101.281 551.799C99.7713 567.585 98.2672 583.268 101.169 599.167C104.694 618.475 115.885 630.38 133.905 636.917C152.145 643.534 171.254 645.028 190.288 646.756C201.091 647.737 212.002 647.846 222.862 647.803C239.891 647.735 256.917 647.076 273.947 646.899C313.807 646.484 353.669 646.232 393.53 645.865C425.225 645.573 456.92 645.254 488.613 644.855C507.143 644.621 525.669 644.166 544.198 643.883C568.726 643.509 593.255 643.259 617.782 642.851C630.146 642.645 642.505 642.169 654.867 641.882C670.895 641.511 686.924 641.22 702.952 640.869C717.314 640.555 731.675 640.188 746.037 639.878C762.398 639.524 778.761 639.251 795.121 638.857C805.318 638.611 815.51 638.177 825.707 637.881C838.234 637.516 850.763 637.22 863.291 636.869C874.487 636.555 885.681 636.199 896.876 635.875C908.738 635.533 920.626 635.591 932.454 634.767C944.768 633.909 957.081 632.601 969.291 630.788C991.865 627.436 1010.66 617.034 1025.93 599.884C1037.78 586.571 1046.55 571.362 1053.08 555.102C1060.66 536.232 1067.04 516.837 1073.09 497.403C1078.44 480.218 1082.77 462.707 1087.25 445.264C1090.82 431.371 1094.21 417.419 1097.18 403.389C1099.6 391.975 1101.36 380.418 1103.27 368.902C1104.47 361.695 1105.38 354.441 1106.47 347.216C1107.72 338.909 1109.2 330.632 1110.25 322.3C1111.17 314.942 1111.63 307.526 1112.3 300.136C1113.63 285.521 1115.21 270.924 1116.2 256.287C1116.75 248.324 1116.39 240.293 1116.28 232.294C1116.06 214.631 1107.54 202.034 1092.2 193.901C1072.89 183.66 1051.57 179.604 1030.55 175.06C1012.48 171.156 994.122 168.508 975.799 165.991C961.767 164.064 947.6 163.045 933.469 161.924C921.932 161.008 910.363 160.465 898.801 159.897C889.612 159.445 880.415 159.096 871.217 158.896C852.357 158.486 833.493 157.88 814.633 157.933C753.272 158.106 691.911 158.49 630.551 158.907C614.855 159.014 599.16 159.498 583.467 159.888C573.27 160.142 563.077 160.548 552.881 160.871C542.02 161.214 531.157 161.497 520.297 161.888C513.266 162.141 506.24 162.552 499.211 162.871C484.321 163.546 469.428 164.153 454.541 164.89C442.814 165.471 431.093 166.203 419.37 166.874C407.813 167.536 396.253 168.159 384.7 168.888C375.305 169.481 365.921 170.251 356.528 170.863C340.611 171.9 324.696 172.97 308.769 173.822C302.984 174.132 300.607 170.333 303.408 165.346C306.649 159.575 311.493 155.185 318.052 153.993C327.915 152.2 337.894 150.861 347.88 149.963C359.569 148.912 371.318 148.521 383.043 147.878C395.599 147.189 408.155 146.499 420.714 145.884C435.269 145.171 449.827 144.526 464.384 143.879C472.578 143.515 480.774 143.191 488.97 142.877C498.164 142.526 507.359 142.197 516.555 141.876C526.416 141.531 536.277 141.18 546.14 140.88C558.001 140.518 569.862 140.178 581.725 139.88C596.252 139.516 610.78 139.121 625.31 138.892C650.67 138.491 676.033 137.905 701.393 137.944C738.588 138.001 775.783 138.496 812.976 138.889C836.505 139.137 860.036 139.381 883.56 139.926C900.623 140.321 917.679 141.105 934.729 141.914C943.964 142.352 953.197 143.015 962.397 143.922C973.865 145.052 985.347 146.21 996.732 147.954C1012.01 150.294 1027.4 152.389 1042.38 156.084C1060.39 160.527 1078.01 166.54 1096.8 171.873Z" fill="#b6b2abb3" fill-rule="nonzero" opacity="1" stroke="none"/>
<path d="M307.301 608.873C293.137 608.873 279.472 608.994 265.81 608.845C245.285 608.62 224.741 608.645 204.244 607.715C191.086 607.119 177.871 605.214 166.54 597.535C154.658 589.483 146.264 578.924 147.462 563.731C148.293 553.191 150.678 542.777 152.287 532.295C153.685 523.192 154.831 514.049 156.336 504.965C158.19 493.772 160.133 482.588 162.346 471.462C164.817 459.03 167.51 446.639 170.333 434.283C173.633 419.845 176.798 405.36 180.716 391.085C185.178 374.831 190.103 358.688 195.371 342.676C203.366 318.379 214.57 295.54 229.851 275.018C244.166 255.795 262.098 240.556 284.312 230.9C296.467 225.617 309.123 221.801 322.246 219.947C334.142 218.265 346.104 216.958 358.076 215.944C369.77 214.953 381.506 214.371 393.236 213.91C413.617 213.109 434.002 212.329 454.394 211.925C481.745 211.383 509.104 211.057 536.461 210.939C549.152 210.885 561.847 211.499 574.538 211.888C582.9 212.144 591.262 212.471 599.618 212.889C611.675 213.492 623.736 214.088 635.78 214.906C648.373 215.76 660.986 216.536 673.522 217.952C692.372 220.082 711.171 223.333 728.553 231.054C750.315 240.721 766.519 256.088 775.527 279.068C783.25 298.771 783.885 319.141 781.841 339.197C779.489 362.266 774.238 385.113 769.139 407.807C763.515 432.837 756.886 457.653 750.217 482.433C745.31 500.668 740.136 518.863 734.156 536.767C728.496 553.71 720.979 569.954 708.245 582.979C698.876 592.56 687.35 598.703 674.309 601.859C661.224 605.026 647.922 605.883 634.478 605.938C602.123 606.071 569.768 606.512 537.413 606.882C512.223 607.17 487.035 607.649 461.844 607.85C410.497 608.26 359.148 608.54 307.301 608.873M613.801 235.873C613.109 235.54 612.431 234.954 611.722 234.912C604.865 234.514 598.003 234.182 591.141 233.88C582.948 233.519 574.755 233.107 566.557 232.894C550.866 232.488 535.171 231.946 519.477 231.946C503.784 231.946 488.09 232.525 472.397 232.878C458.536 233.189 444.671 233.413 430.816 233.908C416.589 234.417 402.367 235.134 388.15 235.898C378.087 236.438 368.024 237.061 357.984 237.915C348.549 238.718 339.104 239.595 329.735 240.934C312.846 243.348 296.64 247.778 281.78 256.73C271.228 263.087 261.97 270.805 255.455 281.089C248.758 291.661 242.674 302.73 237.461 314.104C231.119 327.946 225.371 342.129 220.444 356.533C213.542 376.712 207.341 397.147 201.41 417.638C197.816 430.055 195.073 442.736 192.37 455.389C190.034 466.32 188.18 477.36 186.325 488.387C184.511 499.171 182.817 509.981 181.354 520.817C180.406 527.836 179.902 534.918 179.317 541.981C178.582 550.865 177.509 559.758 177.491 568.648C177.481 573.221 179.417 578.138 184.197 580.113C189.889 582.465 195.808 584.899 201.835 585.661C210.927 586.809 220.195 586.683 229.392 586.845C253.083 587.262 276.777 587.865 300.469 587.809C360.992 587.667 421.514 587.257 482.035 586.84C498.397 586.727 514.756 586.222 531.116 585.868C545.477 585.558 559.838 585.234 574.197 584.864C585.392 584.576 596.585 584.206 607.779 583.873C618.974 583.54 630.176 583.369 641.359 582.81C647.766 582.49 654.203 581.895 660.516 580.789C669.872 579.151 678.321 575.246 685.631 569.049C698.141 558.443 705.352 544.425 710.172 529.229C714.768 514.744 718.553 499.984 722.242 485.231C727.801 463 732.904 440.654 738.321 418.386C742.553 400.992 747.526 383.756 751.115 366.234C753.733 353.454 754.824 340.343 756.208 327.338C756.769 322.065 756.401 316.68 756.279 311.35C756.066 302.119 753.59 293.385 749.901 285.004C741.076 264.951 724.701 253.741 704.73 246.887C688.449 241.3 671.42 239.605 654.457 237.99C641.29 236.737 628.023 236.54 613.801 235.873Z" fill="#b6b2abb3" fill-rule="nonzero" opacity="1" stroke="none"/>
<path d="M1038.3 449.873C1038.63 456.234 1040.01 462.274 1039.05 467.913C1037.73 475.62 1035.31 483.323 1032.12 490.472C1028.78 497.948 1024.66 505.299 1019.66 511.766C1008.4 526.343 994.559 538.252 978.803 547.871C964.337 556.703 948.92 563.177 932.634 568.007C913.733 573.613 894.52 576.079 875.011 574.719C854.018 573.256 834.343 567.545 817.988 553.144C804.087 540.903 797.209 525.902 797.188 507.276C797.165 487.854 804.03 471.349 816.087 456.558C832.468 436.463 853.704 423.48 877.775 414.983C891.765 410.045 905.937 405.253 920.4 402.121C937.494 398.419 955.132 397.8 972.586 399.035C988.76 400.179 1004.45 403.534 1017.94 413.791C1028.15 421.548 1033.93 431.808 1037.28 443.79C1037.78 445.605 1037.97 447.51 1038.3 449.873M923.801 548.873C924.33 548.54 924.817 548.066 925.394 547.894C939.083 543.802 952.084 538.212 964.174 530.527C977.702 521.928 990.182 512.143 1000.19 499.48C1010.12 486.917 1017.16 473.473 1015.4 456.595C1013.93 442.473 1006.17 432.974 994.734 425.84C976.393 414.401 956.369 414.618 936.523 419.451C918.394 423.867 900.673 430.054 882.937 435.958C869.064 440.577 856.305 447.706 845.425 457.442C829.986 471.259 821.417 488.505 822.29 509.756C822.991 526.833 831.023 539.512 846.123 546.985C859.49 553.6 873.934 556.007 888.896 553.864C900.204 552.244 911.5 550.54 923.801 548.873Z" fill="#b6b2abb3" fill-rule="nonzero" opacity="1" stroke="none"/>
<path d="M908.551 122.623C905.634 119.677 902.376 117.352 900.407 114.218C893.156 102.677 898.863 92.7304 907.27 87.0041C915.611 81.3229 925.026 80.2027 935.288 81.6121C944.352 82.8569 952.982 84.5856 960.36 89.944C971.491 98.0291 974.977 110.447 966.719 122.652C964.785 125.51 960.77 128.19 957.406 128.634C944.457 130.343 931.352 131.598 918.638 126.858C915.325 125.623 912.078 124.206 908.551 122.623M927.301 101.373C926.703 101.54 926.076 101.639 925.514 101.886C923.82 102.627 922.151 103.425 920.473 104.201C921.752 105.261 922.917 106.516 924.33 107.349C930.856 111.199 937.907 113.316 945.526 112.781C947.068 112.673 949.643 111.542 949.769 110.614C949.967 109.153 948.91 106.911 947.656 105.968C941.806 101.57 935.022 100.233 927.301 101.373Z" fill="#b6b2abb3" fill-rule="nonzero" opacity="1" stroke="none"/>
</g>
</svg>
