<?xml version="1.0" encoding="UTF-8" standalone="no"?>
<!DOCTYPE svg PUBLIC "-//W3C//DTD SVG 1.1//EN" "http://www.w3.org/Graphics/SVG/1.1/DTD/svg11.dtd">
<!-- Created with Vectornator (http://vectornator.io/) -->
<svg height="100%" stroke-miterlimit="10" style="fill-rule:nonzero;clip-rule:evenodd;stroke-linecap:round;stroke-linejoin:round;" version="1.1" viewBox="0 0 414.521 468.943" width="100%" xmlSpace="preserve" xmlns="http://www.w3.org/2000/svg" xmlnsVectornator="http://vectornator.io" xmlnsXlink="http://www.w3.org/1999/xlink">
<defs/>
<clipPath id="ArtboardFrame">
<rect height="468.943" width="414.521" x="0" y="0"/>
</clipPath>
<g clip-path="url(#ArtboardFrame)" id="Untitled" vectornatorLayerName="Untitled">
<path d="M383.127 453.88C364.07 402.801 378.481 346.198 389.334 292.771C393.636 271.593 397.352 250.296 400.474 228.913C405.96 191.344 409.613 153.129 404.935 115.452C400.258 77.7743 386.69 40.366 361.25 12.1829C358.206 8.80992 355.005 5.58162 351.806 2.35476C359.809-0.656437 367.841 6.46862 372.997 13.2905C408.603 60.4053 417.65 122.909 413.641 181.828C409.632 240.748 393.913 298.181 384.92 356.548C380.221 387.045 377.577 419.39 389.747 447.746C391.973 452.932 394.702 458.804 392.351 463.934C387.572 463.443 384.806 458.381 383.127 453.88Z" fill="#000000" fill-rule="nonzero" opacity="1" stroke="none"/>
<path d="M63.201 69.1191C57.5065 75.3527 48.826 82.6364 52.5844 90.1967C58.5251 102.146 55.6691 117.848 45.9011 126.941C40.4615 132.004 33.4141 134.962 27.4549 139.402C21.4957 143.842 16.3653 150.821 17.6243 158.145C18.0228 160.463 19.0494 162.742 18.7267 165.072C18.404 167.402 15.7627 169.604 13.7828 168.334C13.1703 167.942 12.7633 167.303 12.4073 166.669C8.84 160.31 8.62941 152.187 11.8625 145.652C20.0396 129.125 46.8245 124.468 48.2728 106.085C48.738 100.181 46.1696 94.5184 44.903 88.7331C43.6364 82.9478 44.1645 75.8871 49.044 72.531C69.4425 58.501 68.4773 27.8526 82.5945 7.51446C84.019 5.46228 85.7919 3.39267 88.2308 2.85219C90.6697 2.31171 93.6929 4.20513 93.3286 6.67653C75.6514 22.0171 78.987 51.8385 63.201 69.1191Z" fill="#000000" fill-rule="nonzero" opacity="1" stroke="none"/>
<path d="M97.849 305.824C99.7426 303.465 103.606 303.634 106.059 305.403C108.512 307.172 109.87 310.057 111.022 312.853C121.514 338.323 123.173 367.336 115.651 393.835C115.351 394.894 114.968 396.042 114.032 396.622C112.543 397.546 110.472 396.389 109.796 394.771C109.121 393.154 109.422 391.316 109.723 389.589C112.223 375.264 113.988 360.677 112.694 346.193C111.4 331.71 106.867 317.231 97.849 305.824Z" fill="#000000" fill-rule="nonzero" opacity="1" stroke="none"/>
<path d="M284.145 147.944C295.475 134.191 300.205 115.231 296.661 97.7671C293.117 80.3033 281.372 64.6863 265.577 56.4369C260.668 53.873 254.621 50.955 254.165 45.4354C253.981 43.2204 254.814 41.0618 255.632 38.9953C260.505 26.688 265.378 14.3806 270.251 2.07323C270.503 1.43466 270.783 0.760714 271.341 0.359996C273.594-1.25861 275.428 2.94762 274.998 5.68828C272.85 19.3777 267.674 32.5836 259.947 44.0865C281.834 58.2017 305.397 77.2383 305.761 103.279C305.881 111.784 303.395 120.078 301.194 128.294C297.278 142.915 294.194 158.348 297.622 173.091C299.734 182.178 304.225 190.533 306.936 199.46C312.04 216.268 310.486 235.001 302.682 250.739C295.13 265.968 282.092 278.318 276.642 294.419C272.442 306.827 273.162 320.354 275.093 333.31C278.738 357.767 286.552 381.597 298.096 403.463C302.902 412.566 296.769 424.272 287.893 429.485C279.016 434.699 268.297 435.309 258.077 436.541C226.511 440.346 195.839 451.388 169.092 468.576C166.815 470.04 163.887 466.824 164.535 464.196C165.183 461.568 167.732 459.931 170.091 458.603C202.943 440.112 240.032 429.2 277.664 426.955C285.898 426.464 291.247 417.231 290.893 408.99C290.539 400.749 286.231 393.291 282.618 385.876C268.208 356.306 263.668 322.029 269.882 289.727C263.559 292.702 255.568 291.724 250.149 287.312C244.73 282.899 242.153 275.273 243.785 268.478C248.131 250.38 244.051 230.438 232.947 215.501C231.942 225.565 226.025 234.441 219.572 242.23C175.828 295.034 96.9568 315.332 33.1564 290.207C22.2109 285.896 11.2631 279.994 4.79833 270.166C-1.66647 260.338-2.09576 245.739 6.57913 237.793C11.071 233.679 7.88251 226.41 5.46932 220.817C3.05613 215.224 3.88912 206.115 9.97988 206.19C5.29828 200.67 0.364483 193.081 3.95726 186.797C4.70039 185.497 5.7589 184.407 6.86388 183.397C12.0437 178.661 18.5312 175.37 25.4122 173.989C26.4471 179.262 20.7062 182.999 16.3793 186.187C12.0524 189.374 8.77482 196.736 13.4621 199.365C24.1411 205.354 21.6725 221.422 16.3332 232.44C10.994 243.458 4.20967 256.584 10.581 267.039C13.4036 271.671 18.3074 274.582 23.1378 277.049C54.6646 293.154 91.761 298.085 126.4 290.775C161.039 283.464 192.979 263.963 215.309 236.492C220.828 229.703 225.961 221.92 226.323 213.178C226.941 198.217 237.755 185.64 249.492 176.342C261.229 167.043 274.624 159.501 284.145 147.944M289.151 153.032C284.892 162.314 275.801 168.31 266.931 173.373C258.061 178.435 248.619 183.358 242.675 191.663C236.73 199.968 235.741 212.892 243.498 219.536C247.345 203.058 263.565 190.362 280.484 190.586C282.715 190.615 285.198 190.974 286.591 192.717C287.983 194.46 287.032 197.828 284.804 197.721C270.923 197.055 255.455 204.04 251.512 217.366C250.11 222.107 250.279 227.151 250.46 232.091C250.981 246.322 251.502 260.553 252.023 274.784C252.252 281.037 259.922 284.828 266.003 283.352C272.084 281.877 276.639 276.939 280.555 272.058C289.025 261.503 296.451 249.852 300.311 236.881C304.172 223.909 304.209 209.453 298.389 197.234C291.855 183.515 288.658 168.22 289.151 153.032M13.0755 212.752C10.2113 213.945 10.9134 219.163 13.9913 219.557C16.4032 217.867 15.8453 213.451 13.089 212.414L13.0755 212.752Z" fill="#000000" fill-rule="nonzero" opacity="1" stroke="none"/>
</g>
</svg>
