<?xml version="1.0" encoding="UTF-8" standalone="no"?>
<!DOCTYPE svg PUBLIC "-//W3C//DTD SVG 1.1//EN" "http://www.w3.org/Graphics/SVG/1.1/DTD/svg11.dtd">
<!-- Created with Vectornator (http://vectornator.io/) -->
<svg height="100%" stroke-miterlimit="10" style="fill-rule:nonzero;clip-rule:evenodd;stroke-linecap:round;stroke-linejoin:round;" version="1.1" viewBox="0 0 293.982 387.351" width="100%" xmlSpace="preserve" xmlns="http://www.w3.org/2000/svg" xmlnsVectornator="http://vectornator.io" xmlnsXlink="http://www.w3.org/1999/xlink">
<defs/>
<clipPath id="ArtboardFrame">
<rect height="387.351" width="293.982" x="0" y="0"/>
</clipPath>
<g clip-path="url(#ArtboardFrame)" id="Untitled" vectornatorLayerName="Untitled">
<path d="M112.762 158.996C113.868 148.156 119.001 137.772 126.942 130.311C128.469 128.877 130.348 127.465 132.43 127.69C134.513 127.915 136.122 130.798 134.553 132.185C130.142 136.083 129.155 143.306 132.358 148.244C130.478 150.379 126.459 149.869 125.17 147.333C119.057 147.688 117.032 157.437 121.955 161.079C126.878 164.72 134.707 161.652 137.102 156.016C138.236 153.348 138.397 150.382 138.543 147.485C138.949 139.396 139.355 131.306 139.762 123.217C126.466 121.55 114.462 112.944 107.657 101.401C100.852 89.8576 99.0695 75.6817 101.705 62.5436C104.235 49.9344 110.921 37.9586 121.216 30.2509C131.511 22.5433 145.511 19.5269 157.717 23.5785C176.878 29.9391 187.041 50.8921 191.395 70.6065C198.552 103.006 195.527 137.578 182.851 168.242C174.251 189.047 161.024 210.14 165.167 232.267C167.858 246.64 177.714 258.755 189.104 267.925C200.494 277.095 213.571 283.901 225.715 292.047C225.284 296.238 218.902 295.438 215.219 293.393C191.967 280.481 166.653 265.067 159.379 239.484C154.782 223.321 158.477 205.914 164.435 190.201C170.392 174.488 178.584 159.624 183.425 143.532C189.139 124.533 189.983 104.091 185.854 84.6856C182.379 100.905 169.936 114.899 154.233 120.245C146.387 122.916 145.021 133.343 145.67 141.607C146.319 149.87 146.907 159.797 140.218 164.692C136.345 167.526 131.203 167.629 126.508 168.626C121.814 169.624 116.674 172.474 116.212 177.251C113.316 207.175 101.808 236.215 83.4211 260.001C101.059 249.102 120.152 240.562 140.032 234.679C144.436 233.376 151.553 234.587 150.396 239.031C113.173 247.991 78.8102 268.475 53.2233 296.954C75.5088 291.42 97.9413 285.861 120.858 284.408C143.774 282.954 167.446 285.823 187.846 296.364C202.955 304.17 215.892 315.954 231.601 322.471C247.948 329.253 266.796 329.793 283.504 323.958C262.018 316.09 241.793 303.355 228.244 284.916C205.799 254.371 204.7 213.349 208.071 175.595C211.441 137.84 218.3 99.1984 208.664 62.5393C206.482 54.2389 203.369 45.9794 197.846 39.4102C193.426 34.1527 187.654 30.2068 181.709 26.7664C156.275 12.0473 126.155 5.57002 96.918 8.53173C98.5609 11.5956 102.044 13.0697 105.08 14.7641C108.115 16.4586 111.222 19.183 111.016 22.6534C110.809 26.1238 104.898 27.947 103.97 24.5965C101.596 16.0207 91.4848 11.3799 82.6721 12.6115C73.8594 13.843 66.3234 19.5481 60.0394 25.8482C54.518 31.3836 49.612 37.5325 45.4408 44.1453C43.3979 47.3839 42.8598 53.3755 46.6886 53.4242C58.0637 53.569 69.4388 53.7137 80.8138 53.8584C84.4132 53.9042 89.4621 55.8737 88.1932 59.2423C78.0467 60.3895 67.786 60.5235 57.613 59.6418C50.86 59.0564 43.6833 58.0971 37.6087 61.1046C31.534 64.112 27.9776 73.0472 32.8007 77.81C36.9034 81.8615 36.3606 88.8355 33.6025 93.8992C30.8443 98.9628 26.3675 102.836 22.8238 107.385C16.3156 115.738 13.0424 126.548 13.8233 137.109C13.9951 139.432 10.3685 140.354 8.64951 138.783C6.9305 137.211 6.7771 134.588 6.89354 132.262C7.52875 119.574 12.7578 107.164 21.395 97.8475C25.291 93.645 30.142 87.5429 26.5587 83.0708C21.393 76.6238 24.9867 67.1681 28.737 59.8072C35.7327 46.0763 42.9356 32.0624 54.0869 21.4264C70.3453 5.91917 93.686-0.728723 116.14 0.062973C138.594 0.854668 160.317 8.46909 180.489 18.3635C188.425 22.2559 196.354 26.6462 202.205 33.2714C207.078 38.7898 210.263 45.5974 212.719 52.5377C221.987 78.729 221.545 107.309 219.11 134.985C216.675 162.661 212.356 190.369 214.257 218.087C216.157 245.805 225.08 274.245 245.177 293.428C257.968 305.637 274.451 313.332 291.315 318.649C294.027 319.504 294.691 323.376 293.215 325.806C291.738 328.235 288.946 329.495 286.274 330.466C268.411 336.96 248.178 336.685 230.498 329.708C211.055 322.036 195.31 306.916 176.012 298.887C147.893 287.188 115.981 291.827 85.9112 296.659C70.7105 299.102 52.7785 303.728 47.7927 318.294C41.288 337.297 34.7833 356.3 28.2787 375.304C26.1133 381.63 20.9294 389.449 14.7762 386.832C11.5365 385.455 10.134 381.679 9.34789 378.248C5.29071 360.538 8.61322 341.72 15.8391 325.05C23.065 308.38 34.0042 293.597 45.59 279.601C52.0186 271.836 58.7796 264.097 62.7217 254.819C66.6639 245.541 67.3414 234.216 61.7691 225.815C53.3937 213.188 35.2554 212.141 20.3478 214.853C11.3321 216.493 2.89025 208.354 0.787452 199.435C-1.31534 190.516 1.18761 181.23 3.67481 172.41C4.38649 169.887 5.31732 167.086 7.65759 165.903C9.99785 164.721 13.6605 167.012 12.5309 169.378C8.66213 177.482 5.27682 186.498 7.21173 195.267C9.14664 204.037 18.5707 211.618 26.9644 208.426C46.1262 201.14 70.2137 215.75 72.6065 236.11C74.6781 253.737 63.0332 269.721 52.017 283.636C45.8794 291.39 39.7418 299.143 33.6041 306.896C77.8559 270.403 106.942 216.058 112.762 158.996M176.413 49.3264C171.323 35.8388 155.699 27.7696 141.445 29.9266C127.192 32.0837 115.148 43.351 110.448 56.9795C105.749 70.608 107.898 86.0713 114.617 98.8256C120.831 110.621 135.634 116.63 148.695 113.959C161.756 111.288 172.557 100.903 177.293 88.4414C182.03 75.9796 181.12 61.7995 176.413 49.3264M46.6207 308.539C35.1034 312.745 25.465 321.844 20.6031 333.1C18.7083 337.487 17.5193 342.15 16.6639 346.852C14.7091 357.596 14.4711 368.65 15.9616 379.468C18.4117 380.886 20.757 377.46 21.5449 374.741C22.4855 371.495 23.4262 368.248 24.3668 365.002C30.0169 345.503 35.7955 325.713 46.6207 308.539Z" fill="#000000" fill-rule="nonzero" opacity="1" stroke="none"/>
</g>
</svg>
