<?xml version="1.0" encoding="UTF-8" standalone="no"?>
<!DOCTYPE svg PUBLIC "-//W3C//DTD SVG 1.1//EN" "http://www.w3.org/Graphics/SVG/1.1/DTD/svg11.dtd">
<!-- Created with Vectornator (http://vectornator.io/) -->
<svg height="100%" stroke-miterlimit="10" style="fill-rule:nonzero;clip-rule:evenodd;stroke-linecap:round;stroke-linejoin:round;" version="1.1" viewBox="0 0 368.282 433.889" width="100%" xmlSpace="preserve" xmlns="http://www.w3.org/2000/svg" xmlnsVectornator="http://vectornator.io" xmlnsXlink="http://www.w3.org/1999/xlink">
<defs/>
<g id="Untitled" vectornatorLayerName="Untitled">
<path d="M26.5635 285.499C29.0082 294.7 29.4279 304.434 27.7845 313.812C25.8765 324.698 21.7247 337.464 29.1827 345.621C34.4833 351.419 43.4492 351.848 51.2166 350.676C58.984 349.504 66.8897 347.156 74.5484 348.902C85.4776 351.395 92.8767 361.5 97.9461 371.498C103.015 381.496 107.055 392.484 115.376 399.995C106.607 381.032 101.517 360.376 100.471 339.51C100.188 333.868 93.067 330.86 87.5767 332.189C82.0864 333.517 77.7391 337.553 72.9895 340.61C63.3374 346.824 51.2476 349.132 39.9853 346.912C53.7 340.675 67.4147 334.439 81.1294 328.202C85.6844 326.131 90.6229 324.009 95.529 324.993C101.256 326.142 105.418 331.362 107.261 336.904C109.103 342.447 109.111 348.4 109.59 354.221C110.893 370.035 115.86 385.536 123.992 399.161C126.284 403 128.947 406.813 132.794 409.091C140.816 413.84 151.002 410.558 159.675 407.142C174.788 401.191 190.489 394.653 200.906 382.191C210.286 370.969 214.223 356.305 217.904 342.149C221.613 327.89 225.321 313.63 229.03 299.371C229.82 296.33 232.033 292.475 234.976 293.576C237.577 294.548 237.333 298.268 236.602 300.946C232.21 317.036 227.819 333.126 223.427 349.216C220.626 359.479 217.76 369.895 212.227 378.981C198.219 401.983 170.47 411.918 144.852 420.227C197.9 426.725 251.542 428.366 304.888 425.122C325.285 423.882 344.013 410.237 353.096 391.931C362.179 373.625 362.007 351.397 354.371 332.442C353.476 330.219 353.041 326.791 355.374 326.241C356.844 325.895 358.152 327.191 359.05 328.406C367.658 340.047 369.832 355.587 367.279 369.838C364.726 384.09 357.854 397.231 349.776 409.247C346.53 414.076 343.004 418.837 338.357 422.338C330.403 428.33 320.082 429.999 310.185 431.1C272.654 435.274 234.749 433.948 197.021 432.345C179.762 431.612 162.313 430.79 145.725 425.97C129.137 421.15 113.243 411.876 103.774 397.428C98.6954 389.68 95.6493 380.778 90.9693 372.782C86.2893 364.787 79.2872 357.35 70.178 355.663C60.4629 353.863 50.6664 358.945 40.8071 358.299C28.6341 357.502 17.8983 346.793 17.0705 334.622C16.2624 322.739 23.7624 311.234 21.9684 299.46C21.4505 296.061 20.1692 292.817 19.6141 289.423C19.0589 286.03 19.3524 282.242 21.5973 279.638C23.8422 277.034 28.4737 276.423 30.6142 279.113C32.7547 281.804 29.7304 286.837 26.5635 285.499Z" fill="#000000" fill-rule="nonzero" opacity="1" stroke="none"/>
<path d="M41.4105 156.304C31.6048 129.582 35.3406 98.2716 51.158 74.6075C56.9464 65.9475 64.4394 57.8068 66.221 47.5439C66.8489 43.9271 66.7585 40.0724 68.4736 36.8268C70.5602 32.8782 74.8483 30.6906 78.9105 28.8346C125.874 7.37734 178.106-2.43596 229.655 0.512705C260.545 2.27965 293.5 9.85778 313.92 33.1031C329.766 51.1419 335.528 75.7626 339.125 99.5023C342.218 119.924 344.115 140.527 344.8 161.17C345.219 173.798 344.943 187.294 337.911 197.791C327.132 213.882 300.714 215.997 287.512 201.826C285.849 200.041 284.304 197.738 284.759 195.341C285.214 192.944 288.803 191.437 290.171 193.457C299.466 207.183 323.167 207.03 332.284 193.186C337.531 185.219 337.868 175.08 337.712 165.541C337.266 138.247 334.193 110.997 328.549 84.2897C325.874 71.631 322.53 58.8692 315.715 47.8712C306.277 32.6396 290.701 21.8792 273.871 15.7283C257.042 9.57731 238.94 7.70604 221.026 7.33398C175.017 6.37847 128.83 15.1066 86.3425 32.7856C80.427 35.247 73.5717 39.4681 74.0967 45.8537C76.1213 70.4801 70.1781 94.9574 66.7213 119.424C63.2645 143.89 62.5701 170.084 74.1015 191.938C76.1129 195.75 70.3475 199.788 66.3618 198.147C62.376 196.507 60.4151 192.116 58.6651 188.177C56.915 184.238 54.4935 179.938 50.2971 178.955C44.1971 177.524 39.3058 183.811 36.2008 189.253C33.256 194.414 30.3111 199.576 27.3663 204.737C24.9715 208.934 22.4926 213.533 23.1519 218.32C23.8111 223.107 29.3227 227.365 33.4867 224.913C31.586 218.153 34.0907 210.368 39.5769 205.985C40.1059 214.02 40.6349 222.054 41.1639 230.089C41.3403 232.768 40.9284 236.289 38.3067 236.867C31.6899 238.326 28.2726 246.369 29.6151 253.01C30.9575 259.652 35.7048 265.035 40.5406 269.782C38.9029 262.587 37.2653 255.392 35.6277 248.197C34.9067 245.029 36.0057 240.025 39.0908 241.044C40.3293 241.453 40.9761 242.783 41.4541 243.996C44.309 251.243 45.9374 258.971 46.2495 266.754C46.3995 270.493 45.7871 274.997 42.4055 276.6C38.2133 278.587 33.7969 274.515 30.935 270.864C26.8085 265.599 22.5461 260.038 21.4224 253.444C20.2987 246.85 23.524 238.997 30.0024 237.332C25.5335 235.502 20.5006 236.153 15.6753 236.345C10.8499 236.536 5.51411 236.025 2.13666 232.574C-1.2408 229.122-0.624723 221.944 4.06022 220.773C23.1971 215.988 22.5957 185.323 39.9509 175.947C46.2947 172.52 43.8945 163.073 41.4106 156.304M61.7538 106.866C64.0615 92.6065 65.9834 78.2841 67.5167 63.9202C53.081 79.684 44.3907 100.599 43.4043 121.951C42.4179 143.303 49.1429 164.93 62.0637 181.957C63.3183 178.815 61.977 175.311 60.9 172.102C53.904 151.265 58.2423 128.565 61.7538 106.866M22.8164 227.883C18.3986 225.3 12.441 222.819 8.60594 226.208C7.81794 226.904 7.21443 228.145 7.8764 228.962C11.4547 229.328 15.0329 229.694 18.6112 230.059C20.427 230.245 23.0314 229.696 22.8164 227.883Z" fill="#000000" fill-rule="nonzero" opacity="1" stroke="none"/>
<path d="M144.023 180.626C143.234 177.636 144.312 174.455 145.85 171.772C148.08 167.882 153.623 164.48 156.639 167.799C159.801 171.279 155.562 176.388 154.484 180.965C156.484 182.298 158.881 179.903 159.926 177.738C165.791 165.583 164.977 150.449 157.842 138.993C156.962 137.581 154.772 137.559 153.411 138.515C152.049 139.472 151.321 141.075 150.672 142.607C142.284 162.424 136.969 183.538 134.975 204.964C134.547 209.559 134.598 214.955 138.228 217.805C142.492 211.008 146.757 204.212 151.021 197.415C152.208 195.523 153.671 193.443 155.884 193.134C159.295 192.657 161.58 196.606 162.195 199.996C163.838 209.057 160.598 218.857 153.878 225.153C152.413 226.526 150.56 227.807 148.571 227.539C146.582 227.271 145.056 224.579 146.48 223.165C151.583 218.1 157.127 211.545 155.244 204.606C152.739 208.291 150.233 211.977 147.728 215.662C145.076 219.563 141.648 223.895 136.931 223.856C133.113 223.824 129.87 220.69 128.535 217.113C127.201 213.536 127.387 209.592 127.692 205.786C129.672 181.032 135.927 156.626 146.099 133.972C148.268 129.14 155.242 128.099 159.814 130.772C164.387 133.446 166.899 138.608 168.39 143.691C171.757 155.164 171.15 167.763 166.695 178.86C172.149 177.854 173.097 170.555 176.325 166.045C176.803 165.377 177.391 164.73 178.176 164.487C180.906 163.645 182.261 167.878 181.48 170.627C178.944 179.547 169.858 185.205 160.779 187.098C154.295 188.45 145.712 187.031 144.023 180.626Z" fill="#000000" fill-rule="nonzero" opacity="1" stroke="none"/>
</g>
</svg>
