<?xml version="1.0" encoding="UTF-8" standalone="no"?>
<!DOCTYPE svg PUBLIC "-//W3C//DTD SVG 1.1//EN" "http://www.w3.org/Graphics/SVG/1.1/DTD/svg11.dtd">
<!-- Created with Vectornator (http://vectornator.io/) -->
<svg height="100%" stroke-miterlimit="10" style="fill-rule:nonzero;clip-rule:evenodd;stroke-linecap:round;stroke-linejoin:round;" version="1.1" viewBox="0 0 466.388 478.269" width="100%" xmlSpace="preserve" xmlns="http://www.w3.org/2000/svg" xmlnsVectornator="http://vectornator.io" xmlnsXlink="http://www.w3.org/1999/xlink">
<defs/>
<g id="Untitled" vectornatorLayerName="Untitled">
<path d="M0 342.63C6.85955 342.966 11.4886 348.631 18.5145 349.739C30.6413 351.651 40.6355 348.6 49.8055 341.09C59.5523 333.107 66.5253 322.924 73.0899 312.358C73.9428 310.985 76.018 310.372 77.5271 309.407C77.685 311.231 78.5677 313.414 77.8727 314.815C75.1883 320.225 72.5467 325.807 68.8829 330.548C61.8907 339.594 54.1975 348.226 43.5858 353.186C31.7151 358.736 19.5331 358.304 7.53903 353.307C5.69134 352.537 4.30055 350.718 2.58809 349.546C2.0883 349.204 1.20663 349.42 0.25 349.38C0 347.213 0 345.046 0 342.63Z" fill="#000000" fill-rule="nonzero" opacity="1" stroke="none"/>
<path d="M224.25 80.6298C214.589 84.7132 205.268 88.7861 195.749 92.3279C178.188 98.8617 164.409 117.673 163.961 136.126C163.92 137.828 163.19 139.506 163.053 141.217C162.971 142.249 163.417 143.324 163.625 144.38C164.75 143.879 166.552 143.659 166.895 142.833C170.19 134.9 177.338 133.196 184.494 132.538C192.152 131.835 199.945 132.735 207.642 132.29C217.211 131.736 226.042 128.995 233.551 122.436C243.262 113.954 253.202 105.72 263.295 97.6961C269.144 93.0459 276.59 92.5895 283.657 91.4079C286.657 90.9063 289.708 90.5002 292.737 90.4933C293.823 90.4908 294.912 91.7896 296 92.4946C295.336 93.4563 294.866 94.9675 293.973 95.2829C290.471 96.5199 286.876 98.0429 283.244 98.257C271.798 98.9318 262.945 104.488 254.88 111.974C245.822 120.382 237.532 129.881 225.865 134.847C221.48 136.713 216.572 137.905 211.822 138.231C203.86 138.776 195.824 138.135 187.838 138.454C180.877 138.731 174.884 141.125 170.527 147.215C166.32 153.096 160.089 157.004 153.172 158.143C146.008 159.322 143.249 164.185 142.269 169.608C141.12 175.957 141.322 182.778 142.322 189.178C142.742 191.865 146.296 194.907 149.147 196.211C158.047 200.281 163.553 207.424 168.445 215.343C168.765 215.86 169.139 216.479 169.125 217.042C169.073 219.085 168.865 221.123 168.716 223.163C167.205 222.129 165.07 221.436 164.287 220.003C160.509 213.09 155.691 207.019 148.982 203.021C139.082 197.12 122.848 200.256 121.819 215.247C120.663 232.098 126.518 246.682 134.145 260.882C136.74 265.712 140.05 270.286 143.691 274.393C148.052 279.312 152.54 277.947 155.053 271.874C158.034 264.669 159.505 257.291 159.012 249.511C158.928 248.184 158.633 246.695 159.1 245.553C159.601 244.328 160.746 243.171 161.91 242.52C162.303 242.3 163.907 243.539 164.432 244.423C165.202 245.721 166.01 247.333 165.918 248.755C165.256 258.989 164.777 269.358 158.938 278.316C156.595 281.91 152.65 284.53 153.966 289.792C157.921 305.603 161.28 321.672 171.302 335.093C177.627 343.562 183.506 352.697 191.23 359.725C211.306 377.988 233.125 393.938 259.779 401.565C267.531 403.783 274.815 402.501 280.439 394.891C286.674 386.456 295.788 382.071 307.083 384.33C321.435 387.201 335.818 389.97 350.269 392.277C358.066 393.522 366.022 393.873 373.923 394.34C384.331 394.955 392.006 390.798 395.997 380.811C400.855 368.658 405.692 356.497 410.545 344.342C410.659 344.057 410.936 343.817 410.987 343.529C412.694 333.834 413.313 334.144 403.689 334.378C403.023 334.394 402.355 334.407 401.69 334.375C398.287 334.215 394.577 335.228 392.744 330.712C390.891 326.145 392.647 322.3 395.541 319.557C402.951 312.533 410.874 306.048 418.627 299.388C422.421 296.129 426.388 293.066 430.098 289.717C432.962 287.131 433.66 283.579 432.957 279.95C431.211 270.93 436.994 266.118 443.005 261.386C446.64 258.525 450.558 255.978 453.938 252.846C462.638 244.788 460.807 241.433 457.1 233.095C454.043 226.219 448.572 221.215 442.921 216.296C434.749 209.184 426.775 201.785 419.301 193.95C415.216 189.668 413.828 183.804 413.976 177.712C414.289 164.866 414.145 151.986 410.866 139.496C409.315 133.591 406.679 127.884 403.868 122.431C402.234 119.261 399.837 116.261 395.34 116.041C393.891 115.97 392.539 113.896 391.142 112.738C393.118 111.013 394.334 108.599 398.078 109.757C403.811 111.529 407.097 115.743 409.906 120.252C415.623 129.43 418.47 139.649 418.984 150.461C419.397 159.151 419.445 167.864 420.059 176.538C420.736 186.096 425.531 193.415 432.934 199.437C443.092 207.7 454.048 215.26 460.974 226.809C470.401 242.528 467.182 251.435 453.934 261.389C450.232 264.171 446.355 266.802 443.076 270.029C441.446 271.633 439.973 274.524 440.173 276.67C441.106 286.648 436.891 293.35 428.998 299.146C420.78 305.18 413.335 312.297 405.803 319.215C403.264 321.548 401.453 324.689 399.44 327.552C399.244 327.831 399.916 329.256 400.273 329.292C401.725 329.441 403.314 329.572 404.667 329.135C408.922 327.761 412.815 327.696 416.227 331.094C419.597 334.451 418.616 338.782 417.485 342.162C413.331 354.571 408.68 366.829 403.771 378.963C401.81 383.81 399.36 388.775 395.963 392.663C388.222 401.521 377.303 401.723 366.67 401.247C361.052 400.996 355.504 399.324 349.907 398.395C343.499 397.331 336.962 396.815 330.695 395.223C326.686 394.204 325.132 395.846 324.025 398.869C319.63 410.883 315.29 422.918 311.028 434.979C309.843 438.333 309.071 441.83 307.987 445.221C304.705 455.479 309.602 462.982 316.1 470.059C317.445 471.524 318.412 473.407 319.247 475.237C319.572 475.948 319.35 477.351 318.82 477.879C318.348 478.349 316.932 478.388 316.23 478.031C307.736 473.716 299.356 458.218 301.119 448.908C302.53 441.459 304.688 434.108 307.074 426.898C310.558 416.367 314.274 405.891 318.48 395.633C319.729 392.587 317.725 391.785 316.542 391.577C305.184 389.579 294.016 388.476 285.589 399.148C283.307 402.038 280.121 404.243 277.232 406.618C269.893 412.653 261.931 409.726 254.59 407.24C236.303 401.046 219.763 391.383 204.655 379.422C196.773 373.181 188.801 366.86 181.934 359.571C167.124 343.851 156.378 325.572 151.058 304.445C149.675 298.956 149.417 293.165 147.797 287.766C147.139 285.57 144.409 283.8 142.307 282.268C136.251 277.855 132.458 271.769 128.979 265.348C123.502 255.239 118.745 244.859 116.618 233.475C114.883 224.188 113.383 215.061 117.847 205.814C121.016 199.25 126.046 195.874 132.587 194.534C135.427 193.952 136.28 192.986 135.994 190.448C135.689 187.75 134.984 185.047 135.063 182.364C135.349 172.616 135.071 162.345 143.635 155.562C147.094 152.822 152.024 151.746 156.447 150.477C159.877 149.494 160.092 148.341 159.205 144.943C158.037 140.467 157.629 135.526 158.165 130.932C158.971 124.015 160.682 117.312 164.571 111.113C170.938 100.966 179.752 93.659 190.127 88.4993C211.982 77.6305 234.866 69.2512 258.296 62.4083C261.292 61.5334 264.441 61.1778 267.427 60.2783C268.091 60.0784 268.921 57.9465 268.744 57.7959C259.799 50.1763 262.232 41.2449 266.095 32.4894C268.587 26.842 271.986 21.5929 275.018 16.1879C275.406 15.4962 275.975 14.4897 276.568 14.4065C278.459 14.1414 280.402 14.2435 282.324 14.2038C282.068 15.5774 282.127 17.1176 281.504 18.2975C277.599 25.6906 273.182 32.8396 269.739 40.4343C268.578 42.9946 268.651 47.2971 270.077 49.6337C275.131 57.9158 274.969 56.6491 283.901 52.8306C305.22 43.7172 325.268 32.2372 343.185 17.4535C348.374 13.1716 352.243 7.2917 356.734 2.15895C357.391 1.40814 358.064 0.258331 358.864 0.130203C360.617-0.150749 362.457 0.104938 364.262 0.141487C363.929 1.63293 364.022 3.43237 363.2 4.56958C351.15 21.2319 335.006 33.131 317.482 43.3471C312.544 46.2256 307.424 48.8049 302.3 51.3449C299.29 52.8366 297.747 54.4692 298.932 58.2193C303.49 72.6543 309.732 85.7191 324.116 93.069C327.988 95.0475 330.27 94.7033 332.474 90.5465C338.16 79.8269 347.269 74.212 359.529 74.4245C367.778 74.5675 375.696 74.1358 383.004 69.4566C389.62 65.2209 392.732 58.2625 390.847 50.6884C387.881 38.7669 382.276 28.289 374.205 19.0814C371.815 16.3552 370.039 16.6753 369.04 20.3601C366.491 29.7664 359.816 35.8332 352.427 41.3422C351.606 41.9541 350.362 42.3922 349.379 42.2901C348.216 42.1693 346.823 41.6204 346.125 40.7689C345.768 40.3335 346.443 38.5749 347.124 37.8685C348.44 36.5019 349.998 35.3086 351.617 34.3034C359.837 29.2003 362.932 20.772 365.984 12.3265C367.655 7.70421 370.726 6.8847 374.283 10.1468C385.535 20.4662 393.02 33.0379 396.895 47.7788C400.613 61.9205 394.152 73.9495 379.781 78.2253C374.341 79.8438 368.356 80.4353 362.663 80.2348C349.381 79.7669 338.747 86.9486 334.986 100.707C333.624 105.692 330.593 109.106 325.853 111.526C322.928 113.019 321.054 111.984 320.433 109.958C320.099 108.872 322.344 106.699 323.8 105.457C324.889 104.529 326.578 104.305 328 103.767C326.815 102.62 325.832 100.977 324.415 100.402C308.282 93.8557 300.81 79.9895 294.342 65.2312C294.279 65.0891 294.051 65.0106 294.009 64.8699C291.491 56.4239 291.721 57.0292 283.221 60.2419C269.517 65.4221 255.469 69.6906 241.582 74.3907C235.867 76.325 230.193 78.3798 224.25 80.6298Z" fill="#000000" fill-rule="nonzero" opacity="1" stroke="none"/>
<path d="M50 159.38C49.6667 145.028 49.0688 131.176 49.0535 117.323C49.0184 85.6859 58.5092 56.83 75.5806 30.4169C80.0522 23.4984 85.346 17.1044 90.3947 10.5719C91.3274 9.36511 92.8541 7.93884 94.1808 7.86002C96.7377 7.70811 99.3475 8.44617 101.935 8.81521C100.37 10.0902 98.6136 11.192 97.274 12.6714C92.4958 17.9485 86.9877 22.8243 83.3452 28.8178C75.0139 42.5267 67.1031 56.6127 62.7895 72.2196C60.3334 81.106 58.1472 90.1947 57.1795 99.3342C55.8058 112.307 54.7877 125.441 55.2313 138.451C55.7404 153.379 57.4696 168.256 60.7859 182.99C63.7657 196.229 66.622 209.417 73.0844 221.396C79.4219 233.143 86.4815 244.499 93.1559 256.066C95.1632 259.545 97.0069 263.123 98.7758 266.73C99.1727 267.539 99.2131 268.739 98.9443 269.614C98.3594 271.518 97.4694 273.327 96.7041 275.176C95.4694 273.658 93.9362 272.296 93.0511 270.596C88.9899 262.797 85.135 254.891 81.1295 247.063C80.6842 246.192 79.7519 245.571 79.0454 244.834C78.937 246.09 78.476 247.439 78.7806 248.584C80.1722 253.816 82.0379 258.933 83.2357 264.204C84.4591 269.588 85.2275 275.087 85.932 280.569C86.1769 282.476 86.7357 285.733 83.4902 285.135C81.7542 284.815 79.5985 282.181 79.1562 280.244C77.4392 272.723 76.7661 264.954 74.9008 257.478C71.9393 245.609 68.8047 233.74 64.8883 222.161C59.1783 205.278 54.0045 188.332 51.9631 170.551C51.5515 166.966 50.6667 163.435 50 159.38Z" fill="#000000" fill-rule="nonzero" opacity="1" stroke="none"/>
<path d="M154.75 424.63C161.003 433.951 168.604 441.533 176.988 448.37C180.331 451.096 183.467 454.272 187.22 456.256C193.734 459.701 200.691 462.303 207.384 465.425C209.49 466.407 211.47 467.78 213.246 469.282C213.808 469.758 213.958 471.55 213.51 472.174C212.989 472.9 211.405 473.57 210.622 473.295C198.453 469.035 186.623 464.623 176.075 456.392C160.996 444.626 150.768 428.671 137.46 415.486C128.297 406.408 116.637 402.541 103.885 401.319C89.9764 399.985 75.8182 400.704 62.3622 395.485C53.7272 392.135 48.6644 385.77 45.1613 377.827C44.5706 376.488 45.3672 373.74 46.4892 372.57C54.3232 364.397 62.3956 356.452 70.4415 348.484C71.3159 347.619 72.5684 346.438 73.5387 346.53C74.9616 346.665 76.3865 347.694 77.5708 348.642C77.8017 348.826 77.1792 350.617 76.5417 351.265C69.438 358.485 62.2591 365.631 55.0888 372.785C52.5565 375.312 51.011 377.423 53.8607 381.273C58.1227 387.032 63.7511 389.655 70.3213 391.438C81.258 394.405 92.4456 393.726 103.548 394.587C122.675 396.072 138.928 403.85 150.297 420.112C151.425 421.725 153.086 422.966 154.75 424.63Z" fill="#000000" fill-rule="nonzero" opacity="1" stroke="none"/>
<path d="M95.75 327.13C91.6505 326.415 91.2576 323.576 92.3767 320.594C94.3711 315.28 96.6235 310.047 99.0926 304.937C99.7996 303.474 101.623 302.551 102.935 301.38C103.623 303.145 105.331 305.301 104.829 306.61C102.194 313.485 99 320.145 95.75 327.13Z" fill="#000000" fill-rule="nonzero" opacity="1" stroke="none"/>
</g>
</svg>
