<?xml version="1.0" encoding="UTF-8" standalone="no"?>
<!DOCTYPE svg PUBLIC "-//W3C//DTD SVG 1.1//EN" "http://www.w3.org/Graphics/SVG/1.1/DTD/svg11.dtd">
<!-- Created with Vectornator (http://vectornator.io/) -->
<svg height="100%" stroke-miterlimit="10" style="fill-rule:nonzero;clip-rule:evenodd;stroke-linecap:round;stroke-linejoin:round;" version="1.1" viewBox="0 0 426.303 466.129" width="100%" xmlSpace="preserve" xmlns="http://www.w3.org/2000/svg" xmlnsVectornator="http://vectornator.io" xmlnsXlink="http://www.w3.org/1999/xlink">
<defs/>
<clipPath id="ArtboardFrame">
<rect height="466.129" width="426.303" x="0" y="0"/>
</clipPath>
<g clip-path="url(#ArtboardFrame)" id="Untitled" vectornatorLayerName="Untitled">
<path d="M29.4121 185.068C36.1927 176.552 36.0497 167.338 33.6046 157.744C30.7391 146.5 26.8957 135.196 28.379 123.524C29.6709 113.359 32.2589 103.251 35.3399 93.4528C37.8659 85.4197 41.4138 77.5777 45.4957 70.1968C50.7054 60.7765 56.6344 51.7152 62.785 42.8688C66.4684 37.5708 70.7177 32.4794 75.5025 28.1726C85.8247 18.8817 96.5695 10.049 107.389 1.33636C108.745 0.243954 112.522 0.08551 113.547 1.11594C115.28 2.85831 113.782 4.45904 111.565 6.18089C101.385 14.0899 90.6869 21.6611 81.9502 31.0124C72.3423 41.2962 63.5456 52.7351 56.4711 64.8799C48.9934 77.717 43.332 91.7403 38.0446 105.688C33.1036 118.722 32.8872 132.326 36.7076 146.015C38.8147 153.565 40.4491 161.402 40.9654 169.198C41.533 177.768 38.5099 185.553 32.463 192.105C24.8488 200.354 17.229 208.641 10.2463 217.417C4.15299 225.075 4.79995 230.156 11.7701 236.835C15.9675 240.857 20.5558 244.481 25.0907 248.131C25.7399 248.654 27.0985 248.47 28.0958 248.346C29.8179 248.133 31.5141 247.711 33.2212 247.377C33.3771 249.515 34.5271 252.567 33.5332 253.648C24.7573 263.186 32.9684 268.691 37.9766 275.296C40.8554 279.093 43.4494 283.371 45.0183 287.838C47.7747 295.685 45.6643 303.517 43.307 311.189C41.5336 316.961 39.6849 322.72 38.2095 328.571C36.3508 335.941 42.0339 343.446 49.7869 344.867C61.4352 347.003 72.6831 345.308 84.0222 342.577C93.7947 340.224 103.755 338.632 113.66 336.859C116.975 336.265 120.379 336.178 123.737 335.811C128.834 335.254 132.063 337.982 134.117 342.138C137.941 349.874 141.468 357.757 145.2 365.54C145.626 366.428 146.575 367.065 147.281 367.818C147.908 367.152 148.775 366.592 149.124 365.803C151.553 360.311 153.666 354.672 156.273 349.269C162.389 336.593 166.571 323.455 167.187 309.278C167.733 296.716 168.613 284.168 169.089 271.603C169.229 267.926 168.183 264.205 168.307 260.526C168.362 258.928 170.003 257.385 170.923 255.818C172.003 257.393 173.933 258.92 174.024 260.551C174.625 271.231 175.697 281.994 174.954 292.614C173.894 307.775 174.094 323.357 168.048 337.68C162.477 350.876 156.812 364.169 149.65 376.528C137.137 398.124 123.615 419.146 110.157 440.179C105.038 448.18 99.038 455.632 93.1699 463.124C92.1826 464.384 89.8198 464.567 88.0925 465.248C88.1793 463.208 87.4933 460.637 88.4728 459.209C97.9364 445.408 108.022 432.026 117.241 418.069C125.39 405.732 132.507 392.717 140.418 380.216C142.813 376.432 142.568 372.773 141.049 369.382C137.394 361.218 133.359 353.204 129.058 345.359C127.158 341.894 123.32 341.174 119.606 341.866C112.834 343.126 106.131 344.755 99.3704 346.087C89.34 348.063 79.2074 349.583 69.2639 351.917C60.4523 353.985 52.1943 351.785 43.9203 349.728C37.1465 348.044 32.6702 340.883 32.0511 333.999C31.2024 324.561 35.4845 316.392 37.8658 307.829C41.5191 294.693 38.9482 283.783 29.244 274.295C27.1233 272.222 25.2107 269.675 24.0306 266.983C23.0881 264.833 22.8582 262.027 23.3019 259.701C23.8427 256.866 23.8917 254.617 21.5325 252.673C17.4231 249.286 13.5044 245.649 9.24419 242.466C-2.11496 233.982-2.30941 224.119 4.87744 213.769C8.55758 208.47 13.2748 203.892 17.5033 198.971C21.4034 194.432 25.2769 189.87 29.4121 185.068Z" fill="#000000" fill-rule="nonzero" opacity="1" stroke="none"/>
<path d="M356.162 264.818C355.162 253.9 353.659 243.501 353.286 233.061C352.786 219.08 353.682 205.044 353.011 191.078C352.381 177.932 350.61 164.833 349.125 151.738C347.976 141.604 346.853 131.445 345.071 121.412C342.88 109.078 340.137 96.8371 337.405 84.607C335.164 74.5725 332.948 64.5075 330.066 54.6473C326.891 43.7861 320.142 34.8095 313.007 26.2504C306.903 18.9288 300.241 12.2019 290.548 9.49167C289.775 9.27563 289.658 6.71466 289.236 5.24343C290.825 4.882 292.8 3.73656 293.937 4.29515C298.803 6.68593 303.989 8.92561 308.024 12.4154C318.776 21.7132 327.904 32.7011 333.36 45.8339C337.671 56.2117 340.322 67.3375 343.06 78.2936C345.644 88.6331 347.476 99.1664 349.458 109.649C351.159 118.642 352.706 127.667 354.134 136.707C355.595 145.966 356.917 155.25 358.123 164.547C358.685 168.878 359.087 173.262 359.116 177.626C359.229 194.456 359.062 211.288 359.207 228.118C359.272 235.647 359.457 243.212 360.245 250.692C361.584 263.399 366.363 274.889 372.612 286.065C377.174 294.222 381.461 302.439 388.046 309.115C393.827 314.977 400.098 320.353 405.948 326.149C420.416 340.485 427.553 357.762 426.124 378.251C425.678 384.648 425.327 391.133 423.961 397.364C421.842 407.03 413.937 411.395 405.623 414.744C399.97 417.021 394.037 417.227 387.807 417.109C379.245 416.947 370.61 418.595 362.068 419.878C352.721 421.281 343.21 422.356 334.186 424.992C318.05 429.706 302.122 435.199 286.304 440.913C274.731 445.094 263.311 449.801 252.147 454.973C246.936 457.386 242.59 461.612 237.647 464.688C236.059 465.676 232.916 466.62 232.045 465.841C229.497 463.561 231.848 461.607 233.621 459.84C240.672 452.816 249.574 448.885 258.488 445.03C269.368 440.324 280.137 435.253 291.309 431.355C306.628 426.01 322.134 421.052 337.839 417.016C348.38 414.307 359.369 413.175 370.224 411.923C377.856 411.044 385.598 410.953 393.295 410.871C401.701 410.781 408.427 406.773 414.447 401.715C416.538 399.957 417.722 396.271 417.998 393.341C419.491 377.478 421.872 361.409 413.141 346.615C407.464 336.995 400.264 328.784 391.639 321.508C383.618 314.741 375.911 307.282 371.203 297.576C366.025 286.903 361.162 276.077 356.162 264.818Z" fill="#000000" fill-rule="nonzero" opacity="1" stroke="none"/>
<path d="M291.912 250.568C285.535 258.278 280.019 266.373 273.115 273.027C265.682 280.189 256.701 285.59 246.134 287.282C242.924 287.796 239.565 288.08 236.351 287.743C223.557 286.401 210.571 285.819 199.456 277.868C192.305 272.753 189.736 265.144 187.175 257.411C187.075 257.111 187.252 256.717 187.149 256.42C184.028 247.459 185.73 245.437 174.815 250.493C164.372 255.331 156.81 252.314 152.169 239.377C149 230.541 147.595 221.478 148.06 212.036C148.283 207.494 149.8 204.232 153.97 202.571C157.885 201.012 160.659 203.599 163.569 205.671C165.72 207.203 167.951 209.312 170.364 209.662C179.169 210.941 180.864 207.583 182.899 199.27C184.797 191.515 184.438 183.217 185.214 175.172C185.358 173.68 185.927 172.078 186.78 170.866C187.259 170.185 188.801 169.831 189.715 170.027C190.332 170.158 191.077 171.494 191.103 172.312C191.448 183.165 191.754 194.124 187.904 204.459C182.844 218.044 173.124 218.7 161.951 212.165C160.28 211.187 158.323 210.697 156.498 209.981C155.72 211.992 154.307 213.991 154.272 216.014C154.124 224.643 156.292 232.807 160.158 240.525C163.169 246.534 167.943 247.655 173.642 243.922C175.679 242.588 178.021 241.226 180.357 240.932C187.213 240.07 190.454 243.137 192.202 250.707C194.392 260.19 197.139 269.657 206.589 274.549C211.328 277.002 216.665 278.618 221.92 279.671C226.978 280.684 232.289 280.373 237.471 280.841C248.3 281.818 257.324 277.419 265.367 270.983C275.8 262.635 284.381 252.537 290.022 240.333C293.182 233.499 295.056 226.066 298.274 219.265C301.903 211.596 305.424 209.754 311.561 210.877C312.502 211.049 313.394 211.923 314.081 212.679C314.219 212.83 313.465 214.297 312.876 214.526C303.865 218.028 302.034 226.427 299.109 234.196C297.05 239.667 294.495 244.951 291.912 250.568Z" fill="#000000" fill-rule="nonzero" opacity="1" stroke="none"/>
<path d="M319.912 161.068C322.836 170.382 323.713 179.65 323.12 189.052C323.003 190.9 322.666 192.883 321.821 194.482C321.282 195.501 319.622 195.928 318.464 196.62C317.697 195.106 316.048 193.425 316.298 192.103C318.888 178.395 315.345 165.954 309.638 153.632C305.491 144.681 300.326 135.942 300.119 125.586C300.108 124.99 299.479 124.407 299.138 123.818C298.479 124.451 297.517 124.964 297.211 125.737C295.118 131.034 293.055 136.349 291.193 141.731C289.426 146.838 287.541 151.956 286.459 157.224C285.969 159.608 286.573 162.845 287.919 164.872C294.719 175.113 302.033 185.01 308.918 195.196C310.698 197.83 311.749 201.014 312.759 204.069C313.018 204.853 312.059 206.363 311.247 207.053C310.782 207.447 309.042 207.199 308.637 206.664C306.365 203.66 304.318 200.485 302.207 197.36C295.963 188.122 290.169 178.534 283.32 169.769C279.147 164.429 279.154 159.779 280.665 153.596C285.104 135.422 294.874 119.454 301.03 102.052C305.764 88.6661 306.741 74.7738 298.915 62.0956C296.826 58.7113 292.003 56.1082 287.935 55.0234C276.275 51.9143 265.081 54.6072 254.412 59.8113C252.752 60.621 251.11 61.5687 249.35 62.0371C248.047 62.3837 246.564 62.0556 245.162 62.0281C245.583 60.3704 245.485 57.7493 246.504 57.2015C259.022 50.466 271.876 45.7184 286.69 48.6348C294.377 50.148 301.426 52.127 305.041 59.4195C307.481 64.341 308.978 69.8689 310.07 75.292C312.935 89.515 308.207 102.56 303.03 115.46C302.686 116.317 301.921 117.61 302.241 118.04C307.324 124.88 306.379 133.844 310.682 141.078C314.355 147.254 316.719 154.208 319.912 161.068Z" fill="#000000" fill-rule="nonzero" opacity="1" stroke="none"/>
<path d="M49.9121 88.5677C56.9937 77.486 63.3686 66.3271 70.8133 55.9346C76.0107 48.6793 82.4781 42.2843 88.7293 35.8459C96.861 27.4708 106.642 21.3126 116.77 15.562C124.652 11.0868 131.918 5.53482 139.753 0.967064C141.906-0.288229 145.118 0.27256 147.844 0C147.779 1.6059 147.956 4.56033 147.614 4.62159C137.559 6.42342 131.171 14.2363 123.2 19.3684C114.608 24.9009 105.893 30.3688 97.9706 36.7784C91.166 42.2837 84.7097 48.5368 79.3461 55.4294C71.741 65.2024 65.1811 75.8006 58.3597 86.168C51.9641 95.888 48.3433 106.758 46.1963 118.101C43.2926 133.441 46.656 148.301 49.9775 163.163C53.1953 177.561 50.7806 191.18 41.5434 202.603C35.4914 210.087 27.6973 216.169 20.592 222.78C20.065 223.27 18.2644 223.349 17.9845 222.956C17.3296 222.038 16.5862 220.189 17.0263 219.644C19.9839 215.987 22.8957 212.161 26.4644 209.152C38.9862 198.592 46.6634 185.688 44.9923 168.97C43.9323 158.365 40.2824 147.991 39.544 137.392C38.913 128.333 39.9748 118.938 41.7856 109.996C43.2621 102.704 46.953 95.8601 49.9121 88.5677Z" fill="#000000" fill-rule="nonzero" opacity="1" stroke="none"/>
<path d="M178.912 120.568C170.355 120.818 165.72 126.215 165.063 135.185C164.176 147.282 169.123 157.614 173.925 168.033C179.268 179.626 181.779 191.255 175.179 203.173C174.512 204.378 172.798 205.347 171.395 205.676C170.482 205.89 168.347 204.76 168.338 204.205C168.313 202.754 168.871 201.099 169.698 199.86C174.372 192.859 173.891 185.525 171.127 178.143C167.459 168.344 163.046 158.795 159.871 148.846C156.558 138.465 157.916 128.237 164.397 119.164C167.054 115.443 171.123 114.3 175.615 113.653C178.373 113.255 181.457 111.798 183.419 109.84C188.231 105.037 192.103 99.2729 197.027 94.6051C209.224 83.0411 222.882 73.2754 239.153 68.6273C249.422 65.694 260.163 62.7944 271.16 65.8321C272.043 66.076 273.104 66.3073 273.675 66.9226C274.944 68.2912 275.954 69.8997 277.069 71.4105C274.933 71.8785 272.45 73.2941 270.715 72.6606C259.589 68.5968 249.177 72.3175 239.005 75.6559C220.088 81.8649 205.511 94.5773 192.453 109.115C188.511 113.505 185.505 118.84 178.912 120.568Z" fill="#000000" fill-rule="nonzero" opacity="1" stroke="none"/>
<path d="M174.912 18.5677C164.566 24.5808 154.493 30.3864 144.343 36.0536C143.072 36.7631 141.393 36.7413 139.903 37.0584C140.114 35.3531 139.685 32.8913 140.649 32.0749C144.614 28.717 148.765 25.4357 153.283 22.9022C164.058 16.8602 175.029 11.1584 186.03 5.53412C189.711 3.65253 193.624 1.95803 197.629 1.09725C199.531 0.68837 201.897 2.43738 204.053 3.20883C202.616 4.71853 201.384 7.22784 199.708 7.57115C190.71 9.41414 182.913 13.7642 174.912 18.5677Z" fill="#000000" fill-rule="nonzero" opacity="1" stroke="none"/>
<path d="M26.1621 310.818C26.4954 305.471 26.9515 300.629 27.1329 295.777C27.3959 288.74 24.4503 282.96 19.768 277.899C17.3473 275.283 14.9963 272.597 12.7226 269.852C9.307 265.729 9.76943 261.005 11.2983 256.425C11.6846 255.267 13.7538 254.671 15.0496 253.818C15.7538 254.902 17.2837 256.247 17.0362 257.03C14.0758 266.402 21.046 271.552 26.0396 276.913C34.0374 285.5 33.7571 295.415 32.6869 305.754C32.4635 307.912 32.0158 310.112 31.2326 312.121C30.8094 313.207 29.4579 313.931 28.5252 314.818C27.7375 313.651 26.9498 312.484 26.1621 310.818Z" fill="#000000" fill-rule="nonzero" opacity="1" stroke="none"/>
<path d="M165.912 233.568C162.534 231.944 159.065 224.744 160.273 221.788C160.782 220.542 162.508 219.793 163.681 218.818C164.508 219.943 165.948 221.017 166.048 222.205C166.36 225.886 166.162 229.61 165.912 233.568Z" fill="#000000" fill-rule="nonzero" opacity="1" stroke="none"/>
</g>
</svg>
