<?xml version="1.0" encoding="UTF-8" standalone="no"?>
<!DOCTYPE svg PUBLIC "-//W3C//DTD SVG 1.1//EN" "http://www.w3.org/Graphics/SVG/1.1/DTD/svg11.dtd">
<!-- Created with Vectornator (http://vectornator.io/) -->
<svg height="100%" stroke-miterlimit="10" style="fill-rule:nonzero;clip-rule:evenodd;stroke-linecap:round;stroke-linejoin:round;" version="1.1" viewBox="0 0 343.636 359.45" width="100%" xmlSpace="preserve" xmlns="http://www.w3.org/2000/svg" xmlnsVectornator="http://vectornator.io" xmlnsXlink="http://www.w3.org/1999/xlink">
<defs/>
<clipPath id="ArtboardFrame">
<rect height="359.45" width="343.636" x="0" y="0"/>
</clipPath>
<g clip-path="url(#ArtboardFrame)" id="Untitled" vectornatorLayerName="Untitled">
<path d="M237.692 106.455C228.906 116.85 214.884 121.577 201.293 122.302C199.28 122.409 196.897 122.257 195.803 120.564C194.122 117.963 197.043 114.864 199.668 113.219C210.817 106.233 222.846 100.653 235.381 96.6561C233.767 92.7076 228.083 93.2025 223.987 94.3956C217.87 96.1777 211.753 97.9597 205.636 99.7418C199.206 101.615 192.746 103.499 186.685 106.347C177.065 110.865 168.733 117.668 160.51 124.401C158.962 125.668 156.519 123.642 156.675 121.649C156.832 119.655 158.468 118.139 160.011 116.866C173.578 105.68 188.841 96.7495 204.234 88.2494C207.364 86.5211 211.168 84.7844 214.346 86.4225C218.476 88.5513 223.42 87.715 228.056 87.3985C232.692 87.082 238.071 87.7133 240.685 91.5546C243.753 96.061 241.21 102.291 237.692 106.455Z" fill="#000000" fill-rule="nonzero" opacity="1" stroke="none"/>
<path d="M78.4189 40.8114C96.6803 26.3724 116.842 14.3396 138.219 5.12164C139.994 4.35628 141.8 3.60382 143.71 3.30589C144.615 3.16463 145.589 3.1384 146.398 3.56963C148.145 4.50149 148.21 7.16863 147.041 8.76717C145.872 10.3657 143.927 11.1615 142.091 11.9042C119.303 21.1228 97.8934 33.7402 78.7894 49.21C77.0507 50.6179 74.3399 48.3002 74.5652 46.0744C74.7905 43.8485 76.6639 42.199 78.4189 40.8114Z" fill="#000000" fill-rule="nonzero" opacity="1" stroke="none"/>
<path d="M216.379 81.2937C192.642 87.5108 170.754 100.624 154.074 118.622C153.006 119.774 151.176 118.039 151.05 116.473C150.772 113.041 153.319 110.087 155.789 107.689C171.025 92.9023 190.053 82.0569 210.539 76.4834C212.48 75.9553 214.68 75.5059 216.399 76.5505C218.118 77.5951 218.325 80.7841 216.379 81.2937Z" fill="#000000" fill-rule="nonzero" opacity="1" stroke="none"/>
<path d="M285.212 248.441C274.331 251.485 263.981 256.421 254.767 262.962C276.905 263.013 299.035 265.853 320.469 271.394C322.711 271.974 325.12 272.697 326.493 274.562C327.867 276.427 327.337 279.751 325.071 280.232C301.633 285.207 281.358 303.06 273.457 325.68C271.911 330.109 266.83 332.51 262.141 332.379C257.452 332.248 253.071 330.128 248.922 327.939C176.216 289.567 126.818 219.14 81.6627 150.441C76.7035 142.896 66.1224 140.54 57.4766 143.142C48.8308 145.744 41.9262 152.33 36.5097 159.553C23.3938 177.045 18.2346 203.911 33.3319 219.724C39.7503 226.447 48.7814 230.07 55.7138 236.261C66.8902 246.244 71.4484 263.014 66.8625 277.281C64.4221 284.873 57.8205 292.49 49.9445 291.241C44.0852 290.311 40.1361 284.931 36.8481 279.992C17.3563 250.718-2.97557 218.318 0.36208 183.307C1.20304 174.485 4.58066 164.617 12.8322 161.386C15.423 160.372 18.3251 160.106 20.683 158.628C26.8907 154.739 25.8528 145.558 24.1699 138.428C18.9609 116.362 14.9203 93.8165 15.5844 71.1537C16.2485 48.4909 21.8716 25.5525 34.638 6.8158C36.3486 4.30513 38.311 1.77161 41.1024 0.572392C43.8937-0.626821 47.7074 0.039538 49.0819 2.74889C34.6226 15.2568 26.9555 34.1815 24.3794 53.1257C21.8033 72.0699 23.8179 91.3032 25.8345 110.315C27.3089 124.215 28.8852 138.471 35.2162 150.932C35.9666 143.453 44.9122 140.261 52.2452 138.608C59.5782 136.955 68.4899 133.327 68.7249 125.813C69.359 105.549 72.4038 85.36 77.7747 65.8095C79.202 60.6143 81.8314 54.5367 87.1791 53.8817C83.4042 73.4493 79.6293 93.0168 75.8543 112.584C74.8346 117.87 73.817 123.347 75.0546 128.586C76.2349 133.582 79.351 137.865 82.396 141.998C103.182 170.212 123.968 198.425 144.754 226.639C152.964 237.782 161.676 249.35 174.159 255.327C187.272 261.604 203.635 260.498 215.783 252.512C219.55 250.035 224.684 246.966 227.996 250.024C223.535 258.515 214.089 263.467 204.609 264.93C195.13 266.393 185.473 264.881 176.001 263.37C197.651 285.778 222.64 304.955 249.886 320.072C256.285 323.622 266.56 325.652 268.999 318.753C275.828 299.432 292.112 283.709 311.66 277.561C289.647 271.137 266.523 268.536 243.633 269.909C240.976 270.069 239.036 267.007 239.375 264.367C239.714 261.728 241.584 259.567 243.475 257.695C251.432 249.814 261.32 243.897 272.026 240.611C285.62 236.437 295.176 221.837 293.561 207.71C299.093 205.964 305.007 210.23 307.457 215.489C309.908 220.747 309.913 226.756 310.522 232.526C310.796 235.127 311.585 238.199 314.066 239.027C317.911 240.31 320.538 235.169 321.291 231.187C322.323 225.735 323.261 220.047 321.772 214.702C320.284 209.356 315.654 204.471 310.106 204.544C302.275 204.647 293.795 202.873 288.66 196.961C283.524 191.049 283.97 180.199 291.009 176.768C293.192 175.704 292.248 172.417 291.002 170.333C278.51 149.443 266.005 127.291 264.895 102.976C264.536 95.0937 265.836 86.3059 271.904 81.2626C278.877 75.4668 289.131 76.8541 298.037 78.5584C291.997 57.4634 284.694 34.6056 266.398 22.4938C245.239 8.48764 217.256 13.8108 192.564 19.6535C166.865 25.7345 141.166 31.8154 115.467 37.8963C114.335 38.1641 113.001 38.3859 112.13 37.6154C110.229 35.935 113.114 33.1956 115.517 32.3853C144.68 22.5552 174.602 14.9804 204.928 9.75082C226.223 6.07884 249.519 3.89832 268.18 14.7923C289.802 27.4143 298.754 53.5608 306.036 77.5145C306.624 79.4503 307.209 81.5652 306.469 83.4485C305.318 86.3803 301.5 87.2955 298.402 86.7268C295.305 86.158 292.456 84.5611 289.341 84.0949C280.305 82.7427 272.385 91.7113 271.361 100.791C270.337 109.87 274.178 118.713 277.932 127.043C283.835 140.142 289.738 153.241 295.64 166.34C297.802 171.136 301.798 176.853 306.844 175.366C309.839 174.484 310.927 179.928 308.39 181.748C305.854 183.567 302.404 182.96 299.287 183.128C296.17 183.295 292.435 185.334 292.908 188.419C293.098 189.658 293.95 190.678 294.768 191.627C297.04 194.261 299.562 197.048 302.967 197.765C306.371 198.481 310.598 195.809 309.985 192.384C308.054 181.591 319.455 173.601 329.231 168.637C333.872 166.28 331.213 159.164 327.721 155.304C320.299 147.101 311.412 140.228 301.606 135.107C294.735 131.518 286.477 127.648 285.058 120.027C283.717 112.825 289.816 105.975 296.759 103.639C300.096 102.517 304.073 102.241 306.871 104.378C309.669 106.515 309.967 111.682 306.779 113.177C302.352 115.253 301.906 121.802 304.506 125.943C307.106 130.085 311.644 132.503 315.766 135.135C322.393 139.368 328.39 144.587 333.498 150.566C337.628 155.402 341.351 161.832 339.226 167.826C335.361 178.727 315.234 180.371 316.584 191.858C317.014 195.513 319.797 198.363 322.015 201.3C330.04 211.923 331.47 227.135 325.565 239.068C322.737 244.781 325.372 251.672 328.799 257.048C332.226 262.423 336.577 267.599 337.426 273.917C338.015 278.303 336.82 282.731 336.86 287.156C336.924 294.316 340.18 301.005 341.986 307.934C345.264 320.506 343.61 334.295 337.454 345.736C332.577 354.799 321.583 362.958 312.622 357.896C305.379 353.804 296.453 357.238 288.212 358.37C276.435 359.988 264.601 356.611 253.243 353.103C233.75 347.082 214.411 340.566 195.249 333.562C164.72 322.404 132.484 308.202 116.153 280.098C102.046 255.823 102.616 225.723 92.128 199.679C87.5021 188.192 78.6707 176.326 66.2912 176.023C58.8215 175.84 51.4588 180.512 48.4442 187.349C45.4296 194.186 46.9454 202.773 52.1184 208.165C55.1406 211.315 60.9595 213.03 63.4771 209.464C66.1562 205.669 72.6049 211.43 70.403 215.52C68.2012 219.611 62.3995 220.038 57.9539 218.691C46.9325 215.35 39.0273 203.771 39.93 192.29C40.8327 180.809 50.4503 170.608 61.8583 169.031C72.1211 167.612 82.5151 172.717 89.498 180.37C96.4809 188.024 100.493 197.93 103.275 207.91C109.726 231.048 110.547 256.293 122.868 276.914C137.59 301.552 165.633 314.526 192.469 324.705C213.643 332.737 235.134 339.932 256.876 346.27C266.173 348.98 275.705 351.556 285.38 351.137C296.885 350.639 309.519 346.174 319.18 352.439C321.389 353.871 324.155 351.709 325.733 349.603C330.915 342.688 334.192 334.36 335.11 325.768C336.006 317.386 334.699 308.942 333.395 300.614C332.573 295.358 331.75 290.103 330.927 284.847C328.843 271.529 325.619 256.465 313.97 249.682C305.447 244.718 294.71 245.784 285.212 248.441M24.9201 165.233C20.1223 164.197 15.0843 166.867 12.1431 170.797C9.20199 174.727 8.01926 179.694 7.42079 184.566C6.16928 194.754 7.19009 205.215 10.3876 214.968C12.6121 221.754 15.8559 228.153 19.103 234.513C26.8083 249.605 34.6544 264.73 44.8052 278.298C47.2905 281.62 51.3232 285.207 55.0391 283.361C57.3069 282.235 58.2374 279.535 58.8525 277.079C61.6553 265.886 61.9272 252.838 54.3911 244.101C48.513 237.287 39.2046 234.615 32.0646 229.137C22.8374 222.056 17.7451 210.427 17.0544 198.817C16.3638 187.207 19.7187 175.636 24.9201 165.233M303.27 235.964C305.954 233.296 302.539 229.084 301.691 225.396C300.788 221.47 302.512 216.052 298.921 214.228C298.115 218.124 297.31 222.02 296.505 225.917C295.952 228.592 295.421 231.487 296.573 233.964C297.726 236.442 301.333 237.89 303.27 235.964Z" fill="#000000" fill-rule="nonzero" opacity="1" stroke="none"/>
</g>
</svg>
