<?xml version="1.0" encoding="UTF-8" standalone="no"?>
<!DOCTYPE svg PUBLIC "-//W3C//DTD SVG 1.1//EN" "http://www.w3.org/Graphics/SVG/1.1/DTD/svg11.dtd">
<!-- Created with Vectornator (http://vectornator.io/) -->
<svg height="100%" stroke-miterlimit="10" style="fill-rule:nonzero;clip-rule:evenodd;stroke-linecap:round;stroke-linejoin:round;" version="1.1" viewBox="0 0 336.311 421.399" width="100%" xmlSpace="preserve" xmlns="http://www.w3.org/2000/svg" xmlnsVectornator="http://vectornator.io" xmlnsXlink="http://www.w3.org/1999/xlink">
<defs/>
<clipPath id="ArtboardFrame">
<rect height="421.399" width="336.311" x="0" y="0"/>
</clipPath>
<g clip-path="url(#ArtboardFrame)" id="Untitled" vectornatorLayerName="Untitled">
<path d="M11.9322 384.54C43.4697 379.609 73.581 365.86 97.9639 345.259C105.465 338.921 112.679 331.561 115.666 322.205C118.652 312.85 116.158 301.119 107.711 296.11C89.5055 285.316 90.2904 256.377 72.945 244.249C52.2806 229.8 39.5073 204.71 39.9812 179.5C40.1272 171.735 41.8408 163.285 47.8348 158.347C51.6869 155.173 57.7704 151.642 55.7361 147.084C39.6044 110.944 50.0461 65.8565 77.4628 37.3133C104.879 8.77014 146.792-3.59588 186.113 0.901043C203.016 2.83409 219.862 7.78346 233.822 17.5072C266.189 40.0519 276.978 83.8255 273.962 123.155C273.582 128.115 272.939 133.298 270.091 137.377C265.398 144.098 256.106 145.988 250.538 152.003C243.678 159.412 244.194 170.739 244.234 180.836C244.435 231.981 220.191 282.685 180.256 314.64C205.916 302.942 220.914 276.333 233.364 251.029C240.809 235.897 248.095 220.135 249.012 203.296C249.639 191.807 247.266 180.127 249.586 168.857C251.906 157.587 261.381 146.325 272.797 147.764C274.156 147.936 275.614 148.365 276.381 149.5C277.001 150.418 277.033 151.597 277.043 152.705C277.131 161.797 277.219 170.889 277.307 179.982C277.475 197.371 276.608 217.161 263.362 228.429C259.644 231.591 255.184 233.812 251.578 237.102C247.747 240.597 245.053 245.136 242.417 249.603C233.938 263.969 225.459 278.336 216.98 292.702C215.025 296.015 213.038 299.411 212.302 303.186C211.422 307.704 212.414 312.384 213.901 316.74C221.392 338.695 240.885 354.615 261.779 364.694C282.673 374.772 305.486 380.135 327.168 388.383C330.51 389.655 334.099 391.234 335.732 394.416C337.365 397.598 335.385 402.583 331.818 402.324C309.738 400.724 287.148 407.67 269.781 421.399C265.591 421.086 267.805 414.384 271.189 411.895C286.137 400.903 304.525 394.661 323.075 394.284C298.302 386.07 272.601 379.688 249.982 366.666C227.364 353.644 207.668 332.354 204.371 306.464C193.89 315.078 182.156 322.164 169.653 327.429C166.581 328.723 163.217 329.927 159.981 329.129C157.527 328.523 155.5 326.844 153.568 325.213C144.456 317.526 135.344 309.838 126.232 302.151C124.83 328.655 106.412 351.887 83.9586 366.039C61.505 380.191 35.2533 386.807 9.49734 393.216C27.4183 396.271 44.9479 401.614 61.5256 409.076C64.7561 410.53 68.3429 414.755 65.4762 416.837C45.0992 410.524 24.7221 404.211 4.34508 397.898C3.42752 397.614 2.49038 397.32 1.71885 396.748C-1.03021 394.709-0.233116 390.067 2.35604 387.828C4.9452 385.59 8.55061 385.069 11.9322 384.54M60.5915 143.549C64.8192 107.088 87.8601 73.3233 120.27 56.0938C123.268 54.5001 127.56 53.297 129.571 56.0325C107.529 72.7296 84.4587 90.7559 74.4852 116.546C69.011 130.702 67.9593 146.188 68.3574 161.36C68.8261 179.219 71.2245 197.028 75.4974 214.375C80.6964 235.482 88.923 256.32 103.134 272.77C111.191 282.097 120.953 289.77 130.649 297.38C139.146 304.05 147.643 310.719 156.14 317.389C157.386 318.367 158.758 319.392 160.342 319.404C161.758 319.416 163.036 318.612 164.211 317.821C193.532 298.098 216.315 268.823 228.234 235.557C240.153 202.291 241.146 165.209 231.024 131.352C228.17 121.808 224.397 112.406 218.468 104.401C208.43 90.8524 192.431 82.1168 175.693 80.0752C158.955 78.0336 141.662 82.4912 127.461 91.5839C120.751 95.8805 114.191 102.152 113.908 110.115C113.766 114.115 115.273 118.015 117.308 121.462C124.231 133.185 136.931 140.32 149.786 144.801C152.651 145.8 155.821 146.909 157.282 149.568C158.742 152.227 156.647 156.576 153.724 155.765C134.993 150.566 115.684 147.457 96.2679 146.514C93.4063 146.375 90.2369 146.385 88.0817 148.273C85.5755 150.468 85.4578 154.268 85.6262 157.595C87.0436 185.592 95.2325 213.223 109.299 237.471C108.669 239.676 105.594 240.322 103.565 239.253C101.536 238.183 100.347 236.038 99.3084 233.993C87.826 211.393 80.6942 186.593 78.4172 161.346C77.8256 154.785 78.0608 147.059 83.3514 143.135C85.9356 141.218 89.2535 140.639 92.4507 140.279C105.028 138.859 117.886 139.968 130.035 143.52C120.322 136.826 110.151 128.723 107.802 117.163C104.544 101.135 118.094 86.2028 132.911 79.276C155.485 68.7226 183.27 70.1772 204.619 83.03C225.968 95.8828 240.255 119.758 241.492 144.646C258.508 128.089 267.255 103.419 264.469 79.8406C261.684 56.2626 247.428 34.3101 227.021 22.1748C219.555 17.7346 211.38 14.5717 203.017 12.2242C164.611 1.44473 120.614 9.02586 90.4653 35.1467C60.3171 61.2675 46.6194 106.186 60.5915 143.549M252.722 229.288C260.841 223.065 266.712 213.97 269.041 204.01C270.948 195.854 270.527 187.358 270.095 178.994C269.999 177.128 269.87 175.161 268.835 173.606C266.046 169.413 258.836 171.672 256.68 176.223C254.524 180.774 255.611 186.101 256.219 191.1C257.594 202.401 256.224 214.027 252.259 224.7C251.672 226.281 251.238 228.486 252.722 229.288M74.4322 234.229C67.6158 217.066 63.6077 198.792 62.6155 180.352C62.5049 178.297 62.1786 175.837 60.3159 174.963C57.4424 173.614 54.9053 177.399 54.1565 180.484C49.5027 199.657 55.5644 221.524 70.713 234.165C71.8689 235.129 74.1339 235.705 74.4322 234.229M256.909 140.467C262.823 136.652 267.028 130.288 268.218 123.352C268.324 122.735 268.396 122.056 268.068 121.522C267.751 121.006 267.064 120.749 266.486 120.931C262.431 126.942 258.376 132.953 254.322 138.964C254.084 139.316 253.836 139.707 253.874 140.13C253.985 141.358 255.874 141.135 256.909 140.467M266.638 156.405C263.992 158.546 261.347 160.686 258.701 162.827C258.084 163.326 257.409 163.947 257.444 164.74C257.481 165.586 258.536 166.204 259.292 165.821C262.574 166.232 266.014 165.141 268.46 162.915C269.754 161.738 270.823 160.058 270.533 158.333C270.242 156.608 267.998 155.304 266.638 156.405M56.7503 168.328C58.0301 170.067 60.6428 167.797 61.1774 165.705C61.9589 162.647 61.861 159.37 60.8985 156.364C58.5642 159.129 57.0118 162.547 56.4654 166.124C56.3505 166.876 56.2991 167.715 56.7503 168.328M47.8869 175.533C49.4223 173.583 49.9199 170.86 49.1734 168.493C46.455 169.714 45.674 173.857 47.7614 175.984L47.8869 175.533Z" fill="#000000" fill-rule="nonzero" opacity="1" stroke="none"/>
</g>
</svg>
