<?xml version="1.0" encoding="UTF-8" standalone="no"?>
<!DOCTYPE svg PUBLIC "-//W3C//DTD SVG 1.1//EN" "http://www.w3.org/Graphics/SVG/1.1/DTD/svg11.dtd">
<!-- Created with Vectornator (http://vectornator.io/) -->
<svg height="100%" stroke-miterlimit="10" style="fill-rule:nonzero;clip-rule:evenodd;stroke-linecap:round;stroke-linejoin:round;" version="1.1" viewBox="0 0 314.842 432.601" width="100%" xmlSpace="preserve" xmlns="http://www.w3.org/2000/svg" xmlnsVectornator="http://vectornator.io" xmlnsXlink="http://www.w3.org/1999/xlink">
<defs/>
<clipPath id="ArtboardFrame">
<rect height="432.601" width="314.842" x="0" y="0"/>
</clipPath>
<g clip-path="url(#ArtboardFrame)" id="Untitled" vectornatorLayerName="Untitled">
<path d="M233.916 285.666C233.25 292.056 232.07 297.94 232.008 303.836C231.775 325.864 237.983 345.817 250.584 364.145C257.638 374.406 262.426 386.181 262.833 398.984C263.219 411.118 254.165 422.907 242.443 426.677C232.218 429.965 221.706 431.31 211.016 431.694C206.481 431.857 201.955 432.652 197.431 432.599C188.234 432.49 179.04 432.051 169.851 431.607C168.532 431.543 167.252 430.691 165.954 430.204C166.636 428.83 166.973 426.88 168.08 426.218C169.74 425.226 171.948 424.705 173.911 424.737C185.94 424.928 198.006 426.078 209.981 425.434C219.85 424.903 229.811 423.066 239.361 420.455C248.511 417.953 255.615 411.6 256.597 401.727C257.123 396.434 254.175 390.852 253.134 385.337C250.702 372.452 240.828 363.503 235.78 352.021C231.169 341.531 227.634 330.698 226.991 319.192C226.589 311.992 227.105 304.742 226.775 297.534C226.699 295.87 224.933 292.956 223.801 292.884C216.939 292.446 210.035 292.666 203.146 292.666C202.646 292.666 202.145 292.651 201.646 292.668C192.118 292.998 182.593 293.441 173.063 293.643C153.705 294.053 134.34 294.172 114.986 294.721C101.756 295.097 88.5376 295.953 75.3192 296.69C70.5503 296.956 70.472 300.736 69.7643 304.26C66.284 321.59 58.0943 337.038 50.4568 352.752C43.2459 367.589 32.906 380.238 23.5952 393.639C17.9142 401.815 13.0357 410.557 8.00325 419.166C7.28598 420.393 7.73742 422.303 7.64795 423.897C8.90375 423.82 10.1664 423.618 11.4142 423.687C19.2205 424.117 27.0184 424.738 34.8289 425.041C43.0577 425.359 51.2973 425.404 59.5326 425.546C67.2388 425.679 74.9512 425.648 82.6486 425.977C85.2584 426.088 87.8586 426.981 90.4042 427.72C91.2466 427.965 91.9042 428.846 92.6463 429.436C91.8163 429.846 90.9982 430.578 90.154 430.61C86.6023 430.742 83.0414 430.602 79.4862 430.677C64.7921 430.984 50.0997 431.538 35.4052 431.595C25.3792 431.633 15.3497 431.025 5.32382 430.651C2.02613 430.528-1.25367 424.632 0.479076 420.761C3.63005 413.721 6.85676 406.589 11.0973 400.189C19.6406 387.294 29.7092 375.357 37.6348 362.118C47.8489 345.057 57.5238 327.49 62.7652 308.095C64.7015 300.93 64.8439 293.289 65.9355 285.884C67.1768 277.464 70.951 270.14 76.4306 263.767C78.7437 261.077 78.1037 259.395 75.9627 257.147C65.4024 246.063 54.8521 234.965 44.5022 223.684C37.2506 215.781 30.5386 207.376 23.1734 199.585C19.0826 195.257 14.1084 191.772 9.60272 187.827C5.80153 184.499 5.22005 180.318 6.46377 175.594C10.6589 159.659 15.1866 143.795 18.7504 127.719C20.6816 119.007 20.4206 109.829 22.0241 101.021C24.9605 84.8921 25.1214 68.1223 32.8868 53.0486C39.0799 41.0272 48.5315 32.0333 58.8238 23.6152C71.3088 13.4039 85.9285 7.6991 101.229 4.13766C112.367 1.54491 123.995 0.069659 135.416 0.001277C143.796-0.048896 152.627 1.36649 160.073 6.57649C161.007 7.22954 162.84 6.89855 164.173 6.62276C168.449 5.73832 172.639 4.21115 176.948 3.76906C183.937 3.05209 191.016 2.46668 198.016 2.77277C214.291 3.48446 230.494 5.76069 244.998 13.5191C257.549 20.2331 268.247 29.2477 275.399 42.327C280.447 51.5609 283.92 60.6866 282.9 71.2352C282.64 73.9255 283.11 77.3892 281.633 79.1289C276.994 84.5925 280.37 89.8677 281 95.2212C281.144 96.4444 281.679 97.6165 281.902 98.8363C282.493 102.075 283.482 104.535 286.363 107.055C291.239 111.32 295.3 116.759 298.829 122.264C304.096 130.482 308.98 139.004 313.246 147.777C314.899 151.175 314.903 155.619 314.811 159.567C314.647 166.622 309.575 169.814 303.603 171.604C299.016 172.98 297.497 174.679 299.36 179.899C301.736 186.554 298.925 192.733 294.233 197.816C286.628 206.056 286.703 205.944 292.265 215.583C295.738 221.603 293.796 227.869 286.961 232.934C280.485 237.735 273.122 240.917 264.701 240.688C260.038 240.562 255.353 240.916 250.707 240.616C239.502 239.892 236.205 245.932 233.978 253.872C231.254 263.58 230.978 273.412 233.893 283.201C234.073 283.805 233.916 284.509 233.916 285.666M34.4164 202.666C39.6026 208.519 44.6836 214.469 49.9976 220.204C60.2907 231.311 70.696 242.316 81.0918 253.328C87.8906 260.53 94.9217 267.523 101.467 274.947C103.02 276.709 104.329 280.585 103.424 282.108C102.426 283.789 98.7832 284.412 96.2383 284.559C90.3677 284.896 84.419 284.251 78.5992 284.89C76.5587 285.114 73.1188 288.062 73.2371 289.531C73.5707 293.672 76.7639 290.592 78.7715 290.665C78.938 290.671 79.1054 290.675 79.2714 290.664C89.9944 289.999 100.709 289.098 111.442 288.721C127.128 288.172 142.828 287.997 158.522 287.669C159.688 287.645 160.989 287.984 161.98 287.567C162.813 287.217 163.903 285.943 163.821 285.193C162.976 277.424 161.571 269.704 160.994 261.921C160.041 249.053 159.228 236.153 159.065 223.257C158.982 216.741 160.97 210.379 166.29 205.827C172.169 200.796 178.374 196.129 184.06 190.894C188.929 186.411 189.513 182.484 185.823 177.764C181.45 172.17 182.405 165.882 183.297 160.036C184.487 152.242 184.268 145.18 179.448 138.703C174.599 132.189 174.388 124.607 179.127 118.006C181.552 114.627 184.609 111.67 186.798 108.159C190.071 102.909 194.117 97.2994 192.34 90.9155C191.054 86.293 187.798 82.0194 184.724 78.1417C180.464 72.766 174.659 68.4593 171.1 62.7136C163.477 50.409 158.302 37.0498 157.876 22.2174C157.598 12.5129 154.001 8.45675 144.067 7.79311C135.051 7.1908 125.862 6.81188 116.93 7.86848C103.963 9.4026 91.4462 13.1793 79.42 18.5591C69.5527 22.9731 61.1576 29.5102 53.5926 36.8349C47.5807 42.6557 41.6472 49.3838 38.2166 56.8717C31.1435 72.3101 30.4274 89.4692 27.9129 106.087C26.4187 115.962 25.4895 125.971 23.2351 135.671C19.9709 149.717 15.5531 163.492 12.1131 177.501C11.5934 179.618 13.0318 183.056 14.7138 184.722C20.8512 190.803 27.4755 196.392 34.4164 202.666M275.916 99.1657C275.562 97.1445 275.82 94.6828 274.741 93.1824C271.093 88.1079 272.843 83.6873 274.679 78.4785C276.443 73.475 277.935 67.3291 276.629 62.4688C270.484 39.5933 255.784 24.0113 233.525 15.6606C214.704 8.59997 195.072 9.26163 175.515 9.77469C168.781 9.95134 164.234 14.1134 163.925 18.8775C163.065 32.1449 167.734 44.1367 174.221 55.0602C178.782 62.7424 185.648 69.0859 191.667 75.8657C198.427 83.4812 201.617 92.1165 197.177 101.644C193.968 108.528 189.288 114.768 184.918 121.056C181.982 125.282 180.847 130.918 183.869 133.981C192.695 142.928 189.913 153.984 189.412 164.399C189.23 168.179 189.142 171.009 191.63 174.003C194.543 177.507 195.515 181.226 194.131 186.258C191.341 196.405 183.291 201.119 175.642 206.318C170.181 210.03 166.351 214.565 165.979 221.258C165.671 226.798 165.639 232.385 165.971 237.922C166.806 251.85 167.801 265.772 169.027 279.67C169.238 282.067 170.792 286.291 171.912 286.354C180.166 286.819 188.467 286.428 196.753 286.332C205.773 286.228 214.832 285.628 223.794 286.305C227.675 286.598 228.58 285.335 227.811 282.672C224.868 272.483 225.386 262.358 227.97 252.314C231.379 239.07 239.519 232.992 252.105 233.616C257.98 233.907 264.09 234.616 269.712 233.389C274.983 232.239 280.224 229.422 284.606 226.166C289.067 222.852 286.599 218.785 283.85 214.998C277.824 206.694 278.214 202.327 284.262 197.748C292.904 191.204 295.62 187.071 291.588 176.827C289.891 172.513 291.287 169.397 295.504 167.611C297.346 166.831 299.359 166.446 301.185 165.636C304.802 164.033 309.015 162.242 308.723 157.675C308.463 153.605 307.258 149.243 305.246 145.705C299.62 135.81 293.506 126.18 287.289 116.639C284.076 111.706 281.876 111.726 277.258 114.611C275.864 115.483 273.495 114.795 271.572 114.822C271.842 113.115 271.905 111.342 272.425 109.715C273.455 106.489 274.738 103.344 275.916 99.1657M75.4164 280.666C80.8279 278.69 86.1476 276.328 92.1587 278.565C93.0484 278.896 94.4408 277.876 95.6006 277.481C94.9923 276.663 94.4432 275.79 93.7617 275.038C92.7634 273.936 91.6703 272.92 90.6175 271.867C83.782 265.031 83.7443 265.001 77.8415 272.292C76.4834 273.969 75.3633 275.875 74.3885 277.805C74.1076 278.361 74.7158 279.366 75.4164 280.666Z" fill="#000000" fill-rule="nonzero" opacity="1" stroke="none"/>
</g>
</svg>
