<?xml version="1.0" encoding="UTF-8" standalone="no"?>
<!DOCTYPE svg PUBLIC "-//W3C//DTD SVG 1.1//EN" "http://www.w3.org/Graphics/SVG/1.1/DTD/svg11.dtd">
<!-- Created with Vectornator (http://vectornator.io/) -->
<svg height="100%" stroke-miterlimit="10" style="fill-rule:nonzero;clip-rule:evenodd;stroke-linecap:round;stroke-linejoin:round;" version="1.1" viewBox="0 0 499.042 616" width="100%" xmlSpace="preserve" xmlns="http://www.w3.org/2000/svg" xmlnsVectornator="http://vectornator.io" xmlnsXlink="http://www.w3.org/1999/xlink">
<defs/>
<clipPath id="ArtboardFrame">
<rect height="616" width="499.042" x="0" y="0"/>
</clipPath>
<g clip-path="url(#ArtboardFrame)" id="Untitled" vectornatorLayerName="Untitled">
<path d="M0 0L0.025551 616" fill="#000000" fill-rule="nonzero" opacity="1" stroke="none"/>
<path d="M59.4592 237.725C55.4269 239.699 51.1452 241.866 48.923 245.767C46.7007 249.667 47.8557 255.775 52.1787 256.985C63.4982 260.154 72.0779 271.291 72.2536 283.044C72.4294 294.798 64.1866 306.186 52.9668 309.692C51.9098 310.934 53.8432 312.807 55.4396 312.474C57.036 312.14 58.1402 310.736 59.4431 309.755C63.0536 307.036 68.3609 307.699 72.1798 310.116C75.9986 312.534 78.667 316.358 81.2308 320.081C86.0244 327.04 90.8179 333.999 95.6115 340.959C86.6553 338.391 77.6992 335.823 68.7431 333.255C64.4264 332.018 59.4996 330.852 55.6838 333.22C51.868 335.587 52.0249 343.02 56.5001 343.391C64.771 344.077 71.827 350.65 74.5672 358.484C77.3073 366.318 76.2342 375.096 73.1859 382.816C69.1185 393.115 61.554 404.079 66.087 414.183C69.0047 420.686 76.0676 424.15 82.7387 426.661C96.7378 431.929 114.935 434.286 124.54 422.82C135.289 409.988 155.565 409.74 170.894 416.468C186.222 423.196 198.451 435.27 212.201 444.817C227.392 455.366 245.115 463.008 263.601 463.561C282.088 464.113 301.311 456.81 312.513 442.094C315.536 438.123 321.069 433.263 324.446 436.938C316.865 456.041 296.45 467.885 276.002 469.952C255.554 472.019 235.127 465.784 216.353 457.423C232.084 484.567 239.67 516.362 237.888 547.684C232.614 546.864 231.219 540.042 230.896 534.715C229.42 510.344 224.299 485.77 212.215 464.554C200.131 443.339 180.469 425.733 156.813 419.689C148.583 417.586 138.174 417.707 133.568 424.845C124.873 438.317 105.66 439.972 89.968 436.676C80.1155 434.607 70.1784 430.924 63.2576 423.613C56.3368 416.302 53.2553 404.669 58.1218 395.856C61.9713 388.885 65.8962 381.685 66.8144 373.775C67.7326 365.864 64.9145 356.972 58.0014 353.019C53.4039 350.39 47.0407 349.743 44.683 345.001C40.9415 337.475 51.4707 328.198 47.4482 320.819C43.7266 313.991 49.0455 305.816 54.5796 300.354C60.1138 294.891 66.7108 288.615 65.7852 280.895C64.0788 266.661 39.1088 263.482 39.4891 249.151C39.6534 242.96 44.9452 238.208 50.1749 234.889C60.9845 228.03 73.4363 223.705 83.2109 215.437C111.794 191.261 107.387 143.773 132.637 116.133C134.952 113.599 137.578 111.214 140.792 110.008C145.628 108.193 151.142 109.323 155.766 111.627C172.565 119.998 178.588 141.412 177.23 160.132C177.089 162.075 176.824 164.164 175.497 165.59C174.17 167.017 171.413 167.199 170.507 165.475C170.682 156.524 170.84 147.425 168.465 138.792C166.091 130.16 160.784 121.902 152.678 118.102C149.723 116.717 146.249 115.974 143.203 117.145C140.997 117.993 139.27 119.741 137.723 121.529C115.29 147.468 117.797 188.62 94.8533 214.108C85.3026 224.717 72.2815 231.451 59.4592 237.725M73.7735 328.163C74.7838 328.922 75.9996 329.811 77.1883 329.381C77.5343 329.256 77.8393 329.02 78.0477 328.717C76.571 325.404 75.0516 322.025 72.583 319.368C70.1145 316.71 66.4804 314.857 62.9028 315.454C59.3252 316.052 56.252 319.706 57.1172 323.229C63.0184 322.823 69.0454 324.608 73.7735 328.163Z" fill="#000000" fill-rule="nonzero" opacity="1" stroke="none"/>
<path d="M409.886 349.622C400.831 358.835 397.489 372.161 395.637 384.945C390.398 421.115 395.609 461.507 421.255 487.546C423.552 489.879 426.175 493.284 424.376 496.02C418.264 497.771 412.73 492.039 409.257 486.713C386.462 451.753 380.398 406.386 393.21 366.667C379.288 375.799 366.377 386.473 354.79 398.43C347.177 406.286 339.997 418.95 347.212 427.173C352.35 433.028 357.487 438.882 362.624 444.737C363.688 445.949 364.828 447.479 364.355 449.021C363.402 452.125 358.687 450.334 356.368 448.06C343.136 435.081 328.878 419.533 330.31 401.053C330.814 394.537 333.321 388.306 336.632 382.671C349.063 361.518 372.03 348.698 386.655 328.998C407.616 300.763 408.66 262.519 404.192 227.638C396.992 171.421 375.573 113.916 330.89 79.0502C329.291 77.8031 327.569 76.4474 327.032 74.4926C326.495 72.5377 327.963 69.978 329.963 70.3062C330.612 70.4127 331.179 70.7921 331.72 71.1659C377.638 102.898 400.194 159.302 409.682 214.306C417.007 256.77 416.655 304.627 389.15 337.798C379.336 349.634 366.68 358.764 356.04 369.863C345.4 380.962 336.482 395.181 337.119 410.543C352.959 382.869 383.559 367.455 405.409 344.231C425.509 322.867 437.999 294.484 440.174 265.231C440.566 259.955 441.623 253.331 446.729 251.948C449.465 251.207 452.31 252.412 454.888 253.59C460.758 256.272 466.813 259.089 471.07 263.941C475.327 268.793 477.293 276.282 473.942 281.798C459.278 305.94 444.614 330.082 429.95 354.224C418.01 373.88 405.726 394.618 404.635 417.59C403.543 440.562 417.924 466.026 440.748 468.851C442.572 469.077 444.678 469.305 445.696 470.836C448.062 474.398 441.704 477.357 437.502 476.559C420.142 473.259 406.322 458.556 400.95 441.722C395.579 424.888 397.704 406.378 403.523 389.693C409.342 373.008 418.655 357.801 427.897 342.74C440.588 322.057 453.28 301.375 465.972 280.693C468.611 276.392 466.625 270.471 462.869 267.101C459.112 263.732 454.055 262.296 449.189 260.961C447.282 293.94 433.042 326.063 409.886 349.622Z" fill="#000000" fill-rule="nonzero" opacity="1" stroke="none"/>
<path d="M426.742 527.015C424.992 526.04 423.015 524.357 423.631 522.45C424.347 520.235 427.525 520.453 429.754 521.125C439.855 524.169 449.955 527.213 460.056 530.257C466.159 532.096 472.082 525.469 472.241 519.096C472.4 512.724 468.845 506.943 465.71 501.392C445.679 465.92 438.789 423.218 446.646 383.246C455.216 339.647 480.312 300.584 488.387 256.892C499.566 196.405 476.306 133.593 439.213 84.5248C437.359 82.0721 435.598 78.2288 438.029 76.3466C440.5 74.4339 443.818 77.2269 445.633 79.77C481.932 130.634 507.182 193.489 496.619 255.077C488.459 302.65 459.857 344.96 452.547 392.671C448.099 421.698 451.91 451.943 463.418 478.96C469.163 492.447 476.845 505.351 479.483 519.772C480.186 523.612 480.44 527.867 478.297 531.129C475.499 535.387 469.737 536.393 464.643 536.486C451.471 536.727 438.252 533.423 426.742 527.015Z" fill="#000000" fill-rule="nonzero" opacity="1" stroke="none"/>
</g>
</svg>
