<?xml version="1.0" encoding="UTF-8" standalone="no"?>
<!DOCTYPE svg PUBLIC "-//W3C//DTD SVG 1.1//EN" "http://www.w3.org/Graphics/SVG/1.1/DTD/svg11.dtd">
<!-- Created with Vectornator (http://vectornator.io/) -->
<svg height="100%" stroke-miterlimit="10" style="fill-rule:nonzero;clip-rule:evenodd;stroke-linecap:round;stroke-linejoin:round;" version="1.1" viewBox="0 0 412.647 460.89" width="100%" xmlSpace="preserve" xmlns="http://www.w3.org/2000/svg" xmlnsVectornator="http://vectornator.io" xmlnsXlink="http://www.w3.org/1999/xlink">
<defs/>
<clipPath id="ArtboardFrame">
<rect height="460.89" width="412.647" x="0" y="0"/>
</clipPath>
<g clip-path="url(#ArtboardFrame)" id="Untitled" vectornatorLayerName="Untitled">
<path d="M60.9691 239.2C65.8813 245.331 66.5993 254.006 64.7196 261.634C62.84 269.262 58.6859 276.102 54.567 282.791C53.2089 284.997 51.5789 287.399 49.0446 287.935C46.5103 288.471 43.5497 285.481 45.1125 283.415C52.785 273.272 60.8928 261.345 58.2389 248.907C57.8315 246.997 57.168 245.086 57.3713 243.144C57.5746 241.203 59.0168 239.193 60.9691 239.2Z" fill="#000000" fill-rule="nonzero" opacity="1" stroke="none"/>
<path d="M88.4274 139.61C83.0698 143.25 77.6562 146.808 72.1892 150.281C70.8129 151.156 69.3411 152.054 67.7107 152.082C63.4703 152.156 61.4849 146.173 63.4752 142.428C65.4655 138.683 69.5871 136.707 73.266 134.597C75.6681 133.22 78.0254 131.669 80.6976 130.943C83.3698 130.216 86.5021 130.469 88.5161 132.369C90.5301 134.27 90.7179 138.054 88.4274 139.61Z" fill="#000000" fill-rule="nonzero" opacity="1" stroke="none"/>
<path d="M321.002 333.531C283.053 344.537 260.843 384.755 225.193 401.794C221.469 403.574 217.303 398.914 217.867 394.825C218.431 390.737 221.757 387.665 224.889 384.977C239.839 372.141 255.085 359.655 270.33 347.169C279.858 339.365 289.483 331.498 300.47 325.931C310.686 320.756 321.956 317.674 333.384 316.931C329.196 303.505 322.889 290.743 314.768 279.261C301.348 287.237 290.538 298.85 279.927 310.3C267.848 323.334 255.769 336.368 243.69 349.402C216.022 379.257 187.991 409.627 169.606 445.942C166.879 451.327 163.621 457.456 157.73 458.773C155.301 456.147 156.915 451.94 158.665 448.821C167.934 432.303 178.266 416.381 189.576 401.188C201.849 384.702 215.256 369.092 229.028 353.837C254.933 325.144 282.171 297.654 310.626 271.488C308.888 266.036 300.749 267.814 295.79 270.669C271.209 284.819 245.419 300.177 231.891 325.106C206.517 371.866 174.677 415.112 137.561 453.227C132.952 450.693 136.283 443.69 139.903 439.874C174.284 403.622 203.812 362.774 227.453 318.758C190.876 344.055 163.739 380.395 134.599 413.992C131.829 417.186 127.312 420.618 123.884 418.143C117.907 413.828 109.063 417.11 104.357 422.785C99.652 428.46 97.7164 435.853 94.7075 442.583C91.6986 449.314 86.7553 456.055 79.5161 457.448C84.8832 442.585 92.2726 428.454 101.417 415.566C105.013 410.497 111.34 405.077 116.634 408.333C121.523 411.339 128.148 409.893 132.707 406.407C137.266 402.922 140.221 397.793 143.057 392.804C134.405 385.24 125.754 377.675 117.103 370.11C100.112 396.061 83.1205 422.011 66.1295 447.961C63.1135 452.567 58.8442 457.775 53.4015 456.944C62.1965 442.056 70.9914 427.167 79.7864 412.279C56.7693 422.86 36.7518 439.877 22.6027 460.89C20.8823 456.498 21.9836 451.48 23.9252 447.181C33.8538 425.197 61.0436 418.245 80.4717 403.948C97.2963 391.567 108.918 372.333 112.053 351.681C114.4 336.216 110.761 318.017 97.3134 310.028C88.6415 304.876 77.8768 305.11 67.8398 306.113C57.8027 307.116 47.4548 308.704 37.7957 305.797C28.1365 302.891 19.4117 293.808 20.8275 283.82C22.2593 273.721 23.691 263.622 25.1227 253.522C26.2055 245.884 26.8395 236.898 21.1452 231.694C13.7348 224.921 16.1245 211.891 23.3633 204.935C30.6021 197.979 40.9242 195.511 50.7209 193.318C36.3578 190.761 21.3191 192.11 7.63985 197.18C3.96705 198.542 0.102415 194.562 0.003067 190.646C-0.096281 186.73 2.23543 183.219 4.47325 180.004C25.9629 149.132 47.4526 118.261 68.9423 87.389C61.9878 90.3199 54.355 91.6273 46.8216 91.1777C59.9908 81.2789 54.9023 61.0317 55.5643 44.5702C56.2259 28.1211 64.5027 12.1335 77.5525 2.09786C80.6787-0.306344 86.7587-1.2694 87.2026 2.64936C66.4918 19.5019 56.7507 48.745 63.2183 74.6508C64.0389 77.9379 67.2528 81.9592 69.9225 79.8733C82.3873 70.1343 100.392 75.3382 115.182 80.9485C133.179 87.7753 153.144 96.5005 159.882 114.531C162.936 122.703 162.741 131.72 164.908 140.171C167.075 148.622 172.928 157.306 181.611 158.157C194.376 159.408 201.644 144.487 206.813 132.748C213.017 118.659 224.108 104.011 239.501 103.882C256.843 103.737 268.891 123.434 267.329 140.705C265.768 157.976 254.923 172.806 244.475 186.648C230.683 204.919 232.617 230.516 238.349 252.679C242.142 267.34 247.323 282.758 242.899 297.241C229.971 266.34 225.109 232.105 228.923 198.827C223.722 198.195 218.522 197.563 213.322 196.93C216.978 214.389 220.524 233.157 213.52 249.562C209.376 259.266 201.89 267.142 193.985 274.131C172.763 292.891 147.331 306.862 120.115 314.711C116.543 315.741 115.949 320.476 116.051 324.192C116.554 342.418 117.76 362.43 130.296 375.669C136.638 382.367 148.523 386.081 154.57 379.116C196.425 330.901 246.624 289.949 302.262 258.63C287.601 239.851 287.348 213.415 292.677 190.193C298.005 166.972 308.155 144.976 312.252 121.506C316.417 97.6488 314.085 72.6894 305.574 50.0159C301.946 40.3513 295.319 29.7808 285.006 29.3333C279.39 29.0896 272.474 31.5956 268.972 27.199C259.494 15.2996 245.489 7.09861 230.474 4.65466C237.933-2.47003 250.419 1.94606 258.554 8.28797C266.69 14.6299 274.663 23.0001 284.977 23.1558C294.797 23.3041 304.277 29.4861 308.374 38.4113C307.781 26.9025 303.657 15.5995 296.698 6.41383C299.35 3.87806 304.018 4.93751 306.494 7.64597C308.969 10.3544 309.814 14.1338 310.534 17.732C314.808 39.1079 317.932 60.7138 319.887 82.425C320.879 93.439 321.569 104.536 320.536 115.546C318.191 140.538 307.141 163.79 300.986 188.125C294.832 212.461 294.487 240.791 310.795 259.873C326.13 277.816 336.531 299.934 340.57 323.189C369.18 324.654 396.721 340.287 412.647 364.1C402.823 365.019 395.342 356.097 388.1 349.396C370.463 333.076 344.08 326.838 321.002 333.531M179.31 166.132C167.137 164.34 160.402 151.046 157.69 139.044C154.978 127.043 153.783 113.695 145.188 104.89C141.309 100.917 136.273 98.3049 131.255 95.927C120.102 90.6416 108.564 86.1689 96.7619 82.5561C101.039 93.1356 118.313 94.5956 120.706 105.753C114.594 109.402 106.524 105.749 101.718 100.498C96.9125 95.2468 93.857 88.512 88.6636 83.6441C87.3116 82.3769 85.6557 81.1921 83.8042 81.2682C81.2801 81.3718 79.5005 83.6951 78.0973 85.7958C71.822 95.1906 65.5466 104.585 59.2712 113.98C76.7954 105.087 101.253 116.798 105.311 136.027C102.232 134.927 99.1524 133.827 96.0731 132.728C81.6133 127.564 64.9822 122.534 51.5561 129.983C43.798 134.288 38.6781 142.035 33.8651 149.488C25.2264 162.866 16.5876 176.244 7.94879 189.623C18.8523 186.131 30.2639 182.925 41.6069 184.48C52.9499 186.034 64.2398 193.57 66.6742 204.757C69.1086 215.944 58.9391 228.999 47.7405 226.617C42.6353 225.531 37.4409 229.021 34.8625 233.559C32.284 238.097 31.7327 243.469 31.2352 248.665C30.3208 258.214 29.4064 267.764 28.4919 277.313C28.0567 281.858 27.6646 286.667 29.6378 290.785C32.1882 296.107 38.1996 299.01 44.0584 299.721C49.9172 300.433 55.8235 299.365 61.7042 298.866C77.0956 297.559 92.8077 300.227 106.905 306.54C116.014 310.62 126.566 306.65 135.545 302.292C150.725 294.924 165.331 286.374 179.186 276.743C191.119 268.449 203.064 258.579 207.766 244.829C210.689 236.28 210.514 226.995 209.655 218.001C208.069 201.412 204.256 185.037 198.349 169.455C197.425 167.017 199.04 164.416 200.577 162.31C206.782 153.807 212.986 145.305 219.191 136.802C224.478 129.555 231.362 121.518 240.311 122.138C249.863 122.8 255.684 133.076 257.667 142.443C261.585 136.01 261.453 127.33 257.34 121.019C253.226 114.708 245.339 111.082 237.871 112.069C223.896 113.916 216.266 128.81 210.052 141.464C203.838 154.117 193.257 168.185 179.31 166.132M240.649 158.856C238.044 157.486 234.843 159.679 233.539 162.318C232.236 164.956 232.019 168.028 230.711 170.664C229.593 172.915 227.681 174.762 225.392 175.8C223.435 176.688 220.928 176.907 219.3 175.505C217.672 174.103 218.015 170.801 220.125 170.397C223.217 169.805 225.256 166.604 225.555 163.471C225.854 160.338 224.807 157.249 223.776 154.276C223.387 153.153 222.959 151.973 222.047 151.211C219.303 148.915 215.386 152.09 213.458 155.104C210.042 160.442 207.237 166.502 207.461 172.835C207.712 179.894 212.161 186.753 218.689 189.45C225.217 192.147 233.478 190.25 237.847 184.701C238.519 183.848 239.126 182.824 238.997 181.745C238.086 174.103 238.65 166.288 240.649 158.856M58.7823 214.512C59.1869 213.35 59.1131 212.084 59.0343 210.856C58.7535 206.478 56.9744 200.692 52.6 201.018C42.8291 201.746 33.3724 206.122 26.4926 213.098C24.0354 215.59 21.7871 219.281 23.389 222.392C24.5873 224.72 27.5633 225.629 30.1609 225.304C32.7585 224.979 35.1195 223.698 37.5145 222.641C41.2579 220.989 45.2258 219.846 49.2745 219.254C52.9767 218.713 57.5517 218.045 58.7823 214.512M232.167 153.216C233.106 153.535 234.138 153.206 235.038 152.791C242.025 149.567 245.574 140.417 242.588 133.325C241.997 131.92 241.091 130.52 239.671 129.966C237.791 129.234 235.702 130.207 234.003 131.294C230.278 133.677 226.99 136.741 224.349 140.288C223.967 140.801 223.583 141.372 223.593 142.011C223.602 142.651 224.003 143.21 224.387 143.722C226.319 146.297 228.252 148.873 230.184 151.449C230.724 152.168 231.316 152.926 232.167 153.216M253.685 146.974C252.992 145.493 251.953 144.175 250.674 143.155C249.073 151.244 247.473 159.333 245.872 167.423C245.39 169.856 245.024 172.721 246.741 174.512C248.235 171.208 249.728 167.904 251.221 164.599C253.747 159.011 256.285 152.528 253.685 146.974M233.623 390.076C239.852 385.143 246.081 380.21 252.31 375.276C253.18 374.588 254.109 373.803 254.309 372.712C254.508 371.621 253.439 370.321 252.422 370.762C243.817 374.49 236.415 380.941 231.544 388.955C231.889 389.729 232.787 390.213 233.623 390.076M82.7655 117.488C77.0461 115.669 70.667 116.014 65.1765 118.437C64.1037 118.911 63.7452 120.504 64.5117 121.392C71.4827 119.731 78.9163 120.062 85.7122 122.335C87.3978 120.77 84.9576 118.185 82.7655 117.488M297.647 335.021C306.422 332.133 315.196 329.245 323.97 326.357C325.228 325.943 326.519 325.51 327.528 324.653C316.732 324.073 305.764 327.879 297.647 335.021Z" fill="#000000" fill-rule="nonzero" opacity="1" stroke="none"/>
</g>
</svg>
