<?xml version="1.0" encoding="UTF-8" standalone="no"?>
<!DOCTYPE svg PUBLIC "-//W3C//DTD SVG 1.1//EN" "http://www.w3.org/Graphics/SVG/1.1/DTD/svg11.dtd">
<!-- Created with Vectornator (http://vectornator.io/) -->
<svg height="100%" stroke-miterlimit="10" style="fill-rule:nonzero;clip-rule:evenodd;stroke-linecap:round;stroke-linejoin:round;" version="1.1" viewBox="0 0 451.411 497.514" width="100%" xmlSpace="preserve" xmlns="http://www.w3.org/2000/svg" xmlnsVectornator="http://vectornator.io" xmlnsXlink="http://www.w3.org/1999/xlink">
<defs/>
<g id="Untitled" vectornatorLayerName="Untitled">
<path d="M270.256 134.585C264.118 142.279 261.025 152.483 253.277 158.552C254.671 141.724 265.446 125.981 280.628 118.59C295.81 111.198 314.847 112.426 328.954 121.707C334.413 125.299 329.992 133.801 325.01 138.029C308.071 152.406 286.786 161.592 264.705 164.053C267.12 178.81 269.535 193.568 271.95 208.325C272.244 210.124 272.591 212.033 273.827 213.372C275.061 214.708 276.933 215.205 278.699 215.642C315.875 224.84 354.689 234.074 392.053 225.672C395.467 224.904 397.36 230.36 395.11 233.039C392.859 235.719 388.923 236.051 385.425 236.132C306.194 237.963 226.576 213.567 161.97 167.664C163.786 164.952 167.964 166.121 170.886 167.577C192.353 178.274 213.82 188.971 235.286 199.669C245.363 204.69 255.714 209.794 266.91 210.969C260.429 189.784 254.276 165.505 265.83 146.602C273.909 133.383 288.906 126.154 303.556 121.113C291.143 119.509 278.061 124.802 270.256 134.585M301.831 129.468C288.679 133.171 277.02 141.931 269.802 153.533C269.295 154.347 268.828 155.467 269.465 156.185C270 156.789 270.959 156.669 271.747 156.492C290.307 152.299 307.85 143.669 322.498 131.524C316.804 127.142 308.747 127.521 301.831 129.468Z" fill="#000000" fill-rule="nonzero" opacity="1" stroke="none"/>
<path d="M244.774 243.321C242.379 244.704 238.753 244.179 237.588 241.67C236.422 239.162 239.555 235.725 241.879 237.224C239.94 232.876 234.291 230.835 229.803 232.425C225.314 234.014 222.283 238.675 222.032 243.43C221.596 251.698 229.091 258.991 237.296 260.096C245.502 261.2 253.753 257.193 259.607 251.339C265.461 245.484 269.3 237.953 272.801 230.45C274.241 227.364 279.18 227.605 281.385 230.199C283.59 232.794 283.69 236.557 283.261 239.935C281.713 252.112 274.457 263.441 264.044 269.94C260.891 271.908 255.835 272.953 254.207 269.611C262.205 263.946 269.165 256.82 274.639 248.69C276.081 246.55 276.936 242.837 274.47 242.075C268.14 251.246 261.253 260.701 251.218 265.548C241.182 270.394 227.111 268.772 221.512 259.136C219.525 260.096 220.356 263.085 221.471 264.99C228.968 277.802 236.465 290.613 243.961 303.425C245.274 305.669 242.086 308.35 239.583 307.65C237.079 306.95 235.57 304.474 234.308 302.201C230.527 295.393 226.746 288.586 222.965 281.778C220.724 277.742 215.986 273.098 212.368 275.966C211.273 276.835 209.56 275.635 209.363 274.25C209.165 272.866 209.885 271.541 210.448 270.261C215.316 259.184 209.136 246.626 203.114 236.131C201.466 238.246 199.221 240.266 196.541 240.245C193.861 240.225 191.382 236.953 192.979 234.8C200.546 224.597 199.799 209.082 191.286 199.653C189.829 198.04 191.768 195.235 193.941 195.211C196.114 195.187 197.912 196.862 199.248 198.576C203.595 204.155 205.71 211.425 205.036 218.465C204.778 221.157 205.902 223.767 207.001 226.238C210.433 233.952 213.865 241.667 217.298 249.381C216.763 244.253 216.244 238.952 217.809 234.039C219.375 229.127 223.607 224.676 228.761 224.549C234.425 224.409 240.574 224.982 244.801 228.755C249.027 232.527 249.681 240.489 244.774 243.321Z" fill="#000000" fill-rule="nonzero" opacity="1" stroke="none"/>
<path d="M113.849 210.372C111.03 208.508 112.172 204.127 113.923 201.237C124.994 182.962 149.331 173.971 169.625 180.657C173.962 182.086 178.236 184.258 181.031 187.869C183.825 191.48 184.793 196.777 182.412 200.673C175.592 211.837 164.849 220.55 152.518 224.919C140.187 229.287 126.355 229.282 114.028 224.902C111.564 224.027 108.969 222.811 107.791 220.477C106.613 218.142 107.906 214.554 110.52 214.491C132.514 213.968 154.33 207.285 172.843 195.398C174.616 194.26 174.571 191.453 173.252 189.809C171.933 188.165 169.796 187.438 167.746 186.949C151.187 182.999 132.523 190.489 123.289 204.791C122.176 206.515 121.156 208.362 119.556 209.647C117.955 210.931 115.56 211.504 113.849 210.372M126.751 219.513C128.092 221.666 131.105 221.881 133.636 221.704C145.834 220.854 157.757 216.379 167.504 208.994C166.786 206.948 163.751 207.59 161.814 208.566C150.828 214.096 138.931 217.81 126.751 219.513Z" fill="#000000" fill-rule="nonzero" opacity="1" stroke="none"/>
<path d="M107.698 159.1C111.318 157.238 115.009 155.353 119.02 154.655C123.031 153.957 127.485 154.619 130.503 157.351C134.065 160.575 133.819 167.886 129.146 169C112.263 173.025 96.3171 180.926 82.888 191.92C81.4775 193.075 79.7085 194.342 77.9965 193.716C76.3919 193.129 75.7969 191.212 75.4138 189.547C74.1306 183.969 73.5976 176.632 78.6876 174.015C88.3577 169.043 98.0278 164.072 107.698 159.1M113.978 162.867C103.606 167.391 93.5342 172.602 83.8502 178.455C82.8184 179.079 81.7296 179.779 81.2616 180.89C80.7935 182.001 81.3372 183.599 82.5351 183.734C95.2615 175.253 109.14 168.505 123.67 163.733C123.851 163.006 124.032 162.279 124.213 161.552C120.978 160.095 117.23 161.448 113.978 162.867Z" fill="#000000" fill-rule="nonzero" opacity="1" stroke="none"/>
<path d="M311.033 488.974C309.624 491.303 308.027 493.754 305.51 494.789C302.992 495.825 299.397 494.557 299.122 491.849C339.258 436.958 354.735 364.715 340.608 298.199C331.433 303.947 329.562 316.352 323.458 325.295C316.121 336.046 303.172 341.134 292.293 348.28C277.862 357.76 266.396 371.686 259.863 387.668C284.052 399.118 313.367 399.129 337.565 387.696C341.699 390.259 336.848 396.37 332.296 398.085C299.17 410.568 262.125 399.311 229.453 385.683C209.984 377.562 190.878 368.599 171.78 359.64C192.913 398.815 206.008 442.304 210.02 486.635C210.385 490.67 210.178 495.665 206.573 497.514C200.249 469.655 193.925 441.796 187.601 413.936C179.528 378.375 154.219 347.147 121.101 331.885C101.106 358.351 63.9791 368.614 46.6923 396.923C30.1233 424.057 36.8982 458.857 45.2056 489.545C42.6756 492.717 38.1778 488.05 37.021 484.161C28.8576 456.718 24.3473 426.092 36.63 400.229C48.4436 375.354 73.3237 359.793 96.9248 345.604C81.1334 325.642 73.8178 299.189 77.1089 273.949C47.4218 280.303 15.0935 261.174 4.29995 232.798C-6.4936 204.422 3.7621 170.052 26.9063 150.404C53.8935 127.494 30.0241 77.122 53.7499 50.849C66.7518 36.4511 79.7537 22.0532 92.7556 7.65536C94.9303 5.24718 99.2251 2.97731 100.814 5.80648C90.1764 23.4061 76.7318 39.305 61.1437 52.7183C51.843 60.7214 50.2685 74.2952 49.3395 86.5299C48.3261 99.8772 47.3126 113.224 46.2992 126.572C98.4828 84.3812 150.666 42.1906 202.85 0C198.276 14.4864 185.773 24.8058 173.882 34.261C194.941 22.8843 217.439 14.1772 240.67 8.41394C249.957 6.10975 259.584 4.26582 269.056 5.62175C283.038 7.62305 295.174 16.3955 305.049 26.493C327.633 49.585 341.306 81.181 342.68 113.451C343.764 138.922 364.559 158.566 383.846 175.238C378.976 117.225 367.516 59.769 349.755 4.32797C353.754 2.33944 357.391 7.56809 358.802 11.8054C378.072 69.6927 389.108 130.314 391.475 191.279C398.906 189.437 406.107 195.069 410.755 201.151C433.058 230.332 425.585 272.956 408.014 305.208C390.444 337.459 364.246 364.62 348.619 397.857C379.735 390.366 413.232 393.136 442.696 405.635C448.183 407.962 454.324 414.692 449.891 418.676C422.823 402.434 389.703 396.56 358.7 402.502C353.12 403.572 346.717 405.821 345.13 411.277C337.206 438.511 325.711 464.704 311.033 488.974M326.856 72.3872C308.984 73.6706 288.685 76.259 278.37 90.9109C290.61 84.0609 304.037 79.3372 317.87 77.0142C322.288 76.2723 328.74 77.5691 328.245 82.0214C308.829 82.4446 289.658 90.1743 275.378 103.337C273.081 105.455 268.982 103.38 268.153 100.368C267.323 97.3561 268.711 94.1996 270.314 91.5187C281.182 73.3505 304.527 63.6544 325.068 68.7773C317.63 52.4815 306.755 37.7639 293.363 25.8672C287.159 20.3562 280.196 15.3356 272.145 13.3228C263.204 11.0872 253.779 12.7568 244.822 14.9291C175.093 31.8406 116.383 77.6052 61.2245 123.492C54.8342 128.808 55.6747 138.679 57.0865 146.871C58.9995 157.969 60.9158 169.084 63.7676 179.979C81.4371 247.485 132.711 300.197 182.017 349.574C199.224 366.806 222.935 375.551 245.846 383.8C249.185 385.002 254.022 385.574 255.254 382.247C260.826 367.196 271.214 353.97 284.516 344.991C297.596 336.163 314.233 330.464 321.438 316.424C299.052 327.801 276.667 339.178 254.282 350.554C247.415 354.044 238.715 348.075 236.731 340.632C234.747 333.189 237.526 325.345 240.857 318.399C249.248 300.904 262.082 284.764 279.677 276.589C297.273 268.414 320.061 269.806 334.017 283.285C342.837 291.802 357.54 290.173 368.381 284.446C394.333 270.734 406.46 235.659 394.519 208.846C393.941 207.547 393.231 206.181 391.959 205.545C388.813 203.973 385.206 207.919 381.8 207.041C378.36 206.155 377.972 201.279 379.337 197.999C380.702 194.719 383.096 191.555 382.638 188.032C382.382 186.056 381.241 184.317 380.057 182.714C367.855 166.179 347.797 155.323 340.203 136.228C336.228 126.232 336.227 115.183 334.948 104.503C333.632 93.5113 330.906 82.6897 326.856 72.3872M21.471 168.014C15.094 177.196 9.39024 187.152 7.307 198.134C2.94491 221.131 15.788 244.976 34.6813 258.793C43.8234 265.479 55.3563 270.379 66.3511 267.66C77.3459 264.941 85.9176 251.929 80.7338 241.859C63.7883 208.941 52.9887 172.872 49.0552 136.058C38.7755 145.705 29.5131 156.436 21.471 168.014M386.556 324.696C399.356 305.178 412.418 285.039 417.046 262.162C421.675 239.285 415.931 212.717 397.042 199.005C408.109 217.334 409.395 241.203 400.362 260.614C391.329 280.026 372.24 294.413 351.091 297.75C349.684 297.972 349.409 299.857 349.483 301.279C350.763 325.977 352.043 350.674 353.323 375.372C364.401 358.48 375.479 341.588 386.556 324.696M246.034 342.28C248.202 343.599 250.989 342.966 253.404 342.185C263.688 338.859 273.222 333.603 282.684 328.379C294.023 322.118 305.362 315.856 316.702 309.595C323.368 305.914 330.548 301.654 333.149 294.497C322.417 285.837 308.235 281.581 294.508 282.899C280.781 284.218 267.669 291.096 258.782 301.64C255.271 305.804 252.416 310.485 249.919 315.326C246.989 321.006 244.514 326.999 243.516 333.312C243.001 336.572 243.214 340.564 246.034 342.28M118.192 315.46C117.868 310.066 115.013 305.183 112.045 300.669C104.484 289.173 95.6696 278.502 85.807 268.908C85.601 268.708 85.3805 268.5 85.1013 268.432C84.2189 268.216 83.7153 269.401 83.6055 270.303C80.586 295.085 87.2793 320.921 101.951 341.12C110.015 334.357 118.824 325.965 118.192 315.46M127.411 323.83C128.919 327.709 132.053 330.706 135.255 333.366C146.902 343.039 160.751 350.046 175.444 353.698C144.944 322.949 116.596 290.066 90.6766 255.369C88.3073 254.925 88.3528 258.891 89.6556 260.92C101.517 279.385 121.985 293.509 125.669 315.145C126.166 318.062 126.338 321.072 127.411 323.83Z" fill="#000000" fill-rule="nonzero" opacity="1" stroke="none"/>
</g>
</svg>
