<?xml version="1.0" encoding="UTF-8" standalone="no"?>
<!DOCTYPE svg PUBLIC "-//W3C//DTD SVG 1.1//EN" "http://www.w3.org/Graphics/SVG/1.1/DTD/svg11.dtd">
<!-- Created with Vectornator (http://vectornator.io/) -->
<svg height="100%" stroke-miterlimit="10" style="fill-rule:nonzero;clip-rule:evenodd;stroke-linecap:round;stroke-linejoin:round;" version="1.1" viewBox="0 0 245.91 366.995" width="100%" xmlSpace="preserve" xmlns="http://www.w3.org/2000/svg" xmlnsVectornator="http://vectornator.io" xmlnsXlink="http://www.w3.org/1999/xlink">
<defs/>
<clipPath id="ArtboardFrame">
<rect height="366.995" width="245.91" x="0" y="0"/>
</clipPath>
<g clip-path="url(#ArtboardFrame)" id="Untitled" vectornatorLayerName="Untitled">
<path d="M188.052 232.995C193.052 241.589 197.723 249.913 203.176 257.689C206.435 262.336 210.933 266.112 214.852 270.3C222.945 278.95 227.321 289.654 230.978 300.605C235.775 314.972 240.45 329.407 244.348 344.035C246.002 350.242 245.697 357.006 245.91 363.529C245.946 364.653 244.114 365.838 243.146 366.995C242.114 365.539 240.484 364.204 240.158 362.604C238.897 356.406 238.707 349.93 236.921 343.912C232.707 329.709 228.483 315.439 223.003 301.699C216.919 286.444 203.547 279.043 188.518 275.192C179.177 272.799 169.373 271.536 159.725 271.178C144.539 270.613 129.721 274.068 115.159 278.06C91.415 284.571 71.4036 297.699 52.8455 313.546C40.8917 323.753 31.2384 335.869 21.4522 347.975C18.2229 351.969 14.4063 355.565 10.4546 358.859C9.10553 359.983 5.72794 360.599 4.67017 359.738C2.61075 358.06 0.55491 355.3 0.230165 352.767C-0.877562 344.125 2.13472 336.137 6.65341 329.051C16.355 313.837 26.6415 298.997 36.5815 283.934C43.1718 273.946 43.4825 263.327 39.784 252.156C35.3153 238.657 31.7201 224.851 26.7846 211.535C24.7154 205.953 20.2327 201.246 16.7417 196.214C13.5865 191.666 9.43421 187.595 7.24637 182.641C3.71994 174.655 7.1745 166.9 10.1686 159.352C12.5532 153.339 15.6475 147.415 16.7595 141.155C17.5811 136.53 15.8047 131.414 15.0324 126.542C13.7713 118.584 12.3527 110.652 11.0645 102.699C10.3283 98.1537 9.16899 93.5876 9.17529 89.0323C9.18587 81.3912 9.82345 73.7377 10.5015 66.1164C10.8342 62.3767 11.1776 58.3893 12.7054 55.0596C15.3487 49.2986 18.1377 43.2794 22.2506 38.5808C33.0766 26.2131 45.4623 15.8379 61.0138 9.29999C75.4145 3.24593 90.0788-0.386942 105.65 0.032841C125.834 0.577004 145.732 3.03015 163.911 12.5751C169.061 15.2794 173.184 19.8827 177.965 23.3589C190.416 32.4122 195.496 46.3287 202.091 59.2863C204.272 63.5719 206.363 68.1019 209.471 71.6699C213.911 76.7662 214.494 83.0665 212.734 88.1325C208.497 100.329 210.174 111.722 214.029 123.343C216.122 129.652 218.715 135.933 219.645 142.433C220.129 145.817 218.385 150.39 216.097 153.132C210.224 160.165 208.592 168.449 207.032 176.949C205.497 185.308 201.844 192.23 194.478 197.216C186.614 202.539 183.347 212.82 185.905 222.385C186.793 225.709 187.346 229.123 188.052 232.995M44.0519 178.495C44.3853 179.859 44.9871 181.219 45.0067 182.587C45.1053 189.474 44.6029 196.4 45.1645 203.242C45.8822 211.988 50.0257 218.781 57.4287 224.144C65.7819 230.195 74.9339 232.97 84.8855 233.982C90.7052 234.573 95.6878 239.338 94.8523 245.101C94.1358 250.043 92.4525 255.197 89.8677 259.45C82.1818 272.095 73.6862 284.215 62.4696 294.133C61.814 294.712 61.5303 295.713 61.0736 296.517C62.0935 296.483 63.2392 296.731 64.1038 296.347C65.3768 295.781 66.4617 294.781 67.605 293.937C71.1796 291.297 74.596 288.41 78.3399 286.039C89.7854 278.791 102.173 273.594 115.292 270.303C134.483 265.49 153.768 262.294 173.772 264.839C186.284 266.431 198.087 269.112 208.395 276.739C209.111 277.269 210.433 276.982 211.473 277.075C211.152 276.034 211.152 274.623 210.454 274.02C207.808 271.736 204.672 269.982 202.194 267.547C190.346 255.908 182.325 242.25 178.897 225.708C176.299 213.168 179.405 195.347 192.679 189.787C193.645 189.382 194.34 188.215 195.04 187.309C199.023 182.163 199.859 175.915 201.039 169.807C202.231 163.641 203.376 157.672 207.775 152.547C212.039 147.58 213.867 141.699 210.138 135.158C208.716 132.664 208.348 129.586 207.361 126.824C202.809 114.084 201.402 101.244 204.894 87.9094C205.779 84.532 206.192 79.1698 204.282 77.2574C197.507 70.4751 195.016 61.5457 191.391 53.4417C184.47 37.9702 175.165 25.8211 157.776 22.3385C147.975 20.3755 138.013 18.8176 128.052 18.1768C119.583 17.6319 110.972 18.2649 102.499 19.1188C95.483 19.8258 88.5094 21.3378 81.6382 22.9953C72.7811 25.1319 65.4067 29.9591 58.4465 35.8809C50.7618 42.419 43.5506 49.2197 39.1033 58.3558C33.5536 69.7564 30.1874 81.6114 33.0277 94.5101C35.1507 104.151 36.9794 113.857 39.0754 123.505C40.6929 130.95 41.2997 137.549 36.3878 144.829C31.6166 151.901 29.0014 160.676 29.065 169.694C29.105 175.378 31.8934 177.605 37.476 177.079C39.4549 176.892 41.524 177.662 44.0519 178.495M42.5519 287.995C34.0681 300.479 25.2168 312.734 17.2448 325.537C12.7912 332.689 9.69136 340.703 6.26842 348.455C5.79149 349.535 6.9626 351.343 7.37082 352.814C8.05754 352.582 9.00924 352.561 9.39115 352.085C14.9894 345.095 20.7397 338.21 25.9934 330.967C32.3626 322.185 37.7909 312.684 44.5447 304.228C53.4613 293.063 63.7125 282.959 72.5349 271.727C78.1734 264.549 82.5258 256.299 86.9335 248.244C88.8976 244.654 86.7263 241.808 82.7381 240.967C76.9357 239.744 70.9322 238.959 65.4477 236.857C55.6429 233.099 47.2128 227.2 42.1408 217.558C37.712 209.139 37.6119 199.779 37.2716 190.668C37.1172 186.533 35.6418 184.897 32.2677 184.009C24.7717 182.035 22.001 178.828 22.0829 171.413C22.2141 159.527 26.7922 148.939 31.9541 138.521C32.9705 136.47 34.2874 133.935 33.8982 131.926C31.8485 121.351 29.6952 110.762 26.8019 100.394C24.1048 90.7297 24.1139 80.893 26.2993 71.6161C31.7226 48.5948 46.9642 32.7243 66.8697 21.029C81.3189 12.5394 97.6918 12.2872 113.703 11.1462C121.334 10.6025 129.078 11.6926 136.773 11.9471C137.521 11.9718 138.292 11.3211 139.052 10.9839C138.363 10.465 137.737 9.64023 136.972 9.48143C134.032 8.87046 131.063 8.267 128.076 8.05043C124.761 7.81009 121.337 8.45797 118.096 7.91393C105.293 5.76478 92.5623 6.51831 80.299 10.1566C65.9329 14.4187 52.5105 20.6181 40.7048 30.5394C26.0894 42.822 16.1808 56.836 17.0399 76.7474C17.4435 86.1035 17.438 95.4867 18.1549 104.816C18.6001 110.61 20.1172 116.315 21.0349 122.079C22.1078 128.818 24.5927 135.798 23.6616 142.271C22.4998 150.348 18.4863 158.016 15.6883 165.855C14.0675 170.396 11.2935 175.07 14.1559 179.781C17.1918 184.777 21.2097 189.166 24.5005 194.023C27.5554 198.531 31.0428 203.001 32.8939 208.021C38.0169 221.915 42.6116 236.019 46.9387 250.184C48.6307 255.724 50.419 261.828 49.7053 267.357C48.8166 274.241 45.3853 280.798 42.5519 287.995Z" fill="#000000" fill-rule="nonzero" opacity="1" stroke="none"/>
</g>
</svg>
