<?xml version="1.0" encoding="UTF-8" standalone="no"?>
<!DOCTYPE svg PUBLIC "-//W3C//DTD SVG 1.1//EN" "http://www.w3.org/Graphics/SVG/1.1/DTD/svg11.dtd">
<!-- Created with Vectornator (http://vectornator.io/) -->
<svg height="100%" stroke-miterlimit="10" style="fill-rule:nonzero;clip-rule:evenodd;stroke-linecap:round;stroke-linejoin:round;" version="1.1" viewBox="0 0 260.812 359.563" width="100%" xmlSpace="preserve" xmlns="http://www.w3.org/2000/svg" xmlnsVectornator="http://vectornator.io" xmlnsXlink="http://www.w3.org/1999/xlink">
<defs/>
<clipPath id="ArtboardFrame">
<rect height="359.563" width="260.812" x="0" y="0"/>
</clipPath>
<g clip-path="url(#ArtboardFrame)" id="Untitled" vectornatorLayerName="Untitled">
<path d="M202.971 142.64C205.692 154.918 207.172 167.065 202.671 178.352C199.208 187.036 194.009 195.059 191.784 204.329C190.51 209.633 188.392 214.908 188.199 220.253C187.986 226.146 185.241 230.539 182.152 234.8C178.408 239.965 178.317 245.899 178.111 251.596C177.568 266.612 181.762 280.509 189.973 293.1C194.781 300.472 199.21 308.228 204.939 314.831C213.547 324.753 225.127 330.886 236.793 336.65C243.436 339.931 250.107 343.17 256.598 346.732C258.32 347.677 259.424 349.746 260.812 351.3C259.136 352.08 257.518 353.353 255.774 353.559C245.878 354.727 235.951 355.634 226.036 356.642C216.285 357.634 206.555 359.186 196.783 359.522C178.871 360.136 163.093 353.793 149.438 342.484C139.902 334.586 130.46 326.478 121.804 317.652C116.693 312.441 112.638 305.947 109.153 299.469C106.519 294.571 108.602 291.741 113.206 288.558C120.526 283.497 127.861 278.335 134.496 272.435C146.304 261.936 157.757 251.02 169.026 239.941C174.423 234.636 179.468 228.707 180.318 220.696C180.696 217.135 180.48 213.413 179.892 209.87C178.841 203.544 177.331 197.293 175.925 191.03C175.804 190.492 175.045 189.757 174.554 189.735C174.045 189.712 173.253 190.329 173.008 190.862C168.624 200.373 164.57 210.047 159.91 219.419C152.593 234.138 143.027 247.267 130.775 258.343C122.832 265.523 113.518 270.093 103.198 272.607C95.4079 274.505 81.7004 267.603 75.9874 258.966C63.4685 240.039 53.8109 219.667 46.0211 198.407C43.0482 190.293 40.6803 181.959 37.9086 173.769C37.6176 172.909 36.4577 172.343 35.701 171.64C35.4577 172.494 34.9817 173.355 35.007 174.202C35.2833 183.453 35.9304 192.703 35.8992 201.951C35.8577 214.258 35.1805 226.561 35.0345 238.869C34.9789 243.558 35.4789 248.274 36.0245 252.943C36.4204 256.332 34.6098 258.881 32.0586 259.301C30.6559 259.532 27.8193 256.619 27.106 254.602C20.3917 235.61 13.2992 216.809 9.68079 196.763C7.03135 182.086 3.97677 167.529 2.97704 152.624C2.28046 142.239 1.49659 131.857 1.01019 121.461C0.502516 110.611-0.377642 99.7108 0.177126 88.8978C0.66134 79.4598 1.49835 69.5796 4.77473 60.8713C8.22431 51.7026 13.9083 43.0111 20.1134 35.3189C32.6351 19.7965 48.2608 7.98281 67.7685 2.46186C80.7509-1.21233 94.0967-0.859233 106.586 4.09736C114.01 7.04389 120.193 4.0886 126.922 3.19898C140.828 1.36055 154.583 1.74213 165.018 12.4769C173.631 21.3374 182.154 30.7311 188.471 41.2388C193.679 49.9022 196.519 60.34 198.734 70.3616C201.404 82.4456 202.418 94.9067 203.919 107.233C204.567 112.555 204.999 117.956 204.859 123.304C204.743 127.708 203.557 132.075 203.01 136.479C202.779 138.339 202.971 140.252 202.971 142.64M135.971 224.14C136.305 228.557 136.831 232.973 136.859 237.392C136.868 238.804 135.552 240.224 134.843 241.64C133.552 240.081 131.674 238.712 131.097 236.923C129.997 233.506 129.725 229.831 128.926 226.305C128.635 225.022 127.822 223.858 127.248 222.64C126.347 223.615 125.067 224.438 124.606 225.589C120.855 234.956 114.307 241.428 104.663 244.276C101.759 245.134 97.8981 245.41 95.34 244.169C91.1858 242.155 89.8809 237.295 91.207 233.242C92.4203 229.533 90.9617 229.456 88.5379 229.692C84.5915 230.075 80.5724 230.407 76.7733 231.45C70.8255 233.084 70.2202 234.686 73.0029 239.949C75.1786 244.065 77.2341 248.34 80.043 252.008C90.7545 265.997 97.3581 269.96 114.202 260.82C127.287 253.719 137.969 243.814 144.9 230.513C152.884 215.191 160.488 199.663 167.924 184.066C170.723 178.195 172.399 171.914 170.014 165.237C168.454 160.872 167.307 156.359 165.97 151.913C165.441 150.154 164.902 148.398 164.367 146.64C163.101 147.941 161.827 149.233 160.572 150.543C154.793 156.573 149.148 162.741 143.118 168.508C142.114 169.469 139.444 168.689 137.544 168.713C138.105 167.104 138.245 165.113 139.301 163.955C143.095 159.794 147.12 155.834 151.198 151.945C162 141.642 161.661 129.136 159.104 115.796C157.667 108.302 151.976 104.005 148.123 98.3262C143.409 91.3802 142.884 91.2905 135.432 94.6912C134.869 94.948 134.397 95.4412 133.82 95.6225C123.525 98.853 118.432 106.841 115.058 116.304C114.783 117.075 115.74 118.287 116.125 119.294C116.832 118.818 117.626 118.432 118.23 117.85C120.487 115.672 122.377 112.952 124.957 111.299C133.333 105.931 140.507 106.458 146.217 110.492C157.761 118.649 156.825 136.468 149.405 145.447C139.615 157.293 129.236 168.731 118.322 179.548C107.49 190.284 98.3829 201.72 94.8864 216.917C94.6446 217.967 92.7671 219.654 92.3749 219.473C91.0629 218.868 89.6501 217.735 89.0944 216.45C88.5578 215.21 88.6499 213.389 89.1368 212.07C90.8419 207.452 92.5994 202.824 94.784 198.421C97.2622 193.427 100.747 188.884 102.819 183.751C104.781 178.891 105.804 173.573 106.645 168.361C107.475 163.21 107.659 157.944 107.948 152.718C108.372 145.03 108.453 137.318 109.058 129.646C109.318 126.347 112.901 122.951 108.102 120.06C107.704 119.82 108.349 117.702 108.645 116.49C109.013 114.99 109.553 113.533 109.966 112.042C111.676 105.864 114.054 99.5659 119.368 96.0963C125.49 92.0981 132.662 89.6987 139.397 86.6478C144.272 84.4396 148.039 85.3366 151.096 90.125C153.499 93.8902 156.625 97.2027 159.527 100.633C160.115 101.328 161.143 101.65 161.968 102.144C162.302 101.116 163.224 99.7731 162.87 99.1151C161.319 96.2293 159.227 93.6362 157.654 90.7604C155.285 86.4302 153.127 81.9802 151.01 77.519C150.453 76.3432 150.375 74.9394 150.077 73.6403C148.526 74.3222 146.541 74.6069 145.497 75.7509C139.03 82.8359 130.693 86.9597 122.186 90.7905C121.12 91.2706 119.481 90.4788 118.107 90.2763C118.624 88.731 118.781 86.1189 119.712 85.8056C128.818 82.7415 134.995 75.6633 142.131 69.9306C145.92 66.8871 148.813 63.3728 148.037 57.8621C147.383 53.2132 147.397 48.4735 146.903 43.7963C146.787 42.6981 145.819 41.6899 145.242 40.6403C144.46 41.4987 143.585 42.2903 142.911 43.2265C138.757 48.995 135.11 55.2016 130.442 60.5131C113.77 79.4831 94.0475 94.9025 72.954 108.648C62.711 115.323 52.3299 121.812 42.4 128.928C38.1531 131.972 34.6338 136.582 35.1338 142.244C35.5373 146.814 37.2207 151.308 38.6211 155.746C41.6407 165.316 44.42 174.993 48.0721 184.323C53.3447 197.793 59.2809 211.004 64.9972 224.298C65.8391 226.256 66.2756 228.066 69.7589 226.84C75.6154 224.778 81.9309 222.808 88.0234 222.895C99.0235 223.052 108.536 220.056 117.377 213.815C121.568 210.856 128.732 212.495 131.557 216.77C133.006 218.965 134.175 221.344 135.971 224.14M122.971 58.1403C127.971 50.8794 133.081 43.6894 137.847 36.2776C138.523 35.2262 138.136 32.4288 137.202 31.5702C128.349 23.4329 119.095 16.27 107.319 12.0737C96.6687 8.27805 85.9751 6.30518 75.2235 7.93016C64.1488 9.604 54.0608 15.0251 45.1826 22.0533C41.5711 24.9122 37.1067 27.9861 35.6046 31.9401C32.7482 39.4592 30.7013 47.6228 30.2462 55.6283C29.7258 64.7829 31.107 74.0771 32.0467 83.2713C32.5941 88.6265 36.7005 91.3973 40.6793 90.518C51.8593 88.0474 63.1875 86.2175 74.3086 83.5218C80.7182 81.9681 86.9434 79.4753 93.0544 76.9317C97.0349 75.2749 100.532 71.366 104.479 71.0013C109.22 70.5635 112.508 69.2095 115.443 65.7449C117.589 63.2103 120.115 60.9969 122.971 58.1403M157.471 261.64C154.193 264.585 150.971 267.597 147.625 270.463C137.876 278.816 129.48 288.821 117.733 294.775C116.696 295.301 115.909 297.922 116.266 299.224C116.817 301.24 118.186 303.221 119.68 304.758C126.742 312.023 133.712 319.41 141.194 326.227C150.201 334.433 159.836 341.85 170.951 347.195C179.78 351.44 189.331 352.552 198.68 352.374C210.309 352.152 221.901 349.972 233.51 348.642C235.996 348.357 238.484 348.088 240.971 347.813C238.847 346.422 236.841 344.79 234.578 343.679C217.419 335.252 201.69 325.216 190.602 308.937C183.634 298.707 177.871 287.85 174.398 276.176C172.099 268.447 172.697 259.86 171.949 251.661C171.856 250.64 171.456 249.646 171.199 248.64C170.421 249.176 169.545 249.611 168.881 250.263C165.216 253.86 161.603 257.509 157.471 261.64M154.971 59.1403C156.038 67.6952 157.284 76.1533 161.639 83.8764C166.56 92.6036 167.826 93.1906 177.567 90.7699C178.916 90.4346 180.857 91.6271 182.195 92.5754C182.645 92.8939 182.481 94.9773 181.904 95.6972C178.639 99.7681 176.432 104.133 176.576 109.519C176.813 118.437 176.467 127.406 177.354 136.255C177.685 139.555 181.368 143.526 185.156 141.385C189.659 138.84 194.744 135.05 196.542 130.58C198.694 125.227 198.179 118.554 197.835 112.509C197.401 104.894 196.22 97.292 194.907 89.7634C193.32 80.6556 191.706 71.5088 189.29 62.5997C186.08 50.7654 180.531 39.8864 172.358 30.6807C166.997 24.6421 161.364 18.6153 154.937 13.808C146.382 7.40927 135.902 9.66004 126.059 9.71787C125.36 9.72197 124.667 10.8341 123.971 11.431C124.694 12.1674 125.324 13.0389 126.158 13.6136C128.214 15.0304 130.484 16.1572 132.452 17.6792C136.268 20.63 140.018 23.6796 143.633 26.8724C145.586 28.597 147.384 30.5673 148.939 32.6592C154.589 40.2603 155.104 49.1369 154.971 59.1403M14.4713 56.6403C8.06577 67.607 7.50717 79.9948 7.21707 92.0299C6.85746 106.949 7.90767 121.942 9.0844 136.846C10.2303 151.359 11.586 165.928 14.152 180.239C17.4043 198.378 21.9509 216.285 26.0319 234.271C26.2344 235.163 27.3195 235.855 27.9937 236.64C28.3196 235.702 28.9463 234.757 28.9257 233.827C28.6614 221.91 28.15 209.996 28.011 198.078C27.8432 183.693 28.0687 169.304 27.9258 154.919C27.8642 148.723 27.1331 142.535 27.0129 136.337C26.847 127.786 26.7987 119.223 27.063 110.676C27.1581 107.602 27.6638 104.203 29.1232 101.589C31.2487 97.783 30.9616 95.1837 28.0486 91.9868C26.3945 90.1716 25.3176 87.3095 25.0777 84.8135C23.7709 71.2182 22.2519 57.5846 25.8935 44.0567C26.1232 43.2037 25.2351 42.0499 24.867 41.036C24.1601 41.4791 23.1681 41.7542 22.7919 42.3923C20.1145 46.9334 17.5629 51.5486 14.4713 56.6403M142.471 142.64C147.525 137.101 147.586 130.215 146.824 123.53C146.151 117.626 139.668 113.96 134.459 115.64C118.668 120.733 110.762 135.302 115.058 151.603C115.197 152.133 116.817 152.829 117.4 152.592C120.25 151.434 122.9 149.765 125.776 148.688C131.118 146.688 136.567 144.974 142.471 142.64M58.9713 109.14C62.7608 106.64 66.5505 104.141 70.3397 101.64C76.3504 97.6738 82.3787 93.7334 88.3427 89.6979C88.9178 89.3088 89.0928 88.3284 89.4535 87.6225C88.7289 87.6284 87.9834 87.5238 87.2829 87.6567C75.1009 89.9672 62.8208 91.8834 50.7922 94.8259C45.1106 96.2158 38.8516 97.7816 35.9253 104.29C32.8286 111.177 34.3889 118.376 33.9713 125.445C34.8461 125.468 35.9844 125.864 36.5559 125.459C43.9081 120.253 51.1795 114.932 58.9713 109.14M185.971 155.14C184.305 160.613 182.292 166.011 181.106 171.586C180.437 174.733 180.041 178.85 183.891 180.538C188.32 182.48 196.573 177.848 196.836 173.048C197.313 164.356 197.095 155.616 196.886 146.903C196.832 144.682 195.138 143.714 193.302 145.669C190.747 148.389 188.405 151.307 185.971 155.14M106.471 227.64C103.298 228.67 99.5321 228.666 98.2534 232.821C97.4356 235.479 98.9887 239.054 100.76 238.208C107.639 234.92 114.896 231.921 118.039 224.039C118.243 223.527 118.104 222.878 118.124 222.293C117.524 222.409 116.849 222.385 116.338 222.663C113.361 224.283 110.423 225.974 106.471 227.64M125.971 155.14C118.721 158.502 114.274 164.058 113.025 171.989C112.843 173.148 113.382 174.42 113.587 175.64C114.382 174.815 115.187 173.998 115.97 173.162C120.874 167.923 125.819 162.721 130.626 157.394C131.368 156.571 131.469 155.17 131.867 154.036C130.85 154.122 129.832 154.19 128.818 154.3C128.033 154.386 127.253 154.525 125.971 155.14M165.971 120.14C166.305 124.158 166.544 128.188 167.045 132.185C167.155 133.063 168.195 133.825 168.808 134.64C169.195 133.767 169.943 132.879 169.909 132.023C169.763 128.349 169.001 124.664 169.185 121.02C169.475 115.277 170.391 109.568 170.913 103.833C170.977 103.139 170.247 102.373 169.884 101.64C169.247 102.264 168.153 102.817 168.044 103.522C167.243 108.711 166.638 113.931 165.971 120.14M182.971 195.14C183.305 195.99 183.623 196.846 183.975 197.688C184.39 198.679 184.834 199.657 185.266 200.64C185.834 199.598 186.572 198.612 186.934 197.503C187.553 195.606 187.81 193.589 188.466 191.709C188.863 190.571 189.726 189.597 190.38 188.549C188.858 188.246 187.348 187.765 185.814 187.671C179.146 187.261 183.228 191.671 182.971 195.14M180.471 149.64C179.651 149.794 178.831 149.948 178.01 150.101C178.239 150.614 178.469 151.127 178.698 151.64C179.456 151.14 180.213 150.64 180.471 149.64Z" fill="#000000" fill-rule="nonzero" opacity="1" stroke="none"/>
</g>
</svg>
