<?xml version="1.0" encoding="UTF-8" standalone="no"?>
<!DOCTYPE svg PUBLIC "-//W3C//DTD SVG 1.1//EN" "http://www.w3.org/Graphics/SVG/1.1/DTD/svg11.dtd">
<!-- Created with Vectornator (http://vectornator.io/) -->
<svg height="100%" stroke-miterlimit="10" style="fill-rule:nonzero;clip-rule:evenodd;stroke-linecap:round;stroke-linejoin:round;" version="1.1" viewBox="0 0 279.384 404.266" width="100%" xmlSpace="preserve" xmlns="http://www.w3.org/2000/svg" xmlnsVectornator="http://vectornator.io" xmlnsXlink="http://www.w3.org/1999/xlink">
<defs/>
<clipPath id="ArtboardFrame">
<rect height="404.266" width="279.384" x="0" y="0"/>
</clipPath>
<g clip-path="url(#ArtboardFrame)" id="Untitled" vectornatorLayerName="Untitled">
<path d="M112.364 239.621C106.417 234.225 101.906 226.647 102.196 218.622C102.443 211.803 106.033 205.614 109.523 199.75C110.564 198.002 112.199 195.988 114.166 196.507C116.588 197.146 116.45 200.58 115.956 203.036C113.593 214.79 115.885 227.416 122.229 237.589C123.529 239.673 121.287 242.525 118.837 242.685C116.387 242.845 114.182 241.271 112.364 239.621Z" fill="#000000" fill-rule="nonzero" opacity="1" stroke="none"/>
<path d="M117.267 0.015488C126.52 0.144832 135.849 1.06841 144.632 3.98216C152.936 6.73705 160.552 11.1988 168.097 15.6282C182.417 24.035 196.737 32.4418 211.057 40.8486C215.709 43.5798 220.426 46.3607 224.165 50.2494C234.119 60.6019 235.242 76.4395 241.806 89.2138C246.537 98.421 254.037 105.891 259.6 114.621C265.164 123.35 268.723 134.544 264.511 144C262.578 148.338 259.183 151.891 257.199 156.206C254.638 161.778 254.627 168.147 254.85 174.276C256.117 209.103 263.487 243.699 276.524 276.019C278.025 279.739 279.63 283.602 279.352 287.604C278.652 297.681 267.273 302.897 257.657 305.99C251.97 307.82 249.796 314.908 250.35 320.857C250.903 326.806 253.284 332.554 253.127 338.527C252.969 344.499 248.822 351.161 242.854 350.886C226.312 350.123 209.709 350.703 193.26 352.618C195.448 367.063 196.543 381.674 196.533 396.284C196.532 398.738 196.361 401.508 194.509 403.12C191.733 405.536 187.45 403.685 184.367 401.676C165.032 389.081 148.504 372.724 131.084 357.591C113.664 342.459 94.7752 328.218 72.8324 321.079C50.8896 313.94 25.2539 314.874 6.53738 328.37C4.12504 330.109 0.532681 327.611 0.080246 324.671C-0.372189 321.732 1.17136 318.895 2.63514 316.306C21.8027 282.406 36.6877 244.121 32.8065 205.371C30.4898 182.24 21.6349 160.361 14.7616 138.153C7.88832 115.946 2.9425 92.1234 8.6132 69.5786C14.275 47.0692 30.4042 27.9313 50.4244 16.1875C70.4447 4.44366 94.0592-0.308941 117.267 0.015488M127.819 313.381C124.488 309.337 125.44 303.449 125.615 298.212C126.106 283.502 119.015 269.624 110.902 257.343C102.789 245.062 93.361 233.398 88.1434 219.635C82.9257 205.872 82.7397 189.013 92.1944 177.733C94.6513 174.802 97.6809 172.329 99.7125 169.089C101.712 165.899 102.62 162.168 103.636 158.543C118.225 106.503 163.291 64.248 216.161 53.0346C199.43 43.3735 182.699 33.7125 165.968 24.0514C156.512 18.5908 146.921 13.0734 136.383 10.2119C125.604 7.28496 114.221 7.25803 103.116 8.45902C82.2393 10.7169 61.5218 17.4544 44.7857 30.1373C28.0496 42.8201 15.6204 61.8133 13.201 82.6723C9.9447 110.747 24.3558 137.397 32.3863 164.496C47.6368 215.958 39.0663 273.965 9.58493 318.819C27.9342 305.03 53.7879 304.949 75.3469 312.826C96.9059 320.702 115.162 335.419 132.983 349.884C152.137 365.432 171.29 380.979 190.444 396.526C189 381.224 187.556 365.923 186.111 350.621C185.913 348.515 185.818 346.101 187.322 344.614C188.621 343.327 190.645 343.221 192.474 343.193C207.388 342.965 222.303 342.736 237.218 342.508C244.191 342.401 246.549 332.866 245.018 326.062C243.487 319.259 240.342 311.728 243.963 305.768C247.304 300.267 254.61 299.183 260.729 297.186C266.847 295.189 273.401 289.416 271.012 283.44C258.392 251.881 250.54 218.42 247.802 184.541C246.655 170.344 246.817 154.749 255.707 143.621C259.71 138.609 259.317 131.217 256.705 125.36C254.092 119.502 249.633 114.71 245.705 109.639C235.819 96.8754 229.009 81.7463 226.009 65.8831C224.978 60.4304 217.231 60.2406 211.886 61.7324C167.267 74.1854 129.454 108.87 113.204 152.25C111.032 158.049 111.474 167.347 117.665 167.265C141.573 166.946 164.608 184.306 170.891 207.375C171.505 209.631 171.924 212.221 170.619 214.162C169.314 216.102 165.624 216.187 165.082 213.912C159.669 191.193 136.927 173.906 113.589 174.768C109.527 174.918 105.369 175.596 101.882 177.685C93.8554 182.494 91.6521 193.215 92.3167 202.548C93.0229 212.465 96.0865 222.207 101.184 230.742C106.824 240.187 114.81 248.028 120.791 257.26C129.673 270.97 133.853 287.666 132.477 303.943C132.167 307.615 131.169 311.846 127.819 313.381Z" fill="#000000" fill-rule="nonzero" opacity="1" stroke="none"/>
</g>
</svg>
