<?xml version="1.0" encoding="UTF-8" standalone="no"?>
<!DOCTYPE svg PUBLIC "-//W3C//DTD SVG 1.1//EN" "http://www.w3.org/Graphics/SVG/1.1/DTD/svg11.dtd">
<!-- Created with Vectornator (http://vectornator.io/) -->
<svg height="100%" stroke-miterlimit="10" style="fill-rule:nonzero;clip-rule:evenodd;stroke-linecap:round;stroke-linejoin:round;" version="1.1" viewBox="0 0 230.866 200.019" width="100%" xmlSpace="preserve" xmlns="http://www.w3.org/2000/svg" xmlnsVectornator="http://vectornator.io" xmlnsXlink="http://www.w3.org/1999/xlink">
<defs/>
<clipPath id="ArtboardFrame">
<rect height="200.019" width="230.866" x="0" y="0"/>
</clipPath>
<g clip-path="url(#ArtboardFrame)" id="Untitled" vectornatorLayerName="Untitled">
<path d="M2.36494 127.891C2.36494 118.392 2.62487 109.383 2.29345 100.395C1.94674 90.9935 0.142776 81.5713 0.577833 72.2326C1.19649 58.9529-2.05441 45.4766 2.36155 32.3807C5.52502 22.9991 13.0934 18.4761 22.6243 19.7818C25.3885 20.1605 28.3286 18.9796 31.1953 18.9299C54.3881 18.5276 77.5834 18.0001 100.776 18.0812C105.395 18.0974 110.024 20.4973 114.602 21.9455C115.453 22.2147 116.519 23.0651 116.744 23.8578C118.687 30.7047 122.145 28.2413 126.351 25.9784C137.364 20.0531 148.612 14.5649 159.75 8.87072C160.313 8.58297 161.198 7.83997 161.112 7.58201C160.897 6.93484 160.304 6.13831 159.694 5.95022C158.052 5.44409 156.311 4.88846 154.629 4.94284C136.57 5.52653 118.511 6.13211 100.46 6.92568C89.5617 7.40481 78.657 7.98347 67.7945 8.9567C56.1548 9.99957 44.5437 11.4283 32.9614 12.9939C30.4643 13.3314 28.2045 15.1741 25.7157 15.9288C24.4917 16.3 22.9943 15.7693 21.6205 15.6468C22.275 14.4886 22.6688 12.6546 23.6275 12.2847C28.8063 10.2867 34.0147 7.71082 39.4174 7.07698C52.7693 5.51055 66.2298 4.85541 79.6515 3.90282C89.8707 3.17753 100.093 2.47622 110.322 1.91132C123.874 1.16291 137.429 0.156973 150.991 0.003328C164.698-0.151945 168.583 5.11101 169.269 18.4984C169.763 28.1393 169.25 37.8274 169.391 47.4915C169.631 64.0206 170.095 80.5465 170.306 97.0757C170.345 100.067 171.047 100.245 174.023 100.042C188.724 99.0433 203.454 98.3828 218.184 97.9505C228.621 97.6442 232.283 102.41 230.388 112.847C229.903 115.515 229.598 118.225 229.386 120.93C228.98 126.119 229.624 131.621 228.058 136.413C226.905 139.936 223.206 142.862 220.15 145.48C213.704 151.005 207.089 156.366 200.219 161.346C197.692 163.178 194.33 164.231 191.2 164.76C187.798 165.337 184.163 165.307 180.735 164.81C171.802 163.518 164.73 167.027 157.619 171.953C146.051 179.966 133.187 186.294 122.397 195.187C112.835 203.067 103.304 199.06 93.7155 198.554C86.5321 198.176 79.4092 196.296 72.3039 194.864C59.5564 192.294 46.835 189.592 34.1284 186.827C33.1059 186.604 32.2814 185.472 31.3649 184.762C32.5341 184.139 33.8126 182.836 34.8542 183.004C40.7359 183.951 46.5434 185.347 52.4091 186.409C61.1103 187.983 69.8447 189.372 78.5542 190.902C85.223 192.073 91.856 193.459 98.5417 194.517C102.821 195.194 107.176 195.794 111.478 195.685C112.805 195.651 115.034 193.269 115.187 191.791C115.67 187.117 115.365 182.362 115.365 177.638C115.365 163.472 115.235 149.305 115.401 135.141C115.574 120.387 116.317 105.637 116.292 90.8858C116.263 72.691 115.645 54.4979 115.387 36.3026C115.258 27.1575 111.564 23.0305 102.47 22.9308C88.6389 22.7793 74.8036 22.7613 60.973 22.9288C47.943 23.0866 34.9183 23.6462 21.8885 23.8614C12.5866 24.0149 5.61837 30.2347 5.42069 39.4319C5.18438 50.4262 5.23971 61.4314 5.40618 72.4283C5.53028 80.6262 6.08637 88.8167 6.35192 97.0137C6.73613 108.873 7.27103 120.735 7.2921 132.597C7.3102 142.791 6.76626 152.989 6.33356 163.18C6.14396 167.645 7.55134 170.894 11.7438 172.984C13.119 173.67 13.9493 175.449 15.0288 176.727C13.1611 176.782 11.1277 177.344 9.45556 176.799C3.70294 174.923 1.43719 170.42 1.37739 164.645C1.31985 159.089 1.23637 153.528 1.39839 147.975C1.58899 141.443 2.03161 134.919 2.36494 127.891M126.365 140.391C126.365 145.381 126.657 150.392 126.279 155.353C125.935 159.865 128.32 160.081 131.695 159.924C140.866 159.496 150.045 158.945 159.22 158.964C169.95 158.986 180.681 159.496 191.405 159.931C194.4 160.053 195.455 158.992 195.414 155.984C195.282 146.174 195.342 136.36 195.378 126.547C195.389 123.257 193.791 121.871 190.573 121.876C170.449 121.906 150.325 121.936 130.201 121.844C127.138 121.83 126.182 122.963 126.313 125.922C126.512 130.404 126.365 134.901 126.365 140.391M120.365 169.391C120.365 175.282 120.256 181.176 120.466 187.059C120.504 188.113 122.475 190.047 122.519 190.017C126.207 187.568 129.685 184.798 133.406 182.407C141.283 177.345 149.294 172.493 157.216 167.502C158.255 166.847 159.093 165.875 160.024 165.051C158.851 164.664 157.681 163.954 156.505 163.942C147.173 163.85 137.836 163.716 128.51 163.964C123.726 164.091 122.182 162.225 122.288 157.569C122.531 146.909 122.606 136.232 122.264 125.577C122.091 120.205 124.628 116.993 128.934 114.957C133.797 112.658 138.941 110.96 143.89 108.832C149.833 106.278 155.517 102.908 161.672 101.147C164.995 100.196 165.429 99.0291 165.39 96.2787C165.015 69.4202 164.646 42.5613 164.42 15.7013C164.385 11.5748 162.671 11.4639 159.761 13.0074C148.556 18.9515 137.307 24.8196 126.217 30.9716C123.645 32.398 120.193 34.5139 119.67 36.8725C118.636 41.5331 119.211 46.5905 119.393 51.4737C119.984 67.3653 121.164 83.2508 121.22 99.1417C121.265 112.195 119.712 125.247 119.468 138.311C119.282 148.328 120.032 158.364 120.365 169.391M206.865 115.891C202.155 118.889 198.776 121.75 200.048 128.801C201.442 136.53 200.35 144.705 200.39 152.686C200.394 153.422 200.753 154.156 200.947 154.891C201.624 154.52 202.384 154.247 202.966 153.761C207.3 150.147 211.299 146.033 215.981 142.955C222.876 138.421 224.988 132.383 224.492 124.481C224.158 119.174 225.046 113.792 225.353 108.442C225.412 107.404 225.313 106.356 225.287 105.313C223.818 105.5 222.056 105.231 220.933 105.955C216.304 108.936 211.87 112.219 206.865 115.891M205.865 108.891C203.787 109.891 201.757 111.016 199.615 111.85C198.037 112.465 196.11 112.363 194.706 113.198C193.228 114.076 192.186 115.688 190.954 116.98C193.204 117.004 195.981 117.89 197.61 116.896C203.508 113.299 209.032 109.087 214.652 105.044C215.069 104.744 215.126 103.944 215.35 103.376C214.665 103.405 213.816 103.182 213.323 103.504C210.951 105.052 208.675 106.748 205.865 108.891M172.365 107.391C173.217 106.577 174.07 105.763 174.922 104.948C173.677 104.822 172.212 104.211 171.226 104.657C167.605 106.292 164.09 108.187 160.661 110.2C159.828 110.689 159.479 112.001 158.908 112.934C160.122 112.92 161.513 113.286 162.519 112.821C165.712 111.344 168.761 109.558 172.365 107.391M184.365 107.391C184.929 107.16 185.664 107.077 186.023 106.667C186.747 105.838 187.267 104.831 187.871 103.897C186.662 103.895 185.203 103.454 184.293 103.974C181.595 105.516 179.04 107.345 176.6 109.278C176.028 109.731 176.134 111.039 175.927 111.953C176.815 111.933 177.903 112.234 178.552 111.83C180.418 110.67 182.107 109.225 184.365 107.391M196.865 105.891C198.365 105.106 199.865 104.321 201.365 103.536C199.766 103.321 198.169 103.091 196.568 102.9C196.077 102.842 195.38 102.678 195.105 102.925C193.149 104.69 191.277 106.549 189.378 108.378C191.209 107.549 193.032 106.704 194.876 105.908C195.156 105.787 195.533 105.891 196.865 105.891M150.865 112.891C152.075 112.225 153.472 111.752 154.433 110.826C155.124 110.16 155.234 108.891 155.604 107.891C153.37 108.878 151.111 109.814 148.931 110.909C148.603 111.074 148.553 111.988 148.587 112.543C148.595 112.684 149.417 112.777 150.865 112.891M182.865 115.891C184.009 114.747 185.154 113.603 186.298 112.458C186.097 112.269 185.777 111.882 185.714 111.92C184.025 112.94 182.338 113.967 180.721 115.094C180.44 115.289 180.476 115.938 180.365 116.378C181.032 116.382 181.698 116.387 182.865 115.891Z" fill="#c0a483b3" fill-rule="nonzero" opacity="1" stroke="none"/>
<path d="M212.115 159.641C211.032 159.656 210.198 159.421 209.365 159.185C210.648 157.97 211.881 156.692 213.258 155.593C213.539 155.368 214.36 155.819 214.932 155.958C214.42 156.759 213.934 157.58 213.383 158.353C213.106 158.743 212.708 159.048 212.115 159.641Z" fill="#c0a483b3" fill-rule="nonzero" opacity="1" stroke="none"/>
<path d="M124.365 56.8912C122.609 51.9915 123.95 46.2952 127.688 44.1382C136.14 39.2618 144.659 34.4924 153.287 29.9378C159.055 26.893 162.251 29.004 162.387 35.3307C162.642 47.1878 163.114 59.0406 163.308 70.8983C163.357 73.9189 162.969 77.0175 162.251 79.9499C161.891 81.4153 160.606 83.1868 159.273 83.7942C150.31 87.8768 141.302 91.8838 132.145 95.503C126.898 97.5772 124.479 94.803 124.391 86.8747C124.282 77.048 124.365 67.2191 124.365 56.8912M128.365 58.3912C128.698 68.4085 128.973 78.4288 129.47 88.438C129.513 89.2934 131.412 90.9398 131.82 90.7634C139.873 87.2866 147.841 83.6129 155.799 79.9211C156.735 79.4866 158.217 78.754 158.258 78.0873C158.756 69.9112 159.104 61.7238 159.338 53.5349C159.483 48.4877 159.438 43.4313 159.316 38.3829C159.283 37.0237 158.936 35.4715 158.165 34.4277C157.85 34.0005 155.897 34.4231 154.912 34.9097C149.377 37.6424 143.774 40.2804 138.459 43.4011C133.153 46.5159 125.899 48.5437 128.365 58.3912Z" fill="#c0a483b3" fill-rule="nonzero" opacity="1" stroke="none"/>
<path d="M208.615 132.641C209.868 130.225 211.074 127.706 213.018 126.06C213.822 125.379 216.208 126.564 217.875 126.901C216.973 127.898 216.233 129.161 215.132 129.833C213.157 131.039 210.966 131.891 208.615 132.641Z" fill="#c0a483b3" fill-rule="nonzero" opacity="1" stroke="none"/>
<path d="M148.365 63.8912C145.29 64.8912 142.734 65.9481 140.11 66.798C139.864 66.8779 139.195 65.6533 138.722 65.0344C141.665 63.32 144.528 61.4339 147.605 60.0071C148.413 59.6321 149.882 60.6791 151.047 61.0731C150.32 62.0125 149.592 62.9518 148.365 63.8912Z" fill="#c0a483b3" fill-rule="nonzero" opacity="1" stroke="none"/>
</g>
</svg>
