<?xml version="1.0" encoding="UTF-8" standalone="no"?>
<!DOCTYPE svg PUBLIC "-//W3C//DTD SVG 1.1//EN" "http://www.w3.org/Graphics/SVG/1.1/DTD/svg11.dtd">
<!-- Created with Vectornator (http://vectornator.io/) -->
<svg height="100%" stroke-miterlimit="10" style="fill-rule:nonzero;clip-rule:evenodd;stroke-linecap:round;stroke-linejoin:round;" version="1.1" viewBox="0 0 478.057 342.488" width="100%" xmlSpace="preserve" xmlns="http://www.w3.org/2000/svg" xmlnsVectornator="http://vectornator.io" xmlnsXlink="http://www.w3.org/1999/xlink">
<defs/>
<clipPath id="ArtboardFrame">
<rect height="342.488" width="478.057" x="0" y="0"/>
</clipPath>
<g clip-path="url(#ArtboardFrame)" id="Untitled" vectornatorLayerName="Untitled">
<path d="M236.347 71.1839C240.8 75.3179 244.521 80.924 244.168 86.9899C243.817 93.0294 239.366 98.2709 233.969 101.003C228.571 103.735 222.351 104.332 216.301 104.341C201.355 104.363 185.927 100.803 174.225 91.5049C168.568 87.011 163.64 80.4247 164.353 73.2359C164.971 66.999 169.855 61.793 175.58 59.2407C181.304 56.6884 187.763 56.3769 194.027 56.5815C209.27 57.0796 225.17 60.808 236.347 71.1839M227.752 74.5597C216.704 66.9049 203.045 63.0969 189.63 63.9325C184.776 64.2349 179.655 65.2756 176.146 68.6438C172.638 72.012 171.633 78.3175 175.186 81.6386C187.302 92.9642 204.487 98.6481 220.967 96.7799C227.388 96.052 234.94 92.8231 235.462 86.3824C235.861 81.4637 231.808 77.3704 227.752 74.5597Z" fill="#332817" fill-rule="nonzero" opacity="1" stroke="none"/>
<path d="M33.0323 95.8872C17.5332 82.8198 12.2279 59.0484 20.7001 40.631C32.861 14.195 65.6284 5.1491 94.5785 2.20984C153.875-3.81045 213.968 2.94276 271.952 16.7317C307.217 25.1178 344.861 38.3174 363.943 69.1362C379.75 94.6657 378.583 129.653 361.111 154.073C353.631 164.527 356.086 178.825 358.861 191.376C359.671 195.038 360.877 199.208 364.306 200.727C396.129 214.823 425.268 234.949 449.718 259.72C460.291 270.433 470.203 282.363 475.118 296.59C480.032 310.817 479.153 327.793 469.667 339.48C467.612 342.012 463.035 343.96 461.684 340.991C441.393 296.409 396.956 268.385 353.705 245.394C348.974 242.879 342.419 240.671 338.897 244.708C326.858 258.51 308.722 265.873 290.547 268.139C272.373 270.406 253.959 268.044 235.875 265.14C173.308 255.093 111.128 238.239 55.7755 207.39C41.0129 199.163 26.5477 189.76 15.725 176.779C4.90236 163.798-1.95548 146.701 0.497747 129.98C2.95098 113.258 16.2361 97.7624 33.0323 95.8872M276.913 25.6338C234.74 14.3404 191.125 8.96335 147.494 7.38894C113.543 6.1638 78.2051 7.53509 47.8761 22.8442C40.4582 26.5885 33.009 31.6337 29.98 39.3713C25.8071 50.031 31.3939 62.0443 38.5406 70.9867C51.2348 86.8704 68.8425 98.0421 86.7934 107.592C139.775 135.778 198.359 152.27 257.592 161.911C276.847 165.045 296.624 167.468 315.769 163.721C334.914 159.975 353.581 149.101 362.235 131.617C373.796 108.26 364.401 78.6775 346.001 60.2211C327.601 41.7647 302.088 32.3751 276.913 25.6338M98.5268 202.384C142.579 221.256 188.902 234.82 236.175 242.688C265.975 247.648 298.316 249.941 324.739 235.298C303.025 224.514 277.877 224.043 253.696 222.29C188.249 217.545 122.133 201.104 68.2481 163.658C58.5486 156.917 49.0794 149.29 43.0797 139.116C37.08 128.942 35.1111 115.706 40.7156 105.309C41.5951 103.677 39.9822 101.605 38.1534 101.303C36.3247 101.001 34.527 101.866 32.8746 102.706C26.2657 106.065 19.3451 109.7 15.3498 115.945C10.8081 123.044 10.9899 132.429 14.1229 140.252C17.256 148.076 22.9889 154.573 29.1201 160.355C48.9007 179.01 73.534 191.676 98.5268 202.384M33.2064 182.392C59.6625 203.605 91.0609 217.792 123.01 229.157C161.31 242.782 200.938 252.67 241.149 258.636C257.678 261.089 274.533 262.878 291.056 260.389C307.579 257.901 323.925 250.71 334.572 237.832C306.474 258.06 268.351 255.494 234.218 249.697C186.859 241.653 140.17 229.018 95.9498 210.254C61.6726 195.709 27.6687 176.364 6.94362 145.429C9.65736 160.643 21.1493 172.724 33.2064 182.392M46.4054 96.3484C70.4781 116.794 99.4342 130.666 128.926 141.97C171.118 158.142 215.147 169.516 259.893 175.805C290.38 180.089 325.109 180.741 347.667 159.79C316.357 177.241 277.85 173.6 242.602 167.083C196.668 158.589 151.353 146.007 108.555 127.286C75.9132 113.008 43.6002 94.068 24.2188 64.1724C26.6609 77.2378 36.2746 87.744 46.4054 96.3484M76.4092 131.892C67.4814 126.546 58.8511 120.703 50.5715 114.4C50.268 119.28 52.4653 123.965 55.0506 128.114C69.0684 150.615 94.4249 162.958 118.453 174.157C119.205 174.508 120.098 174.858 120.83 174.466C121.445 174.136 121.702 173.403 121.908 172.736C123.163 168.659 124.419 164.581 125.674 160.504C126.032 159.341 126.37 158.001 125.717 156.975C125.289 156.303 124.528 155.933 123.806 155.596C112.349 150.246 100.892 144.896 89.435 139.547C86.8171 138.324 84.4492 141.694 83.7305 144.493C83.0118 147.291 81.7443 150.883 78.856 150.808C76.4137 150.744 75.0244 147.76 75.3777 145.343C75.7309 142.925 77.1741 140.817 77.9339 138.495C78.6937 136.173 78.5053 133.147 76.4092 131.892M173.318 187.913C174.462 184.416 175.606 180.919 176.75 177.422C177.105 176.339 177.428 175.048 176.734 174.144C176.301 173.582 175.582 173.336 174.906 173.119C162.185 169.043 149.464 164.967 136.744 160.891C135.857 160.607 134.836 160.336 134.04 160.819C133.425 161.192 133.13 161.913 132.882 162.589C131.517 166.311 130.414 170.13 129.583 174.007C129.362 175.041 129.165 176.144 129.543 177.131C130.123 178.645 131.818 179.357 133.345 179.903C144.469 183.877 155.726 187.481 167.09 190.707C168.69 191.161 170.582 191.554 171.875 190.509C172.657 189.878 173.006 188.868 173.318 187.913M181.086 190.863C180.896 193.944 184.726 195.442 187.762 195.996C198.32 197.925 208.878 199.854 219.436 201.782C220.486 201.974 221.619 202.156 222.582 201.696C223.873 201.081 224.403 199.556 224.808 198.184C225.809 194.795 226.809 191.406 227.809 188.016C228.048 187.207 228.282 186.308 227.919 185.546C227.461 184.582 226.273 184.261 225.228 184.046C213.794 181.694 202.359 179.343 190.925 176.992C187.755 176.34 184.558 178.575 183.036 181.431C181.514 184.288 181.285 187.633 181.086 190.863M274.185 214.737C349.764 228.506 424.783 265.579 465.83 330.516C469.849 322.173 471.033 312.495 469.143 303.429C469.93 307.078 470.68 311.062 469.012 314.401C467.344 317.741 462.124 319.371 459.861 316.403C415.796 258.626 346.599 220.738 274.185 214.737M267.107 206.612C267.876 206.041 268.203 205.063 268.487 204.148C269.475 200.964 270.463 197.78 271.451 194.595C271.836 193.356 272.212 191.972 271.646 190.804C270.901 189.269 268.939 188.864 267.247 188.644C259.561 187.645 251.875 186.645 244.189 185.646C241.541 185.302 238.476 185.089 236.586 186.976C235.474 188.087 235.044 189.691 234.659 191.215C233.996 193.834 233.333 196.453 232.671 199.072C232.312 200.488 232.019 202.183 233.018 203.248C233.7 203.975 234.771 204.15 235.759 204.28C245.145 205.517 254.568 206.468 264.011 207.131C265.079 207.206 266.248 207.249 267.107 206.612M304.869 211.516C308.558 212.648 312.281 214.262 316.115 213.829C319.95 213.395 323.777 209.827 322.746 206.108C321.858 202.909 318.167 201.543 314.97 200.648C305.205 197.915 295.44 195.182 285.675 192.449C284.683 192.172 283.635 191.893 282.639 192.153C281.204 192.528 280.289 193.892 279.508 195.154C278.07 197.479 276.587 199.944 276.497 202.677C276.408 205.41 278.288 208.41 281.02 208.516C289.05 208.828 297.186 209.158 304.869 211.516M314.008 189.881C307.376 188.13 300.505 186.605 293.704 187.498C349.979 201.779 402.849 229.302 446.823 267.212C410.563 230.145 364.143 203.117 314.008 189.881M329.416 216.958C330.107 217.674 331.053 218.075 331.972 218.458C344.674 223.746 357.376 229.034 370.077 234.322C372.028 235.134 374.323 235.932 376.157 234.885C378.371 233.622 378.477 230.245 377.037 228.142C375.598 226.039 373.152 224.903 370.824 223.864C358.205 218.23 345.585 212.596 332.966 206.963C329.899 209.522 326.644 214.082 329.416 216.958M94.4232 171.131C139.332 198.014 191.916 209.001 243.867 215.363C249.038 215.996 254.819 216.429 258.916 213.212C202.15 209.235 146.125 194.903 94.4232 171.131M416.662 262.695C419.575 263.059 421.546 259.248 420.612 256.465C419.678 253.682 417.049 251.883 414.584 250.29C406.546 245.093 398.509 239.896 390.471 234.699C389.279 233.928 387.983 233.128 386.565 233.19C383.498 233.325 382.104 237.557 383.478 240.302C384.852 243.047 387.797 244.566 390.522 245.98C399.714 250.751 408.474 256.353 416.662 262.695M349.401 193.636C350.837 193.07 350.879 191.083 350.671 189.554C349.964 184.333 349.256 179.113 348.548 173.892C348.439 173.087 348.304 172.226 347.747 171.635C346.465 170.275 344.169 171.329 342.837 172.641C338.694 176.723 336.858 183.005 338.15 188.675C338.342 189.519 339.234 189.975 340.027 190.319C342.276 191.293 344.525 192.268 346.773 193.242C347.609 193.604 348.555 193.97 349.401 193.636M443.338 284.423C445.247 283.481 445.85 280.906 445.231 278.87C444.611 276.834 443.085 275.221 441.598 273.699C439.47 271.523 437.319 269.37 435.147 267.238C433.402 265.526 431.436 263.731 429 263.531C426.563 263.331 423.891 265.745 424.834 268.001C425.155 268.77 425.808 269.342 426.44 269.886C432.073 274.732 437.706 279.577 443.338 284.423M451.909 294.666C455.392 299.184 458.874 303.702 462.356 308.22C461.227 300.295 457.483 292.764 451.846 287.08C450.354 287.39 449.559 289.169 449.788 290.675C450.017 292.182 450.979 293.46 451.909 294.666M331.543 180.095C326.734 180.464 321.973 181.473 317.428 183.088C319.198 185.56 322.49 186.837 325.464 186.207C328.438 185.576 330.928 183.073 331.543 180.095Z" fill="#332817" fill-rule="nonzero" opacity="1" stroke="none"/>
</g>
</svg>
