<?xml version="1.0" encoding="UTF-8" standalone="no"?>
<!DOCTYPE svg PUBLIC "-//W3C//DTD SVG 1.1//EN" "http://www.w3.org/Graphics/SVG/1.1/DTD/svg11.dtd">
<!-- Created with Vectornator (http://vectornator.io/) -->
<svg height="100%" stroke-miterlimit="10" style="fill-rule:nonzero;clip-rule:evenodd;stroke-linecap:round;stroke-linejoin:round;" version="1.1" viewBox="0 0 723.585 976" width="100%" xmlSpace="preserve" xmlns="http://www.w3.org/2000/svg" xmlnsVectornator="http://vectornator.io" xmlnsXlink="http://www.w3.org/1999/xlink">
<defs/>
<clipPath id="ArtboardFrame">
<rect height="976" width="723.585" x="0" y="0"/>
</clipPath>
<g clip-path="url(#ArtboardFrame)" id="Untitled" vectornatorLayerName="Untitled">
<path d="M0 0L0.028638 976" fill="#000000" fill-rule="nonzero" opacity="1" stroke="none"/>
<path d="M468.362 173.146C461.133 204.844 442.814 233.665 418.138 254.833C393.461 276.001 362.644 289.611 330.6 295.107C300.392 300.289 268.519 298.252 240.372 286.124C212.225 273.996 188.169 251.234 177.442 222.524C173.085 210.861 170.941 198.438 170.384 186C170.042 178.374 170.306 170.616 172.525 163.312C176.217 151.162 185.026 141.205 194.727 133.011C214.199 116.562 237.914 105.766 262.319 98.4087C300.978 86.7544 342.099 83.3433 382.15 88.4688C399.43 90.6803 416.652 94.5098 432.469 101.812C447.811 108.896 462.339 120.122 468.031 136.033C472.256 147.843 471.151 160.917 468.362 173.146M458.688 181.774C440.39 202.576 414.945 215.887 388.774 224.976C348.392 239.001 304.889 243.956 262.387 239.371C232.738 236.173 202.087 227.526 181.229 206.213C186.513 231.299 202.9 253.391 224.116 267.782C245.331 282.172 271.054 289.178 296.675 290.035C331.328 291.194 366.268 281.229 395.096 261.965C423.924 242.702 446.5 214.233 458.688 181.774M179.62 183.404C182.908 202.019 200.906 214.271 218.506 221.172C238.32 228.942 259.547 232.741 280.8 233.888C328.487 236.461 376.827 225.589 418.82 202.846C431.811 195.81 444.526 187.357 452.943 175.215C461.36 163.073 464.729 146.543 458.192 133.293C453.065 122.899 442.831 116.022 432.459 110.85C393.772 91.5597 348.371 89.8072 305.652 96.4329C272.207 101.62 239.073 111.916 210.948 130.745C192.963 142.785 175.855 162.091 179.62 183.404Z" fill="#000000" fill-rule="nonzero" opacity="1" stroke="none"/>
<path d="M617.571 233.723C630.251 230.158 643.909 228.249 656.508 232.089C669.491 236.046 679.989 245.697 688.512 256.26C710.124 283.047 721.696 317.267 723.365 351.645C725.034 386.023 717.122 420.51 703.012 451.903C681.502 499.763 645.359 540.926 600.685 568.446C568.765 588.108 532.192 600.934 494.724 602.23C457.257 603.525 418.954 592.796 389.475 569.634C383.189 564.695 377.198 559.064 373.578 551.937C369.141 543.201 368.654 532.995 369.307 523.219C371.544 489.731 385.948 458.24 402.906 429.277C437.764 369.741 484.522 317.205 539.613 275.676C563.317 257.808 588.994 241.756 617.571 233.723M410.446 574.322C440.574 591.853 476.813 597.718 511.394 593.332C545.974 588.946 578.903 574.683 607.49 554.736C642.594 530.242 671.582 496.996 690.827 458.761C706.305 428.009 715.523 393.812 715.122 359.386C714.721 324.961 704.399 290.356 683.885 262.708C687.5 300.795 671.639 338.032 652.536 371.181C619.12 429.164 574.605 480.725 522.116 522.242C489.434 548.093 451.957 570.674 410.446 574.322M660 241.45C650.007 235.644 637.488 236.713 626.239 239.366C599.624 245.643 575.436 259.605 553.11 275.394C501.025 312.231 456.936 359.903 422.085 413.337C403.427 441.944 387.182 472.672 379.552 505.963C377.248 516.018 375.743 526.462 377.446 536.635C379.149 546.809 384.448 556.761 393.248 562.142C404.963 569.307 420.037 567.128 433.189 563.181C467.051 553.017 497.139 532.975 524.399 510.463C570.085 472.734 609.363 427.265 640.053 376.581C655.682 350.769 669.244 323.192 674.849 293.542C678.432 274.589 676.679 251.14 660 241.45Z" fill="#000000" fill-rule="nonzero" opacity="1" stroke="none"/>
<path d="M534.73 823.604C513.88 862.341 467.294 881.194 423.315 882.27C405.307 882.711 387.244 880.691 369.764 876.339C355.046 872.675 340.393 867.159 328.972 857.179C315.871 845.73 307.991 829.059 305.148 811.894C302.305 794.729 304.198 777.056 308.297 760.147C316.082 728.027 331.907 697.887 353.927 673.24C365.023 660.82 377.852 649.657 392.877 642.469C407.902 635.281 425.308 632.3 441.467 636.337C454.581 639.613 466.175 647.234 476.867 655.503C502.388 675.24 524.797 700.061 536.957 729.945C549.116 759.828 550.021 795.195 534.73 823.604M446.839 646.103C434.487 640.235 419.778 640.661 406.85 645.12C393.922 649.578 382.579 657.766 372.464 666.969C341.634 695.019 320.713 733.751 314.157 774.913C311.573 791.133 311.212 808.074 316.394 823.659C321.577 839.245 332.949 853.341 348.409 858.888C371.788 867.277 397.628 854.699 416.432 838.469C451.498 808.203 473.869 763.667 477.213 717.467C478.206 703.748 477.545 689.678 472.901 676.731C468.257 663.784 459.264 652.005 446.839 646.103M372.917 869.208C402.044 875.864 432.859 877.719 461.609 869.588C490.359 861.457 516.835 842.414 529.543 815.374C541.556 789.813 540.269 759.213 529.709 733.018C519.149 706.823 500.013 684.749 477.948 667.119C494.247 705.983 484.806 751.465 465.315 788.83C445.823 826.197 414.027 859.919 372.917 869.208Z" fill="#000000" fill-rule="nonzero" opacity="1" stroke="none"/>
<path d="M40.6812 809.857C28.4706 781.966 30.8964 749.018 43.0974 721.123C55.2984 693.227 76.5156 670.015 100.596 651.383C117.79 638.08 137.749 626.507 159.484 626.116C183.87 625.677 206.441 639.47 224.035 656.361C259.687 690.589 280.545 739.734 280.396 789.157C280.35 804.31 278.261 819.929 270.588 832.995C257.348 855.545 230.434 866.032 204.828 871.329C173.844 877.738 141.141 878.806 110.957 869.319C80.7732 859.831 53.37 838.841 40.6812 809.857M164.552 828.177C174.933 838.13 186.765 846.931 200.348 851.654C213.931 856.377 229.47 856.671 242.32 850.215C254.954 843.867 263.912 831.544 268.386 818.132C272.861 804.719 273.232 790.252 271.964 776.169C268.396 736.527 251.818 698.163 225.394 668.397C213.114 654.564 198.279 642.285 180.608 636.813C162.938 631.341 142.08 633.728 128.442 646.225C114.664 658.851 110.581 678.916 110.243 697.6C109.364 746.095 129.542 794.61 164.552 828.177M114.985 650.193C91.4878 667.682 69.6902 688.359 55.6159 714.047C41.5417 739.735 35.8908 771.026 45.1737 798.807C55.3977 829.405 82.8208 852.374 113.521 862.284C144.222 872.194 177.758 870.266 209.034 862.357C161.079 849.047 127.376 804.47 111.243 757.39C99.2629 722.43 95.6542 681.69 114.985 650.193Z" fill="#000000" fill-rule="nonzero" opacity="1" stroke="none"/>
<path d="M216.595 201.488C209.897 197.841 203.37 193.15 199.904 186.357C194.944 176.638 197.437 164.369 203.723 155.451C210.01 146.533 219.502 140.424 229.175 135.375C266.991 115.637 310.559 109.026 353.208 109.865C378.233 110.357 403.97 113.55 425.798 125.8C434.381 130.616 442.688 137.464 445.199 146.98C449.5 163.273 435.319 178.482 421.043 187.434C384.267 210.497 339.456 217.268 296.046 217.268C268.756 217.269 240.562 214.54 216.595 201.488M386.811 195.345C400.474 190.511 413.925 184.434 425.048 175.142C431.178 170.021 436.816 163.32 437.332 155.349C438.244 141.231 423.452 131.536 410.098 126.865C369.452 112.648 324.648 115.132 282.612 124.469C259.091 129.693 235.289 137.403 217.156 153.269C210.561 159.039 204.463 166.913 205.39 175.627C206.274 183.927 213.269 190.219 220.449 194.476C235.077 203.148 252.126 206.838 269.022 208.759C308.624 213.263 349.236 208.638 386.811 195.345Z" fill="#000000" fill-rule="nonzero" opacity="1" stroke="none"/>
<path d="M396.566 535.772C393.386 530.015 392.861 523.168 393.122 516.596C394.052 493.161 403.972 471.059 415.127 450.428C449.652 386.575 497.871 330.17 555.578 286.135C574.144 271.968 594.176 258.839 616.824 253.142C628.286 250.258 641.642 249.763 650.668 257.394C662.002 266.977 661.37 284.544 657.962 298.99C650.535 330.471 634.733 359.372 616.76 386.265C590.692 425.268 559.68 460.964 524.702 492.227C502.282 512.266 477.945 530.662 450.367 542.649C441.241 546.616 431.525 549.905 421.582 549.528C411.638 549.151 401.378 544.482 396.566 535.772M646.718 264.382C638.756 255.607 624.523 257.685 613.405 261.781C588.294 271.034 566.088 286.776 545.534 303.914C500.905 341.127 462.531 385.822 432.499 435.568C418.509 458.741 406.139 483.55 402.271 510.34C400.866 520.075 401.244 531.501 408.846 537.742C415.926 543.555 426.34 542.398 435.146 539.874C459.631 532.859 481.071 517.962 500.853 501.918C544.634 466.409 582.799 423.99 613.501 376.713C630.81 350.06 645.986 321.213 651.04 289.837C652.457 281.036 652.708 270.984 646.718 264.382Z" fill="#000000" fill-rule="nonzero" opacity="1" stroke="none"/>
<path d="M179.45 826.882C177.029 825.091 176.777 821.628 176.743 818.617C176.177 768.241 175.611 717.864 175.045 667.487C175.012 664.506 175.277 660.962 177.843 659.444C179.68 658.358 182.003 658.783 184.073 659.301C216.048 667.303 244.132 690.982 255.631 721.872C267.131 752.761 260.854 790.041 238.471 814.236C230.983 822.331 221.672 829.044 211.025 831.914C200.378 834.785 188.316 833.438 179.45 826.882M185.175 820.302C218.391 814.29 243.061 780.412 241.747 746.682C240.432 712.952 215.548 682.317 183.803 670.843C183.464 720.666 183.922 770.494 185.175 820.302M230.317 694.278C237.396 706.119 244.278 718.309 247.688 731.677C252.225 749.461 250.203 768.842 242.091 785.306C233.98 801.77 219.845 815.184 202.979 822.423C200.766 823.373 198.254 824.478 197.489 826.761C204.211 828.03 210.976 824.914 216.702 821.171C237.062 807.863 250.977 785.135 253.572 760.95C256.167 736.766 247.39 711.602 230.317 694.278Z" fill="#000000" fill-rule="nonzero" opacity="1" stroke="none"/>
<path d="M393.999 836.878C389.114 838.339 384.23 839.799 379.345 841.26C377.417 841.836 375.22 842.385 373.489 841.357C371.215 840.007 371.078 836.824 371.214 834.182C373.176 795.926 375.139 757.669 377.101 719.412C377.576 710.144 378.052 700.876 378.527 691.607C378.803 686.235 379.105 680.738 381.18 675.774C383.255 670.811 387.487 666.401 392.814 665.646C398.14 664.891 404.1 668.984 404.036 674.363C403.442 724.531 402.848 774.7 402.253 824.868C402.215 828.104 402.043 831.682 399.791 834.006C398.274 835.572 396.087 836.254 393.999 836.878M395.685 714.759C395.842 703.592 395.527 691.166 387.765 683.137C384.746 732.791 381.889 782.455 379.193 832.127C388.213 827.236 394.245 817.264 394.389 807.004C394.821 776.255 395.253 745.507 395.685 714.759M392.913 678.066C393.581 679.056 394.248 680.046 394.916 681.036C396.107 679.186 395.748 676.494 394.113 675.021C392.989 675.454 392.404 676.924 392.925 678.011L392.913 678.066Z" fill="#000000" fill-rule="nonzero" opacity="1" stroke="none"/>
</g>
</svg>
