<?xml version="1.0" encoding="UTF-8" standalone="no"?>
<!DOCTYPE svg PUBLIC "-//W3C//DTD SVG 1.1//EN" "http://www.w3.org/Graphics/SVG/1.1/DTD/svg11.dtd">
<!-- Created with Vectornator (http://vectornator.io/) -->
<svg height="100%" stroke-miterlimit="10" style="fill-rule:nonzero;clip-rule:evenodd;stroke-linecap:round;stroke-linejoin:round;" version="1.1" viewBox="0 0 223.257 183.441" width="100%" xmlSpace="preserve" xmlns="http://www.w3.org/2000/svg" xmlnsVectornator="http://vectornator.io" xmlnsXlink="http://www.w3.org/1999/xlink">
<defs/>
<clipPath id="ArtboardFrame">
<rect height="183.441" width="223.257" x="0" y="0"/>
</clipPath>
<g clip-path="url(#ArtboardFrame)" id="Untitled" vectornatorLayerName="Untitled">
<path d="M179.677 96.1132C182.465 93.7593 185.358 91.3467 188.851 90.2913C192.344 89.2358 196.626 89.8926 198.808 92.817C200.99 95.7414 199.655 100.909 196.061 101.538C183.053 103.813 170.758 110.015 161.198 119.125C148.212 131.498 140.74 148.412 130.619 163.221C126.245 169.622 121.116 175.853 114.163 179.282C111.53 176.701 114.833 172.576 117.609 170.149C128.425 160.691 133.886 146.693 141.838 134.726C151.846 119.662 165.858 107.78 179.677 96.1132M183.698 98.7595C187.993 98.8196 192.299 98.0553 196.311 96.5204C192.35 94.0198 186.557 95.0481 183.698 98.7595Z" fill="#B6B2AB" fill-rule="nonzero" opacity="1" stroke="none"/>
<path d="M222.724 110.434C220.168 115.619 212.475 113.945 206.92 115.547C199.22 117.767 195.876 126.494 192.48 133.753C183.665 152.591 167.414 167.825 148.046 175.405C145.721 176.315 142.555 176.879 141.177 174.798C146.055 171.753 150.933 168.709 155.811 165.665C162.113 161.732 168.485 157.743 173.645 152.399C186.507 139.078 190.471 118.839 203.954 106.148C207.287 103.01 211.571 100.302 216.124 100.775C220.676 101.249 224.748 106.329 222.724 110.434M218.827 108.521C218.986 106.359 216.077 105.394 213.932 105.707C211.236 106.101 208.673 107.362 206.717 109.258C210.753 109.762 214.882 109.511 218.827 108.521Z" fill="#B6B2AB" fill-rule="nonzero" opacity="1" stroke="none"/>
<path d="M44.5382 150.07C37.3894 145.135 30.2405 140.2 23.0916 135.266C14.6307 129.425 5.72468 123.042 1.91271 113.494C-2.5262 102.376 1.22174 89.3297 8.41968 79.7635C15.6176 70.1974 25.809 63.4063 35.7959 56.8045C56.6357 43.0285 77.4755 29.2525 98.3153 15.4765C113.554 5.40332 132.47-5.03478 149.034 2.66636C161.796 8.59982 174.673 15.239 183.988 25.7893C193.303 36.3395 198.406 51.7063 193.317 64.8278C189.442 74.8174 180.558 81.8464 172.061 88.3733C150.681 104.795 129.301 121.217 107.921 137.639C100.439 143.386 92.8197 149.211 84.0059 152.575C75.192 155.939 64.8526 156.551 56.603 151.974C51.1734 148.962 45.0613 154.236 40.7326 158.687C30.4697 169.242 18.0318 177.671 4.42643 183.294C2.85804 184.177 3.07128 180.843 4.51671 179.771C17.8572 169.87 31.1977 159.97 44.5382 150.07M8.17484 94.9245C8.9316 97.5116 10.968 99.4978 12.9828 101.288C25.3478 112.277 39.9895 120.692 55.7088 125.844C61.9441 127.888 68.5774 129.434 75.0358 128.274C82.5053 126.934 88.8356 122.166 94.8527 117.542C121.17 97.3155 147.487 77.0891 173.803 56.8626C178.962 52.898 184.522 48.2719 185.419 41.828C186.717 32.5015 177.857 25.2314 170.003 20.0374C157.489 11.7621 143.334 3.11126 128.548 5.65204C120.586 7.02026 113.566 11.5232 106.801 15.9392C85.1868 30.0476 63.6565 44.2843 42.2114 58.6481C31.6894 65.6957 21.0556 72.8895 12.7548 82.4539C9.72243 85.9479 6.87598 90.4843 8.17484 94.9245M104.512 134.058C125.858 117.59 147.205 101.123 168.551 84.6556C179.803 75.9755 192.317 64.2589 189.794 50.2739C162.791 71.5646 135.788 92.8554 108.786 114.146C97.4573 123.078 85.1167 132.408 70.7089 133.141C61.3636 133.617 52.2347 130.353 43.7399 126.429C30.0915 120.124 17.2953 111.977 5.80725 102.279C5.81035 119.77 23.5172 131.235 39.0369 139.303C41.9826 140.834 46.6908 141.716 47.6738 138.545C49.0242 134.189 55.5197 132.592 58.7358 135.826C61.9519 139.059 60.3203 145.546 55.9571 146.873C63.5525 151.589 73.4387 151.256 81.8251 148.158C90.2115 145.06 97.4333 139.518 104.512 134.058M51.3942 143.982C53.246 142.367 55.0979 140.752 56.9498 139.137C54.0019 137.48 49.762 140.693 50.5608 143.979L51.3942 143.982Z" fill="#B6B2AB" fill-rule="nonzero" opacity="1" stroke="none"/>
<path d="M55.1873 117.987C45.6167 113.264 36.4292 107.764 27.7446 101.56C22.8948 98.0958 17.7698 93.615 17.5667 87.6582C17.3376 80.9396 23.3946 75.8903 28.9248 72.068C45.9493 60.3015 63.607 49.4513 81.7959 39.5799C86.8474 36.8383 92.0624 34.1309 97.7456 33.2741C112.302 31.0797 125.545 41.2048 136.781 50.7163C141.767 54.9372 147.198 60.1126 146.943 66.6405C146.695 72.998 141.154 77.6925 136.082 81.5332C122.665 91.6918 109.249 101.85 95.8326 112.009C88.8334 117.309 81.1891 122.843 72.4115 123.016C66.3717 123.135 60.6044 120.661 55.1873 117.987M28.053 95.9585C38.8045 104.537 50.8584 111.481 63.6736 116.477C67.0055 117.776 70.5171 118.962 74.0796 118.649C78.5403 118.258 82.4329 115.592 86.0786 112.992C102.679 101.152 118.952 88.8541 134.872 76.1155C138.062 73.5636 141.494 70.5301 141.818 66.4582C142.219 61.4079 137.736 57.4646 133.685 54.422C129.679 51.413 125.673 48.4039 121.666 45.3949C117.261 42.0861 112.65 38.6835 107.24 37.6417C99.1858 36.0908 91.1913 40.0439 84.0092 44.0053C65.882 54.0035 48.2208 64.8463 31.1019 76.4868C26.6071 79.5432 21.5712 84.0463 22.8373 89.3323C23.5048 92.1193 25.8129 94.1711 28.053 95.9585Z" fill="#B6B2AB" fill-rule="nonzero" opacity="1" stroke="none"/>
<path d="M148.079 47.5964C138.515 46.1964 129.904 39.4834 126.214 30.549C125.756 29.4406 125.367 28.2932 125.216 27.1034C124.7 23.0257 127.176 18.9489 130.675 16.7922C134.174 14.6356 138.501 14.1704 142.584 14.6427C148.578 15.3359 154.331 17.9755 158.766 22.0669C164.561 27.4136 167.798 37.0075 162.83 43.131C159.443 47.3066 153.399 48.375 148.079 47.5964M151.236 23.0282C148.122 20.9889 144.741 19.1031 141.031 18.7961C137.322 18.4891 133.22 20.1562 131.715 23.5606C129.314 28.9936 134.361 34.7061 139.194 38.1596C142.294 40.375 145.648 42.4749 149.422 43.0007C153.196 43.5265 157.486 42.0825 159.241 38.7007C160.728 35.8358 160.076 32.2206 158.339 29.5001C156.601 26.7796 153.936 24.7967 151.236 23.0282Z" fill="#B6B2AB" fill-rule="nonzero" opacity="1" stroke="none"/>
<path d="M27.6028 107.187C27.4733 105.273 30.5793 105.653 32.1301 106.782C35.8313 109.477 39.5324 112.172 43.2336 114.867C37.5066 115.739 31.3879 113.094 28.0999 108.325C27.8619 107.979 27.6311 107.605 27.6028 107.187Z" fill="#B6B2AB" fill-rule="nonzero" opacity="1" stroke="none"/>
</g>
</svg>
