<?xml version="1.0" encoding="UTF-8" standalone="no"?>
<!DOCTYPE svg PUBLIC "-//W3C//DTD SVG 1.1//EN" "http://www.w3.org/Graphics/SVG/1.1/DTD/svg11.dtd">
<!-- Created with Vectornator (http://vectornator.io/) -->
<svg height="100%" stroke-miterlimit="10" style="fill-rule:nonzero;clip-rule:evenodd;stroke-linecap:round;stroke-linejoin:round;" version="1.1" viewBox="0 0 343.145 260.753" width="100%" xmlspace="preserve" xmlns="http://www.w3.org/2000/svg" xmlnsVectornator="http://vectornator.io" xmlnsXlink="http://www.w3.org/1999/xlink">
<defs/>
<g id="Untitled" vectornatorlayerName="Untitled">
<path d="M111.188 238.639C110.522 243.363 109.68 247.569 109.234 251.816C108.724 256.686 106.335 258.934 101.39 259.7C92.863 261.022 84.4878 261.51 76.11 258.68C66.637 255.479 62.134 247.518 64.1427 238.092C66.1472 228.686 67.5265 219.147 69.1931 209.668C69.4922 207.967 69.9588 206.287 70.1328 204.576C70.195 203.964 69.621 203.287 69.3374 202.639C68.9543 203.187 68.3828 203.684 68.2179 204.291C66.8325 209.391 65.7363 214.58 64.1277 219.607C62.5251 224.614 58.6786 226.779 53.4797 226.642C46.3869 226.454 39.3388 228.502 32.178 225.756C23.8591 222.565 19.6033 216.214 21.1902 207.523C23.8496 192.96 26.5453 178.403 29.1063 163.823C29.2152 163.203 28.1642 161.777 27.5867 161.738C24.4338 161.53 21.1821 161.191 18.1082 161.725C9.56449 163.209 4.951 161.047 1.83967 152.712C-2.1755 141.956 0.379904 123.586 9.52453 114.743C14.4832 109.948 20.9403 109.875 27.0217 108.684C37.8447 106.564 48.7011 104.597 59.5813 102.794C67.1163 101.545 74.7088 100.633 82.286 99.65C92.8948 98.2742 103.509 96.9402 114.13 95.6571C117.811 95.2123 121.513 94.8975 125.214 94.6535C135.935 93.9467 146.66 93.2939 157.385 92.6427C168.608 91.9611 179.829 91.2488 191.057 90.6584C199.247 90.2277 207.444 89.8876 215.642 89.6552C240.698 88.9448 265.76 88.4269 290.809 87.5384C295.884 87.3585 298.471 90.4144 301.404 93.4124C301.655 93.6693 301.684 94.637 301.499 94.7478C300.313 95.4601 299.029 96.5739 297.793 96.5547C285.263 96.3601 272.735 95.7091 260.207 95.7125C247.345 95.716 234.479 96.1886 221.622 96.671C207.56 97.1986 193.503 97.8948 179.451 98.6664C169.886 99.1916 160.325 99.8508 150.781 100.668C136.491 101.891 122.197 103.131 107.941 104.691C94.9385 106.114 81.9667 107.855 69.0117 109.672C55.8193 111.523 42.6526 113.569 29.5058 115.72C27.6631 116.021 25.3123 116.134 26.7786 119.964C30.7406 130.31 29.5241 140.716 25.2141 150.825C24.7502 151.913 24.6442 153.153 24.3722 154.323C25.3572 154.095 26.3312 153.786 27.3288 153.652C37.4403 152.298 47.5568 150.981 57.6697 149.637C70.1471 147.979 82.6082 146.188 95.1039 144.683C102.632 143.777 110.221 143.388 117.768 142.621C130.223 141.356 142.661 139.928 155.115 138.662C159.796 138.187 164.499 137.895 169.199 137.657C177.058 137.259 184.921 136.923 192.785 136.651C203.811 136.271 214.84 135.938 225.87 135.648C239.897 135.279 253.926 134.768 267.955 134.71C277.482 134.671 287.012 135.325 296.541 135.627C299.26 135.713 302.019 135.398 304.69 135.768C305.938 135.941 307.126 137.207 308.087 138.219C308.268 138.409 307.39 139.882 306.757 140.52C304.328 142.97 302.324 145.529 297.812 143.857C294.734 142.717 290.892 143.639 287.392 143.639C270.169 143.639 252.945 143.639 235.721 143.639C228.331 143.639 220.935 143.809 213.552 143.566C209.969 143.448 208.591 145.196 208.205 148.244C206.5 161.716 204.76 175.184 203.216 188.674C201.754 201.44 200.694 214.254 199.091 227.001C198.555 231.269 196.795 235.373 195.818 239.604C195.611 240.5 196.285 242.466 196.712 242.514C204.25 243.354 211.845 244.786 219.363 244.483C239.732 243.662 258.112 236.845 274.654 224.765C290.508 213.188 302.249 198.356 310.491 180.741C316.274 168.384 319.794 155.405 321.376 141.697C323.214 125.77 321.366 110.489 316.124 95.5983C306.332 67.7801 287.301 49.6615 258.389 42.6882C239.154 38.049 220.452 40.4387 202.287 48.0198C188.916 53.5998 177.51 62.0124 167.281 72.1059C163.912 75.431 160.931 79.1475 157.676 82.5939C156.833 83.487 155.704 84.3767 154.561 84.643C153.513 84.8871 152.268 84.2882 151.11 84.0607C151.32 83.2357 151.311 82.2529 151.774 81.6088C164.65 63.682 181.635 50.7426 201.627 41.8813C211.22 37.6292 221.465 35.1355 232.121 34.5889C246.711 33.8406 260.949 35.6433 274.135 41.8292C281.718 45.3869 288.947 50.2033 295.398 55.5777C312.554 69.8706 322.288 88.9353 327.016 110.365C329.994 123.863 330.194 137.7 326.217 151.265C325.992 152.032 326.072 152.945 326.224 153.749C326.35 154.411 326.795 155.012 327.098 155.639C327.461 155.072 328.014 154.549 328.159 153.93C329.871 146.631 332.067 139.39 333.051 131.99C334.288 122.675 335.409 113.191 335.023 103.844C333.822 74.7443 324.542 48.7436 301.992 29.1631C289.805 18.5809 275.295 12.0176 259.131 9.65061C254.085 8.91159 249.002 7.62657 243.964 7.75334C217.888 8.40956 194.181 16.4708 172.839 31.4849C153.742 44.9194 138.854 62.027 127.629 82.4833C126.389 84.7421 123.305 86.0724 120.904 87.5514C120.296 87.9257 118.728 87.5015 118.144 86.9091C117.69 86.4484 117.732 84.9436 118.146 84.266C123.606 75.3453 128.541 66.0032 134.892 57.7565C140.986 49.844 148.042 42.4557 155.653 35.9867C164.043 28.8549 173.382 22.7833 182.607 16.7024C194.123 9.11009 207.222 5.24357 220.459 1.91225C223.06 1.25755 225.761 0.890154 228.439 0.66559C245.897-0.798308 263.276-0.297484 279.547 6.81377C288.033 10.5227 296.196 15.4004 303.681 20.8764C316.65 30.3645 325.923 43.1621 332.673 57.6849C337.909 68.9492 341.42 80.7571 342.169 93.2425C342.609 100.598 343.372 107.986 343.081 115.323C342.471 130.659 338.906 145.48 333.477 159.805C326.661 177.792 317.136 194.382 304.389 208.694C287.576 227.571 268.092 242.775 243.862 251.909C226.408 258.488 208.719 260.844 190.591 259.431C173.058 258.065 156.878 251.764 142.923 240.753C137.78 236.695 133.244 231.868 128.437 227.384C126.88 225.932 125.071 224.877 127.737 222.397C130.221 220.086 131.471 220.597 133.788 222.592C140.348 228.239 147.017 233.806 154.033 238.864C164.058 246.09 175.874 249.015 187.727 251.609C190.209 252.152 192.771 252.377 195.31 252.587C195.908 252.637 196.561 252.032 197.188 251.729C196.62 251.366 196.096 250.886 195.479 250.657C186.09 247.166 176.813 243.308 167.254 240.366C159.175 237.879 155.197 231.706 151.305 225.202C149.839 222.753 147.579 220.06 152.641 218.438C153.875 218.043 154.359 215.313 155.188 213.656C153.763 213.317 152.346 212.734 150.91 212.686C146.915 212.552 142.905 212.491 138.913 212.671C131.013 213.026 124.888 209.286 119.437 204.231C118.2 203.084 117.306 200.913 117.305 199.213C117.302 194.518 117.953 189.826 118.118 185.124C118.158 183.979 117.318 182.802 116.883 181.639C116.318 182.672 115.312 183.682 115.258 184.741C114.802 193.597 114.78 202.481 114.116 211.318C113.443 220.281 112.188 229.201 111.188 238.639M108.188 185.139C107.719 181.611 109.074 178.888 111.709 176.586C115.945 172.885 121.071 173.907 125.992 173.605C130.489 173.328 133.444 175.505 134.05 179.6C134.74 184.273 134.42 189.102 134.445 193.864C134.459 196.491 133.804 199.211 134.287 201.729C135.301 207.018 139.735 205.606 143.26 205.619C150.386 205.645 152.105 203.954 152.188 197.105C152.273 190.131 153.779 188.644 160.771 188.64C163.437 188.638 166.347 187.974 168.698 188.835C170.843 189.621 173.718 191.886 173.966 193.799C175.343 204.396 173.202 214.833 171.133 225.183C169.735 232.177 171.496 234.639 178.706 234.639C181.205 234.639 183.717 234.487 186.202 234.679C189.199 234.91 190.108 233.739 190.275 230.75C190.671 223.679 191.364 216.613 192.223 209.581C193.767 196.925 195.407 184.277 197.229 171.659C198.424 163.38 199.671 155.076 201.617 146.956C202.229 144.402 201.678 144.566 199.985 144.65C193.789 144.956 187.586 145.184 181.403 145.663C165.118 146.926 148.832 148.183 132.568 149.679C120.27 150.811 108.011 152.362 95.7248 153.624C82.119 155.023 68.4921 156.222 54.8959 157.704C51.8435 158.037 48.339 157.601 47.9928 162.889C47.5972 168.93 45.576 174.849 44.4984 180.864C42.6321 191.281 40.9078 201.724 39.2185 212.172C38.8247 214.607 38.8102 217.104 38.6211 219.572C41.2782 219.595 43.9352 219.62 46.5923 219.638C47.7587 219.646 48.9462 219.782 50.0881 219.614C54.5805 218.955 58.9367 218.129 59.89 212.471C60.5139 208.767 61.5896 205.136 62.1473 201.426C63.0109 195.679 66.3117 192.525 72.1145 192.683C75.4825 192.775 78.8502 193.661 82.1972 193.552C86.6891 193.406 88.6838 195.123 88.1887 199.614C87.1872 208.699 86.2708 217.793 85.1618 226.865C84.2937 233.965 83.2278 241.043 82.1727 248.12C81.5861 252.053 83.9579 253.499 87.1358 253.55C90.6575 253.607 94.2627 253.288 97.6876 252.504C99.3566 252.122 101.697 250.523 101.999 249.105C102.869 245.025 102.86 240.756 103.187 236.561C103.527 232.2 103.759 227.829 104.206 223.479C105.488 211.028 106.855 198.585 108.188 185.139M18.1882 148.139C18.1882 147.642 18.0505 147.095 18.2088 146.655C20.7511 139.58 21.5734 132.318 20.082 124.95C19.7627 123.373 18.0862 120.903 17.0459 120.908C15.4217 120.917 13.2975 122.344 12.3128 123.798C10.9795 125.766 9.97154 128.288 9.79708 130.644C9.32113 137.073 9.17999 143.544 9.34118 149.988C9.37227 151.23 11.2156 153.1 12.5293 153.419C13.5298 153.662 15.1065 152.011 16.2503 151.003C16.9107 150.42 17.2206 149.44 18.1882 148.139M35.6882 166.639C35.1882 169.43 34.7029 172.223 34.1855 175.011C32.5782 183.67 30.8284 192.305 29.3993 200.993C28.6945 205.277 28.4699 209.653 28.2768 213.999C28.2389 214.853 29.3427 215.758 29.92 216.639C30.3427 215.799 30.9716 215 31.1523 214.11C31.9044 210.406 32.4814 206.668 33.1954 202.956C35.8058 189.386 38.4695 175.825 41.0111 162.242C41.1572 161.461 40.3978 160.511 40.0598 159.639C39.1026 160.112 37.6343 160.354 37.2954 161.106C36.6042 162.639 36.5216 164.445 35.6882 166.639M75.1882 214.139C75.1882 215.637 75.3202 217.147 75.1667 218.629C74.2094 227.867 73.1456 237.095 72.2465 246.339C72.1433 247.399 72.8414 248.537 73.168 249.639C73.8414 248.523 74.9563 247.465 75.1143 246.279C75.9394 240.089 76.4607 233.859 77.2032 227.656C78.1879 219.432 79.2926 211.221 80.3035 203C80.3979 202.232 80.1901 201.427 80.1226 200.639C79.1445 201.256 77.52 201.7 77.3005 202.519C76.3692 205.999 75.8549 209.589 75.1882 214.139M164.188 225.139C164.188 223.809 164.041 222.46 164.213 221.153C165.162 213.913 166.249 206.691 167.108 199.442C167.21 198.575 166.208 197.577 165.718 196.639C165.208 197.391 164.338 198.1 164.243 198.9C163.157 208.118 162.129 217.344 161.277 226.585C161.189 227.545 162.334 228.618 162.907 229.639C163.334 228.473 163.761 227.306 164.188 225.139M124.188 190.139C124.188 192.956 124.125 195.775 124.221 198.588C124.256 199.612 124.669 200.623 124.91 201.639C125.67 200.615 127.038 199.617 127.085 198.561C127.314 193.435 127.224 188.293 127.133 183.158C127.124 182.645 126.348 182.145 125.928 181.639C125.348 182.151 124.328 182.617 124.268 183.183C124.061 185.15 124.188 187.151 124.188 190.139Z" fill="#000000" fill-rule="nonzero" opacity="1" stroke="none"/>
</g>
</svg>
