<?xml version="1.0" encoding="UTF-8" standalone="no"?>
<!DOCTYPE svg PUBLIC "-//W3C//DTD SVG 1.1//EN" "http://www.w3.org/Graphics/SVG/1.1/DTD/svg11.dtd">
<!-- Created with Vectornator (http://vectornator.io/) -->
<svg height="100%" stroke-miterlimit="10" style="fill-rule:nonzero;clip-rule:evenodd;stroke-linecap:round;stroke-linejoin:round;" version="1.1" viewBox="0 0 706.158 548.15" width="100%" xmlSpace="preserve" xmlns="http://www.w3.org/2000/svg" xmlnsVectornator="http://vectornator.io" xmlnsxlink="http://www.w3.org/1999/xlink">
<defs/>
<clipPath id="ArtboardFrame">
<rect height="548.15" width="706.158" x="0" y="0"/>
</clipPath>
<g clip-path="url(#ArtboardFrame)" id="Untitled" vectornatorLayerName="Untitled">
<path d="M181.316 52.7278C268.673 11.5275 366.973-6.18982 463.217 1.91842C517.587 6.49886 573.357 20.2073 615.312 55.0903C665.899 97.1501 689.17 163.776 700.047 228.658C709.668 286.042 710.653 348.02 682.657 399.027C653.26 452.586 596.64 485.485 539.61 507.4C498.911 523.039 456.597 534.473 413.56 541.463C376.138 547.54 337.966 550.256 300.263 546.278C186.472 534.271 84.392 459.87 24.7452 362.222C11.4596 340.473-0.243486 316.44 0.003852 290.955C0.17686 273.129 6.23338 255.836 14.035 239.807C31.5435 203.833 58.3263 172.421 91.0798 149.445C94.1416 155.736 87.8154 162.319 82.3565 166.696C59.9772 184.638 40.8988 206.684 26.3558 231.408C16.0871 248.865 7.94049 268.22 7.51622 288.469C6.88544 318.575 23.8204 347.156 47.1147 366.238C70.4089 385.32 99.4551 396.026 128.669 403.327C225.415 427.506 327.962 417.4 424.544 392.573C488.078 376.241 551.927 352.472 599.537 307.345C647.148 262.218 675.226 191.632 654.911 129.258C637.781 76.663 589.404 38.6406 536.79 21.5728C484.175 4.50502 427.465 5.59025 372.373 10.5394C302.628 16.8049 231.223 29.82 172.515 67.9925C167.928 62.8759 175.101 55.659 181.316 52.7278M698.467 270.004C695.31 223.498 683.886 177.566 664.89 134.999C676.523 185.319 661.654 239.624 631.466 281.53C601.277 323.436 557.016 353.741 509.447 373.856C461.877 393.971 410.844 404.518 359.844 412.673C304.567 421.512 248.408 427.692 192.647 422.755C136.885 417.818 81.1703 401.176 36.1375 367.924C88.4274 445.051 165.236 508.093 255.519 531.151C335.391 551.549 420.476 539.838 499.079 514.996C533.809 504.019 567.874 490.456 599.32 472.077C622.945 458.27 645.281 441.513 661.963 419.823C694.003 378.165 702.028 322.437 698.467 270.004Z" fill="#000000" fill-rule="nonzero" opacity="1" stroke="none"/>
<path d="M481.814 328.324C420.286 361.497 350.989 380.149 281.122 382.34C240.357 383.619 198.867 379.22 161.056 363.931C135.047 353.414 109.913 336.474 98.3611 310.909C84.5046 280.243 93.4195 243.046 112.832 215.559C132.245 188.072 160.679 168.473 189.031 150.347C197.76 144.766 207.816 136.179 204.87 126.246C196.601 98.3608 217.128 67.4953 244.586 57.9024C272.044 48.3096 303.189 56.4185 327.624 72.1948C340.835 80.7247 354.467 91.939 370.097 90.2082C419.653 84.7209 471.022 85.2992 517.799 102.554C553.892 115.867 588.951 143.171 594.455 181.245C598.397 208.515 586.249 235.856 569.526 257.754C546.577 287.805 515.097 310.38 481.814 328.324M230.425 282.313C223.604 298.898 224.731 318.552 233.402 334.249C244.809 354.897 267.795 367.227 291.108 370.831C314.421 374.434 338.223 370.409 361.189 365.023C398.202 356.344 434.441 344.074 468.582 327.351C491.759 315.999 514.555 302.063 529.854 281.279C545.153 260.494 551.563 231.544 540.167 208.388C532.493 192.797 517.767 181.571 501.784 174.75C489.015 169.301 475.196 166.327 461.316 166.042C481.995 190.689 497.383 219.752 506.143 250.709C507.876 256.832 509.358 263.298 507.955 269.504C504.858 283.195 489.734 289.928 476.482 294.555C438.247 307.907 399.801 320.657 361.165 332.8C355.197 334.676 349.128 336.554 342.874 336.703C334.11 336.912 325.637 333.717 317.659 330.084C276.849 311.498 242.153 279.762 220.01 240.767C215.073 232.072 210.676 222.798 209.639 212.853C208.602 202.908 211.423 192.112 218.963 185.545C221.592 183.256 220.389 179.008 218.983 175.818C214.917 166.594 210.851 157.369 206.785 148.144C180.669 161.386 156.781 179.008 136.421 200.053C112.515 224.764 92.6244 258.363 99.7313 292.002C106.323 323.204 134.575 345.51 164.118 357.517C200.543 372.321 240.598 375.483 279.915 375.85C279.287 372.473 275.2 371.248 271.864 370.428C250.362 365.142 231.949 348.645 224.342 327.85C216.735 307.056 220.156 282.571 233.172 264.658C236.017 270.134 232.773 276.606 230.425 282.313M225.042 234.468C243.707 268.052 271.589 296.452 304.822 315.733C317.971 323.362 332.644 329.726 347.818 328.798C355.985 328.298 363.861 325.705 371.629 323.134C401.036 313.398 430.444 303.663 459.851 293.928C469.61 290.697 479.428 287.441 488.456 282.526C492.894 280.11 497.294 277.117 499.671 272.658C503.277 265.894 501.38 257.61 499.053 250.306C487.448 213.879 466.991 180.306 439.938 153.292C440.278 164.024 433.394 173.951 424.613 180.131C415.832 186.311 405.313 189.414 395.004 192.418C348.728 205.901 302.452 219.384 256.176 232.867C245.979 235.838 234.758 238.759 225.042 234.468M549.824 217.809C555.509 240.217 547.302 264.053 534.89 283.556C549.641 269.995 563.837 255.456 573.913 238.136C583.989 220.816 589.707 200.329 586.42 180.562C582.69 158.133 567.625 138.685 548.882 125.811C530.14 112.937 507.949 105.983 485.678 101.398C445.963 93.221 404.812 92.0633 364.7 97.9944C372.958 107.828 381.215 117.662 389.473 127.495C391.182 129.53 393.456 131.776 396.055 131.222C414.635 127.264 435.178 134.787 446.807 149.808C453.719 158.736 466.367 160.074 477.499 161.962C509.287 167.352 541.895 186.558 549.824 217.809M237.353 68.1952C216.976 79.4327 208.201 105.301 210.839 128.422C213.478 151.542 225.367 172.488 237.903 192.093C243.856 201.403 251.975 211.655 263.019 211.278C269.397 211.061 275.983 203.721 272.019 198.72C259.509 182.935 250.309 164.54 245.184 145.062C240.731 128.14 240.2 107.885 252.602 95.5416C261.029 87.1555 273.935 84.4186 285.688 86.2056C297.442 87.9925 308.222 93.7803 318.036 100.489C339.925 115.453 358.298 135.525 371.272 158.648C373.729 163.027 376.53 167.953 381.392 169.207C388.157 170.951 394.588 163.816 394.807 156.834C395.025 149.851 391.063 143.491 387.062 137.764C373.245 117.983 357.005 99.6238 337.31 85.6843C317.614 71.7448 294.259 62.3812 270.144 61.5587C258.861 61.1739 247.238 62.7435 237.353 68.1952M396.093 140.05C406.246 148.669 404.168 167.542 392.384 173.746C380.599 179.95 363.865 170.981 362.505 157.733C362.038 153.176 357.691 149.795 353.196 148.913C348.701 148.03 344.078 149.083 339.619 150.132C313.339 156.312 286.839 162.567 262.397 174.029C267.945 179.021 273.616 184.171 277.006 190.82C280.395 197.469 281.049 206.05 276.66 212.087C270.76 220.202 258.057 220.427 249.435 215.296C240.813 210.165 235.307 201.218 230.14 192.617C228.788 190.368 225.316 190.282 223.184 191.812C221.052 193.342 219.982 195.931 219.186 198.432C216.745 206.105 216.149 215.205 221.108 221.549C228.84 231.441 244.198 228.854 256.243 225.308C304.479 211.106 352.714 196.903 400.95 182.701C409.717 180.119 418.868 177.318 425.367 170.893C430.517 165.802 433.577 158.072 431.457 151.147C429.445 144.575 423.13 139.958 416.424 138.448C409.719 136.939 402.684 138.1 396.093 140.05M318.343 109.131C314.762 106.423 309.689 107.688 305.417 109.07C288.716 114.471 272.016 119.872 255.316 125.273C253.943 125.717 252.506 126.201 251.528 127.262C249.844 129.089 250.082 131.921 250.493 134.371C251.862 142.54 253.978 150.584 256.806 158.37C257.599 160.555 258.771 163.013 261.038 163.529C262.185 163.79 263.375 163.477 264.509 163.165C292.974 155.338 321.438 147.512 349.902 139.685C340.675 128.27 330.051 117.984 318.343 109.131M305.664 101.212C299.027 98.2323 292.318 95.229 285.18 93.8167C278.042 92.4043 270.332 92.7038 263.894 96.0934C257.201 99.6172 252.419 106.321 250.633 113.671C250.068 115.998 249.942 118.844 251.782 120.377C253.897 117.248 257.786 115.938 261.395 114.828C276.152 110.29 290.908 105.751 305.664 101.212Z" fill="#000000" fill-rule="nonzero" opacity="1" stroke="none"/>
</g>
</svg>
