<?xml version="1.0" encoding="UTF-8" standalone="no"?>
<!DOCTYPE svg PUBLIC "-//W3C//DTD SVG 1.1//EN" "http://www.w3.org/Graphics/SVG/1.1/DTD/svg11.dtd">
<!-- Created with Vectornator (http://vectornator.io/) -->
<svg height="100%" stroke-miterlimit="10" style="fill-rule:nonzero;clip-rule:evenodd;stroke-linecap:round;stroke-linejoin:round;" version="1.1" viewBox="0 0 797.774 517.812" width="100%" xmlSpace="preserve" xmlns="http://www.w3.org/2000/svg" xmlnsVectornator="http://vectornator.io" xmlnsXlink="http://www.w3.org/1999/xlink">
<defs/>
<clipPath id="ArtboardFrame">
<rect height="517.812" width="797.774" x="0" y="0"/>
</clipPath>
<g clip-path="url(#ArtboardFrame)" id="Untitled" vectornatorLayerName="Untitled">
<path d="M0 517.303C265.833 516.803 531.667 516.803 797.75 516.803C797.833 517.137 797.684 517.747 797.497 517.759C796.169 517.842 794.833 517.803 793.5 517.803C529 517.803 264.5 517.803 0 517.303Z" fill="#000000" fill-rule="nonzero" opacity="1" stroke="none"/>
<path d="M747.25 74.5533C750.093 82.3959 753.234 89.8524 755.16 97.6106C758.785 112.216 759.742 126.989 758.232 142.148C756.878 155.753 754.891 169.138 749.838 181.745C745.43 192.742 740.357 203.62 734.252 213.752C726.787 226.141 718.622 238.253 709.494 249.453C700.76 260.171 690.57 269.734 680.704 279.486C673.729 286.38 666.526 293.113 658.894 299.258C646.362 309.349 633.929 319.717 620.492 328.496C600.431 341.603 579.738 353.789 558.915 365.669C546.471 372.768 533.291 378.586 520.39 384.874C515.481 387.266 510.573 385.883 506.279 383.423C500.837 380.306 495.692 376.62 490.661 372.856C487.547 370.527 484.647 369.938 481.752 372.607C473.471 380.243 463.766 381.548 453.169 379.541C452.211 379.36 450.299 379.789 450.177 380.274C447.908 389.285 439.629 389.316 433.07 391.71C430.584 392.617 427.633 393.046 425.035 392.681C419.891 391.958 419.113 395.49 419.112 398.749C419.107 411.128 415.178 422.654 411.965 434.34C410.798 438.58 408.402 440.854 403.32 440.932C378.259 441.316 353.204 442.641 328.148 442.619C312.394 442.606 296.613 441.135 280.9 439.698C268.376 438.553 255.892 436.755 243.476 434.721C231.547 432.767 219.581 430.706 207.897 427.669C190.666 423.189 173.456 418.429 156.628 412.65C133.8 404.811 111.742 394.687 91.6334 381.453C73.735 369.675 60.0015 353.264 48.8515 334.672C41.1376 321.809 35.2156 308.375 30.7368 294.141C28.6247 287.428 32.8606 282.495 34.4897 276.814C35.6598 277.489 37.3194 277.873 37.9215 278.886C42.202 286.086 45.5663 293.937 50.5355 300.601C63.5349 318.036 80.8576 330.862 99.4938 341.4C114.193 349.712 129.904 356.451 145.67 362.595C159.754 368.084 174.408 372.252 189.035 376.16C200.981 379.353 213.226 381.481 225.399 383.753C237.361 385.985 249.357 388.125 261.418 389.699C270.573 390.893 279.842 391.46 289.077 391.742C316.462 392.579 343.853 393.406 371.247 393.674C382.63 393.785 394.034 392.574 405.414 391.755C410.403 391.397 410.879 390.444 408.974 385.26C405.042 374.56 401.187 363.821 396.855 353.281C394.355 347.196 389.502 345.492 382.929 347.362C382.175 347.576 381.386 347.773 380.61 347.787C360.749 348.141 340.886 348.788 321.026 348.69C308.133 348.626 295.198 347.944 282.367 346.679C267.476 345.212 252.685 342.753 237.839 340.815C213.897 337.689 190.597 331.924 167.891 323.781C148.171 316.708 129.518 307.692 113.015 294.448C100.758 284.612 91.406 272.894 87.4148 257.604C83.6512 243.186 87.5065 229.831 94.9499 217.388C106.282 198.444 123.571 185.999 141.954 174.809C162.378 162.375 184.315 153.416 206.896 145.681C228.17 138.395 249.802 132.754 271.902 128.842C286.232 126.305 300.649 124.253 314.979 121.712C318.102 121.158 321.812 120.232 323.888 118.13C331.131 110.799 341.021 108.494 349.673 104.065C361.413 98.0544 373.916 93.361 386.416 89.0437C408.021 81.5822 429.759 74.4509 451.666 67.9407C466.433 63.5526 481.506 60.0764 496.597 56.9425C506.559 54.8738 516.762 53.6776 526.919 52.9045C544.81 51.5427 562.77 49.7233 580.663 50.0698C604.362 50.5287 627.805 53.926 649.025 65.829C663.929 74.1888 674.711 86.0414 677.913 103.296C680.818 118.948 676.551 133.55 669.753 147.534C662.716 162.012 653.68 175.118 642.545 186.767C636.392 193.204 630.74 200.208 624.058 206.034C611.578 216.916 598.994 227.794 585.567 237.442C569.167 249.225 552.255 260.422 534.827 270.612C517.37 280.818 499.02 289.5 481.029 298.786C475.184 301.803 474.6 302.308 478.945 307.041C487.034 315.852 495.578 324.273 504.33 332.43C507.568 335.447 511.804 335.4 516.154 333.25C538.96 321.976 561.667 310.53 582.872 296.387C598.57 285.917 614.37 275.568 629.611 264.46C639.131 257.522 647.884 249.48 656.637 241.555C665.459 233.569 674.26 225.491 682.357 216.789C701.082 196.666 717.764 175.008 728.969 149.639C733.955 138.35 737.436 126.695 739.159 114.317C743.158 85.5959 733.895 61.9775 712.614 43.1232C697.7 29.9102 679.753 21.7945 660.538 16.9206C648.833 13.9515 636.864 11.9745 624.961 9.84027C605.853 6.41383 586.503 6.24119 567.217 6.96311C553.739 7.46765 540.296 9.2922 526.875 10.8558C514.703 12.274 502.499 13.686 490.462 15.9219C476.643 18.4888 462.826 21.3742 449.304 25.1744C428.915 30.9047 408.605 37.0382 388.595 43.9647C372.609 49.4985 357.058 56.3224 341.433 62.8576C331.772 66.8981 322.379 71.5747 312.772 75.7505C309.057 77.3655 308.101 79.3963 309.965 83.0757C314.078 91.195 318.142 99.3467 321.879 107.642C322.614 109.275 321.785 111.613 321.678 113.625C319.785 112.614 316.988 112.082 316.153 110.509C312.11 102.891 308.489 95.0395 304.93 87.1751C302.848 82.5764 299.849 81.3663 292.124 82.8138C283.473 84.4348 274.791 85.9315 266.204 87.8496C252.047 91.0122 237.82 93.9908 223.872 97.9303C208.121 102.379 192.545 107.515 177.087 112.908C167.216 116.351 157.371 120.168 148.092 124.941C130.878 133.794 113.8 142.995 97.2406 153.003C88.9113 158.036 80.1552 163.109 74.4651 171.69C73.7406 172.783 71.8064 173.074 70.4327 173.736C70.6218 172.434 70.7344 171.115 71.0122 169.832C73.0255 160.537 80.2844 155.941 87.2956 150.688C104.238 137.995 122.529 127.53 141.734 119.048C160.87 110.597 180.613 103.27 200.586 97.0383C222.081 90.3315 244.089 85.2136 265.996 79.9121C276.85 77.2857 288.254 76.7189 298.902 73.5279C308.256 70.7245 316.802 65.3201 325.884 61.491C344.187 53.7749 362.474 45.9882 381.031 38.922C394.868 33.6529 408.973 28.9491 423.224 24.9366C440.604 20.0429 458.194 15.8294 475.822 11.9004C489.944 8.75308 504.214 6.1937 518.504 3.91186C526.464 2.64072 534.589 2.21014 542.66 1.85545C561.543 1.02557 580.455-0.32666 599.323 0.071808C612.828 0.357033 626.283 3.11782 639.756 4.80848C653.754 6.56492 667.095 10.6818 680.216 15.7635C700.173 23.4934 717.47 34.854 730.614 51.968C736.237 59.2894 741.548 66.8509 747.25 74.5533M338.5 340.803C351.363 340.47 364.227 340.171 377.088 339.765C378.958 339.706 380.829 339.208 382.672 338.791C389.695 337.198 396.043 339.638 399.919 346.33C403.627 352.732 406.674 359.517 409.995 366.142C410.784 367.715 411.126 371.198 413.668 368.434C419.174 362.447 426.378 360.414 433.759 358.889C441.743 357.239 449.181 355.197 454.394 348.115C456.084 345.818 458.946 343.96 461.662 342.943C465.582 341.475 465.506 338.487 464.904 335.751C462.411 324.42 462.764 313.114 465.189 301.931C465.761 299.292 468.218 295.947 470.625 294.996C490.001 287.342 508.349 277.641 525.703 266.319C540.747 256.504 554.752 245.158 566.791 231.587C574.181 223.256 580.385 214.319 583.723 203.585C587.229 192.312 583.032 182.085 574.029 176.18C564.169 169.713 553.048 167.821 541.88 166.998C528.102 165.984 514.353 167.469 500.614 169.63C483.259 172.361 466.48 177.001 449.89 182.471C427.42 189.881 405.987 199.728 385.27 211.11C379.948 214.034 375.439 212.915 370.619 210C360.413 203.827 352.372 195.234 344.5 186.568C340.662 182.343 338.115 176.944 335.006 172.062C333.903 170.331 332.866 168.557 331.799 166.803C331.649 169.086 331.126 171.418 331.416 173.644C332.462 181.661 333.803 189.64 334.994 197.639C336.023 204.553 336.77 211.518 338.067 218.38C339.271 224.748 337.189 228.499 330.856 229.775C328.362 230.278 325.785 230.363 323.28 230.822C312.602 232.778 301.929 234.766 291.267 236.812C274.616 240.006 258.487 244.957 243.001 251.842C230.484 257.408 218.486 263.747 209.53 274.698C198.432 288.269 203.124 301.294 214.985 310.746C226.443 319.876 239.872 324.971 253.798 329.273C271.668 334.793 289.987 337.603 308.432 339.672C318.043 340.75 327.806 340.47 338.5 340.803M662.5 86.8033C657.326 78.6877 649.247 73.8772 641.052 69.9735C620.899 60.375 599.019 57.9692 577.039 56.9133C569.547 56.5533 561.985 57.3496 554.469 57.836C546.406 58.3578 538.304 58.7491 530.318 59.8883C516.08 61.9192 501.78 63.8536 487.756 66.9567C469.554 70.9846 451.37 75.3951 433.592 80.9645C413.907 87.1315 394.556 94.4481 375.314 101.919C361.55 107.264 348.201 113.68 334.674 119.636C330.499 121.474 328.813 123.625 331.885 128.348C342.268 144.312 352.059 160.662 362.443 176.626C368.041 185.233 374.451 193.309 380.354 201.723C382.238 204.407 384.349 203.996 386.56 202.709C407.734 190.382 430.141 181.087 453.481 173.57C474.191 166.899 495.201 161.682 516.756 160.103C534.855 158.776 553.436 158.059 570.703 165.856C589.969 174.557 596.21 189.703 589.823 208.365C586.068 219.339 579.586 228.732 570.88 236.536C570.086 237.247 570.04 238.792 569.647 239.95C570.923 239.577 572.477 239.543 573.424 238.768C576.83 235.979 579.811 232.64 583.346 230.045C600.691 217.314 617.066 203.549 631.716 187.702C645.248 173.065 657.558 157.732 665.26 139.09C672.564 121.415 674.797 104.085 662.5 86.8033M274.5 135.803C269.913 136.803 265.317 137.763 260.741 138.81C232.025 145.377 203.813 153.433 176.778 165.417C152.351 176.245 128.983 188.641 110.831 208.743C105.433 214.721 101.047 221.893 97.4417 229.138C93.4636 237.131 92.7405 246.054 94.6523 254.926C97.4231 267.784 105.014 277.479 114.658 286.081C130.232 299.973 148.512 309.049 167.929 315.613C185.383 321.514 203.337 325.974 221.164 330.718C228.137 332.574 235.363 333.492 242.486 334.77C243.228 334.903 244.052 334.577 244.839 334.464C244.176 333.911 243.571 333.255 242.834 332.831C242.043 332.375 241.139 332.097 240.263 331.809C227.47 327.611 215.572 321.985 205.851 312.24C192.024 298.379 192.937 281.001 205.9 267.407C218.831 253.847 235.38 246.228 252.491 239.902C275.665 231.334 299.723 226.283 324.311 223.792C328.269 223.391 330.949 222.196 330.106 217.097C329.006 210.446 328.789 203.654 327.974 196.95C326.396 183.965 324.486 171.019 323.062 158.018C322.074 148.998 321.688 139.913 320.984 130.86C320.819 128.73 320.833 127.644 317.504 128.499C310.463 130.306 303.057 130.638 295.846 131.845C289.034 132.985 282.28 134.47 274.5 135.803M107.5 381.803C115.054 385.691 122.456 389.919 130.2 393.384C140.874 398.159 151.598 402.985 162.677 406.654C178.544 411.908 194.647 416.541 210.846 420.669C222.701 423.689 234.824 425.761 246.916 427.709C256.089 429.186 265.388 429.931 274.652 430.775C290.419 432.212 306.195 434.479 321.979 434.577C348.356 434.74 374.742 433.448 401.126 432.835C404.029 432.768 405.378 431.664 406.076 428.734C408.199 419.82 410.764 411.011 412.839 402.087C413.031 401.261 410.979 398.985 409.941 398.967C405.921 398.898 401.895 399.574 397.861 399.784C384.144 400.501 370.428 401.492 356.702 401.696C344.685 401.876 332.648 401.261 320.63 400.769C308.07 400.255 295.508 399.662 282.973 398.739C273.866 398.068 264.764 397.066 255.729 395.743C241.334 393.635 226.864 391.741 212.667 388.651C194.592 384.718 176.591 380.241 158.861 374.978C137.383 368.603 116.897 359.609 97.3065 348.641C83.4231 340.868 70.4029 331.825 58.8787 320.92C53.2255 315.57 48.9422 308.779 43.9742 302.693C43.1851 301.726 42.0531 301.04 41.0797 300.224C41.0531 301.436 40.6224 302.83 41.0708 303.829C42.901 307.909 44.9797 311.878 47.0035 315.869C55.8531 333.323 65.8717 349.996 81.3289 362.498C89.567 369.161 98.4229 375.06 107.5 381.803M566.5 352.803C566.835 352.802 567.253 352.931 567.493 352.78C583.886 342.469 600.657 332.699 616.534 321.645C632.468 310.551 648.007 298.76 662.783 286.175C674.393 276.287 684.77 264.91 695.348 253.861C709.023 239.578 719.973 223.319 730.19 206.372C744.547 182.558 750.88 156.774 751.914 129.404C752.16 122.9 751.393 116.351 750.973 109.83C750.788 106.965 750.43 104.094 749.888 101.277C749.713 100.369 748.697 99.6231 748.065 98.8033C747.71 99.712 747.1 100.605 747.041 101.532C746.63 108.053 747.22 114.779 745.822 121.068C742.565 135.717 737.421 149.702 730.404 163.148C720.365 182.385 708.06 200.029 693.285 215.622C678.607 231.112 662.922 245.815 646.481 259.417C630.165 272.916 612.49 284.797 595.173 297.053C571.143 314.061 544.885 327.227 518.72 340.517C517.232 341.273 515.428 341.696 513.757 341.74C510.16 341.836 508.421 343.669 509.065 346.993C510.879 356.364 512.867 365.708 515.127 374.979C515.518 376.586 516.845 378.793 519.817 376.902C522.637 375.108 526.08 374.328 529.076 372.77C541.42 366.35 553.698 359.803 566.5 352.803M506 369.303C503.136 360.945 502.74 352.318 502.885 343.575C502.916 341.738 501.948 339.419 500.649 338.101C491.549 328.862 482.248 319.821 472.981 310.747C472.509 310.286 471.697 309.797 471.153 309.899C470.687 309.987 470.016 310.934 470.054 311.455C470.643 319.342 471.247 327.23 472.043 335.098C472.355 338.174 473.897 338.761 476.018 336.255C476.825 335.301 477.219 333.729 478.199 333.244C480.391 332.162 483.068 330.615 485.097 331.109C486.74 331.508 488.813 334.636 488.772 336.512C488.689 340.351 489.749 341.998 493.524 343.014C495.326 343.498 497.596 346.152 497.707 347.944C497.825 349.84 495.887 352.115 494.363 353.783C493.163 355.097 491.325 356.007 489.601 356.626C486.113 357.879 486.045 359.711 488.58 361.828C493.868 366.242 499.276 370.514 504.698 374.765C505.261 375.207 506.542 375.498 506.954 375.175C507.453 374.784 507.604 373.636 507.504 372.868C507.368 371.821 506.853 370.823 506 369.303M335 156.303C338.793 162.517 339.062 170.409 344.901 175.765C348.127 178.724 350.093 183.011 353.087 186.276C357.813 191.43 362.898 196.258 367.93 201.122C368.318 201.497 369.793 201.362 370.201 200.931C370.605 200.507 370.63 199.142 370.241 198.645C368.242 196.095 365.816 193.858 363.977 191.208C356.894 181.006 349.806 170.799 343.082 160.361C340.258 155.978 338.444 150.954 335.921 146.359C335.301 145.23 333.699 144.641 332.549 143.803C332.541 145.145 332.266 146.554 332.582 147.815C333.218 150.354 334.175 152.812 335 156.303M464 355.303C466.653 354.47 469.315 353.664 471.956 352.793C473.654 352.234 475.32 351.58 477 350.968C475.528 349.608 474.213 347.98 472.524 346.988C471.529 346.405 469.649 346.322 468.668 346.886C462.22 350.59 455.335 353.879 451.581 360.828C450.915 362.059 451.144 363.773 450.961 365.264C452.307 364.378 453.715 363.571 454.988 362.589C457.86 360.373 460.667 358.07 464 355.303M479 367.303C479.628 365.598 480.257 363.893 480.885 362.188C479.16 362.99 477.249 363.538 475.744 364.64C470.816 368.249 465.358 370.193 459.318 370.88C457.823 371.051 456.437 372.177 455 372.864C456.477 373.511 457.921 374.258 459.446 374.76C460.196 375.008 461.198 375.054 461.912 374.763C467.465 372.502 472.976 370.137 479 367.303M420.5 383.803C419.333 384.057 418.167 384.311 417 384.565C417.539 385.311 418.022 386.657 418.625 386.713C427.351 387.523 435.602 385.929 443.039 381.134C443.684 380.718 443.609 379.186 443.869 378.172C442.972 378.156 441.843 377.778 441.215 378.181C435.027 382.147 428.045 382.819 420.5 383.803M424 368.303C421.792 370.178 419.477 371.947 417.439 373.992C416.814 374.618 416.947 376 416.732 377.036C417.815 376.958 419.282 377.308 419.919 376.735C424.525 372.592 429.556 369.311 435.586 367.61C436.221 367.431 436.528 366.091 436.986 365.29C436.224 365.128 435.387 364.676 434.713 364.852C431.285 365.746 427.9 366.803 424 368.303M469 360.303C467.202 360.768 465.39 361.19 463.635 361.784C463.505 361.828 463.791 363.101 463.883 363.803C465.756 362.803 467.628 361.803 469 360.303Z" fill="#000000" fill-rule="nonzero" opacity="1" stroke="none"/>
<path d="M471.25 148.053C467.124 149.803 463.357 151.76 459.352 152.723C442.928 156.674 426.661 161 411.208 168.033C402.806 171.856 394.455 175.667 387.447 181.849C384.038 184.856 380.521 184.512 377.92 181.115C370.211 171.043 362.459 160.972 355.41 150.441C352.663 146.336 350.935 141.105 350.333 136.192C350.016 133.613 352.422 129.319 354.812 128.005C377.201 115.691 400.318 105.044 425.554 99.7832C429.667 98.9258 433.694 97.6514 437.814 96.8339C447.344 94.9426 452.278 100.934 455.934 108.196C461.337 118.928 466.427 129.825 471.32 140.8C472.198 142.769 471.481 145.451 471.25 148.053M449 109.303C446.667 106.294 444.54 102.611 439.886 103.847C426.552 107.389 412.957 110.281 400.059 115.039C386.667 119.979 373.937 126.734 360.989 132.845C357.012 134.722 355.655 137.742 358.46 141.77C365.299 151.589 372.217 161.356 378.884 171.29C380.8 174.145 382.406 176.193 385.969 173.81C397.342 166.205 409.527 160.117 422.501 155.9C435.157 151.787 448.035 148.329 460.903 144.915C463.686 144.176 464.727 143.445 463.466 140.779C458.658 130.614 453.824 120.461 449 109.303Z" fill="#000000" fill-rule="nonzero" opacity="1" stroke="none"/>
<path d="M193.75 199.053C192.908 190.473 190.445 181.19 198.995 175.665C204.699 171.978 211.602 169.916 218.203 167.888C235.075 162.705 252.015 157.752 269.67 155.735C277.826 154.803 285.865 152.831 294.024 151.952C297.345 151.594 300.59 153.474 301.951 156.962C303.184 160.122 304.223 163.394 304.959 166.703C307.48 178.032 306.028 189.514 305.959 200.934C305.914 208.372 302.303 211.569 295.158 211.849C276.455 212.583 258.245 215.994 240.999 223.42C233.358 226.71 226.018 230.733 218.692 234.702C214.861 236.776 208.922 236.163 207.16 232.33C202.534 222.264 198.338 212 194.039 201.787C193.741 201.079 194 200.136 193.75 199.053M201.5 201.803C204.792 209.428 208.185 217.012 211.328 224.697C212.716 228.09 214.624 228.183 217.566 226.789C226.885 222.377 236.063 217.551 245.691 213.936C260.303 208.45 275.42 204.878 291.265 205.783C295.11 206.003 298.615 204.388 298.709 200.441C298.969 189.519 298.644 178.576 298.279 167.65C298.14 163.478 296.67 159.367 291.463 159.899C281.661 160.9 271.792 161.88 262.177 163.928C243.239 167.963 224.294 172.129 206.343 179.765C200.703 182.163 198.035 187.111 199.552 192.908C200.268 195.646 200.531 198.501 201.5 201.803Z" fill="#000000" fill-rule="nonzero" opacity="1" stroke="none"/>
</g>
</svg>
