<?xml version="1.0" encoding="UTF-8" standalone="no"?>
<!DOCTYPE svg PUBLIC "-//W3C//DTD SVG 1.1//EN" "http://www.w3.org/Graphics/SVG/1.1/DTD/svg11.dtd">
<!-- Created with Vectornator (http://vectornator.io/) -->
<svg height="100%" stroke-miterlimit="10" style="fill-rule:nonzero;clip-rule:evenodd;stroke-linecap:round;stroke-linejoin:round;" version="1.1" viewBox="0 0 704.05 495.201" width="100%" xmlSpace="preserve" xmlns="http://www.w3.org/2000/svg" xmlnsVectornator="http://vectornator.io" xmlnsXlink="http://www.w3.org/1999/xlink">
<defs/>
<clipPath id="ArtboardFrame">
<rect height="495.201" width="704.05" x="0" y="0"/>
</clipPath>
<g clip-path="url(#ArtboardFrame)" id="Untitled" vectornatorLayerName="Untitled">
<path d="M47.6089 244.44C50.8642 230.993 57.8508 218.767 65.3259 207.126C94.4956 161.698 132.137 122.345 171.21 85.0902C180.989 75.7662 191.217 66.3341 203.845 61.5264C217.07 56.4912 231.667 57.0007 245.804 57.6194C314.098 60.6082 382.352 64.5158 450.541 69.3409C506.424 73.2952 562.954 78.0047 615.948 96.1732C624.736 99.186 634.624 103.931 636.477 113.034C637.619 118.646 635.258 124.315 632.949 129.556C625.346 146.818 617.743 164.079 610.14 181.34C597.443 210.168 584.665 239.143 567.444 265.519C559.314 277.972 549.911 290.079 537.203 297.803C518.211 309.346 494.671 309.568 472.451 309.135C339.895 306.553 207.835 292.855 75.9615 279.169C66.8547 278.224 56.7812 276.785 50.9432 269.732C45.316 262.933 45.5324 253.017 47.6089 244.44M174.263 90.8542C140.193 122.372 109.133 157.143 81.6449 194.541C70.1178 210.223 59.0296 226.765 53.9631 245.557C52.1126 252.42 51.3896 260.589 56.1669 265.853C60.0153 270.093 66.2055 271.062 71.8883 271.766C212.805 289.223 354.584 299.728 496.535 303.229C517.885 303.756 537.973 291.638 552.077 275.602C566.181 259.565 575.278 239.848 584.181 220.436C598.499 189.217 612.817 157.997 627.135 126.778C628.548 123.697 629.99 120.483 629.927 117.095C629.755 107.689 619.018 102.628 609.973 100.042C542.778 80.8381 472.351 76.6142 402.587 72.4997C352.102 69.5222 301.616 66.5447 251.131 63.5672C237.765 62.7789 224.045 62.0317 211.282 66.0747C197.006 70.5968 185.256 80.6851 174.263 90.8542Z" fill="#000000" fill-rule="nonzero" opacity="1" stroke="none"/>
<path d="M445.403 172.134C449.782 175.32 452.254 180.714 452.602 186.118C452.95 191.522 451.346 196.917 448.819 201.706C442.727 213.248 430.985 221.631 418.091 223.645C413.845 224.307 409.318 224.275 405.469 222.365C400.526 219.912 397.416 214.613 396.545 209.165C395.674 203.716 396.78 198.127 398.525 192.892C401.002 185.462 404.781 178.469 409.639 172.325C412.513 168.691 416.248 165.119 420.876 164.91C422.682 164.828 424.466 165.277 426.219 165.723C428.962 166.421 431.706 167.119 434.449 167.816C438.277 168.79 442.208 169.811 445.403 172.134M426.307 174.511C422.157 174.698 417.782 175.327 414.548 177.935C412.404 179.665 410.968 182.109 409.709 184.56C407.916 188.051 406.383 191.676 405.126 195.395C402.834 202.172 402.163 211.125 408.141 215.055C411.59 217.322 416.137 216.992 420.113 215.885C429.752 213.201 438.133 206.288 442.601 197.335C445.361 191.804 446.473 184.649 442.676 179.771C439.014 175.066 432.264 174.243 426.307 174.511Z" fill="#000000" fill-rule="nonzero" opacity="1" stroke="none"/>
<path d="M358.724 185.304C357.799 188.916 355.898 192.214 353.653 195.191C350.155 199.827 345.767 203.789 340.799 206.798C330.953 212.761 317.058 214.319 308.671 206.436C302.02 200.185 300.839 189.65 303.728 180.991C306.616 172.333 312.878 165.234 319.499 158.952C321.047 157.483 322.666 156.016 324.633 155.189C326.815 154.271 329.26 154.213 331.621 154.384C339.418 154.949 347.178 158.035 352.564 163.701C357.95 169.366 360.664 177.731 358.724 185.304M351.173 175.807C349.078 166.642 338.172 161.257 329.035 163.47C319.897 165.682 313.064 173.927 310.502 182.973C308.702 189.329 309.083 197.038 314.03 201.417C320.203 206.883 330.009 204.465 337.062 200.195C345.657 194.991 353.412 185.602 351.173 175.807Z" fill="#000000" fill-rule="nonzero" opacity="1" stroke="none"/>
<path d="M148.36 476.328C135.284 473.416 122.06 469.915 110.795 462.666C99.5291 455.417 90.3589 443.783 89.1766 430.439C87.8461 415.422 96.4968 401.477 105.415 389.322C117.074 373.431 129.814 358.333 143.518 344.167C123.496 342.28 103.474 340.392 83.4514 338.505C58.5294 336.156 31.15 332.626 14.3884 314.034C-0.010468 298.062-2.76121 274.109 2.42525 253.24C7.6117 232.371 19.66 213.933 32.1853 196.454C65.8673 149.45 104.536 106.021 147.334 67.1337C160.037 55.5907 173.559 44.1821 189.855 38.7916C206.445 33.3039 224.407 34.5394 241.833 35.8358C299.099 40.0963 356.364 44.3567 413.63 48.6171C434.628 50.1793 445.624 24.717 462.163 11.6841C483.114-4.8263 513.081-0.519163 539.256 4.62083C568.662 10.3954 598.068 16.1699 627.475 21.9445C644.323 25.253 662.496 29.3068 673.66 42.3523C686.945 57.8768 684.611 84.2153 668.803 97.1619C690.286 107.38 702.497 131.669 703.888 155.417C705.279 179.165 697.506 202.502 687.926 224.276C669.713 265.667 644.541 303.986 613.786 337.138C593.257 359.266 565.041 380.566 535.647 373.707C517.006 369.358 502.664 389.367 493.551 406.199C473.224 443.745 446.034 483.003 404.421 492.559C391.271 495.578 377.619 495.32 364.129 495.047C291.824 493.579 218.951 492.047 148.36 476.328M6.13054 267.764C5.77404 272.167 5.94109 276.829 8.16125 280.648C12.249 287.679 21.4768 289.371 29.5516 290.34C181.245 308.548 333.174 326.775 485.881 331.6C505.54 332.222 526.031 332.455 543.82 324.065C563.112 314.967 576.549 296.975 587.887 278.908C612.277 240.042 630.705 197.714 646.471 154.623C648.848 148.126 653.772 140.159 660.412 142.103C640.907 190.821 621.236 239.867 593.006 284.105C580.684 303.413 565.812 322.499 544.784 331.578C527.544 339.021 508.107 338.892 489.335 338.423C330.361 334.456 172.223 315.046 14.3854 295.659C17.9848 309.396 30.089 319.598 43.3294 324.731C56.5698 329.864 71.0095 330.755 85.175 331.753C233.476 342.207 380.813 370.604 529.451 367.568C545.114 367.248 561.273 366.459 575.41 359.71C586.619 354.358 595.806 345.597 604.35 336.582C636.405 302.763 662.338 263.257 681.407 220.74C689.393 202.935 696.276 184.186 696.922 164.683C697.568 145.179 691.153 124.642 676.289 111.997C677.991 119.73 672.238 128.289 664.436 129.633C671.43 122.217 669.288 109.458 662.458 101.89C655.628 94.3226 645.52 90.7439 635.765 87.7834C579.536 70.7181 520.608 64.7925 462.066 59.7121C386.264 53.1339 310.358 47.827 234.457 42.5205C219.357 41.4648 203.721 40.48 189.52 45.7194C176.779 50.4199 166.35 59.7174 156.386 68.9432C108.128 113.622 62.5732 161.868 26.9875 217.172C17.0132 232.673 7.6182 249.391 6.13054 267.764M98.3743 424.227C99.8901 427.162 102.892 428.992 105.824 430.515C120.342 438.058 136.537 441.704 152.628 444.662C217.041 456.502 282.806 458.466 348.269 460.4C363.97 460.864 379.983 461.289 395.044 456.83C414.043 451.206 430.106 438.145 442.932 423.043C455.759 407.941 465.767 390.704 476.44 374.01C370.444 370.424 264.673 360.201 159.953 343.42C154.888 342.609 150.451 346.631 146.963 350.393C130.558 368.084 115.602 387.12 102.296 407.246C98.9276 412.341 95.5721 418.8 98.3743 424.227M483.868 8.46959C462.997 14.1018 451.872 36.2641 435.411 50.2769C503.611 53.173 571.5 63.3401 637.556 80.5502C640.067 81.2045 642.165 78.6667 643.522 76.4545C649.265 67.0901 655.008 57.7257 660.752 48.3613C661.469 47.1917 662.209 45.9457 662.222 44.5737C662.252 41.33 658.529 39.5625 655.426 38.617C607.997 24.1659 559.282 13.9391 510.046 8.09711C501.324 7.06221 492.348 6.1812 483.868 8.46959M153.19 452.298C135.037 449.081 116.641 445.009 100.8 435.579C99.8293 437.309 100.421 439.479 101.212 441.297C108.311 457.617 127.616 464.235 144.96 468.224C216.066 484.579 289.586 486.524 362.524 488.399C377.929 488.796 393.653 489.15 408.386 484.633C437.221 475.791 457.26 450.111 473.934 424.978C484.672 408.794 494.837 392.23 504.406 375.329C497.425 371.684 488.524 374.345 482.558 379.486C476.593 384.627 472.843 391.796 468.919 398.624C450.306 431.016 421.571 461.157 384.581 466.392C376.43 467.546 368.159 467.442 359.927 467.322C290.762 466.318 221.301 464.367 153.19 452.298M669.017 50.5779C662.113 60.082 655.704 69.9462 649.826 80.117C649.462 80.7463 649.092 81.3998 649.011 82.1221C648.762 84.3323 651.127 85.8362 653.147 86.7681C657.325 88.696 662.938 90.3632 665.962 86.8955C670.422 81.7811 674.116 75.7442 675.167 69.04C676.219 62.3358 674.243 54.9069 669.017 50.5779Z" fill="#000000" fill-rule="nonzero" opacity="1" stroke="none"/>
<path d="M295.367 227.007C299.397 230.575 301.123 236.143 301.436 241.517C302.444 258.813 288.894 275.753 271.798 278.567C266.963 279.363 261.824 279.107 257.423 276.954C249.312 272.985 245.297 263.094 246.228 254.112C247.158 245.131 252.187 237.044 258.217 230.323C260.186 228.129 262.336 225.997 265.014 224.766C267.441 223.651 270.15 223.344 272.807 223.062C280.635 222.231 289.473 221.789 295.367 227.007M294.666 242.888C294.254 236.053 288.132 230.365 281.364 229.326C274.596 228.288 267.626 231.309 262.776 236.142C257.926 240.976 254.976 247.426 253.127 254.019C251.356 260.328 255.389 267.383 261.365 270.069C267.342 272.756 274.596 271.526 280.104 267.975C285.611 264.424 289.54 258.83 292.27 252.874C293.711 249.73 294.874 246.34 294.666 242.888Z" fill="#000000" fill-rule="nonzero" opacity="1" stroke="none"/>
<path d="M410.442 90.6336C415.084 94.8252 416.625 101.74 415.391 107.872C414.158 114.003 410.5 119.413 406.146 123.903C400.253 129.98 392.944 134.675 384.966 137.506C376.677 140.448 366.008 140.728 360.563 133.82C355.253 127.082 357.702 117.125 361.803 109.589C365.894 102.071 371.389 95.3188 377.92 89.7858C379.669 88.3035 381.54 86.882 383.72 86.1693C385.757 85.5032 387.943 85.4954 390.086 85.4986C397.253 85.5092 405.123 85.8304 410.442 90.6336M400.166 93.2525C392.63 90.9771 384.23 93.8949 378.333 99.1083C372.435 104.322 368.677 111.527 365.753 118.835C364.931 120.891 364.15 123.082 364.48 125.271C364.975 128.553 367.966 131.049 371.194 131.824C374.421 132.599 377.822 131.951 380.989 130.959C389.642 128.249 397.457 122.922 403.141 115.857C407.553 110.373 410.501 101.939 405.849 96.6557C404.371 94.9767 402.307 93.8991 400.166 93.2525Z" fill="#000000" fill-rule="nonzero" opacity="1" stroke="none"/>
<path d="M487.598 107.398C493.371 111.022 496.08 118.397 495.373 125.176C494.666 131.956 491.012 138.137 486.426 143.18C480.978 149.171 474.107 153.859 466.541 156.746C460.819 158.93 454.008 159.975 448.836 156.691C441.583 152.086 441.209 141.577 443.364 133.26C446.007 123.058 451.227 113.534 458.404 105.817C460.085 104.01 462.026 102.218 464.457 101.792C466.048 101.514 467.675 101.856 469.253 102.198C472.072 102.807 474.89 103.416 477.709 104.025C481.131 104.765 484.633 105.536 487.598 107.398M482.345 136.529C487.14 130.794 490.387 122.019 485.8 116.116C482.849 112.32 477.675 111.137 472.893 110.636C468.405 110.166 463.177 110.374 460.348 113.89C454.614 121.018 450.839 129.706 449.542 138.761C448.972 142.745 449.164 147.461 452.361 149.907C455.381 152.216 459.709 151.424 463.266 150.081C470.645 147.296 477.285 142.579 482.345 136.529Z" fill="#000000" fill-rule="nonzero" opacity="1" stroke="none"/>
<path d="M571.386 111.495C578.772 114.056 583.54 121.915 583.803 129.729C584.065 137.542 580.412 145.11 575.19 150.928C568.571 158.301 558.848 163.367 548.972 162.562C539.097 161.757 529.655 154.1 528.555 144.253C527.873 138.155 530.313 131.999 534.167 127.226C538.022 122.452 543.19 118.911 548.545 115.918C555.526 112.015 563.829 108.875 571.386 111.495M576.318 127.066C575.505 123.344 573.093 119.86 569.593 118.355C565.336 116.525 560.386 117.842 556.188 119.804C551.203 122.134 546.634 125.353 542.763 129.265C538.723 133.348 535.284 138.838 536.22 144.505C537.271 150.874 543.882 155.298 550.335 155.412C556.789 155.526 562.868 152.16 567.643 147.818C573.456 142.531 577.997 134.742 576.318 127.066Z" fill="#000000" fill-rule="nonzero" opacity="1" stroke="none"/>
<path d="M364.123 235.963C366.562 234.775 369.418 234.932 372.117 235.205C377.684 235.767 383.303 236.742 388.323 239.211C393.344 241.68 397.749 245.82 399.507 251.131C402.792 261.057 395.986 271.792 387.342 277.673C381.05 281.954 373.404 284.639 365.842 283.788C358.279 282.936 350.965 278.084 348.433 270.907C346.531 265.516 347.441 259.441 349.768 254.219C352.095 248.996 355.734 244.481 359.436 240.124C360.799 238.52 362.231 236.886 364.123 235.963M392.94 257.799C393.172 251.134 386.869 245.951 380.497 243.984C375.607 242.474 370.023 242.26 365.615 244.858C362.854 246.485 360.789 249.066 359.025 251.741C355.48 257.122 352.894 264.145 355.823 269.886C358.285 274.713 364.155 277.105 369.56 276.715C374.965 276.326 379.944 273.626 384.321 270.43C388.586 267.315 392.757 263.078 392.94 257.799Z" fill="#000000" fill-rule="nonzero" opacity="1" stroke="none"/>
<path d="M490.188 212.472C487.031 205.405 490.792 196.962 496.352 191.577C501.911 186.192 509.072 182.786 515.122 177.957C521.721 172.69 532.509 175.181 537.329 182.113C542.15 189.045 541.403 198.885 536.856 206C532.31 213.115 524.575 217.727 516.476 220.113C511.689 221.524 506.576 222.239 501.702 221.169C496.829 220.099 492.224 217.028 490.188 212.472M502.275 201.6C499.126 200.832 496.099 204.358 496.598 207.561C497.096 210.764 500.139 213.104 503.317 213.745C506.494 214.386 509.779 213.666 512.902 212.797C517.95 211.393 522.999 209.53 527.029 206.18C531.058 202.83 533.947 197.753 533.549 192.529C533.152 187.304 528.805 182.329 523.565 182.272C521.362 182.248 519.22 183.035 517.281 184.082C511.921 186.977 507.746 191.998 505.879 197.798C505.286 199.641 504.157 202.058 502.275 201.6Z" fill="#000000" fill-rule="nonzero" opacity="1" stroke="none"/>
<path d="M145.99 238.604C147.698 240.724 151.681 240.103 152.663 237.564C153.645 235.025 151.115 231.886 148.426 232.305C145.736 232.725 144.282 236.485 145.99 238.604Z" fill="#000000" fill-rule="nonzero" opacity="1" stroke="none"/>
<path d="M242.833 106.862C240.679 105.472 237.302 107.206 237.176 109.766C237.05 112.326 240.24 114.384 242.52 113.213C244.8 112.042 244.987 108.251 242.833 106.862Z" fill="#000000" fill-rule="nonzero" opacity="1" stroke="none"/>
<path d="M474.911 279.389C471.533 280.421 467.933 280.72 464.432 280.257C460.935 279.795 457.476 278.536 454.807 276.23C449.375 271.537 448.213 263.257 450.266 256.379C452.319 249.501 457.014 243.751 461.876 238.471C464.795 235.301 467.964 232.127 472.017 230.667C479.255 228.059 487.811 231.973 491.841 238.526C495.872 245.079 495.87 253.546 493.299 260.797C490.278 269.318 483.557 276.745 474.911 279.389M484.103 240.289C481.969 237.065 477.291 236.329 473.687 237.731C470.084 239.133 467.385 242.178 465.148 245.331C462.234 249.439 459.846 253.92 458.062 258.63C457.108 261.146 456.321 263.902 457.031 266.498C458.414 271.556 464.792 273.533 469.966 272.683C476.865 271.548 483.048 266.738 485.845 260.331C488.641 253.923 487.963 246.119 484.103 240.289Z" fill="#000000" fill-rule="nonzero" opacity="1" stroke="none"/>
<path d="M204.545 150.114C205.374 148.915 206.609 148.003 207.999 147.564C209.634 148.387 210.559 150.415 210.108 152.19C209.658 153.965 207.877 155.306 206.047 155.249C203.891 154.714 202.903 151.631 204.346 149.943L204.545 150.114Z" fill="#000000" fill-rule="nonzero" opacity="1" stroke="none"/>
<path d="M175.368 194.222C177.028 195.985 180.519 195.162 181.216 192.842C181.913 190.523 179.455 187.912 177.098 188.468C174.741 189.024 173.708 192.458 175.368 194.222Z" fill="#000000" fill-rule="nonzero" opacity="1" stroke="none"/>
</g>
</svg>
