<?xml version="1.0" encoding="UTF-8" standalone="no"?>
<!DOCTYPE svg PUBLIC "-//W3C//DTD SVG 1.1//EN" "http://www.w3.org/Graphics/SVG/1.1/DTD/svg11.dtd">
<!-- Created with Vectornator (http://vectornator.io/) -->
<svg height="100%" stroke-miterlimit="10" style="fill-rule:nonzero;clip-rule:evenodd;stroke-linecap:round;stroke-linejoin:round;" version="1.1" viewBox="0 0 905.37 480.288" width="100%" xmlSpace="preserve" xmlns="http://www.w3.org/2000/svg" xmlnsVectornator="http://vectornator.io" xmlnsXlink="http://www.w3.org/1999/xlink">
<defs/>
<clipPath id="ArtboardFrame">
<rect height="480.288" width="905.37" x="0" y="0"/>
</clipPath>
<g clip-path="url(#ArtboardFrame)" id="Untitled" vectornatorLayerName="Untitled">
<path d="M0 229.047C0.539196 219.892 6.2295 214.001 12.357 208.883C22.1392 200.712 32.3412 193.019 42.6349 185.492C59.3493 173.271 76.0189 160.957 93.187 149.394C115.257 134.53 137.717 120.238 160.166 105.947C179.122 93.8802 198.173 81.9511 217.423 70.3623C234.049 60.3532 250.987 50.8593 267.839 41.2285C286.293 30.6824 304.602 19.8547 323.375 9.90632C333.702 4.43343 344.302-1.32718 356.876 0.271069C366.857 1.53964 376.721 3.00482 386.228 6.66897C399.601 11.8226 413.253 16.2506 426.638 21.3728C434.251 24.2859 441.612 27.875 449.015 31.3135C471.379 41.7009 493.726 52.1246 516.044 62.6101C531.95 70.0834 547.689 77.9227 563.701 85.1597C584.328 94.4824 605.171 103.325 625.886 112.454C639.98 118.665 653.894 125.301 668.11 131.216C682.609 137.248 697.268 142.941 712.052 148.235C747.328 160.865 782.652 173.366 818.087 185.541C841.159 193.469 864.453 200.756 887.662 208.287C897.681 211.538 904.841 221.617 905.33 232.106C905.988 246.237 898.318 256.985 891.119 267.722C882.305 280.868 872.615 293.43 863.225 306.186C860.939 309.293 858.488 312.305 855.866 315.132C845.795 325.991 835.705 336.835 825.467 347.537C814.014 359.51 802.323 371.255 790.864 383.222C779.814 394.76 768.996 406.522 757.94 418.055C751.388 424.89 744.725 431.634 737.845 438.137C723.546 451.652 709.587 465.636 692.372 475.587C687.478 478.416 682.443 482.151 676.284 479.22C673.755 478.016 671.843 475.451 669.284 474.382C655.078 468.447 640.875 462.471 626.448 457.108C610.26 451.092 593.912 445.476 577.494 440.114C552.669 432.007 527.857 423.81 502.784 416.532C484.992 411.368 466.723 407.869 448.771 403.225C436.029 399.929 423.475 395.909 410.809 392.31C391.868 386.927 372.914 381.585 353.942 376.311C339.288 372.238 324.59 368.319 309.923 364.291C293.018 359.649 276.118 354.988 259.227 350.291C232.928 342.979 206.599 335.773 180.363 328.24C165.952 324.102 151.644 319.578 137.4 314.892C111.015 306.214 85.2267 296.14 60.4155 283.461C45.5257 275.852 30.4634 268.548 17.6123 257.855C8.78027 250.506 0.334087 242.157 0 229.047M212.75 309.297C219.579 311.297 226.389 313.362 233.24 315.285C253.545 320.985 273.89 326.55 294.174 332.324C308.916 336.52 323.562 341.046 338.294 345.277C359.449 351.354 380.713 357.06 401.797 363.37C419.552 368.683 437.04 374.888 454.787 380.23C475.706 386.527 496.897 391.94 517.741 398.465C531.396 402.74 544.673 408.234 558.069 413.315C577.221 420.578 596.393 427.794 615.426 435.36C627.153 440.021 638.797 444.961 650.186 450.39C661.897 455.974 673.227 462.351 684.8 468.233C685.905 468.794 687.902 468.846 688.878 468.207C694.419 464.578 700.214 461.156 705.107 456.757C717.231 445.857 729.128 434.682 740.719 423.216C754.272 409.809 767.519 396.086 780.689 382.301C796.954 365.275 813.09 348.124 829.105 330.863C835.947 323.49 842.813 316.057 848.835 308.026C858.77 294.776 868.536 281.342 877.417 267.377C885.03 255.407 893.87 243.824 895.348 228.816C895.867 223.544 892.636 216.753 887.77 215.332C877.954 212.466 868.039 209.918 858.309 206.788C836.855 199.886 815.456 192.806 794.1 185.602C778.468 180.329 762.878 174.915 747.381 169.256C724.664 160.96 701.807 152.971 679.447 143.786C651.395 132.264 623.746 119.754 595.998 107.499C578.245 99.6579 560.597 91.5755 542.958 83.4798C521.813 73.7748 500.705 63.9871 479.622 54.1464C464.398 47.0402 449.516 39.1186 433.988 32.7685C413.607 24.4344 392.895 16.8318 372.027 9.79935C359.212 5.48058 346.266 6.09809 333.916 13.0145C320.699 20.4157 307.016 26.981 293.784 34.3568C275.616 44.485 257.49 54.7162 239.693 65.4758C214.327 80.8105 189.156 96.4768 164.124 112.351C139.93 127.693 115.847 143.224 92.0379 159.155C75.6378 170.128 59.6447 181.73 43.7451 193.425C33.6892 200.822 24.0753 208.828 14.3952 216.722C10.4919 219.906 9.66816 224.449 12.8697 228.158C16.763 232.669 21.1486 237.253 26.2672 240.111C39.8718 247.707 53.7669 254.873 67.9545 261.311C83.0845 268.177 98.4816 274.575 114.13 280.144C131.01 286.152 148.245 291.211 165.459 296.224C180.962 300.738 196.646 304.63 212.75 309.297M17.25 247.797C19.3693 249.916 21.2206 252.427 23.6512 254.092C40.1992 265.428 57.9374 274.568 76.1938 282.863C99.1003 293.271 122.411 302.546 146.448 309.954C161.387 314.558 176.392 318.955 191.415 323.276C217.18 330.686 242.977 337.986 268.772 345.29C288.909 350.992 309.01 356.827 329.222 362.246C353.694 368.808 378.442 374.391 402.75 381.498C431.646 389.946 460.417 398.672 489.757 405.615C510.639 410.557 531.073 417.515 551.513 424.168C578.355 432.905 605.006 442.232 631.751 451.27C632.514 451.528 633.414 451.384 634.25 451.428C633.501 450.718 632.876 449.694 631.985 449.343C615.508 442.862 599.125 436.109 582.469 430.119C551.104 418.839 520.167 406.449 487.772 397.969C461.504 391.092 435.915 381.643 409.958 373.553C389.871 367.293 369.744 361.147 349.52 355.353C323.876 348.006 298.075 341.205 272.416 333.909C250.08 327.559 228.032 320.106 205.522 314.478C174.815 306.8 144.14 299.064 114.413 288.174C94.3308 280.818 74.3714 272.964 54.9235 264.091C38.6129 256.65 22.2461 248.74 10.0817 234.7C9.67644 234.232 8.70622 234.254 7.99932 234.048C7.97097 234.852 7.59177 235.927 7.97015 236.418C10.8128 240.109 13.8047 243.685 17.25 247.797Z" fill="#c0a483b3" fill-rule="nonzero" opacity="1" stroke="none"/>
<path d="M687 299.047C689.738 297.964 692.227 297.134 694.714 296.296C698.31 295.084 700.185 293.35 700.481 288.799C701.107 279.205 702.131 276.519 711.895 277.333C717.51 277.802 721.918 277.054 725.772 271.835C727.607 269.35 732.894 269.468 736.574 268.274C739.356 267.37 742.056 266.218 744.815 265.242C750.486 263.237 756.16 261.24 761.86 259.321C763.333 258.825 765.012 258.128 766.412 258.416C768.446 258.835 770.312 260.064 772.25 260.948C770.85 262.397 769.697 264.38 767.991 265.171C765.495 266.328 762.55 266.47 759.892 267.337C756.529 268.436 752.808 269.21 750.051 271.229C745.026 274.909 739.161 274.868 733.64 276.409C731.961 276.878 730.182 278.4 729.275 279.93C727.458 282.996 725.206 284.67 721.595 284.304C721.1 284.254 720.596 284.297 720.096 284.297C709.374 284.297 709.271 284.277 707.295 294.509C706.358 299.362 702.78 301.167 698.804 302.211C694.424 303.36 691.643 304.916 691.978 310.287C692.075 311.852 689.097 313.927 687.149 315.175C686.086 315.857 684.226 315.335 682.728 315.29C678.624 315.165 674.636 314.506 673.943 320.749C673.751 322.477 669.876 323.856 667.617 325.279C665.385 326.686 662.974 327.82 660.797 329.303C658.04 331.18 655.266 333.1 652.823 335.352C650.578 337.423 648.781 339.976 646.75 342.286C644.969 344.312 643.144 346.3 641.328 348.295C639.748 350.031 637.123 351.557 636.748 353.518C635.339 360.873 629.921 362.77 623.894 364.319C620.407 365.215 617.641 366.743 618.159 371.218C618.304 372.463 617.349 373.834 616.899 375.148C615.741 374.422 614.357 373.905 613.463 372.936C609.355 368.482 611.062 362.66 617.405 359.315C618.898 358.527 620.52 357.376 622.064 357.405C627.091 357.499 628.657 354.243 630.368 350.398C631.502 347.849 633.646 345.698 635.55 343.556C637.631 341.215 639.956 339.091 642.175 336.872C644.845 334.202 647.515 331.532 650.185 328.862C651.578 327.469 652.852 325.921 654.392 324.714C657.253 322.47 660.024 319.83 663.297 318.481C666.015 317.361 667.191 316.248 667.318 313.365C667.454 310.246 671.82 306.961 674.799 307.346C683.092 308.419 683.073 308.413 685.374 300.725C685.542 300.162 686.278 299.769 687 299.047Z" fill="#c0a483b3" fill-rule="nonzero" opacity="1" stroke="none"/>
<path d="M493.25 276.297C497.252 282.465 501.523 287.966 505.166 293.856C507.924 298.314 505.759 302.079 500.748 301.085C494.461 299.838 488.358 297.338 482.409 294.826C477.446 292.73 472.851 289.775 468.016 287.354C467.15 286.921 465.908 287.237 464.84 287.207C465.153 288.246 465.257 289.419 465.82 290.299C467.183 292.427 468.854 294.357 470.227 296.479C472.082 299.349 473.526 302.356 471.309 305.735C468.632 309.817 464.325 308.672 460.914 308.113C455.146 307.169 449.56 305.092 443.912 303.444C441.614 302.774 441.26 303.719 441.189 305.858C440.91 314.234 440.814 314.178 432.163 315.367C431.125 315.51 429.952 316.414 429.296 317.302C426.35 321.285 424.99 321.418 422.01 317.495C421.19 316.416 420.75 315.032 420.22 313.753C418.916 310.612 420.072 308.716 423.353 308.343C425.49 308.1 427.676 308.305 429.841 308.295C432.553 308.282 434.958 308.95 433.455 304.185C431.5 297.986 435.42 294.734 441.913 296.31C448.106 297.814 454.26 299.477 460.461 300.944C461.392 301.164 462.487 300.692 463.507 300.54C463.296 299.501 463.365 298.279 462.826 297.454C460.588 294.024 457.687 290.938 455.983 287.281C454.864 284.878 454.189 280.193 455.421 279.234C457.486 277.626 461.753 276.974 464.175 278.029C473.212 281.964 481.852 286.805 490.706 291.173C491.985 291.804 493.62 291.713 495.09 291.956C494.491 290.584 494.158 288.994 493.246 287.876C489.255 282.982 484.651 278.484 484.24 271.606C484.018 267.9 485.614 265.876 489.391 266.345C492.972 266.789 496.521 267.551 500.051 268.322C502.839 268.931 503.25 268.699 502.709 266.256C501.087 258.923 502.426 256.059 509.422 253.823C511.14 253.273 513.451 254.582 515.49 255.037C514.82 256.547 514.561 258.648 513.401 259.458C509.917 261.89 510.2 265.242 510.232 268.72C510.29 274.948 506.529 277.583 500.409 276.043C498.127 275.469 495.714 272.938 493.25 276.297Z" fill="#c0a483b3" fill-rule="nonzero" opacity="1" stroke="none"/>
<path d="M448.25 191.297C444.725 191.63 441.694 192.281 438.675 192.23C432.698 192.127 432.881 196.546 432.267 200.413C431.693 204.024 431.78 207.83 430.654 211.246C428.465 217.886 421.172 221.1 413.777 219.302C409.537 218.272 405.316 217.11 401.024 216.365C398.329 215.897 396.285 216.859 397.687 220.202C399.234 223.89 400.965 227.501 402.602 231.152C404.263 234.855 406.021 239.483 402.496 242.007C400.096 243.726 395.55 242.498 391.964 242.476C391.061 242.471 390.148 242.081 389.261 241.799C384.584 240.315 383.31 241.187 383.25 245.945C383.152 253.757 380.89 256.251 372.899 257.292C368.501 257.866 366.582 261.096 366.366 264.779C365.817 274.157 364.079 274.054 356.038 276.163C353.673 276.784 352.374 276.994 352.017 279.807C351.852 281.109 349.567 282.142 348.243 283.297C347.245 281.808 345.69 280.435 345.354 278.81C344.313 273.782 347.13 269.266 352.322 269.558C358.473 269.905 359.659 266.329 360.151 262.162C361.342 252.084 364.409 252.081 371.701 250.481C374.849 249.791 375.081 248.603 375.353 246.026C375.694 242.803 376.039 239.165 377.732 236.595C380.577 232.277 384.967 232.282 391.912 235.262C393.143 235.79 394.573 235.856 395.911 236.136C395.667 234.665 395.654 233.106 395.131 231.743C393.974 228.731 392.759 225.707 391.203 222.89C388.941 218.797 388.794 214.034 392.022 211.561C394.79 209.441 399.581 209.382 403.462 209.44C408.356 209.513 413.239 210.597 418.118 211.307C422.278 211.913 423.88 209.864 424.3 205.979C424.74 201.901 425.207 197.761 426.317 193.833C428.297 186.829 431.681 184.647 438.516 184.233C444.419 183.875 450.277 182.756 456.179 182.433C457.795 182.344 459.501 183.907 461.165 184.712C460.398 186.202 459.963 188.577 458.8 189.013C455.614 190.21 452.121 190.592 448.25 191.297Z" fill="#c0a483b3" fill-rule="nonzero" opacity="1" stroke="none"/>
<path d="M301.25 223.297C297.003 222.297 293.278 221.203 289.501 220.332C287.208 219.803 285.741 220.462 286.219 223.328C286.693 226.163 287.131 229.033 287.205 231.898C287.35 237.519 284.538 240.412 279.034 240.255C274.672 240.13 270.301 239.788 265.97 239.254C261.296 238.679 261.749 241.284 262.675 244.19C263.422 246.533 264.793 248.745 265.154 251.126C265.694 254.684 262.833 254.948 260.659 254.071C255.196 251.869 252.586 236.676 257.566 233.941C260.965 232.075 265.905 232.991 270.16 232.737C270.73 232.703 271.313 233.206 271.912 233.281C280.217 234.325 281 233.299 278.902 225.349C278.211 222.731 277.968 219.8 278.358 217.134C278.976 212.915 283.742 210.977 289.455 212.319C293.684 213.312 297.851 214.567 302.077 215.574C303.15 215.829 304.769 216.022 305.358 215.446C305.949 214.868 305.794 213.248 305.569 212.167C304.901 208.973 303.86 205.851 303.283 202.644C301.573 193.136 307.493 188.446 317.09 190.39C322.661 191.519 328.647 190.626 334.446 190.587C336.568 190.573 338.787 189.968 340.784 190.42C342.725 190.859 344.437 192.308 346.25 193.314C344.564 194.641 342.936 197.02 341.182 197.115C333.492 197.536 325.736 197.71 318.061 197.168C311.759 196.723 309.638 199.405 311.72 206.324C312.486 208.867 313.101 211.549 313.182 214.186C313.388 220.851 310.84 223.297 304.247 223.297C303.415 223.297 302.582 223.297 301.25 223.297Z" fill="#c0a483b3" fill-rule="nonzero" opacity="1" stroke="none"/>
<path d="M217 197.547C213.445 195.63 210.036 194.137 206.865 192.245C204.006 190.539 202.446 190.824 200.919 194.026C196.701 202.877 188.089 201.656 182.911 196.267C181.897 195.212 182.14 192.95 181.803 191.244C183.391 191.2 184.998 190.992 186.558 191.179C187.406 191.28 188.128 192.312 188.988 192.467C190.42 192.724 192.24 193.133 193.282 192.487C194.048 192.011 194.094 189.935 193.995 188.606C193.834 186.433 193.294 184.289 192.914 182.133C195.834 182.162 199.189 181.263 201.596 182.389C209.982 186.313 218.304 190.516 226.159 195.403C236.224 201.666 236.786 214.122 230.488 222.572C227.672 226.351 223.688 226.846 219.561 226.165C218.324 225.961 216.365 224.061 216.478 223.156C216.651 221.771 218.094 219.857 219.417 219.413C228.178 216.467 230.05 209.549 223.523 203.117C221.576 201.198 219.349 199.562 217 197.547Z" fill="#c0a483b3" fill-rule="nonzero" opacity="1" stroke="none"/>
<path d="M176 199.547C180.673 201.553 185.137 203.216 189.49 205.131C190.584 205.612 191.322 206.904 192.224 207.823C190.904 208.648 189.476 210.302 188.284 210.147C184.133 209.606 180.055 208.471 175.968 207.486C174.935 207.237 174.001 206.552 172.966 206.339C171.947 206.13 170.856 206.266 169.797 206.25C169.948 207.199 170.057 208.158 170.26 209.096C170.555 210.462 171.052 211.796 171.225 213.173C171.768 217.489 170.043 219.628 165.443 219.355C163.063 219.214 160.649 219.679 158.25 219.87C159.557 222.153 161.036 224.359 162.11 226.746C162.799 228.277 162.891 230.076 163.25 231.755C161.838 231.935 159.626 232.776 159.143 232.19C155.971 228.342 151.943 224.562 150.561 220.037C148.83 214.373 154.168 210.922 160.871 212.386C161.749 212.578 162.705 212.419 163.625 212.422C163.455 211.502 163.376 210.553 163.096 209.668C162.539 207.911 161.701 206.23 161.282 204.446C160.067 199.265 165.475 195.591 170.371 197.849C172.033 198.615 173.95 198.83 176 199.547Z" fill="#c0a483b3" fill-rule="nonzero" opacity="1" stroke="none"/>
<path d="M216 149.547C217.17 150.384 218.373 150.775 218.946 151.602C219.86 152.923 220.354 154.533 221.025 156.021C219.373 156.447 217.659 157.389 216.082 157.197C211.827 156.681 210.855 157.736 212.25 162.085C214.978 170.593 220.634 175.054 228.032 175.397C232.316 175.596 233.951 173.473 235.356 170.034C235.942 168.601 237.703 167.648 238.93 166.477C240.036 167.983 241.912 169.397 242.107 171.014C242.72 176.075 239.035 180.681 233.777 182.27C226.788 184.382 214.44 180.154 210.422 173.844C208.293 170.501 206.455 166.802 205.349 163.012C202.72 154.009 206.481 149.297 216 149.547Z" fill="#c0a483b3" fill-rule="nonzero" opacity="1" stroke="none"/>
<path d="M273 135.547C274.052 136.265 274.92 136.65 275.642 137.219C277.217 138.462 278.718 139.799 280.25 141.097C278.714 141.867 277.147 142.583 275.651 143.423C274.564 144.035 272.847 144.654 272.652 145.541C271.606 150.315 268.232 152.711 264.272 151.012C261.039 149.626 258.837 145.768 256.285 142.911C255.711 142.268 255.157 141.137 255.316 140.383C256.936 132.708 250.559 131.253 246.095 128.289C244.523 127.246 242.815 126.299 241.54 124.956C240.647 124.015 240.385 122.477 239.841 121.206C241.659 120.752 243.899 119.394 245.219 120.009C249.55 122.027 253.499 124.849 257.687 127.198C262.658 129.987 267.725 132.605 273 135.547M265.25 139.797C264.267 140.481 263.284 141.164 262.301 141.848C263.105 142.985 263.909 144.123 264.713 145.26C265.059 143.605 265.404 141.951 265.25 139.797Z" fill="#c0a483b3" fill-rule="nonzero" opacity="1" stroke="none"/>
<path d="M295.5 119.547C296.996 117.63 298.101 115.808 299.616 114.44C299.889 114.194 302.392 115.564 302.893 116.64C303.53 118.009 303.545 119.924 303.19 121.457C300.955 131.106 289.638 137.33 280.1 134.298C279.952 134.251 279.758 134.274 279.651 134.186C275.072 130.376 277.567 125.2 277.57 120.727C277.571 119.249 281.158 116.868 283.378 116.487C287.849 115.72 288.547 119.498 289.304 122.9C289.645 124.432 290.568 125.835 291.228 127.297C292.235 125.988 293.395 124.766 294.199 123.342C294.791 122.297 294.917 120.988 295.5 119.547Z" fill="#c0a483b3" fill-rule="nonzero" opacity="1" stroke="none"/>
<path d="M501 163.047C502.976 161.737 504.598 160.15 506.461 159.782C508.009 159.475 509.841 160.602 511.547 161.094C511.074 162.369 510.955 164.039 510.059 164.844C507.588 167.064 504.577 168.698 502.177 170.982C499.258 173.761 496.512 176.796 494.135 180.045C492.364 182.467 491.115 184.735 487.425 184.41C484.703 184.171 482.852 185.743 483.413 188.996C483.566 189.883 483.616 191.473 483.238 191.636C482.151 192.104 480.012 192.515 479.718 192.049C478.002 189.32 475.651 186.378 475.527 183.424C475.388 180.103 478.44 178.113 482.154 178.297C485.324 178.454 487.003 176.708 489.009 174.313C492.43 170.228 496.786 166.927 501 163.047Z" fill="#c0a483b3" fill-rule="nonzero" opacity="1" stroke="none"/>
<path d="M684 218.047C678.763 222.617 673.764 226.924 668.798 231.269C667.699 232.231 666.561 233.215 665.71 234.385C662.475 238.834 659.469 243.455 656.082 247.78C655.438 248.602 652.409 248.867 652.254 248.542C651.472 246.905 650.384 244.497 651.059 243.269C652.569 240.525 655.898 238.643 656.978 235.83C659.311 229.755 663.927 226.065 668.71 222.352C671.335 220.313 674.176 218.527 676.648 216.323C680.318 213.051 681.483 213.176 684 218.047Z" fill="#c0a483b3" fill-rule="nonzero" opacity="1" stroke="none"/>
<path d="M247 164.547C242.45 163.1 238.707 160.769 237.257 156.569C236.369 153.998 236.438 150.487 237.55 148.077C238.16 146.755 241.8 146.614 244.12 146.347C248.47 145.846 251.729 147.894 254.6 151.065C257.379 154.135 258.2 157.197 256.285 161.032C254.301 165.003 251.151 165.679 247 164.547M250.25 157.797C249.765 156.646 249.55 155.204 248.715 154.431C247.99 153.76 246.564 153.847 245.448 153.599C245.765 154.716 245.779 156.116 246.484 156.87C247.23 157.667 248.634 157.847 250.25 157.797Z" fill="#c0a483b3" fill-rule="nonzero" opacity="1" stroke="none"/>
<path d="M621.25 267.297C620.364 274.106 615.663 276.402 610.446 278.366C608.593 279.064 605.702 280.445 605.591 281.716C605.173 286.474 601.444 287.776 598.342 289.441C597.081 290.118 594.795 288.886 592.976 288.523C593.312 287.036 593.313 285.35 594.054 284.104C595.581 281.54 597.142 278.789 599.355 276.893C602.024 274.606 605.206 272.634 608.498 271.439C611.607 270.311 613.448 268.961 614.432 265.64C614.947 263.904 617.315 261.577 618.904 261.531C622.433 261.429 620.897 264.779 621.25 267.297Z" fill="#c0a483b3" fill-rule="nonzero" opacity="1" stroke="none"/>
<path d="M743.5 378.047C747.227 380.621 747.417 381.916 743.959 383.201C739.324 384.923 734.438 385.973 729.653 387.287C728.896 387.495 727.741 387.297 727.385 387.759C722.656 393.908 715.94 392.214 709.732 392.183C708.568 392.178 706.637 390.839 706.462 389.863C706.276 388.831 707.76 387.495 708.532 386.303C708.603 386.194 708.804 386.11 708.943 386.112C721.057 386.336 730.573 376.387 742.895 377.457C743.022 377.468 743.132 377.679 743.5 378.047Z" fill="#c0a483b3" fill-rule="nonzero" opacity="1" stroke="none"/>
<path d="M537.25 318.297C539.061 313.085 543.544 313.169 547.386 312.354C551.146 311.557 555.005 311.447 555.41 306.146C555.487 305.144 557.641 304.3 558.837 303.384C559.818 305.678 561.752 308.046 561.582 310.252C561.223 314.905 557.458 317.306 553.269 318.203C548.732 319.173 543.689 318.966 544.105 325.804C544.111 325.91 541.145 326.633 540.909 326.247C539.473 323.896 538.427 321.307 537.25 318.297Z" fill="#c0a483b3" fill-rule="nonzero" opacity="1" stroke="none"/>
<path d="M360.5 171.547C358.998 172.545 357.746 173.293 356.494 174.041C355.746 172.689 354.22 171.166 354.47 170.034C354.717 168.916 356.757 168.193 358.011 167.297C358.924 168.63 359.837 169.964 360.5 171.547Z" fill="#c0a483b3" fill-rule="nonzero" opacity="1" stroke="none"/>
<path d="M347.25 165.297C345.917 164.172 345.083 163.047 344.25 161.922C345.833 161.38 347.405 160.502 349.004 160.449C349.725 160.425 350.5 162.047 351.25 162.922C350.083 163.714 348.917 164.505 347.25 165.297Z" fill="#c0a483b3" fill-rule="nonzero" opacity="1" stroke="none"/>
</g>
</svg>
