<?xml version="1.0" encoding="UTF-8" standalone="no"?>
<!DOCTYPE svg PUBLIC "-//W3C//DTD SVG 1.1//EN" "http://www.w3.org/Graphics/SVG/1.1/DTD/svg11.dtd">
<!-- Created with Vectornator (http://vectornator.io/) -->
<svg height="100%" stroke-miterlimit="10" style="fill-rule:nonzero;clip-rule:evenodd;stroke-linecap:round;stroke-linejoin:round;" version="1.1" viewBox="0 0 455.918 432.39" width="100%" xmlSpace="preserve" xmlns="http://www.w3.org/2000/svg" xmlnsVectornator="http://vectornator.io" xmlnsXlink="http://www.w3.org/1999/xlink">
<defs/>
<clipPath id="ArtboardFrame">
<rect height="432.39" width="455.918" x="0" y="0"/>
</clipPath>
<g clip-path="url(#ArtboardFrame)" id="Untitled" vectornatorLayerName="Untitled">
<path d="M181.562 428.393C180.616 426.879 180.227 425.074 180.121 423.291C179.744 416.926 182.731 410.9 185.639 405.225C188.648 399.352 191.657 393.48 194.666 387.608C195.854 385.29 197.819 382.579 200.358 383.162C202.18 383.58 203.198 385.676 203.064 387.541C202.93 389.406 201.945 391.086 201.01 392.704C196.038 401.304 191.747 410.297 188.191 419.571C187.418 421.587 187.11 424.584 189.17 425.229C190.287 425.579 191.453 424.912 192.389 424.21C201.635 417.279 204.941 405.171 210.821 395.224C211.882 393.429 213.17 391.583 215.128 390.866C217.086 390.15 219.785 391.23 219.943 393.309C220.014 394.25 219.572 395.145 219.142 395.985C217.001 400.167 214.86 404.349 212.719 408.531C209.498 414.823 206.207 421.214 201.306 426.308C198.654 429.064 195.42 431.462 191.665 432.192C187.909 432.922 183.589 431.637 181.562 428.393Z" fill="#332817b3" fill-rule="nonzero" opacity="1" stroke="none"/>
<path d="M387.357 348.456C366.844 349.995 348.437 336.331 333.82 321.857C319.203 307.383 305.32 290.792 286.013 283.693C284.237 283.04 282.261 282.476 280.489 283.141C278.561 283.866 277.434 285.826 276.464 287.644C270.126 299.525 263.788 311.407 257.45 323.288C256.019 325.972 254.754 329.713 257.075 331.679C266.105 339.323 275.135 346.968 284.164 354.612C289.034 358.735 294.038 363.026 296.855 368.751C301.853 378.903 298.586 391.797 290.951 400.148C283.315 408.5 272.115 412.837 260.927 414.535C257.507 415.054 253.829 415.313 250.761 413.714C247.694 412.116 245.706 408.011 247.503 405.055C260.06 409.162 275.224 407.195 284.313 397.607C293.401 388.019 293.572 370.41 282.922 362.593C269.176 352.504 256.395 341.101 244.81 328.591C236.333 319.438 227.974 307.58 231.107 295.505C233.085 287.882 239.424 282.031 246.467 278.508C270.932 266.266 301.112 278.965 321.046 297.703C331.25 307.296 339.992 318.437 350.85 327.284C361.707 336.13 375.519 342.678 389.393 340.757C401.151 339.129 411.354 331.636 419.334 322.847C440.391 299.657 448.659 267.115 448.503 235.792C448.245 184.211 425.484 132.172 384.682 100.615C382.962 99.2855 380.858 97.9192 378.77 98.5243C376.958 99.0494 375.888 100.865 374.998 102.529C358.636 133.121 342.274 163.714 325.912 194.307C323.506 198.806 321.477 205.258 325.605 208.258C335.844 215.699 343.621 226.47 347.463 238.53C350.721 248.757 349.759 262.411 340.075 267.04C334.81 269.556 328.553 268.514 323 266.721C307.161 261.609 293.285 250.641 284.652 236.411C277.076 223.922 275.074 204.828 287.446 197.062C292.261 194.04 295.02 188.698 297.555 183.61C314.134 150.337 330.713 117.064 347.293 83.7902C348.086 82.1982 348.902 80.4651 348.592 78.7136C348.167 76.309 345.831 74.7975 343.706 73.595C285.585 40.7106 220.506 17.335 153.727 17.4753C125.331 17.5349 96.505 21.9966 71.001 34.4822C45.497 46.9677 23.5279 68.0838 13.7268 94.7349C7.13368 112.663 6.22938 132.293 8.42417 151.269C13.5065 195.209 34.7581 236.141 62.9089 270.26C91.0597 304.379 125.944 332.284 161.758 358.245C160.765 362.322 154.615 360.993 151.101 358.701C112.803 333.727 78.7748 302.223 50.9297 265.96C28.5046 236.754 9.81979 203.783 2.80747 167.635C-4.20485 131.487 1.58355 91.7845 23.9674 62.5476C53.8247 23.5492 106.926 9.787 156.039 10.2491C225.686 10.9043 293.692 35.0415 353.484 70.7637C362.338 50.6268 371.191 30.4899 380.045 10.353C382.848 3.97878 390.055 0.445863 397.006 0.047513C403.958-0.350837 410.774 1.82278 417.371 4.05275C421.424 5.42288 425.684 6.97294 428.378 10.2967C433.392 16.4834 430.798 25.8081 426.633 32.5951C413.89 53.3591 388.843 66.4395 382.463 89.9517C426.902 120.393 453.139 173.794 455.71 227.598C457.354 262.001 449.379 297.992 427.439 324.542C417.252 336.87 403.304 347.26 387.357 348.456M370.097 50.5191C368.742 54.7064 367.577 59.1536 368.449 63.4674C369.32 67.7812 372.825 71.865 377.224 71.9747C382.586 72.1083 386.252 66.8819 389.497 62.6116C399.085 49.9941 413.373 41.1237 421.09 27.2821C423.237 23.431 424.746 18.4232 422.223 14.8072C420.232 11.9521 416.473 11.0674 413.056 10.3972C407.511 9.30913 401.965 8.2211 396.419 7.13307C392.583 6.38056 389.497 10.143 387.478 13.49C380.419 25.1913 374.304 37.5175 370.097 50.5191M365.569 73.4091C364.468 72.827 363.172 72.2331 362.028 72.7277C361.133 73.1149 360.631 74.0537 360.196 74.9264C349.465 96.46 338.734 117.994 328.003 139.527C326.819 141.904 325.606 144.402 325.671 147.056C325.758 150.662 328.515 154.034 332.031 154.836C335.548 155.639 339.494 153.797 341.138 150.587C353.237 126.952 365.768 103.538 378.723 80.3614C374.339 78.044 369.954 75.7265 365.569 73.4091M319.051 212.292C317.146 212.024 315.753 213.98 314.842 215.674C310.396 223.94 305.951 232.206 301.505 240.472C299.892 243.472 302.513 246.971 305.138 249.142C311.384 254.308 318.82 258.025 326.701 259.922C330.605 260.861 335.096 261.244 338.289 258.809C342.041 255.95 342.419 250.432 341.595 245.787C339.35 233.123 330.894 222.412 321.422 213.71C320.733 213.077 319.978 212.422 319.051 212.292M318.362 158.627C308.784 177.36 299.207 196.094 289.629 214.827C285.795 222.326 288.395 232.49 295.359 237.226C307.922 212.418 320.97 187.856 334.494 163.559C330.466 161.408 326.439 159.257 322.411 157.106C321.798 156.778 321.129 156.44 320.442 156.546C319.433 156.702 318.827 157.718 318.362 158.627M249.974 321.731C257.18 308.56 264.386 295.389 271.592 282.218C272.132 281.23 270.524 280.514 269.399 280.52C263.657 280.551 256.8 281.214 254.081 286.272C251.61 290.87 249.139 295.468 246.667 300.066C244.589 303.934 242.454 308.015 242.495 312.406C242.536 316.797 245.589 321.494 249.974 321.731M240.814 297.129C243.259 294.972 244.318 291.368 243.43 288.231C239.596 290.749 237.218 295.338 237.372 299.921C238.912 300.602 240.912 299.04 240.625 297.381L240.814 297.129Z" fill="#332817b3" fill-rule="nonzero" opacity="1" stroke="none"/>
</g>
</svg>
