<?xml version="1.0" encoding="UTF-8" standalone="no"?>
<!DOCTYPE svg PUBLIC "-//W3C//DTD SVG 1.1//EN" "http://www.w3.org/Graphics/SVG/1.1/DTD/svg11.dtd">
<!-- Created with Vectornator (http://vectornator.io/) -->
<svg height="100%" stroke-miterlimit="10" style="fill-rule:nonzero;clip-rule:evenodd;stroke-linecap:round;stroke-linejoin:round;" version="1.1" viewBox="0 0 894.984 663.774" width="100%" xmlSpace="preserve" xmlns="http://www.w3.org/2000/svg" xmlnsVectornator="http://vectornator.io" xmlnsXlink="http://www.w3.org/1999/xlink">
<defs/>
<clipPath id="ArtboardFrame">
<rect height="663.774" width="894.984" x="0" y="0"/>
</clipPath>
<g clip-path="url(#ArtboardFrame)" id="Untitled" vectornatorLayerName="Untitled">
<path d="M894.475 663.774C893.975 442.607 893.975 221.44 893.975 0.02366C894.309-0.059667 894.919 0.089589 894.931 0.27646C895.014 1.60454 894.975 2.94032 894.975 4.27365C894.975 224.107 894.975 443.94 894.475 663.774Z" fill="#000000" fill-rule="nonzero" opacity="1" stroke="none"/>
<path d="M490.225 451.024C482.551 458.698 475.183 466.178 467.691 473.533C454.321 486.658 440.882 499.712 427.461 512.784C415.234 524.694 402.986 536.583 390.759 548.493C377.338 561.566 363.922 574.644 350.522 587.738C347.205 590.979 343.779 594.134 340.732 597.617C337.954 600.791 334.97 600.332 332.181 598.389C321.547 590.98 311.124 583.268 300.506 575.836C277.523 559.75 254.506 543.711 231.431 527.756C209.164 512.36 186.762 497.16 164.501 481.757C135.99 462.031 107.568 442.176 79.0926 422.399C62.9205 411.167 46.6952 400.012 30.5386 388.758C24.4383 384.508 18.7541 379.57 12.3319 375.907C7.93441 373.398 3.32279 371.505 0.716108 366.919C0.124674 365.878-0.295135 363.86 0.259802 363.249C1.14286 362.278 3.11255 361.389 4.27434 361.713C18.4452 365.668 32.5347 369.913 46.6807 373.959C65.3127 379.288 83.9796 384.495 102.625 389.777C119.328 394.509 136.018 399.286 152.722 404.013C161.974 406.631 171.26 409.132 180.495 411.809C183.148 412.578 185.643 413.881 188.283 414.707C189.051 414.948 190.071 414.387 190.975 414.194C190.603 413.515 190.318 412.767 189.846 412.167C177.371 396.33 164.885 380.502 152.384 364.686C138.489 347.107 124.537 329.573 110.689 311.956C103.99 303.435 97.4612 294.781 90.8871 286.164C89.825 284.771 88.2712 283.436 90.5751 281.593C92.3614 280.164 93.4608 278.079 96.2578 280.445C102.614 285.821 109.26 290.854 115.757 296.065C126.021 304.295 136.299 312.508 146.494 320.821C154.491 327.342 162.309 334.082 170.319 340.584C182.021 350.083 193.868 359.403 205.57 368.902C213.581 375.405 221.389 382.156 229.398 388.661C238.975 396.441 248.711 404.025 258.301 411.789C266.31 418.274 274.204 424.902 282.16 431.453C285.758 434.416 289.128 437.789 293.111 440.093C294.897 441.127 298.46 440.85 300.331 439.712C330.844 421.157 361.272 402.461 391.599 383.605C418.656 366.783 445.539 349.683 472.551 332.79C489.214 322.369 505.997 312.14 522.668 301.731C524.706 300.459 526.314 298.517 528.247 297.051C529.856 295.831 530.692 292.819 533.871 295.049C537.169 297.362 536.57 299.772 534.812 302.413C525.416 316.527 516.018 330.64 506.53 344.693C500.012 354.347 493.302 363.87 486.818 373.546C486.142 374.555 486.424 376.207 486.262 377.56C487.184 377.113 488.078 376.589 489.034 376.232C496.972 373.264 504.881 370.214 512.874 367.403C539.496 358.04 566.142 348.744 592.808 339.508C594.58 338.895 596.653 338.641 598.489 338.899C599.737 339.075 600.994 340.297 601.851 341.368C602.072 341.644 600.942 343.259 600.189 344.017C589.261 355.007 578.357 366.022 567.315 376.898C555.986 388.057 544.511 399.068 533.103 410.147C521.455 421.458 509.832 432.794 498.147 444.066C495.705 446.422 493.038 448.544 490.225 451.024M406.475 404.774C394.95 413.965 383.46 423.2 371.89 432.334C362.994 439.356 353.984 446.233 345.051 453.208C337.237 459.308 329.349 465.323 321.749 471.681C319.963 473.174 317.983 476.024 318.193 478.029C318.982 485.532 320.597 492.952 321.987 500.388C323.604 509.038 325.369 517.661 326.959 526.316C328.697 535.777 330.297 545.263 331.978 554.735C333.603 563.89 335.267 573.037 336.883 582.194C337.209 584.041 337.399 585.913 337.651 587.774C338.91 586.123 340.277 584.544 341.411 582.811C357.105 558.824 372.759 534.811 388.438 510.814C404.805 485.765 421.189 460.727 437.565 435.683C451.369 414.573 465.029 393.368 479.021 372.383C489.847 356.147 501.102 340.197 512.101 324.075C512.639 323.286 512.546 322.065 512.746 321.045C511.755 321.288 510.661 321.345 509.801 321.823C508.828 322.364 508.074 323.292 507.211 324.035C500.086 330.165 493.134 336.511 485.793 342.369C472.442 353.025 458.825 363.346 445.383 373.888C432.538 383.963 419.775 394.141 406.475 404.774M279.975 552.274C291.342 560.641 302.679 569.051 314.113 577.326C315.678 578.459 317.726 578.924 319.551 579.698C318.538 577.735 317.83 575.522 316.461 573.851C308.077 563.618 299.336 553.674 291.113 543.316C281.109 530.714 271.591 517.728 261.694 505.04C252.629 493.418 243.224 482.061 234.179 470.424C223.33 456.467 212.763 442.29 201.903 428.342C200.638 426.718 198.431 425.443 196.413 424.853C181.086 420.374 165.709 416.069 150.326 411.783C129.855 406.079 109.316 400.608 88.8959 394.725C69.5678 389.157 50.3586 383.176 31.0839 377.42C30.1314 377.136 29.0525 377.275 28.0324 377.216C28.6124 378.069 29.0073 379.192 29.7996 379.734C48.225 392.345 66.7615 404.794 85.1381 417.475C113.668 437.162 142.063 457.044 170.574 476.76C193.875 492.873 217.27 508.852 240.608 524.914C253.581 533.843 266.52 542.819 279.975 552.274M322.975 572.274C323.642 572.999 324.279 573.755 324.983 574.443C325.796 575.238 326.667 575.974 327.513 576.736C327.667 575.634 328.135 574.467 327.924 573.44C326.696 567.474 325.208 561.561 323.996 555.592C321.591 543.747 319.15 531.905 317.017 520.01C314.507 506.016 312.369 491.956 309.891 477.956C309.613 476.387 308.407 474.783 307.22 473.613C304.322 470.758 301.206 468.12 298.136 465.443C285.29 454.243 272.415 443.076 259.579 431.864C253.694 426.723 247.916 421.459 242.017 416.334C229.779 405.701 217.466 395.153 205.236 384.511C199.09 379.164 193.113 373.621 186.959 368.284C175.088 357.988 163.016 347.92 151.27 337.484C141.575 328.87 132.235 319.856 122.717 311.041C122.153 310.519 121.446 310.111 120.74 309.795C119.951 309.441 119.088 309.253 118.257 308.992C118.54 309.797 118.633 310.753 119.135 311.383C129.816 324.797 140.572 338.15 151.252 351.565C162.712 365.96 174.172 380.357 185.515 394.845C197.019 409.539 208.386 424.341 219.803 439.105C227.703 449.321 235.56 459.572 243.484 469.77C251.814 480.49 260.151 491.206 268.578 501.85C276.637 512.03 284.917 522.036 292.918 532.261C303.033 545.19 312.964 558.263 322.975 572.274M557.475 375.774C565.096 368.82 572.736 361.886 580.307 354.878C581.038 354.202 581.343 353.066 581.845 352.144C580.729 352.02 579.436 351.471 578.53 351.849C574.977 353.332 571.668 355.458 568.051 356.718C539.062 366.818 510.013 376.745 481.027 386.852C479.475 387.393 477.966 388.834 477.029 390.249C466.118 406.707 455.377 423.279 444.477 439.746C433.041 457.025 421.418 474.181 409.997 491.47C401.886 503.749 394.083 516.232 385.944 528.492C378.375 539.893 370.522 551.106 362.869 562.452C362.329 563.252 362.399 564.463 362.185 565.483C363.108 565.088 364.275 564.925 364.912 564.257C368.298 560.707 371.39 556.866 374.882 553.428C385.147 543.324 395.546 533.357 405.904 523.348C415.304 514.265 424.739 505.22 434.12 496.118C446.73 483.884 459.301 471.609 471.894 459.356C484.009 447.568 496.151 435.808 508.242 423.996C524.506 408.108 540.733 392.183 557.475 375.774M302.475 452.774C305.309 456.599 308.225 460.366 310.948 464.268C312.944 467.128 315.277 467.396 317.826 465.384C330.895 455.066 343.92 444.693 356.934 434.306C368.709 424.908 380.389 415.389 392.221 406.064C405.634 395.493 419.109 384.999 432.67 374.619C445.796 364.573 459.088 354.742 472.236 344.724C473.359 343.869 473.952 342.318 474.791 341.09C473.32 341.35 471.578 341.188 470.42 341.934C454.094 352.439 437.923 363.188 421.561 373.636C403.537 385.145 385.318 396.346 367.252 407.789C346.259 421.086 325.317 434.464 304.444 447.949C303.206 448.748 302.779 450.803 302.475 452.774M287.975 446.274C284.461 442.759 280.983 439.207 277.39 435.774C276.887 435.292 275.823 435.397 275.018 435.231C275.225 436.133 275.123 437.424 275.689 437.875C279.539 440.94 283.53 443.828 287.975 446.274Z" fill="#000000" fill-rule="nonzero" opacity="1" stroke="none"/>
<path d="M332.725 130.024C347.459 152.758 361.908 175.264 376.471 197.697C378.324 200.55 380.183 202.185 384.81 201.043C399.88 197.324 415.261 194.882 430.48 191.739C442.569 189.243 454.573 186.332 466.656 183.804C478.486 181.33 490.364 179.084 502.234 176.807C503.52 176.56 505.118 176.333 506.175 176.873C507.943 177.776 509.392 179.305 510.975 180.571C509.845 181.935 508.978 183.75 507.542 184.588C499.783 189.117 491.891 193.417 484.031 197.77C476.174 202.12 468.296 206.432 460.444 210.791C459.884 211.102 459.462 211.662 458.975 212.106C459.516 212.328 460.045 212.703 460.601 212.751C468.817 213.451 477.06 213.901 485.248 214.84C491.588 215.568 498.281 215.493 503.6 219.931C507.095 222.847 507.04 224.947 502.816 226.678C494.698 230.006 486.423 232.993 478.086 235.732C454.179 243.588 430.187 251.187 406.268 259.006C386.764 265.383 367.415 272.252 347.795 278.245C340.114 280.591 333.186 283.999 326.236 287.807C322.184 290.028 317.407 286.834 317 282.322C316.246 273.944 316.145 265.474 314.84 257.189C313.41 248.107 311.003 239.172 308.885 230.205C305.305 215.042 301.553 199.919 297.999 184.75C295.752 175.165 293.578 165.555 291.762 155.882C291.453 154.237 292.725 151.824 294.028 150.536C294.739 149.834 297.37 150.252 298.575 151.031C301.78 153.104 304.641 155.702 307.757 157.925C308.113 158.179 309.892 157.346 309.878 157.081C309.363 147.842 308.406 138.618 308.176 129.375C307.993 122.044 308.453 114.67 309.147 107.364C309.302 105.728 311.401 103.488 313.022 103.043C314.206 102.718 316.595 104.538 317.548 105.991C322.679 113.817 327.529 121.827 332.725 130.024M367.475 215.774C370.584 211.924 373.85 208.063 370.458 202.773C359.649 185.92 348.775 169.108 337.968 152.253C332.15 143.178 326.452 134.026 320.617 124.963C319.425 123.113 317.859 121.503 316.466 119.783C316.636 121.909 316.813 124.036 316.97 126.163C317.007 126.66 316.948 127.164 316.979 127.662C317.641 138.048 318.374 148.431 318.959 158.821C319.694 171.869 320.309 184.924 320.975 197.976C321.642 211.027 322.379 224.076 322.952 237.132C323.399 247.318 323.614 257.514 323.999 267.703C324.075 269.733 324.456 271.75 324.696 273.774C325.789 272.046 326.869 270.31 327.983 268.596C328.33 268.062 328.792 267.604 329.161 267.082C335.526 258.058 341.714 248.903 348.296 240.04C354.302 231.954 360.732 224.183 367.475 215.774M440.475 212.774C454.061 205.774 467.655 198.787 481.205 191.718C481.679 191.471 481.916 190.398 481.882 189.729C481.869 189.464 480.749 188.949 480.245 189.058C466.962 191.94 453.711 194.967 440.419 197.805C424.493 201.207 408.486 204.248 392.621 207.909C388.2 208.929 383.011 208.256 379.581 212.605C374.896 218.544 369.796 224.158 365.17 230.141C355.637 242.469 346.249 254.912 336.94 267.411C335.64 269.156 335.125 271.486 334.246 273.545C336.09 272.52 337.934 271.497 339.777 270.471C340.183 270.244 340.582 270.003 340.987 269.774C350.566 264.357 360.148 258.944 369.724 253.523C384.293 245.277 398.882 237.065 413.416 228.758C422.313 223.674 431.125 218.44 440.475 212.774M383.475 258.774C383.711 258.538 383.905 258.178 384.187 258.085C407.937 250.301 431.681 242.502 455.453 234.79C466.028 231.359 476.664 228.115 487.261 224.752C487.882 224.555 488.406 224.052 488.975 223.691C488.517 223.385 488.078 222.845 487.599 222.808C474.198 221.765 460.796 220.72 447.383 219.852C445.959 219.76 444.344 220.54 443.021 221.279C426.247 230.642 409.562 240.164 392.741 249.441C385.451 253.461 377.884 256.978 370.497 260.827C369.792 261.194 369.473 262.304 368.975 263.069C369.731 263.048 370.554 263.217 371.231 262.975C374.999 261.63 378.731 260.185 383.475 258.774M312.475 197.774C311.975 190.343 311.217 182.916 311.075 175.478C310.993 171.215 310.6 167.559 306.266 165.561C305.011 164.982 303.77 164.37 302.523 163.774C302.63 165.229 302.583 166.716 302.868 168.136C304.527 176.404 306.276 184.654 307.972 192.915C309.323 199.5 310.619 206.095 312.007 212.671C312.165 213.42 312.766 214.075 313.161 214.774C313.433 213.951 313.973 213.114 313.931 212.308C313.688 207.626 313.309 202.951 312.475 197.774Z" fill="#000000" fill-rule="nonzero" opacity="1" stroke="none"/>
<path d="M657.975 81.7737C660.975 70.1878 663.868 59.0709 667.064 48.042C667.719 45.7833 669.512 43.8545 670.78 41.7737C672.83 43.2589 675.497 44.3399 676.794 46.319C679.052 49.7637 680.389 53.8009 682.283 57.502C682.759 58.4305 683.886 59.0254 684.713 59.7737C685.134 58.9305 685.55 58.0851 685.976 57.2444C688.975 51.3225 691.897 45.3605 694.998 39.4924C697.892 34.015 700.902 28.595 704.009 23.2361C705.35 20.9251 706.797 18.5482 708.709 16.7442C709.879 15.6393 712.524 14.6382 713.62 15.2307C715.584 16.2934 716.904 17.9628 716.209 21.3155C714.781 28.2115 714.658 35.3765 713.972 42.4284C712.649 56.0382 711.254 69.6413 709.995 83.2569C709.221 91.634 708.74 100.039 707.937 108.413C707.482 113.155 706.466 117.845 706.056 122.589C705.875 124.683 704.374 128.163 709.76 126.027C714.501 124.148 720.143 124.655 725.305 123.672C727.495 123.255 729.839 122.127 731.485 120.631C738.564 114.197 745.369 107.464 752.387 100.962C753.314 100.103 755.732 99.24 756.022 99.5856C757.357 101.176 759.253 103.357 758.998 105.029C758.084 111.02 756.124 116.846 755.101 122.827C754.694 125.212 755.552 127.869 756.085 130.348C757.299 135.991 758.863 141.567 759.844 147.246C760.1 148.729 759.021 150.715 757.985 152.015C757.574 152.531 755.311 152.234 754.405 151.588C747.819 146.884 741.175 142.225 734.944 137.075C731.584 134.298 727.911 134.225 724.434 135.017C720.29 135.96 716.541 138.585 712.407 139.64C708.626 140.605 708.441 143.061 709.044 145.668C712.17 159.173 715.684 172.59 718.757 186.107C722.328 201.821 725.562 217.611 728.999 233.356C729.493 235.617 730.959 237.857 730.792 240.016C730.626 242.164 728.97 244.198 727.968 246.281C726.574 245.549 724.795 245.146 723.848 244.034C715.38 234.092 707.063 224.022 698.689 214.001C698.157 213.364 697.468 212.859 696.938 212.22C694.225 208.954 692.721 208.83 691.554 213.526C690.716 216.896 688.822 220.069 687.033 223.116C685.646 225.48 683.457 225.608 681.959 223.188C678.525 217.64 675.054 212.089 672.072 206.295C663.101 188.867 654.361 171.319 645.511 153.828C645.019 152.857 644.367 151.963 643.753 151.058C641.36 147.532 640.626 144.54 642.689 139.913C645.938 132.63 647.457 124.55 649.465 116.744C652.414 105.283 655.149 93.7665 657.975 81.7737M692.975 195.274C693.564 196.196 694.07 197.186 694.755 198.03C702.145 207.139 709.557 216.23 716.986 225.308C717.711 226.194 718.589 226.955 719.395 227.774C719.539 226.557 720.037 225.255 719.767 224.138C718.273 217.948 716.48 211.829 714.995 205.637C709.942 184.563 704.836 163.499 700.148 142.344C699.551 139.647 698.617 139.538 696.797 139.8C689.58 140.838 682.36 141.871 675.177 143.111C669.305 144.125 663.511 145.602 657.63 146.54C654.449 147.048 653.97 147.922 656.059 150.388C661.058 156.292 666.01 162.238 670.909 168.224C678.13 177.048 685.29 185.921 692.975 195.274M691.975 63.2736C689.739 67.5093 687.521 71.7542 685.265 75.9792C674.564 96.0239 663.835 116.054 653.204 136.136C652.743 137.007 653.153 138.339 653.157 139.456C654.141 139.228 655.147 139.069 656.103 138.759C658.008 138.141 659.836 137.151 661.781 136.822C672.23 135.053 682.73 133.578 693.151 131.668C695.493 131.238 697.877 130.11 698.067 126.627C698.408 120.392 699.418 114.197 699.952 107.967C701.03 95.4008 701.966 82.8221 702.98 70.2498C703.304 66.2322 703.559 62.2027 704.073 58.208C704.945 51.4393 706.042 44.6997 706.928 37.9326C707.06 36.9221 706.559 35.8287 706.351 34.7737C705.559 35.6068 704.501 36.3092 704.018 37.2937C699.944 45.5911 695.975 53.9401 691.975 63.2736M663.975 101.274C667.642 93.7993 670.629 85.88 675.157 78.9698C680.162 71.3317 678.115 64.778 674.524 57.8736C674.266 57.3781 673.524 57.1344 673.007 56.7737C672.663 57.3599 672.166 57.9055 671.998 58.5385C668.302 72.5001 664.597 86.4599 661.025 100.454C660.51 102.472 660.669 104.663 660.516 106.774C661.669 105.274 662.822 103.774 663.975 101.274M662.975 172.274C668.975 183.612 674.973 194.953 680.978 206.289C681.951 208.126 682.959 209.946 683.951 211.774C684.293 210.019 684.617 208.26 684.992 206.512C685.053 206.228 685.325 205.983 685.517 205.734C688.461 201.925 685.887 198.991 683.81 196.167C679.565 190.395 675.239 184.673 670.726 179.11C668.57 176.453 665.908 174.206 662.975 172.274M741.975 120.274C741.019 121.651 740.063 123.028 739.107 124.405C740.727 124.195 742.769 124.522 743.877 123.656C745.871 122.097 747.428 119.906 748.898 117.793C749.313 117.196 748.792 115.948 748.701 114.999C747.789 115.427 746.75 115.7 745.993 116.319C744.726 117.355 743.638 118.61 741.975 120.274M746.975 137.274C748.123 138.107 749.27 138.94 750.418 139.774C750.27 138.341 750.208 136.893 749.944 135.483C749.778 134.594 749.539 133.286 748.933 132.993C746.976 132.047 744.858 131.396 742.747 130.841C742.271 130.715 741.572 131.434 740.975 131.765C742.222 132.848 743.482 133.917 744.711 135.02C745.327 135.573 745.889 136.187 746.975 137.274Z" fill="#000000" fill-rule="nonzero" opacity="1" stroke="none"/>
<path d="M582.725 152.524C572.149 152.774 561.805 152.398 551.5 152.866C537.741 153.492 523.895 153.973 510.291 155.937C480.452 160.246 451.072 166.904 422.569 176.882C414.672 179.646 406.617 182.612 400.786 189.323C400.08 190.135 397.397 190.577 397.251 190.309C396.352 188.654 394.877 185.738 395.503 185.093C398.589 181.912 402.021 178.905 405.788 176.576C420.881 167.243 438.061 163.426 454.887 158.866C467.675 155.4 480.619 152.4 493.63 149.904C502.412 148.22 511.408 147.268 520.348 146.874C542.376 145.902 564.428 145.445 586.469 144.772C596.991 144.45 607.511 144.056 618.035 143.826C619.721 143.789 621.602 144.099 623.065 144.869C624.537 145.645 625.601 147.195 626.843 148.406C624.976 149.528 623.135 151.57 621.239 151.622C610.088 151.93 598.925 151.754 587.766 151.796C586.168 151.802 584.572 152.107 582.725 152.524Z" fill="#000000" fill-rule="nonzero" opacity="1" stroke="none"/>
<path d="M301.725 420.024C300.975 418.481 300.048 417.191 300.04 415.896C299.94 400.177 299.307 384.421 300.141 368.746C301.237 348.123 306.571 328.216 313.051 308.664C313.977 305.87 315.685 302.313 319.541 304.044C323.041 305.614 321.967 308.832 321.064 312.029C317.514 324.584 313.811 337.129 311.091 349.876C306.924 369.396 306.745 389.3 307.016 409.178C307.055 412.043 307.979 414.915 307.857 417.757C307.775 419.658 306.567 421.511 305.863 423.386C304.567 422.348 303.271 421.311 301.725 420.024Z" fill="#000000" fill-rule="nonzero" opacity="1" stroke="none"/>
<path d="M735.225 249.024C737.296 249.594 739.116 250.414 740.936 251.235C740.14 252.39 739.447 254.396 738.526 254.507C737.026 254.687 735.228 253.847 733.9 252.935C733.574 252.711 734.581 250.546 735.225 249.024Z" fill="#000000" fill-rule="nonzero" opacity="1" stroke="none"/>
</g>
</svg>
