<?xml version="1.0" encoding="UTF-8" standalone="no"?>
<!DOCTYPE svg PUBLIC "-//W3C//DTD SVG 1.1//EN" "http://www.w3.org/Graphics/SVG/1.1/DTD/svg11.dtd">
<!-- Created with Vectornator (http://vectornator.io/) -->
<svg height="100%" stroke-miterlimit="10" style="fill-rule:nonzero;clip-rule:evenodd;stroke-linecap:round;stroke-linejoin:round;" version="1.1" viewBox="0 0 216.681 159.084" width="100%" xmlSpace="preserve" xmlns="http://www.w3.org/2000/svg" xmlnsVectornator="http://vectornator.io" xmlnsXlink="http://www.w3.org/1999/xlink">
<defs/>
<clipPath id="ArtboardFrame">
<rect height="159.084" width="216.681" x="0" y="0"/>
</clipPath>
<g clip-path="url(#ArtboardFrame)" id="Untitled" vectornatorLayerName="Untitled">
<path d="M210.876 93.8468C212.908 92.6796 216.485 92.2278 216.681 94.5629C184.822 116.877 151.112 136.548 116.012 153.308C109.774 156.287 103.212 159.235 96.3014 159.078C90.4127 158.943 84.8324 156.558 79.4862 154.085C63.4435 146.666 47.9331 138.096 33.1138 128.463C16.7802 117.845-0.287696 102.921 0.003679 83.442C0.224717 68.665 10.6675 56.0391 21.9959 46.5483C48.2534 24.5499 81.2525 12.5944 113.506 1.05786C117.36-0.3207 122.979-0.932475 124.309 2.93879C102.316 9.85811 80.845 18.4349 60.1378 28.5725C41.6853 37.6063 23.2141 48.4366 11.5323 65.3374C8.84977 69.2183 6.4898 73.6782 6.79418 78.3861C7.20744 84.7783 12.3086 89.7617 17.224 93.869C37.0731 110.455 59.5981 123.832 83.6605 133.324C87.5348 134.852 91.539 136.299 95.7028 136.388C101.67 136.515 107.306 133.862 112.652 131.207C143.572 115.853 173.479 98.4575 202.112 79.1717C205.92 76.6073 211.282 74.0721 214.664 77.1757C182.473 99.4741 148.563 119.288 113.332 136.383C107.592 139.168 101.574 141.939 95.1939 141.927C90.0189 141.917 85.0388 140.069 80.2539 138.098C52.7597 126.772 27.3166 110.489 5.51706 90.266C8.96025 102.831 19.6167 111.957 30.2049 119.547C44.4093 129.73 59.5155 138.655 75.2886 146.183C87.1633 151.85 101.561 156.636 112.97 150.083C145.605 131.337 178.24 112.592 210.876 93.8468Z" fill="#332817" fill-rule="nonzero" opacity="1" stroke="none"/>
<path d="M108.155 89.8714C93.5916 79.9805 79.0284 70.0896 64.4653 60.1987C65.8042 56.801 69.9579 55.6649 73.5492 55.0018C95.8497 50.8844 118.336 47.776 140.918 45.6891C142.149 45.5753 143.549 45.5199 144.441 46.3763C145.988 47.8617 144.67 50.4241 143.326 52.0957C133.342 64.5181 123.358 76.9404 113.373 89.3628C112.857 90.0055 112.291 90.6822 111.501 90.9179C110.341 91.2639 109.156 90.5514 108.155 89.8714M137.693 52.2226C135.796 50.9765 133.318 51.2576 131.072 51.5859C113.417 54.1664 95.7613 56.7469 78.1058 59.3273C76.6047 59.5467 74.9887 59.8225 73.9296 60.9086C85.0217 68.0496 96.1138 75.1906 107.206 82.3315C108.985 83.4771 111.745 84.4418 112.865 82.6459C119.807 71.5074 128.172 61.2569 137.693 52.2226Z" fill="#332817" fill-rule="nonzero" opacity="1" stroke="none"/>
</g>
</svg>
