<?xml version="1.0" encoding="UTF-8" standalone="no"?>
<!DOCTYPE svg PUBLIC "-//W3C//DTD SVG 1.1//EN" "http://www.w3.org/Graphics/SVG/1.1/DTD/svg11.dtd">
<!-- Created with Vectornator (http://vectornator.io/) -->
<svg height="100%" stroke-miterlimit="10" style="fill-rule:nonzero;clip-rule:evenodd;stroke-linecap:round;stroke-linejoin:round;" version="1.1" viewBox="0 0 324.096 216.811" width="100%" xmlSpace="preserve" xmlns="http://www.w3.org/2000/svg" xmlnsVectornator="http://vectornator.io" xmlnsXlink="http://www.w3.org/1999/xlink">
<defs/>
<clipPath id="ArtboardFrame">
<rect height="216.811" width="324.096" x="0" y="0"/>
</clipPath>
<g clip-path="url(#ArtboardFrame)" id="Untitled" vectornatorLayerName="Untitled">
<path d="M236.991 168.888C230.46 166.554 224.471 164.101 218.376 161.95C216.11 161.15 213.937 160.906 211.788 163.398C207.666 168.181 202.818 172.328 198.494 176.948C193.951 181.805 188.433 185.165 182.994 188.866C178.131 192.176 174.294 197.536 171.136 202.685C166.127 210.854 158.976 215.321 149.942 216.702C146.917 217.165 143.246 216.091 140.406 214.658C111.454 200.048 82.9078 184.734 55.5624 167.193C44.2647 159.946 31.9779 154.234 20.0992 147.901C11.2194 143.168 3.64994 137.358 0.605182 127.087C-0.613526 122.975-0.059676 119.393 2.88952 116.582C11.5578 108.32 20.4827 100.328 29.1785 92.0937C30.4716 90.8693 31.9581 88.8479 31.8463 87.3046C31.1484 77.6753 36.1016 71.2227 43.3277 66.1088C56.3134 56.9188 69.2423 47.6234 82.5727 38.9528C95.49 30.551 108.743 22.6363 122.12 14.9815C129.818 10.5761 138.396 10.7032 146.417 14.0527C150.937 15.9402 153.868 15.9625 157.928 12.77C163.381 8.48162 169.525 4.73606 175.916 2.05548C185.641-2.02286 195.249 0.52549 204.455 4.84116C222.312 13.2125 240.261 21.3914 258.036 29.9319C274.306 37.7487 290.47 45.7924 306.528 54.0337C312.896 57.3017 318.657 61.4311 322.061 68.2725C325.787 75.7611 324.047 82.3526 319.671 88.6763C310.165 102.416 300.602 116.116 290.977 129.773C283.06 141.008 275.887 152.936 266.764 163.103C259.242 171.486 248.52 173.335 236.991 168.888M75.4911 48.8878C67.6714 54.5544 59.7819 60.1282 52.0601 65.9251C47.8892 69.0562 42.9417 71.8742 40.211 76.0531C34.4194 84.9163 38.7018 97.8981 47.3364 104.688C57.3621 112.573 67.4778 120.346 77.6623 128.024C90.0852 137.39 102.286 147.105 115.198 155.752C129.036 165.02 143.411 173.533 157.888 181.785C168.697 187.946 181.142 187.496 190.795 177.678C209.722 158.429 228.932 139.46 247.998 120.347C249.121 119.222 250.235 117.974 250.953 116.578C255.92 106.922 252.598 97.3616 243.813 90.2445C239.604 86.8343 235.25 83.6002 230.927 80.3327C218.747 71.1274 206.585 61.8978 194.349 52.7686C181.633 43.2825 169.023 33.6394 156.025 24.5533C144.082 16.2041 133.232 13.5974 120.896 20.9054C116.063 23.7682 111.332 26.8036 106.582 29.805C96.5422 36.1504 86.5204 42.5251 75.4911 48.8878M187.491 4.88778C175.52 4.08234 167.422 11.5062 159.142 18.4122C158.638 18.833 158.848 21.0842 159.484 21.6957C160.791 22.9523 162.51 24.0873 164.245 24.5145C166.516 25.0733 169.262 25.6427 171.264 24.8483C173.684 23.8879 175.629 21.6001 177.622 19.719C181.894 15.686 186.942 14.4744 192.191 16.7241C199.553 19.8795 206.661 23.6375 213.825 27.2404C228.03 34.3834 242.192 41.6123 256.388 48.7723C261.313 51.2559 266.048 57.3917 264.747 60.5226C261.203 69.0511 257.566 77.5674 253.369 85.7837C251.881 88.6976 251.661 90.3494 253.558 93.0986C261.769 104.998 261.334 114.78 250.265 125.232C240.215 134.722 230.675 144.751 220.852 154.483C219.082 156.236 217.861 157.592 221.287 158.691C228.197 160.909 235.092 163.171 242.001 165.393C249.005 167.646 261.58 164.29 265.71 158.564C271.033 151.183 275.859 143.446 281.003 135.932C292.382 119.31 303.911 102.79 315.203 86.1094C320.115 78.8526 320.578 71.8634 313.72 65.5069C308.191 60.3835 301.261 56.5477 294.487 53.0376C277.78 44.3796 260.924 35.988 243.907 27.9558C225.806 19.4117 208.31 9.33183 187.491 4.88778M12.9911 137.388C19.9315 141.554 26.8173 145.815 33.8255 149.865C43.4947 155.452 53.3167 160.775 62.9642 166.398C78.5474 175.481 93.9247 184.923 109.618 193.809C118.744 198.975 128.565 202.925 137.625 208.193C149.046 214.834 158.601 211.014 164.342 204.018C166.878 200.928 169.402 197.816 171.719 194.563C172.484 193.488 172.586 191.939 172.991 190.607C171.8 190.368 170.578 190.228 169.424 189.87C164.553 188.363 159.411 187.372 154.911 185.111C147.428 181.35 140.288 176.878 133.16 172.452C130.645 170.891 128.973 171.295 126.51 172.657C123.592 174.27 120.173 175.359 116.856 175.789C108.469 176.878 101.92 171.534 95.0778 168.184C82.0125 161.787 69.4635 154.322 56.7903 147.141C48.5382 142.465 40.3731 137.625 32.3121 132.628C28.3872 130.195 26.1269 123.113 28.0955 120.338C29.5834 118.24 31.1958 116.175 33.0451 114.401C37.7518 109.883 43.6796 105.741 36.0014 98.9052C35.9186 98.8316 36.0381 98.5663 35.9842 98.4194C34.2046 93.567 33.9693 93.5622 30.1116 97.2429C24.9953 102.125 20.3194 107.704 14.5153 111.577C4.02425 118.577 3.39253 127.798 12.9911 137.388M240.491 45.8878C233.297 42.3605 226.063 38.9123 218.92 35.2852C210.524 31.0223 202.223 26.5743 193.849 22.2679C190.526 20.5592 186.795 19.156 183.407 21.173C180.251 23.0526 177.565 25.8421 175.028 28.5626C174.384 29.2529 174.546 31.916 175.264 32.4682C183.423 38.7432 191.792 44.7435 200.044 50.8989C208.83 57.4528 217.578 64.0596 226.292 70.7094C232.379 75.3543 238.454 80.02 244.382 84.8643C246.561 86.6458 247.542 86.0605 248.55 83.8494C251.998 76.288 255.826 68.8781 258.828 61.1462C259.967 58.2114 258.71 55.0089 255.07 53.3884C250.287 51.2584 245.676 48.7394 240.491 45.8878M47.9911 137.388C50.1676 138.564 52.3315 139.765 54.5227 140.914C72.7156 150.45 90.8039 160.199 109.211 169.303C112.541 170.95 117.184 170.05 121.222 170.074C122.142 170.079 123.068 169.039 123.991 168.48C123.23 167.616 122.608 166.547 121.687 165.92C113.387 160.267 104.72 155.102 96.763 149.008C80.3814 136.463 64.3758 123.427 48.198 110.615C46.7312 109.454 45.3526 108.649 43.6238 110.658C41.2416 113.427 38.4647 115.853 35.9128 118.48C31.7306 122.785 31.9062 126.488 36.8209 130.129C40.1945 132.629 43.9218 134.652 47.9911 137.388Z" fill="#b6b2abb3" fill-rule="nonzero" opacity="1" stroke="none"/>
<path d="M207.991 89.8878C198.281 105.948 186.743 119.93 171.675 130.569C164.305 135.772 156.625 140.693 148.587 144.755C137.339 150.439 127.076 145.305 117.49 139.738C106.161 133.158 95.0687 126.128 84.2047 118.802C76.176 113.388 68.3823 107.532 61.0367 101.229C55.2913 96.2985 53.3683 89.2982 56.2206 85.3674C58.8284 81.7736 62.1475 78.5141 65.6906 75.812C81.3393 63.8772 97.0628 52.0315 113.019 40.5133C118.656 36.4443 124.878 33.0913 131.115 29.9752C137.26 26.905 142.92 29.4758 147.803 33.282C162.441 44.6915 176.892 56.339 191.468 67.8289C195.071 70.6693 198.839 73.3035 202.582 75.9618C207.48 79.4408 209.692 84.836 207.991 89.8878M177.991 63.3878C167.544 55.2211 156.919 47.2679 146.727 38.794C141.929 34.8042 137.192 32.2438 131.175 34.9665C127.794 36.4968 124.703 38.7203 121.599 40.8075C102.467 53.6747 83.177 66.3024 66.1701 82.0699C59.6689 88.0974 58.7759 92.9096 65.6524 98.893C81.9742 113.095 100.273 124.498 119.229 134.808C124.477 137.663 130.058 140.64 135.822 141.653C146.476 143.525 154.703 136.808 162.89 131.358C173.617 124.217 183.078 115.528 191 105.313C194.866 100.328 198.573 95.1831 201.907 89.8329C204.055 86.3857 203.622 83.1427 199.509 80.7616C196.891 79.2459 194.836 76.7821 192.436 74.8581C187.822 71.1583 183.143 67.5399 177.991 63.3878Z" fill="#b6b2abb3" fill-rule="nonzero" opacity="1" stroke="none"/>
</g>
</svg>
