<?xml version="1.0" encoding="UTF-8" standalone="no"?>
<!DOCTYPE svg PUBLIC "-//W3C//DTD SVG 1.1//EN" "http://www.w3.org/Graphics/SVG/1.1/DTD/svg11.dtd">
<!-- Created with Vectornator (http://vectornator.io/) -->
<svg height="100%" stroke-miterlimit="10" style="fill-rule:nonzero;clip-rule:evenodd;stroke-linecap:round;stroke-linejoin:round;" version="1.1" viewBox="0 0 340.091 212.205" width="100%" xmlSpace="preserve" xmlns="http://www.w3.org/2000/svg" xmlnsVectornator="http://vectornator.io" xmlnsXlink="http://www.w3.org/1999/xlink">
<defs/>
<clipPath id="ArtboardFrame">
<rect height="212.205" width="340.091" x="0" y="0"/>
</clipPath>
<g clip-path="url(#ArtboardFrame)" id="Untitled" vectornatorLayerName="Untitled">
<path d="M58.24 102.379C53.775 98.209 49.7821 93.0966 48.7795 87.0698C46.6543 74.2946 58.1327 63.6502 68.803 56.3107C98.9722 35.5588 134.206 18.8555 170.737 21.3543C183.666 22.2387 196.306 25.507 208.754 29.1107C234.205 36.4792 259.231 45.3156 283.666 55.5613C293.119 59.525 304.04 66.0129 303.724 76.2585C303.575 81.0894 300.796 85.3958 298.064 89.3828C289.832 101.397 281.15 113.104 272.043 124.469C262.553 136.313 251.489 148.47 236.629 151.557C228.097 153.33 219.258 151.864 210.694 150.253C178.216 144.143 146.165 135.971 114.203 127.57C94.202 122.313 73.3535 116.495 58.24 102.379M55.0534 83.4187C54.7188 91.0368 60.4308 97.5863 66.59 102.082C77.5648 110.093 90.7747 114.345 103.814 118.164C136.053 127.605 168.804 135.175 201.533 142.74C214.92 145.834 229.315 148.864 242.062 143.739C252.467 139.555 260.065 130.573 267.014 121.771C276.192 110.144 285.02 98.2422 293.483 86.0853C295.679 82.9314 297.936 79.493 297.915 75.6503C297.874 68.289 289.993 63.8175 283.184 61.0208C256.242 49.9555 228.643 40.4882 200.582 32.6851C189.307 29.5497 177.844 26.6661 166.146 26.3073C147.032 25.7212 128.356 31.8977 110.757 39.3792C94.1694 46.4306 77.881 54.8643 64.6577 67.112C59.9058 71.5133 55.3376 76.9479 55.0534 83.4187Z" fill="#c0a483b3" fill-rule="nonzero" opacity="1" stroke="none"/>
<path d="M61.3317 27.403C87.6053 13.1638 115.945 0.842297 145.818 0.042025C168.44-0.56398 190.678 5.47637 212.295 12.1724C242.717 21.5961 272.704 32.4237 302.129 44.6092C315.213 50.0276 329.129 56.5547 335.801 69.0461C339.612 76.1796 340.573 84.5629 339.886 92.6211C337.854 116.461 322.572 136.805 307.883 155.692C298.411 167.872 288.91 180.084 278.062 191.057C269.948 199.264 260.751 206.946 249.693 210.249C236.314 214.244 221.952 211.373 208.338 208.268C161.588 197.602 115.42 184.383 70.1085 168.69C55.4339 163.608 40.6639 158.172 27.9039 149.32C15.144 140.468 4.4209 127.723 1.09784 112.553C-2.90531 94.2779 4.44819 74.9207 16.5137 60.6234C28.5792 46.3261 44.8839 36.3171 61.3317 27.403M19.6134 100.827C35.1278 121.016 61.2869 129.192 85.7508 136.249C123.847 147.24 161.943 158.23 200.04 169.221C216.292 173.909 233.792 178.586 249.798 173.116C265.056 167.902 275.811 154.523 285.696 141.784C297.932 126.015 310.169 110.245 322.405 94.4755C325.558 90.4129 328.82 86.1005 329.553 81.0109C331.382 68.3162 317.597 59.4913 305.809 54.4364C271.806 39.8554 236.969 27.2204 201.525 16.614C186.882 12.2323 171.996 8.17261 156.736 7.32609C120.236 5.30146 85.3303 21.7033 53.8488 40.2833C42.7812 46.8152 31.7614 53.7819 23.0279 63.2097C17.095 69.6142 12.1099 77.8758 13.071 86.5529C13.6546 91.8211 16.3837 96.6241 19.6134 100.827M243.919 181.175C229.48 183.772 214.706 180.352 200.479 176.776C158.269 166.165 116.451 153.996 75.1387 140.303C49.7373 131.883 22.5917 121.381 8.5537 98.598C6.40469 114.466 15.3239 130.232 27.679 140.418C40.0341 150.605 55.4408 156.214 70.5953 161.387C115.189 176.609 160.519 189.672 206.374 200.515C220.154 203.774 234.715 206.816 248.284 202.769C265.217 197.719 277.018 182.809 287.677 168.716C296.964 156.439 306.25 144.162 315.537 131.884C320.863 124.844 326.262 117.671 329.329 109.393C331.034 104.793 331.984 99.9139 332.129 95.0101C317.137 109.776 306.792 128.506 294.019 145.229C281.247 161.952 264.629 177.451 243.919 181.175Z" fill="#c0a483b3" fill-rule="nonzero" opacity="1" stroke="none"/>
</g>
</svg>
