<?xml version="1.0" encoding="UTF-8" standalone="no"?>
<!DOCTYPE svg PUBLIC "-//W3C//DTD SVG 1.1//EN" "http://www.w3.org/Graphics/SVG/1.1/DTD/svg11.dtd">
<!-- Created with Vectornator (http://vectornator.io/) -->
<svg height="100%" stroke-miterlimit="10" style="fill-rule:nonzero;clip-rule:evenodd;stroke-linecap:round;stroke-linejoin:round;" version="1.1" viewBox="0 0 465.532 427.977" width="100%" xmlSpace="preserve" xmlns="http://www.w3.org/2000/svg" xmlnsVectornator="http://vectornator.io" xmlnsXlink="http://www.w3.org/1999/xlink">
<defs/>
<clipPath id="ArtboardFrame">
<rect height="427.977" width="465.532" x="0" y="0"/>
</clipPath>
<g clip-path="url(#ArtboardFrame)" id="Untitled" vectornatorLayerName="Untitled">
<path d="M344.073 399.895C342.081 398.654 340.32 396.258 341.233 394.096C342.093 392.062 345.387 391.728 346.637 393.548C347.887 395.369 346.393 398.323 344.186 398.395L344.073 399.895Z" fill="#b6b2abb3" fill-rule="nonzero" opacity="1" stroke="none"/>
<path d="M0.354906 223.158C2.72249 206.033 15.8469 192.698 28.0565 180.46C71.7143 136.7 113.53 88.3651 133.214 29.7691C137.674 16.4935 153.139 10.9074 166.82 7.91732C215.251-2.66692 265.971-2.63861 314.389 7.99969C321.86 9.64114 329.454 11.6093 335.765 15.9314C345.202 22.3946 350.511 33.1639 356.633 42.826C376.296 73.8617 406.9 96.0913 437.114 116.994C448.668 124.987 461.122 134.069 464.592 147.682C468.068 161.316 461.371 175.459 453.227 186.932C443.845 200.151 431.227 212.383 415.302 215.407C399.376 218.431 380.409 208.647 378.464 192.554C377.916 188.021 372.151 185.672 367.806 187.076C363.461 188.48 360.426 192.354 357.979 196.209C344.137 218.017 340.685 244.83 340.626 270.659C340.567 296.489 343.546 322.382 341.107 348.096C339.442 365.657 334.85 383.746 323.087 396.892C310.924 410.486 292.768 416.993 275.001 421.126C241.27 428.974 205.989 430.096 171.828 424.407C154.533 421.527 136.058 415.934 126.08 401.517C116.062 387.042 117.384 367.812 119.612 350.35C124.537 311.75 131.919 273.465 141.699 235.801C144.015 226.884 130.243 221.399 122.411 226.252C114.579 231.105 111.32 240.605 106.637 248.539C90.4399 275.987 50.1258 285.546 23.3293 268.293C8.33965 258.642-2.08673 240.818 0.354906 223.158M135.575 294.865C130.337 316.552 127.119 338.726 125.976 361.007C125.273 374.711 125.795 389.737 134.664 400.208C142.193 409.096 154.141 412.724 165.546 415.094C203.331 422.946 242.982 421.664 280.181 411.387C294.636 407.393 309.367 401.626 319.111 390.227C328.649 379.069 332.131 363.979 333.599 349.374C336.242 323.087 333.381 296.589 333.453 270.17C333.524 243.751 336.855 216.386 350.545 193.79C353.807 188.404 357.834 183.176 363.468 180.363C369.102 177.551 376.659 177.801 380.975 182.386C384.534 186.167 385.147 191.797 387.557 196.396C392.816 206.43 406.289 209.914 417.173 206.773C428.058 203.632 436.701 195.393 443.944 186.682C453.474 175.222 461.733 159.82 456.241 145.964C452.758 137.178 444.552 131.322 436.788 125.93C399.628 100.121 361.829 71.8643 341.17 31.6126C336.957 23.4036 324.681 26.3254 316.327 30.2421C274.164 50.0088 229.031 65.4252 182.478 66.56C164.852 66.9897 144.395 63.7136 135.512 48.4838C106.574 104.885 67.3471 155.986 20.3411 198.517C7.29125 210.325 4.74518 231.562 13.3534 246.912C21.9617 262.261 40.2524 271.089 57.8093 269.875C75.3661 268.661 91.6626 258.149 101.465 243.533C106.461 236.085 110.017 227.514 116.51 221.328C123.004 215.142 134.02 212.219 140.804 218.085C145.677 222.299 146.672 229.416 146.673 235.858C146.674 255.928 140.287 275.356 135.575 294.865M324.691 18.5829C277.875 6.4249 228.396 4.64191 180.827 13.3988C171.228 15.1658 161.656 17.3715 152.631 21.087C147.943 23.0173 143.143 25.6096 140.747 30.0781C137.439 36.2456 139.956 44.3144 145.023 49.1414C150.09 53.9685 157.113 56.1421 163.997 57.4051C186.692 61.5694 210.074 57.452 232.444 51.7953C264.178 43.7704 295.124 32.6288 324.691 18.5829Z" fill="#b6b2abb3" fill-rule="nonzero" opacity="1" stroke="none"/>
<path d="M184.154 133.271C182.147 131.38 183.302 127.723 185.647 126.274C187.992 124.825 190.94 124.926 193.694 125.045C229.512 126.599 265.539 123.288 300.474 115.232C303.657 114.497 307.219 113.777 310.016 115.465C314.288 118.044 313.998 124.222 313.216 129.151C305.4 178.412 302.123 228.393 303.441 278.253C303.634 285.553 293.994 288.213 286.7 288.538C249.172 290.209 211.645 291.881 174.118 293.553C172.626 293.619 170.878 293.57 169.995 292.366C169.383 291.53 169.408 290.404 169.459 289.369C171.784 242.446 174.109 195.524 176.433 148.601C176.573 145.777 177.434 142.142 180.247 141.863C183.558 152.62 184.028 164.238 181.596 175.228C197.83 172.238 213.163 164.513 225.227 153.246C232.356 146.587 239.87 140.34 247.718 134.545C228.134 134.532 208.551 134.519 188.968 134.506C187.268 134.505 185.39 134.436 184.154 133.271M187.365 182.072C185.39 183.195 183.368 184.507 182.354 186.54C181.564 188.126 181.486 189.958 181.423 191.728C180.994 203.755 180.565 215.781 180.136 227.807C183.111 225.445 186.086 223.083 189.061 220.721C195.55 215.568 202.142 210.354 209.767 207.113C218.237 203.513 227.795 202.525 236.821 204.317C256.327 208.189 271.675 224.166 291.103 228.41C292.045 228.616 293.083 228.78 293.929 228.319C295.167 227.644 295.411 226.003 295.511 224.597C296.363 212.697 297.215 200.798 298.067 188.898C288.382 187.79 278.811 185.693 269.55 182.65C261.011 179.843 252.72 176.231 243.984 174.115C225.015 169.52 204.333 172.427 187.365 182.072M208.265 283.502C221.781 282.987 235.297 282.472 248.812 281.957C251.174 281.867 253.648 281.745 255.676 280.531C257.945 279.173 259.256 276.691 260.409 274.31C266.547 261.64 271.391 248.344 274.841 234.695C275.099 233.672 275.263 232.381 274.416 231.752C265.274 224.963 255.087 219.585 244.325 215.866C237.348 240.651 224.955 263.896 208.265 283.502M185.735 232.082C184.051 233.547 182.358 235.108 181.416 237.131C180.622 238.84 180.422 240.756 180.233 242.631C178.744 257.398 177.255 272.164 175.767 286.93C191.55 287.789 207.388 278.117 213.832 263.683C214.145 262.982 214.43 262.135 214.026 261.483C206.379 249.141 201.915 234.845 201.182 220.345C195.781 223.91 190.617 227.834 185.735 232.082M258.14 159.616C268.69 151.454 282.491 147.623 295.739 149.179C297.353 149.369 299.108 149.608 300.505 148.778C302.406 147.648 302.788 145.109 302.97 142.906C303.388 137.846 303.806 132.787 304.224 127.728C304.274 127.118 304.318 126.472 304.044 125.925C303.332 124.507 301.256 124.782 299.747 125.271C272.198 134.203 243.603 143.751 222.858 163.96C229.78 164.377 236.702 164.795 243.624 165.213C245.542 165.328 247.493 165.442 249.363 164.999C252.732 164.203 255.401 161.734 258.14 159.616M294.104 279.946C296.339 278.429 296.476 275.246 296.382 272.546C296.105 264.592 295.828 256.638 295.551 248.684C295.438 245.456 295.293 242.101 293.785 239.246C292.276 236.39 288.972 234.206 285.858 235.064C282.16 236.084 280.714 240.441 279.715 244.145C276.151 257.356 270.981 270.132 264.355 282.103C272.855 281.714 281.355 281.325 289.855 280.935C291.328 280.868 292.884 280.774 294.104 279.946M209.451 216.705C208.656 217.913 208.582 219.443 208.582 220.889C208.586 233.463 212.448 246.011 219.515 256.411C223.401 248.619 227.286 240.827 231.171 233.036C233.297 228.771 235.482 224.206 234.972 219.468C234.462 214.73 230.025 210.102 225.403 211.261C221.772 212.171 218.141 213.082 214.51 213.992C212.607 214.469 210.529 215.067 209.451 216.705M286.652 160.578C286.751 159.368 286.762 157.942 285.802 157.2C285.007 156.585 283.882 156.72 282.895 156.909C273.149 158.779 263.871 163.037 256.098 169.207C263.897 171.871 271.695 174.535 279.493 177.198C281.152 177.765 283.208 178.255 284.476 177.045C285.321 176.239 285.468 174.964 285.564 173.8C285.926 169.393 286.289 164.985 286.652 160.578M300.759 165.684C300.954 163.464 301.115 161.08 299.992 159.154C298.869 157.229 295.917 156.243 294.371 157.849C292.874 164.756 292.373 171.878 292.889 178.927C294.055 180.688 296.977 180.266 298.346 178.657C299.714 177.048 299.958 174.796 300.143 172.693C300.348 170.357 300.554 168.02 300.759 165.684M253.672 134.362C256.228 134.617 258.875 133.75 260.785 132.032C258.644 131.478 256.402 131.324 254.206 131.58C253.718 132.292 253.545 133.212 253.742 134.053L253.672 134.362Z" fill="#b6b2abb3" fill-rule="nonzero" opacity="1" stroke="none"/>
</g>
</svg>
