<?xml version="1.0" encoding="UTF-8" standalone="no"?>
<!DOCTYPE svg PUBLIC "-//W3C//DTD SVG 1.1//EN" "http://www.w3.org/Graphics/SVG/1.1/DTD/svg11.dtd">
<!-- Created with Vectornator (http://vectornator.io/) -->
<svg height="100%" stroke-miterlimit="10" style="fill-rule:nonzero;clip-rule:evenodd;stroke-linecap:round;stroke-linejoin:round;" version="1.1" viewBox="0 0 465.199 426.962" width="100%" xmlSpace="preserve" xmlns="http://www.w3.org/2000/svg" xmlnsVectornator="http://vectornator.io" xmlnsXlink="http://www.w3.org/1999/xlink">
<defs/>
<clipPath id="ArtboardFrame">
<rect height="426.962" width="465.199" x="0" y="0"/>
</clipPath>
<g clip-path="url(#ArtboardFrame)" id="Untitled" vectornatorLayerName="Untitled">
<path d="M343.825 398.214C346.116 397.911 347.424 394.747 346.016 392.914C344.607 391.082 341.214 391.531 340.331 393.667C339.448 395.803 341.533 398.517 343.825 398.214Z" fill="#000000" fill-rule="nonzero" opacity="1" stroke="none"/>
<path d="M134.115 26.9468C138.629 16.0997 151.373 11.6151 162.813 8.93826C214.767-3.2187 269.581-2.9703 321.423 9.65703C327.248 11.0757 333.188 12.72 338.006 16.2868C344.439 21.0493 348.058 28.5898 352.043 35.5313C372.504 71.1726 407.094 96.0697 440.862 119.494C449.989 125.826 459.654 132.786 463.468 143.219C468.288 156.401 462.286 171.03 454.759 182.876C445.792 196.99 433.448 210.27 417.201 214.225C400.953 218.181 380.889 209.065 378.097 192.577C377.213 187.355 370.289 185.065 365.402 187.11C360.515 189.154 357.425 193.97 355.016 198.688C332.74 242.312 343.9 294.606 341.014 343.504C340.072 359.45 337.344 375.9 328.372 389.116C314.752 409.176 289.64 417.838 265.79 422.21C237.338 427.425 208.104 428.356 179.378 424.96C158.072 422.441 134.712 415.947 123.704 397.531C114.787 382.611 116.448 363.882 118.812 346.662C124.016 308.764 131.241 271.144 140.447 234.015C142.443 225.964 130.385 220.746 123.127 224.762C115.869 228.778 112.512 237.167 108.35 244.342C97.8418 262.456 78.5239 275.608 57.6348 277.081C36.7457 278.553 15.0648 267.532 5.32544 248.993C-4.41388 230.455-0.607932 205.334 15.213 191.614C66.8205 146.862 107.87 90.0126 134.115 26.9468M131.503 214.136C138.354 214.773 143.723 220.864 145.608 227.482C147.494 234.1 146.593 241.162 145.462 247.95C138.66 288.775 124.013 328.817 125.57 370.176C125.882 378.481 126.935 387.022 131.034 394.252C139.258 408.756 157.238 414.249 173.702 416.882C204.951 421.878 237.109 421.133 268.093 414.696C287.779 410.606 308.307 403.314 320.118 387.041C328.212 375.889 331.182 361.833 332.458 348.111C334.833 322.593 332.052 296.905 331.951 271.276C331.85 245.648 334.698 219.16 347.244 196.812C351.044 190.043 356.026 183.472 363.139 180.363C370.253 177.254 379.849 178.789 383.832 185.452C385.838 188.808 386.189 192.897 387.785 196.468C391.421 204.607 401.224 208.688 410.096 207.82C418.967 206.953 426.957 202.061 433.82 196.372C444.25 187.725 453.141 176.393 455.731 163.095C458.321 149.796 453.309 134.494 441.549 127.768C401.293 104.748 366.606 72.0676 341.229 33.2543C337.909 28.1759 332.375 22.2296 326.934 24.9152C291.335 42.4871 253.368 55.252 214.384 62.7553C186.639 68.0953 153.855 69.2207 134.581 48.5629C108.553 99.6858 73.8071 146.356 32.2953 185.951C21.3577 196.383 9.2496 207.605 7.11885 222.569C4.42321 241.501 19.7171 259.273 37.6251 265.979C53.3261 271.858 72.294 270.8 85.3603 260.294C98.8227 249.471 104.041 230.892 117.229 219.735C121.237 216.344 126.275 213.65 131.503 214.136M149.478 20.433C138.423 23.7871 137.385 40.7538 145.442 49.0329C153.499 57.3121 166.151 58.805 177.704 58.7844C228.899 58.693 277.727 38.6918 324.764 18.4809C267.724 2.55342 206.149 3.23919 149.478 20.433Z" fill="#000000" fill-rule="nonzero" opacity="1" stroke="none"/>
</g>
</svg>
